<?xml version="1.0" encoding="UTF-8" standalone="no"?>
<!-- Created with Inkscape (http://www.inkscape.org/) -->

<svg
   xmlns:dc="http://purl.org/dc/elements/1.1/"
   xmlns:cc="http://creativecommons.org/ns#"
   xmlns:rdf="http://www.w3.org/1999/02/22-rdf-syntax-ns#"
   xmlns:svg="http://www.w3.org/2000/svg"
   xmlns="http://www.w3.org/2000/svg"
   xmlns:sodipodi="http://sodipodi.sourceforge.net/DTD/sodipodi-0.dtd"
   xmlns:inkscape="http://www.inkscape.org/namespaces/inkscape"
   width="400"
   height="600"
   id="svg3638"
   version="1.1"
   inkscape:version="0.48.4 r9939"
   sodipodi:docname="une tornade.svg">
  <defs
     id="defs3640" />
  <sodipodi:namedview
     id="base"
     pagecolor="#ffffff"
     bordercolor="#666666"
     borderopacity="1.0"
     inkscape:pageopacity="0.0"
     inkscape:pageshadow="2"
     inkscape:zoom="0.35"
     inkscape:cx="350"
     inkscape:cy="520"
     inkscape:document-units="px"
     inkscape:current-layer="layer1"
     showgrid="false"
     inkscape:window-width="746"
     inkscape:window-height="779"
     inkscape:window-x="0"
     inkscape:window-y="19"
     inkscape:window-maximized="0" />
  <metadata
     id="metadata3643">
    <rdf:RDF>
      <cc:Work
         rdf:about="">
        <dc:format>image/svg+xml</dc:format>
        <dc:type
           rdf:resource="http://purl.org/dc/dcmitype/StillImage" />
        <dc:title></dc:title>
      </cc:Work>
    </rdf:RDF>
  </metadata>
  <g
     inkscape:label="Ebene 1"
     inkscape:groupmode="layer"
     id="layer1"
     transform="translate(0,-452.36218)">
    <g
       id="g3833"
       transform="matrix(1.9002592,0,0,1.9002592,54.882265,-437.28393)">
      <path
         style="fill:#b7c7de"
         inkscape:connector-curvature="0"
         d="m 15.5544,560.57771 c 50.27,-30.5265 98.235,-18.3885 105.715,-14.2855 -39.084995,-1.99085 -78.135,3.3647 -111.07,29.2855 0.5718,-4.35205 0.83315,-8.4525 5.357,-15 z"
         id="path3040" />
      <path
         style="fill:#929eb4"
         inkscape:connector-curvature="0"
         d="m -6.2306005,518.43271 c -0.88135,-3.8725 -5.5464995,-2.27915 1.42855,-17.5 26.3960005,-26.9155 144.2050005,-32.7585 159.6450005,-10 6.7215,6.663 6.1355,13.813 -1.42855,21.4285 7.8325,7.4555 12.0595,22.737 -3.92855,30.7145 7.3955,9.469 8.135,16.82 -5.357,19.643 -1.0098,16.1175 -1.23495,24.6275 -17.5,27.143 2.9119,16.3005 -6.902,22.325 -11.4285,25 4.39,7.1795 14.3085,6.6605 -0.35715,21.7855 16.994,3.6351 23.164,12.0445 11.4285,21.7855 7.621,2.6223 17.188,9.958 10,20.7145 13.3505,8.224 7.943,15.712 -1.7857,17.857 -0.19403,2.30595 0.5035,5.5035 -1.42855,6.0715 4.18955,8.9715 -8.112,13.6935 -13.2145,13.9285 l -1.7857,2.85715 c -5.396,14.8745 -7.721,11.327 -11.4285,16.0715 -4.4209,6.615 -0.7586,9.189 0,13.2145 -4.5143,-2.5405 -10.523495,-1.8423 -9.642995,-16.0715 -4.1748,-3.78245 -9.6395,-7.049 4.642845,-18.2145 -2.693945,-8.597 6.679,-11.6245 16.0715,-14.643 -6.8515,-5.9295 -6.0715,-13.2465 -2.5,-21.0715 -9.677,-5.527 -22.400495,-0.37982 -21.785495,-20.357 -1.3326,-6.202 -31.171,4.0786 -33.2145,-33.2145 -5.9005,1.4431 -27.721,-0.3007 -15.357,-18.9285 -8.9555,-7.2365 -25.5145,-2.52515 -22.5,-28.5715 -3.95085,-3.76765 -19.3125005,7.479 -7.143,-17.5 0.18586,-2.82525 -27.958,4.9222 -8.5715005,-26.0715 -12.133,-0.6487 -23.9899995,-1.46315 -12.857,-16.0715 z"
         id="path2996" />
      <path
         style="fill:#6a737a"
         inkscape:connector-curvature="0"
         d="m 93.054405,658.07771 c 9.636995,-7.553 19.974495,-14.2435 35.714495,-14.2855 -14.285,-2.5375 -26.782,2.6751 -38.214495,12.5 z"
         id="path3026" />
      <path
         style="fill:#69717c"
         inkscape:connector-curvature="0"
         d="m 69.1294,648.96771 c 20.648005,-29.022 46.25,-25 46.25,-25 0,0 -25.318495,-5.911 -50.895,19.8215 1.5476,1.5452 3.09525,2.7482 4.64285,5.1785 z"
         id="path3028" />
      <path
         style="fill:#77808f"
         inkscape:connector-curvature="0"
         d="m 60.5544,625.03771 c 25.669505,-24.7915 49.643,-22.3215 49.643,-22.3215 -41.9695,-8.3065 -66.84,18.863 -66.785,18.9285 1.4681,0.21274 6.213,6.402 17.143,3.39285 z"
         id="path3030" />
      <path
         style="fill:#77808f"
         inkscape:connector-curvature="0"
         d="m 36.6294,602.36271 c 13.7705,-14.188 31.006,-18.6615 55.715005,-19.643 -13.559,-4.8566 -62.840005,7.6865 -66.605005,14.4645 2.9109,1.9319 4.84965,4.1416 10.893,5.1785 z"
         id="path3032" />
      <path
         style="fill:#b7c8df"
         inkscape:connector-curvature="0"
         d="M -6.2306005,518.43271 C 18.1729,497.67621 55.6994,490.24721 99.124405,494.50421 c -16.2155,-6.1105 -56.125005,-11.332 -107.5000055,14.2855 -0.637,4.8358 0.40875,7.6525 2.14285,9.643 z"
         id="path3036" />
      <path
         style="fill:#bbd5f0"
         inkscape:connector-curvature="0"
         d="M -0.1556005,552.36271 C 33.8444,517.89921 117.6994,521.64821 117.6994,521.64821 c -4.91765,2.21295 -33.914995,-18.542 -111.7850005,13.9285 -2.272,5.347 -5.933,9.305 -6.0715,16.7855 z"
         id="path3042" />
      <path
         style="fill:#b7c7de"
         inkscape:connector-curvature="0"
         d="m -6.0506005,527.53771 c 53.3000005,-49.095 159.8050005,-19.43 159.2850005,-6.425 -42.58,-27.18 -146.3700005,-10.38 -159.2850005,6.425 z"
         id="path3038" />
      <path
         style="fill:#767f8e"
         inkscape:connector-curvature="0"
         d="m 8.5943995,559.14771 c 9.0260005,-12.0675 25.0725005,-13.307 38.0355005,-17.5 -12.9705,1.00415 -24.696,-2.5565 -43.9285005,15.893 2.5045,1.33655 3.8444,1.70825 5.893,1.60715 z"
         id="path3034" />
      <path
         style="fill:#c3d5e9"
         inkscape:connector-curvature="0"
         d="m 27.3444,485.93271 c -6.204,6.595 -2.2793,7.5625 -0.35714,9.643 -1.5436,2.85715 -8.903,5.7145 1.7857,8.5715 -8.912,7.9025 -8.9445,11.859 -0.7143,12.143 -0.36868,2.7434 -7.25,8.4925 3.5714,6.0715 -3.92015,5.8335 -6.6955,11.6665 2.5,17.5 -0.63545,3.2864 -6.742,8.2825 6.7855,7.143 -5.0455,7.761 -13.593,16.949 6.0715,14.643 -12.3835,25.7 -0.8104,22.881 5.7145,26.0715 -1.4351,5.004 -4.1572,10.78 8.2145,7.5 -2.2139,4.5045 -11.673,8.556 0,13.9285 -0.81595,5.4305 -4.8322,13.1725 10.714505,6.7855 -4.499355,7.7595 -7.756005,14.846 1.7857,15 -0.7143,9.2855 2.85715,13.8095 10.7145,13.5715 1.8785,1.83475 1.54075,4.9359 9.643,3.2143 1.1314,1.73935 -3.38975,4.1068 5.357,5 0.6434,4.2761 -5.513,9.912 3.571445,12.5 0.40061,3.35245 -1.6731,8.6295 6.7855,5.7145 0.28328,4.85055 5.052,4.3185 10,3.5714 -3.8095,9.2855 -3.33335,16.6665 1.42855,22.143 l -3.57145,6.0715 c -4.13935,0.38444 -8.358,0.68985 -7.857,5.7145 -7.112,1.5093 -6.6125,5.302 -4.2857,9.643 -4.36345,1.7177 -10.062995,2.26635 -7.142995,10.357 l 1.0714,13.2145 c 1.151995,-4.31015 0.24415,-12.0535 3.928595,-12.143 -1.26675,-9.9945 4.49775,-7.3325 7.5,-9.643 -0.30727,-3.3884 -3.1056,-7.3305 4.64285,-8.9285 0.0344,-6.36 4.1721,-4.51295 6.7855,-5.7145 5.029,-2.33455 5.5465,-6.6025 3.92855,-11.7855 -5.436,-2.8772 -1.77115,-10.305 0,-16.7855 -3.0558,-3.8552 2.2576,-11.573 -11.7855,-10.357 -0.60575,-3.01235 -3.3316,-5.318 -9.643,-6.4285 9.0195,-7.061 2.92505,-11.4545 -3.92855,-15.7145 -3.452395,-7.1595 -6.904995,-9.1485 -10.356995,-6.7855 2.7056,-5.341 3.9414,-10.596 -9.2855,-15 4.4877,-5.238 11.344,-10.476 -2.5,-15.7145 1.3446,-10.1455 1.61515,-19.11 -6.4285,-18.9285 3.84575,-16.087 -5.510505,-7.2365 -9.285505,-8.9285 4.09615,-3.73555 2.6727,-6.858 -1.7857,-9.643 10.176005,-5.1765 41.2275,-10.707 -0.7143,-15 16.356505,-6.257 20.383505,-12.7945 -5,-20 14.1245,-6.028 31.568005,-11.979 6.0715,-18.9285 15.470005,-4.11925 12.324505,-8.859 -0.7143,-13.9285 13.899005,-4.46095 10.643505,-10.828 7.857,-17.143 l 6.071505,-5.7145 c -17.627005,0.5874 -33.325505,3.10305 -47.143005,7.5 z"
         id="path2998" />
      <path
         style="fill:#bcd6f1"
         inkscape:connector-curvature="0"
         d="m 138.0544,568.78771 c -58.009995,-22.4325 -120.21,7.153 -115.355,8.9285 -0.450385,3.504 -0.7076,6.323 -0.7143,10.7145 28.9105,-16.2305 59.550005,-30.087 116.07,-19.643 z"
         id="path3044" />
      <path
         style="fill:#77808f"
         inkscape:connector-curvature="0"
         d="m 123.0544,478.43271 c 13.0555,5.2805 16.153,28.8525 1.42855,25 36.984,23.922 0,35 0,35 20.28,11.102 25.351,19.8375 2.85715,24.2855 8.936,18.533 -5.667,22.086 -16.7855,27.857 2.5184,8.9465 3.49495,17.974 -11.785495,27.857 11.975495,1.995 20.218495,5.5105 6.785495,17.857 8.973,4.40405 22.937,6.0635 13.9285,20.357 9.531,4.897 15.3055,10.95 12.5,19.643 5.6595,7.911 9.7805,15.4805 -1.42855,19.643 1.92215,11.726 -4.01015,16.311 -12.5,18.5715 -2.27435,5.702 -3.23925,12.713 -10,13.9285 -8.827995,4.478 -6.6735,7.858 -6.4285,11.4285 l 4.0332,8.5065 c -2.0284,-8.2385 -0.8115,-13.1285 4.8954,-15.6495 4.09055,-3.2475 6.032,-10.7935 8.9285,-16.4285 -0.9633,-0.8099 13.7375,0.91115 13.9285,-12.5 0.59525,-2.38095 -0.29019,-6.983 1.7857,-7.143 10.559,-3.1444 13.1905,-9.876 1.11475,-17.5215 6.8525,-8.4255 -2.294,-19.6755 -10.0865,-20.6925 15.7965,-14.5355 -4.77655,-20.3935 -11.385,-21.4285 6.965,-7.201 9.6345,-11.485 0.23087,-22.186 9.779,-5.8645 12.8765,-14.3615 11.555,-24.5995 9.9365,-2.109 17.562,-5.8075 17.4385,-27.143 12.689,-4.17315 11.115,-11.4585 5.4185,-19.643 11.2155,-7.9405 13.195,-18.1045 3.88525,-31.4285 17.479,-21.311 -17.507,-33.058 -30.314,-33.5715 z"
         id="path3000" />
      <path
         style="fill:#6a727d"
         inkscape:connector-curvature="0"
         d="m 153.4144,512.00271 c -14.2545,-6.3175 -28.7245,-12.549 -53.569995,-14.643 16.091995,1.0617 26.914995,-4.2598 57.854995,7.857 -1.80865,4.9226 -2.90235,4.8403 -4.2857,6.7855 z"
         id="path3002" />
      <path
         style="fill:#69717a"
         inkscape:connector-curvature="0"
         d="m 149.4844,543.43271 c -48.103,-22.552 -73.544995,-14.392 -98.93,-7.5 64.83,-10.355 82.355,5.9645 103.93,20 -1e-4,-3.7963 -0.7565,-7.7605 -5,-12.5 z"
         id="path3004" />
      <path
         style="fill:#667079"
         inkscape:connector-curvature="0"
         d="m 144.4844,562.71771 c -26.9415,-14.716 -43.4375,-8.5415 -62.854995,-8.2145 24.430495,1.075 52.079995,2.5491 62.319995,12.3215 z"
         id="path3006" />
      <path
         style="fill:#616b77"
         inkscape:connector-curvature="0"
         d="m 141.9844,580.57771 c -45.132995,-19.0195 -83.79,-1.7983 -85.715,0.7143 47.6995,-8.6335 65.11,-1.5346 79.645,5.7145 3.3945,-1.11485 4.47165,-3.9677 6.0715,-6.4285 z"
         id="path3008" />
      <path
         style="fill:#68727b"
         inkscape:connector-curvature="0"
         d="m 127.3444,590.93271 c -27.3335,-9.723 -52.419995,-3.0633 -76.43,11.4285 22.530005,-9.024 45.116505,-17.7145 75.535,-2.14285 1.464,-2.31765 0.69675,-6.123 0.89285,-9.2855 z"
         id="path3010" />
      <path
         style="fill:#6a727d"
         inkscape:connector-curvature="0"
         d="m 122.6994,608.43271 c -26.088495,-2.1569 -38.547995,6.76 -49.642995,16.7855 13.983,-4.0251 27.517495,-12.699 44.106995,-8.0355 -5.5875,-2.52545 3.1,-5.8025 5.5355,-8.75 z"
         id="path3012" />
      <path
         style="fill:#69717c"
         inkscape:connector-curvature="0"
         d="m 119.8444,630.57771 c -29.194495,0.62565 -30.366495,10.592 -36.428495,18.9285 9.445,-6.056 15.593,-14.712 32.142995,-14.107 2.5899,-1.60715 2.9648,-3.2143 4.2857,-4.82145 z"
         id="path3014" />
      <path
         style="fill:#69727b"
         inkscape:connector-curvature="0"
         d="m 132.8794,650.03771 c -16.6615,0.7744 -24.165,9.566 -32.3215,16.607 8.8395,-3.36215 16.203,-11.161 25.893,-8.5715 z"
         id="path3016" />
      <path
         style="fill:#667079"
         inkscape:connector-curvature="0"
         d="m 115.0194,679.14771 c 6.6545,-1.1256 7.632,-6.964 19.8215,0 -3.21515,-4.55585 -5.8635,-9.62 -22.5,-2.14285 z"
         id="path3018" />
      <path
         style="fill:#6a737c"
         inkscape:connector-curvature="0"
         d="m 139.1294,682.00271 c -6.0985,-0.58275 -10.4115,1.9588 -14.643,4.64285 9.1665,-1.90475 15.7145,-1.4286 19.643,1.42855 -0.8263,-3.49445 -2.27425,-5.901 -5,-6.0715 z"
         id="path3020" />
      <path
         style="fill:#6a707c"
         inkscape:connector-curvature="0"
         d="m 137.6994,695.57771 c -2.61345,-3.32475 -9.87,-1.42605 -16.0715,-0.7143 4.4116,1.2687 10.633,2.23575 12.5,3.92855 -0.7143,-1.7857 0.47619,-2.85715 3.57145,-3.2143 z"
         id="path3022" />
      <path
         style="fill:#6b747d"
         inkscape:connector-curvature="0"
         d="m 131.6294,710.57771 c -13.056,4.0283 -18.27,0.77465 -25,-1.07145 3.4208,3.5964 9.5685,7.972 10,10.7145 2.6959,-4.36635 9.761,-6.548 15,-9.643 z"
         id="path3024" />
      <path
         style="fill:#6a727d"
         inkscape:connector-curvature="0"
         d="m 11.2694,482.36271 c -36.349,8.474 -25.6825,13.76 -30,17.857 -11.008,-11.428 24.4839995,-16.843 30,-17.857 z"
         id="path3816" />
      <path
         style="fill:#69717a"
         inkscape:connector-curvature="0"
         d="m 92.699405,469.86271 c 23.085995,1.20565 92.679995,-1.494 77.144995,22.857 4.97885,-14.619 -28.046,-20.571 -77.144995,-22.857 z"
         id="path3818" />
      <path
         style="fill:#69717a"
         inkscape:connector-curvature="0"
         d="m -7.3006005,512.36271 c -21.3174995,8.4115 -26.4139995,14.2065 -18.2144995,17.857 -4.55355,-7.9445 8.213,-12.6415 18.2144995,-17.857 z"
         id="path3820" />
      <path
         style="fill:#69717a"
         inkscape:connector-curvature="0"
         d="m 5.9143995,568.43271 c -34.0199995,6.76 -2.56135,-18.716 0,-18.2145 -9.015,9.7335 -20.4734995,20.4605 0,18.2145 z"
         id="path3822" />
      <path
         style="fill:#69717a"
         inkscape:connector-curvature="0"
         d="m 26.9844,583.43271 c -9.709,3.0202 -27.7950005,13.666 -10,13.9285 -10.3000005,6.7805 -19.6885005,-9.2755 10,-13.9285 z"
         id="path3824" />
      <path
         style="fill:#69717a"
         inkscape:connector-curvature="0"
         d="m 47.0244,611.60771 c -8.3605,2.48155 -23.934,11.2285 -8.611,11.4445 -8.869,5.571 -16.9535,-7.6215 8.611,-11.4445 z"
         id="path3826" />
      <path
         style="fill:#69717a"
         inkscape:connector-curvature="0"
         d="m 63.4544,630.17771 c -7.4935,2.066 -21.452,9.3485 -7.718,9.528 -7.9495,4.6382 -15.1955,-6.345 7.718,-9.528 z"
         id="path3839" />
      <path
         style="fill:#69717a"
         inkscape:connector-curvature="0"
         d="m 63.4544,630.17771 c -7.4935,2.066 -21.452,9.3485 -7.718,9.528 -7.9495,4.6382 -15.1955,-6.345 7.718,-9.528 z"
         id="path3841" />
      <path
         style="fill:#69717a"
         inkscape:connector-curvature="0"
         d="m 95.199405,651.64771 c -9.709,3.0202 -27.795005,13.666 -10,13.9285 -10.3,6.7805 -19.688505,-9.2755 10,-13.9285 z"
         id="path3843" />
      <path
         style="fill:#69717a"
         inkscape:connector-curvature="0"
         d="m 118.7694,672.36271 c -9.709,3.0202 -27.794995,13.666 -10,13.9285 -10.299995,6.7805 -19.688495,-9.2755 10,-13.9285 z"
         id="path3845" />
      <path
         style="fill:#69717a"
         inkscape:connector-curvature="0"
         d="m 124.7694,704.78271 c -21.3005,-8.454 -28.982995,-7.716 -25.501495,0.5574 2.115995,-8.909 14.639495,-3.59815 25.501495,-0.5574 z"
         id="path3847" />
      <path
         style="fill:#69717a"
         inkscape:connector-curvature="0"
         d="m 116.9294,650.07771 c 8.9425,-4.83945 29.193,-10.348 16.9525,2.57095 12.046,-2.6362 7.112,-20.569 -16.9525,-2.57095 z"
         id="path3849" />
      <path
         style="fill:#69717a"
         inkscape:connector-curvature="0"
         d="m 125.9494,672.77771 c 8.719,-5.2315 28.705,-11.633 17.05,1.8165 11.9175,-3.1679 6.193,-20.8645 -17.05,-1.8165 z"
         id="path3851" />
      <path
         style="fill:#69717a"
         inkscape:connector-curvature="0"
         d="m 110.3294,621.01771 c 9.095,-4.7795 28.885,-9.814 15.505,3.4136 11.6775,-2.31445 9.706,-21.5595 -15.505,-3.4136 z"
         id="path3853" />
      <path
         style="fill:#69717a"
         inkscape:connector-curvature="0"
         d="m 116.9894,601.40771 c 10.407,-2.59095 32.6615,-3.9903 16.901,4.7164 13.084,-0.30718 12.303,-15.767 -16.901,-4.7164 z"
         id="path3855" />
      <path
         style="fill:#69717a"
         inkscape:connector-curvature="0"
         d="m 128.4094,569.21271 c 13.2855,-1.3127 39.6435,0.9964 17.155,8.8935 15.2415,1.99455 21.9985,-17.2475 -17.155,-8.8935 z"
         id="path3857" />
      <path
         style="fill:#69717a"
         inkscape:connector-curvature="0"
         d="m 151.2244,559.41771 c 45.7135,-22.759 -11.834,-22.2655 -14.473,-19.4715 18.4245,2.45975 40.536,3.8268 14.473,19.4715 z"
         id="path3859" />
      <path
         style="fill:#69717a"
         inkscape:connector-curvature="0"
         d="m 139.7444,509.54271 c 22.8415,-1.8554 29.972,1.09695 24.224,7.9905 0.5818,-9.1385 -12.9475,-7.722 -24.224,-7.9905 z"
         id="path3861" />
      <path
         style="fill:#69717a"
         inkscape:connector-curvature="0"
         d="m 112.4594,712.87271 c 10.057,1.499 29.5585,9.252 12.0135,12.2345 11.216,5.1245 18.0375,-12.179 -12.0135,-12.2345 z"
         id="path3863" />
      <path
         style="fill:#69717a"
         inkscape:connector-curvature="0"
         d="m 107.2694,721.56771 c -16.673495,-8.454 -22.686995,-7.716 -19.961995,0.5574 1.65635,-8.909 11.4595,-3.59815 19.961995,-0.5574 z"
         id="path3865" />
      <path
         style="fill:#69717a"
         inkscape:connector-curvature="0"
         d="m 98.889405,726.08771 c 10.056995,1.499 29.558495,9.252 12.013495,12.2345 11.216,5.1245 18.0375,-12.179 -12.013495,-12.2345 z"
         id="path3867" />
      <path
         style="fill:#ffffff"
         inkscape:connector-curvature="0"
         d="m 28.4644,564.08271 c 17.288,-11.511 42.975005,-16.586 61.115005,-15.405 -17.004,1.1294 -41.332005,6.024 -61.115005,15.405 z"
         id="path3908" />
      <path
         style="fill:#ffffff"
         inkscape:connector-curvature="0"
         d="m 18.3644,545.90271 c 19.0025,-11.511 47.237,-16.586 67.175005,-15.405 -18.690505,1.1294 -45.431005,6.024 -67.175005,15.405 z"
         id="path3910" />
      <path
         style="fill:#ffffff"
         inkscape:connector-curvature="0"
         d="m 16.7294,522.17771 c 20.0925,-9.481 48.701,-11.6045 68.410005,-8.3645 -18.707005,-0.8124 -45.810505,1.28645 -68.410005,8.3645 z"
         id="path3912" />
      <path
         style="fill:#ffffff"
         inkscape:connector-curvature="0"
         d="m 36.0394,590.85271 c 13.716,-11.511 34.096,-16.586 48.487505,-15.405 -13.491,1.1294 -32.792505,6.024 -48.487505,15.405 z"
         id="path3914" />
      <path
         style="fill:#ffffff"
         inkscape:connector-curvature="0"
         d="m 46.1444,613.58271 c 12.573,-11.511 31.254505,-16.586 44.446505,-15.405 -12.3665,1.1294 -30.059505,6.024 -44.446505,15.405 z"
         id="path3916" />
    </g>
  </g>
</svg>
