<?xml version="1.0" encoding="UTF-8" standalone="no"?>
<!-- Created with Inkscape (http://www.inkscape.org/) -->

<svg
   xmlns:dc="http://purl.org/dc/elements/1.1/"
   xmlns:cc="http://creativecommons.org/ns#"
   xmlns:rdf="http://www.w3.org/1999/02/22-rdf-syntax-ns#"
   xmlns:svg="http://www.w3.org/2000/svg"
   xmlns="http://www.w3.org/2000/svg"
   xmlns:sodipodi="http://sodipodi.sourceforge.net/DTD/sodipodi-0.dtd"
   xmlns:inkscape="http://www.inkscape.org/namespaces/inkscape"
   width="2059.3289"
   height="1325.1053"
   id="svg2"
   version="1.1"
   inkscape:version="0.48.4 r9939"
   sodipodi:docname="une voiture.svg">
  <defs
     id="defs4" />
  <sodipodi:namedview
     id="base"
     pagecolor="#ffffff"
     bordercolor="#666666"
     borderopacity="1.0"
     inkscape:pageopacity="0.0"
     inkscape:pageshadow="2"
     inkscape:zoom="0.088388348"
     inkscape:cx="598.85361"
     inkscape:cy="161.29715"
     inkscape:document-units="px"
     inkscape:current-layer="layer1"
     showgrid="false"
     inkscape:window-width="1278"
     inkscape:window-height="779"
     inkscape:window-x="0"
     inkscape:window-y="19"
     inkscape:window-maximized="1"
     showguides="true"
     inkscape:guide-bbox="true"
     inkscape:snap-page="true"
     fit-margin-top="0"
     fit-margin-left="0"
     fit-margin-right="0"
     fit-margin-bottom="0" />
  <metadata
     id="metadata7">
    <rdf:RDF>
      <cc:Work
         rdf:about="">
        <dc:format>image/svg+xml</dc:format>
        <dc:type
           rdf:resource="http://purl.org/dc/dcmitype/StillImage" />
        <dc:title />
      </cc:Work>
    </rdf:RDF>
  </metadata>
  <g
     inkscape:label="Layer 1"
     inkscape:groupmode="layer"
     id="layer1"
     transform="translate(-467.46339,725.2147)">
    <rect
       style="fill:#ffffff;fill-opacity:1;stroke:none"
       id="rect4076"
       width="2979.9211"
       height="2104.7244"
       x="0"
       y="0"
       transform="translate(0,-1052.3622)" />
    <g
       id="g4044"
       transform="matrix(3.2076695,0,0,3.2076695,-189.66653,-2250.3703)">
      <path
         sodipodi:nodetypes="sscssssssccccss"
         inkscape:connector-curvature="0"
         id="path4045"
         d="m 834.46875,636.29895 c -5.14795,0.11988 -25.73192,11.69262 -32.71875,20.125 -5.50352,6.64219 -19.36911,44.74978 -26.875,67.8125 -50.862,-19.54706 -139.978,-49.57903 -173.5625,-44.78125 -43.90453,6.27208 -266.75376,123.93854 -296.02345,124.98388 -29.26969,1.04535 -95.62115,12.01671 -93.00202,26.3931 3.2721,17.96056 61.62226,25.87949 125.58797,42.02927 69.63996,17.5824 132.78602,18.81743 178.78125,11.5 45.99523,-7.31742 62.13962,-8.42459 93.5,-20.96875 31.36038,-12.54415 48.66528,-26.08816 108.25,-54.3125 36.29382,-18.20893 69.89024,-37.39747 104.54109,-58.35487 20.48276,-10.8289 20.06084,-41.11922 21.33391,-60.02013 0.26585,-9.3047 -0.85173,-19.40638 -0.5,-24.96875 0,0 -2.42178,-20.59068 -8.25,-29.09375 -0.17026,-0.2484 -0.52995,-0.35615 -1.0625,-0.34375 z"
         style="fill:#000000;stroke:none" />
      <path
         sodipodi:nodetypes="cccsscssccc"
         inkscape:connector-curvature="0"
         id="path3358"
         d="m 645.48001,778.4233 c 0,0 -4.88696,31.01455 -7.56181,42.15974 -5.71667,18.08263 -25.10249,46.73661 -42.79755,47.25563 -9.80777,0 -44.8957,-4.39673 -63.75051,-10.00409 -4.60228,-1.36871 -9.09146,-5.64576 -12.48261,-12.73211 -4.06839,-8.50154 -7.8364,-16.82618 -7.8364,-16.82618 0,0 15.86094,-49.59918 25.66871,-81.25153 9.80777,-31.65235 38.33946,-82.02863 54.83435,-77.12475 16.49489,4.90389 62.69939,37.00614 62.69939,37.00614 l -5.38742,72.83099 z"
         style="fill:#000000;fill-opacity:1;stroke:none" />
      <path
         sodipodi:nodetypes="cssccccsscccsccccsccsccssscscccc"
         inkscape:connector-curvature="0"
         id="path3000"
         d="m 792.64271,720.63095 c 0,0 -2.42051,7.63903 -8.85773,9.49109 -6.42813,1.84945 -16.23839,4.201 -20.28747,5.93632 -4.04908,1.73532 -115.01397,47.09803 -115.01397,47.09803 0,0 -1.33877,-33.71336 -1.96645,-40.72234 -2.62558,-22.71842 -11.18357,-52.07107 -35.86328,-50.32428 -46.88526,3.39732 -56.07495,74.04125 -71.69266,124.721 -2.31376,5.20596 -6.94128,16.77476 -9.83348,19.08852 -2.8922,2.31376 -32.42653,7.16331 -52.09349,8.32019 -19.66696,1.15688 -48.01052,4.04908 -67.09904,-0.57844 -71.32368,-11.97458 -192.83388,-36.11734 -200.71866,-54.95179 -3.56815,-8.98377 -6.80319,-37.00069 -1.73532,-55.53024 0.57844,-4.62752 12.14724,-42.22612 14.461,-52.0596 2.31376,-9.83348 26.60823,-46.85363 30.07887,-50.32427 11.46178,-16.33054 37.77578,-25.72029 52.0596,-32.39264 18.51008,-8.6766 38.17704,-16.19632 38.17704,-16.19632 27.09202,-32.7362 81.79491,-72.49548 114.53111,-87.92288 0,0 6.94128,-3.47064 15.03944,-6.36284 8.09816,-2.89219 52.20684,-11.28366 74.18756,-11.28366 71.35328,-3.36064 146.10581,-0.15158 208.58628,18.91444 13.07029,4.14836 17.4365,14.92838 24.95622,28.2325 7.51972,13.30412 16.77476,37.5986 16.77476,37.5986 7.59433,12.0428 16.71423,24.82905 24.29448,37.5986 2.31376,4.04908 16.77476,39.33392 19.66696,43.383 2.8922,4.04908 5.53899,18.1595 5.53899,21.63014 0,1.98963 1.17711,10.05932 1.01487,14.15318 -0.12077,3.04732 -2.58026,3.8655 -2.73121,2.77109 0,0 -1.50889,-21.20122 -2.08733,-24.09342 -0.57844,-2.8922 -3.47064,-12.72567 -3.47064,-12.72567 0,0 -1.15688,-5.7844 -8.09816,-4.04908 -11.90118,3.68575 -18.37946,20.62139 -21.40228,30.65731 -7.27654,19.46572 -6.15072,31.15001 -16.41601,49.92346 z"
         style="fill:#abc837;fill-opacity:1;stroke:none" />
      <path
         style="fill:#1a1a1a;fill-opacity:1;stroke:none"
         d="m 600.82033,590.88278 c 1.73532,-2.8922 20.36176,-40.06414 27.88148,-52.21138 7.51972,-12.14724 28.80564,-47.85874 28.80564,-47.85874 -67.66404,-8.10213 -130.4855,-3.06482 -197.95384,4.15308 -31.90911,16.67934 -91.74002,58.53001 -114.53565,88.18679 1.73532,0.57844 22.52981,4.25961 89.0504,5.99493 66.5206,1.73532 166.75197,1.73532 166.75197,1.73532 z"
         id="path3322"
         inkscape:connector-curvature="0"
         sodipodi:nodetypes="cscccsc" />
      <path
         style="fill:#1a1a1a;stroke:none"
         d="m 651.99523,585.90965 c 0,0 -2.85253,-20.61163 -3.4491,-23.6195 -0.59657,-3.00786 -4.17598,-18.0472 -4.17598,-18.0472 0,0 22.69347,-41.17706 26.84559,-45.7196 4.97618,-5.44409 7.307,-6.09419 17.30049,-7.21888 19.61505,-0.9819 52.83552,1.36023 71.58822,13.23462 3.068,1.99762 9.73192,7.60829 13.50654,15.4326 4.71071,9.76473 13.02367,26.55424 15.69283,33.29278 1.12927,2.85094 3.84503,10.15383 -0.33095,11.35697 -4.17598,1.20315 -44.11831,6.27052 -59.56723,9.04641 -25.06905,4.50446 -64.12207,11.07615 -77.41041,12.2418 z"
         id="path3301"
         inkscape:connector-curvature="0"
         sodipodi:nodetypes="cscsccssssc" />
      <path
         sodipodi:nodetypes="csccccsc"
         inkscape:connector-curvature="0"
         id="path2996"
         d="m 596.42441,588.68482 c 1.73532,-2.8922 19.38292,-33.24081 26.12311,-45.83729 13.67401,-25.5548 29.28294,-49.53712 29.28294,-49.53712 -60.35933,-7.16961 -123.05801,-3.2231 -190.52635,3.9948 0,0 -25.09728,12.59597 -51.12708,31.68449 -18.62582,11.86401 -59.9597,48.19424 -61.93063,53.30799 5.2203,1.11864 24.37718,3.09297 90.89777,4.82829 66.5206,1.73532 157.28024,1.55884 157.28024,1.55884 z"
         style="fill:#008080;stroke:none" />
      <path
         sodipodi:nodetypes="cscsccssssc"
         inkscape:connector-curvature="0"
         id="path2998"
         d="m 656.00526,579.58392 c 0,0 -2.54689,-13.57406 -3.12533,-16.46626 -0.57844,-2.8922 -4.04908,-17.3532 -4.04908,-17.3532 0,0 22.09163,-39.49404 26.0298,-43.96144 4.42008,-5.01407 7.08496,-5.85984 16.77476,-6.94128 19.01899,-0.94414 51.22995,1.30792 69.41279,12.72568 2.97477,1.9208 7.17609,5.69288 10.82267,13.21933 4.58772,9.46893 12.66722,25.00575 13.66345,27.78189 2.34548,6.53598 5.45915,11.27692 1.29127,11.87871 -8.01227,1.15688 -33.91937,4.83261 -51.98948,7.61262 -15.03943,2.31376 -78.83085,11.50395 -78.83085,11.50395 z"
         style="fill:#008080;stroke:none" />
      <path
         sodipodi:nodetypes="csccscc"
         inkscape:connector-curvature="0"
         id="path3006"
         d="m 503.79991,661.71205 c 0,0 101.6792,-24.7071 150.45988,-35.79361 48.78068,-11.08652 157.1118,-37.06065 157.1118,-37.06065 l -1.37067,-2.3709 c 0,0 -117.73021,28.02827 -160.17573,37.531 -42.44553,9.50273 -148.24259,33.89307 -148.24259,33.89307 z"
         style="fill:#89a02c;fill-opacity:1;stroke:none" />
      <path
         sodipodi:nodetypes="cscscscc"
         inkscape:connector-curvature="0"
         id="path3364"
         d="m 264.36401,636.27219 c 0,0 22.83435,3.5992 69.61554,6.4131 46.78119,2.81391 96.36333,3.63083 117.88188,4.5726 -8.11476,3.7326 -11.38822,5.64867 -15.25734,8.81431 -3.86912,3.16565 -6.40957,6.08303 -11.48736,10.65955 -13.71779,-0.70347 -130.53186,-7.16302 -133.34577,-8.56998 -2.8139,-1.40695 -33.25153,-5.98773 -33.25153,-5.98773 3.73006,-7.46012 5.37832,-13.1043 5.84458,-15.90185 z"
         style="fill:#cdde87;fill-opacity:1;stroke:none" />
      <path
         inkscape:connector-curvature="0"
         id="path3776"
         d="m 428.87828,668.50538 c 0,0 -74.23389,-3.78043 -113.06921,-7.56086 -38.83532,-3.78043 -69.42244,-8.93556 -69.42244,-8.93556 l 0.68736,-2.06205 c 0,0 45.70883,6.52983 79.38902,9.27923 33.68019,2.74941 104.47732,6.87351 104.47732,6.87351 z"
         style="fill:#819629;fill-opacity:1;stroke:none" />
      <path
         sodipodi:nodetypes="csccsccsc"
         inkscape:connector-curvature="0"
         id="path3780"
         d="m 425.23998,791.01658 c 0,0 -13.51339,14.34204 -16.91232,18.77213 -4.87637,6.35576 -10.88795,3.68357 -16.70176,3.68357 -62.35416,-9.93369 -125.27783,-20.81127 -167.64914,-33.84013 -1.62189,-0.5191 -2.4357,-2.37634 -3.90233,-4.79629 -5.26077,-8.68028 -9.43439,-22.66934 -9.74968,-25.63304 -0.58211,-2.16967 0.64851,-3.79458 5.18915,-2.68848 67.8207,17.61079 119.83466,22.82847 210.38792,34.01391 8.45829,1.0448 1.59475,7.54485 -0.66184,10.48833 z"
         style="fill:#202020;fill-opacity:1;stroke:none" />
      <path
         sodipodi:nodetypes="csscccc"
         inkscape:connector-curvature="0"
         id="path4136"
         d="m 485.34721,645.49603 c 0,0 17.71246,-15.52048 42.13728,-24.04077 24.42482,-8.52029 79.52267,-24.42482 81.79475,-24.42482 2.27207,0 186.31026,-30.10501 186.31026,-30.10501 l 11.36038,18.17661 -304.6422,70.05031 c -4.61795,-5.28698 -9.51278,-8.96259 -16.96047,-9.65632 z"
         style="fill:#cdde87;fill-opacity:1;stroke:none" />
      <path
         transform="matrix(1.0930801,0,0.16816617,1,17.67348,132)"
         d="m 616.71986,485.02884 c 0,6.07852 -3.0745,11.00613 -6.86708,11.00613 -3.79258,0 -6.86707,-4.92761 -6.86707,-11.00613 0,-6.07852 3.07449,-11.00614 6.86707,-11.00614 3.79258,0 6.86708,4.92762 6.86708,11.00614 z"
         sodipodi:ry="11.006135"
         sodipodi:rx="6.8670754"
         sodipodi:cy="485.02884"
         sodipodi:cx="609.85278"
         id="path3226"
         style="fill:#89a02c;fill-opacity:1;stroke:none"
         sodipodi:type="arc" />
      <path
         sodipodi:nodetypes="csssssccc"
         inkscape:connector-curvature="0"
         id="path3788"
         d="m 775.17692,616.82294 c 0,0 -13.53995,4.53066 -17.5495,5.33257 -2.04137,0.40828 -2.82123,-0.061 -2.86853,-1.18104 -0.0495,-1.17196 -0.22085,-2.59128 -0.21357,-3.56323 0.003,-0.37113 -0.10594,-1.63406 1.28284,-2.00371 1.3654,-0.36342 12.10879,-3.12505 17.0262,-4.97289 1.86783,-0.70189 2.40384,1.36898 2.40384,1.36898 l 1.08657,2.62955 c 0,0 0.67264,1.83762 -1.16785,2.38977 z"
         style="fill:#f2f2f2;stroke:none" />
      <path
         transform="matrix(0.81733662,0,-0.32562064,0.9348659,381.49452,166.99138)"
         d="m 367.4724,547.73846 c 0,19.75011 -22.45168,35.76074 -50.14724,35.76074 -27.69555,0 -50.14723,-16.01063 -50.14723,-35.76074 0,-19.7501 22.45168,-35.76073 50.14723,-35.76073 27.69556,0 50.14724,16.01063 50.14724,35.76073 z"
         sodipodi:ry="35.760735"
         sodipodi:rx="50.14724"
         sodipodi:cy="547.73846"
         sodipodi:cx="317.32516"
         id="path3166"
         style="fill:#ffffff;fill-opacity:1;stroke:none"
         sodipodi:type="arc" />
      <path
         inkscape:connector-curvature="0"
         id="path3174"
         d="m 342.92782,638.73502 c 0,0 8.42018,-9.68319 31.99666,-23.36597 23.57648,-13.68278 47.36347,-23.78699 47.36347,-23.78699 0,0 -30.10212,15.36681 -44.41641,23.99749 -14.31429,8.63068 -34.94372,23.15547 -34.94372,23.15547 z"
         style="fill:#f1f6f9;fill-opacity:1;stroke:none" />
      <path
         transform="matrix(0.90757867,0,-0.11668009,0.98270893,268.23799,145.61041)"
         d="m 493.93864,650.88977 c 0,37.62313 -17.7548,68.1227 -39.65644,68.1227 -21.90165,0 -39.65644,-30.49957 -39.65644,-68.1227 0,-37.62313 17.75479,-68.1227 39.65644,-68.1227 21.90164,0 39.65644,30.49957 39.65644,68.1227 z"
         sodipodi:ry="68.122696"
         sodipodi:rx="39.656441"
         sodipodi:cy="650.88977"
         sodipodi:cx="454.2822"
         id="path3944"
         style="fill:#f1f6f9;fill-opacity:1;stroke:none"
         sodipodi:type="arc" />
      <path
         sodipodi:nodetypes="cssssssc"
         inkscape:connector-curvature="0"
         id="path4042"
         d="m 657.06748,540.86934 c 0,0 -7.53782,19.43967 57.52557,-1.19018 13.24147,-4.19852 -18.24949,-5.5542 -2.38037,-6.34765 15.86912,-0.79346 63.47648,15.07566 55.93865,1.58691 -7.53783,-13.48875 3.96728,-20.62986 -11.90184,-26.18405 -15.86912,-5.55419 -53.55828,-14.28221 -64.66667,-9.9182 -11.10838,4.36401 -13.09202,1.19018 -16.26585,8.33129 -3.17382,7.1411 -18.24949,33.72188 -18.24949,33.72188 z"
         style="fill:#56a8a8;fill-opacity:1;stroke:none" />
      <path
         sodipodi:nodetypes="csccscc"
         inkscape:connector-curvature="0"
         id="path3211"
         d="m 750.17178,568.00635 c 0,0 -5.25562,-29.56237 -9.34969,-43.10429 -4.09407,-13.54192 -8.57267,-29.0379 -8.57267,-29.0379 3.86307,0.80046 7.47263,1.85306 11.09209,2.79272 0,0 8.29619,20.15883 13.54193,39.7871 4.29219,16.0603 7.16389,27.5207 7.16389,27.5207 z"
         style="fill:#1a1a1a;stroke:none" />
      <path
         sodipodi:nodetypes="csscssc"
         inkscape:connector-curvature="0"
         id="path3356"
         d="m 798.55445,691.24996 c 0,0 -20.27134,5.1857 -34.41414,10.84282 -14.1428,5.65711 -113.61381,34.41414 -113.61381,40.07126 0,5.65711 0.87327,17.86202 0.87327,17.86202 0,0 8.08383,-0.41924 38.25514,-12.67633 30.1713,-12.25709 99.47101,-32.52844 100.41386,-34.41414 0.94285,-1.88571 8.48568,-21.68563 8.48568,-21.68563 z"
         style="fill:#89a02c;fill-opacity:1;stroke:none" />
      <path
         sodipodi:nodetypes="ccscccccscssc"
         inkscape:connector-curvature="0"
         id="path3786"
         d="m 655.70552,595.75277 6.7362,-1.30879 c 0,0 0.5317,1.32925 2.65848,-0.26585 2.12679,-1.59509 9.30471,-10.63394 9.30471,-10.63394 0,0 -3.93457,-7.33743 -4.51943,-15.41923 -1.4877,-17.10045 16.08628,-17.18062 33.76278,-15.15337 14.61635,3.15035 25.90282,14.20448 21.00205,25.78732 -4.38477,9.23552 -20.31477,7.04881 -33.49694,7.70961 0,0 -13.02658,14.62168 -13.82413,16.48262 -0.79754,1.86094 -1.32924,5.58282 -1.32924,5.58282 0,0 -5.31697,2.92434 -6.38037,4.25358 -1.06339,1.32924 -5.66023,2.41852 -8.773,-2.92433 -7.37015,-12.65031 -5.14111,-14.11044 -5.14111,-14.11044 z"
         style="fill:#abc837;fill-opacity:1;stroke:none" />
      <path
         transform="matrix(0.92108719,0,-0.07279109,1.0030395,246.34523,130.66367)"
         d="m 689.75447,568.10248 c 0,23.64708 -7.22507,42.81683 -16.13765,42.81683 -8.91258,0 -16.13765,-19.16975 -16.13765,-42.81683 0,-23.64709 7.22507,-42.81684 16.13765,-42.81684 8.91258,0 16.13765,19.16975 16.13765,42.81684 z"
         sodipodi:ry="42.816833"
         sodipodi:rx="16.137651"
         sodipodi:cy="568.10248"
         sodipodi:cx="673.61682"
         id="path3946"
         style="fill:#f1f6f9;fill-opacity:1;stroke:none"
         sodipodi:type="arc" />
      <path
         sodipodi:nodetypes="cccsssc"
         inkscape:connector-curvature="0"
         id="path4134"
         d="m 587.90184,585.99817 c 40.94055,-48.67529 30.54888,-60.46103 40.2863,-85.11247 3.03561,-16.50717 -23.84206,15.34301 -33.66054,32.06544 -2.04499,3.68098 10.14316,-34.06953 -3.35378,-16.07362 -13.49693,17.99591 -19.49471,37.68939 -17.70961,27.19836 5.94195,-34.92073 -39.6319,38.97751 -39.6319,41.4315 0,2.45399 54.06953,0.49079 54.06953,0.49079 z"
         style="fill:#56a8a8;fill-opacity:1;stroke:none" />
      <path
         sodipodi:nodetypes="cssssssssc"
         inkscape:connector-curvature="0"
         id="path4138"
         d="m 219.32374,791.36659 c 0,0 33.26121,9.85268 66.41573,17.09499 68.64426,14.99474 127.28055,24.90512 143.74117,26.40154 16.46062,1.49642 92.07386,-6.41165 95.0667,-6.41165 2.99284,0 9.97613,-0.99761 3.49164,2.49403 -6.48448,3.49165 -41.8498,9.05882 -51.30628,10.23769 -27.03474,3.37023 -48.56204,5.55021 -101.46319,-5.81385 -15.6058,-3.35238 -16.38646,-1.80906 -48.31009,-9.78997 -31.92362,-7.98091 -48.15917,-7.57538 -100.65239,-26.73068 -5.79605,-2.11504 -6.98329,-7.4821 -6.98329,-7.4821 z"
         style="fill:#7f9529;fill-opacity:1;stroke:none" />
      <path
         sodipodi:nodetypes="cscccc"
         inkscape:connector-curvature="0"
         id="path4140"
         d="m 680.34356,578.03089 c -5.74233,-1.95092 -8.47086,-4.05517 -8.76074,-8.85889 -0.21319,-3.53285 -1.10429,-6.92024 3.33743,-11.23927 4.8311,-3.16568 12.54724,-5.93354 30.773,-2.6503 9.40131,2.92793 16.77899,7.52263 17.05822,17.71794 -3.67308,14.08272 -26.94926,9.88213 -42.40791,5.03052 z"
         style="fill:#cdde87;fill-opacity:1;stroke:none" />
      <path
         sodipodi:nodetypes="cssscsssc"
         inkscape:connector-curvature="0"
         id="path3303"
         d="m 423.03885,753.51555 c 0,0 -0.82234,2.75313 -3.68557,2.52666 -14.57906,-1.15313 -69.5165,-6.80671 -115.48416,-14.08493 -46.2232,-7.31868 -77.03286,-14.51522 -84.55643,-16.33688 -1.18392,-0.28666 -0.87237,-2.27792 -0.87237,-2.27792 0,0 1.756,-9.7533 4.43085,-9.7533 2.67484,0 52.14723,10.03681 79.3415,13.15746 27.19428,3.12066 113.24745,15.82004 119.04295,15.82004 5.7955,0 1.78323,10.94887 1.78323,10.94887 z"
         style="fill:#677821;fill-opacity:1;stroke:none" />
      <path
         sodipodi:type="arc"
         style="fill:#ffffff;fill-opacity:1;stroke:none"
         id="path4073"
         sodipodi:cx="317.32516"
         sodipodi:cy="547.73846"
         sodipodi:rx="56.646351"
         sodipodi:ry="35.760735"
         d="m 373.97152,547.73846 c 0,19.75011 -25.36144,35.76074 -56.64636,35.76074 -31.28491,0 -56.64635,-16.01063 -56.64635,-35.76074 0,-19.7501 25.36144,-35.76073 56.64635,-35.76073 31.28492,0 56.64636,16.01063 56.64636,35.76073 z"
         transform="matrix(0.15990925,0,-0.39788551,0.72744116,412.17711,259.55578)" />
      <path
         sodipodi:nodetypes="cssscssscsc"
         inkscape:connector-curvature="0"
         id="path3275"
         d="m 360.3983,572.74415 c 0,0 32.13687,-25.99852 38.38081,-30.03871 6.24394,-4.0402 27.5468,-23.50661 24.24118,-13.58976 -3.30561,9.91685 0.3673,6.97852 11.38601,-2.20374 11.01872,-9.18227 42.80456,-25.22046 42.80456,-25.22046 0,0 16.89537,-9.91685 7.34582,3.30561 -9.54956,13.22247 -50.51767,49.82894 -57.1289,53.13455 -6.61123,3.30562 17.99724,-26.81221 -0.36729,-10.65143 -18.36453,16.16079 -30.76668,26.73972 -30.76668,26.73972 0,0 -6.06975,7.6812 -21.55794,7.75703 -22.47105,0.11001 -14.33757,-9.23281 -14.33757,-9.23281 z"
         style="fill:#035452;fill-opacity:1;stroke:none" />
      <path
         sodipodi:type="arc"
         style="fill:#cccccc;fill-opacity:1;stroke:none"
         id="path4037"
         sodipodi:cx="454.2822"
         sodipodi:cy="650.88977"
         sodipodi:rx="39.656441"
         sodipodi:ry="68.122696"
         d="m 493.93864,650.88977 c 0,37.62313 -17.7548,68.1227 -39.65644,68.1227 -21.90165,0 -39.65644,-30.49957 -39.65644,-68.1227 0,-37.62313 17.75479,-68.1227 39.65644,-68.1227 21.90164,0 39.65644,30.49957 39.65644,68.1227 z"
         transform="matrix(0.6369819,0,-0.08189164,0.74519691,371.24782,299.32522)" />
      <path
         sodipodi:type="arc"
         style="fill:#cccccc;fill-opacity:1;stroke:none"
         id="path4039"
         sodipodi:cx="673.61682"
         sodipodi:cy="568.10248"
         sodipodi:rx="16.137651"
         sodipodi:ry="42.816833"
         d="m 689.75447,568.10248 c 0,23.64708 -7.22507,42.81683 -16.13765,42.81683 -8.91258,0 -16.13765,-19.16975 -16.13765,-42.81683 0,-23.64709 7.22507,-42.81684 16.13765,-42.81684 8.91258,0 16.13765,19.16975 16.13765,42.81684 z"
         transform="matrix(0.54016068,0,-0.04268747,0.74016103,486.36532,279.22031)" />
    </g>
  </g>
</svg>
