<?xml version="1.0" encoding="UTF-8" standalone="no"?>
<svg
   xmlns:dc="http://purl.org/dc/elements/1.1/"
   xmlns:cc="http://creativecommons.org/ns#"
   xmlns:rdf="http://www.w3.org/1999/02/22-rdf-syntax-ns#"
   xmlns:svg="http://www.w3.org/2000/svg"
   xmlns="http://www.w3.org/2000/svg"
   xmlns:xlink="http://www.w3.org/1999/xlink"
   xmlns:sodipodi="http://sodipodi.sourceforge.net/DTD/sodipodi-0.dtd"
   xmlns:inkscape="http://www.inkscape.org/namespaces/inkscape"
   id="svg2"
   viewBox="0 0 500 255"
   version="1.0"
   y="0"
   x="0"
   inkscape:version="0.48.4 r9939"
   width="100%"
   height="100%"
   sodipodi:docname="une chaussure.svg">
  <sodipodi:namedview
     pagecolor="#ffffff"
     bordercolor="#666666"
     borderopacity="1"
     objecttolerance="10"
     gridtolerance="10"
     guidetolerance="10"
     inkscape:pageopacity="0"
     inkscape:pageshadow="2"
     inkscape:window-width="1278"
     inkscape:window-height="779"
     id="namedview38"
     showgrid="false"
     inkscape:zoom="0.62933333"
     inkscape:cx="250"
     inkscape:cy="187.5"
     inkscape:window-x="0"
     inkscape:window-y="19"
     inkscape:window-maximized="0"
     inkscape:current-layer="svg2" />
  <defs
     id="defs3">
    <linearGradient
       id="linearGradient2122">
      <stop
         id="stop2124"
         stop-color="#d0f0ff"
         offset="0" />
      <stop
         id="stop2126"
         stop-color="#003968"
         offset="1" />
    </linearGradient>
    <linearGradient
       id="linearGradient2128"
       y2="308.42999"
       xlink:href="#linearGradient2122"
       gradientUnits="userSpaceOnUse"
       y1="191.03"
       gradientTransform="matrix(0.55501,0,0,0.41868,0.43224,23.749)"
       x2="175.58"
       x1="214.03999" />
    <radialGradient
       id="radialGradient2934"
       fy="776.26001"
       gradientUnits="userSpaceOnUse"
       cy="783.31"
       cx="133.53"
       gradientTransform="matrix(5.4424,0,0,0.50846,-460.33,-112.2)"
       r="39.923">
      <stop
         id="stop2928"
         offset="0" />
      <stop
         id="stop2930"
         stop-opacity="0"
         offset="1" />
    </radialGradient>
    <linearGradient
       id="linearGradient2978"
       y2="776.39001"
       xlink:href="#linearGradient2122"
       gradientUnits="userSpaceOnUse"
       y1="228.03999"
       gradientTransform="scale(1.4557,0.68696)"
       x2="-509.76001"
       x1="286.59" />
    <linearGradient
       id="linearGradient2986"
       y2="352.20001"
       xlink:href="#linearGradient2122"
       gradientUnits="userSpaceOnUse"
       y1="108.76"
       gradientTransform="scale(1.2514,0.79912)"
       x2="-46.229"
       x1="214.89" />
    <linearGradient
       id="linearGradient2994"
       y2="322.10999"
       gradientUnits="userSpaceOnUse"
       y1="367.87"
       gradientTransform="scale(1.6871,0.59274)"
       x2="208.67"
       x1="220.03">
      <stop
         id="stop2990"
         stop-color="#fff"
         offset="0" />
      <stop
         id="stop2992"
         stop-color="#fff"
         stop-opacity="0"
         offset="1" />
    </linearGradient>
    <linearGradient
       id="linearGradient3002"
       y2="186.94"
       gradientUnits="userSpaceOnUse"
       y1="239.13"
       gradientTransform="scale(1.3619,0.73427)"
       x2="178.17999"
       x1="137.95">
      <stop
         id="stop2998"
         offset="0" />
      <stop
         id="stop3000"
         stop-opacity="0"
         offset="1" />
    </linearGradient>
  </defs>
  <g
     id="layer1"
     transform="matrix(1.1301051,0,0,1.1301051,-11.170679,-88.046381)">
    <path
       id="path2130"
       d="m 324.67,201.75 c 0,0 -175.07,-59.18 -175.07,-70.28 0,-11.09 4.93,-4.93 6.16,-17.26 -19.72,-23.425 0,-24.658 13.56,-32.055 8.63,20.955 56.72,40.685 56.72,40.685 l 109.73,60.41 -11.1,18.5 z"
       style="fill:url(#linearGradient2986);fill-rule:evenodd;stroke:#000000;stroke-width:1.87679994px"
       inkscape:connector-curvature="0" />
    <path
       id="path2914"
       d="m 148.36,130.24 c 0,0 6.17,4.93 9.87,-4.93 3.7,-9.87 -6.17,-29.593 -1.23,-22.2 4.93,7.4 143.01,80.14 143.01,80.14 L 148.36,130.24 z"
       style="fill:url(#linearGradient3002);fill-rule:evenodd"
       inkscape:connector-curvature="0" />
    <path
       id="path2120"
       d="m 46.801,108.05 c 3.698,-7.4 27.124,-14.799 32.055,-9.867 4.932,4.927 11.096,20.957 18.494,25.887 7.4,4.94 30.82,13.57 38.22,9.87 7.4,-3.7 29.59,-14.8 30.82,-7.4 1.24,7.4 7.4,50.55 -25.89,50.55 -33.29,0 -69.041,12.33 -78.905,-7.4 -9.863,-19.73 -14.794,-61.64 -14.794,-61.64 z"
       style="fill:url(#linearGradient2128);fill-rule:evenodd;stroke:#000000;stroke-width:1.87679994px"
       inkscape:connector-curvature="0" />
    <path
       id="path2916"
       d="m 39.455,263.39 c -8.45,5.94 -33.802,7.92 -8.45,15.83 25.352,7.91 237.82,25.72 307.84,24.73 70.02,-0.99 148.49,-3.96 150.91,-15.83 2.41,-11.87 -18.11,-13.85 -53.12,-14.83 -35.01,-0.99 -397.18,-9.9 -397.18,-9.9 z"
       style="fill:url(#radialGradient2934);fill-rule:evenodd"
       inkscape:connector-curvature="0" />
    <path
       id="path2116"
       d="m 22.608,220.24 c 0,0 -1.233,-61.64 3.699,-72.74 4.932,-11.1 14.795,-33.29 19.726,-38.22 4.932,-4.93 8.631,-6.17 13.562,0 4.932,6.16 4.932,28.36 11.097,36.99 6.164,8.63 9.863,14.79 22.192,16.02 12.326,1.24 25.896,-4.93 36.986,-14.79 11.1,-9.86 18.49,-22.19 27.13,-24.66 8.63,-2.46 9.86,0 24.65,8.63 14.8,8.63 136.86,54.25 136.86,54.25 l 12.33,-1.23 -125.76,-73.98 c 0,0 101.1,54.25 119.59,64.11 18.49,9.87 28.36,19.73 38.22,20.96 9.86,1.24 39.45,-6.16 48.08,-1.23 8.64,4.93 17.27,7.4 20.96,17.26 3.7,9.86 7.4,43.15 7.4,43.15 0,0 -14.79,19.73 -33.29,24.66 -18.49,4.93 -108.49,24.66 -130.69,20.96 -22.19,-3.7 -57.94,-3.7 -72.74,-12.33 -14.79,-8.63 -41.92,-9.86 -55.48,-9.86 -13.56,0 -73.973,4.93 -90,-2.47 -16.028,-7.4 -25.891,-35.75 -30.823,-40.68 -4.932,-4.94 -3.699,-14.8 -3.699,-14.8 z"
       style="fill:url(#linearGradient2978);fill-rule:evenodd;stroke:#000000;stroke-width:1.87679994px"
       inkscape:connector-curvature="0" />
    <path
       id="path2942"
       d="m 25.701,210.64 c -2.727,-6.81 -2.727,38.18 -1.363,40.91 141.79,27.27 224.96,9.54 224.96,9.54 0,0 -104.98,9.55 -211.33,-24.54 -9.542,-8.18 -12.269,-25.91 -12.269,-25.91 z"
       inkscape:connector-curvature="0"
       style="fill-opacity:0.22703002;fill-rule:evenodd" />
    <path
       id="path2118"
       d="m 20.142,222.31 -3.698,30.06 c 0,0 0,1.88 1.233,8.46 1.232,6.58 2.465,10.34 9.863,13.15 7.397,2.82 76.44,13.16 80.14,13.16 3.7,0 32.05,-7.52 46.85,-5.64 14.79,1.88 24.66,3.76 32.06,6.58 7.39,2.82 23.42,11.27 54.24,12.21 30.83,0.94 64.11,2.82 99.87,-4.69 35.75,-7.52 70.27,-16.92 82.6,-20.68 12.33,-3.75 25.89,-13.15 27.13,-19.73 1.23,-6.57 3.7,-16.91 -2.47,-24.43 -6.16,-7.51 -13.56,-17.85 -13.56,-10.33 0,7.51 -13.56,6.58 -14.79,13.15 -1.24,6.58 1.23,15.04 1.23,15.98 6.16,-1.88 -8.63,7.51 -30.82,9.39 -22.2,1.88 -38.22,12.22 -61.65,9.4 -23.43,-2.82 -70.28,-10.34 -80.14,-10.34 -9.86,0 -92.47,5.64 -118.36,2.82 -25.89,-2.82 -82.604,-12.21 -94.933,-16.91 -12.329,-4.7 -14.795,-21.61 -14.795,-21.61 z"
       inkscape:connector-curvature="0"
       style="fill:#171717;fill-rule:evenodd;stroke:#000000;stroke-width:1.63839996px" />
    <path
       id="path2142"
       d="m 329.6,178.32 -19.72,13.56 -19.73,-34.52 -50.55,4.93 -3.7,-35.75 -55.48,9.86 12.33,-19.72 23.42,-1.24 v 35.76 l 42.24,-11.62 21.88,38.74 h 49.31 z"
       inkscape:connector-curvature="0"
       style="fill:none;stroke:#000000;stroke-width:5.63030005;stroke-linecap:round;stroke-linejoin:round" />
    <path
       id="path2902"
       d="m 336.23,189.88 c 0,0 9.87,4.94 20.96,6.17 11.1,1.23 43.15,-2.47 43.15,-2.47 0,0 13.57,0 1.24,7.4 -12.33,7.4 -106.03,29.59 -92.47,22.19 13.56,-7.4 48.08,-11.09 57.95,-17.26 9.86,-6.16 -30.83,-16.03 -30.83,-16.03 z"
       style="fill:url(#linearGradient2994);fill-rule:evenodd"
       inkscape:connector-curvature="0" />
    <path
       id="path2904"
       d="m 49.963,115.15 c 0,0 2.625,-9.86 5.369,-2.47 2.743,7.4 5.833,25.89 11.404,33.29 3.785,6.31 23.136,28.54 7.43,16.62 C 48.397,135.46 49.963,115.15 49.963,115.15 z"
       inkscape:connector-curvature="0"
       style="fill:#ffffff;fill-opacity:0.61621997;fill-rule:evenodd" />
    <path
       id="path2906"
       d="m 218.64,161.06 c 0,0 108.5,34.52 92.47,41.92 -16.03,7.4 -92.47,-41.92 -92.47,-41.92 z"
       inkscape:connector-curvature="0"
       style="fill-opacity:0.05405399;fill-rule:evenodd" />
    <path
       id="path2936"
       d="m 191.52,116.68 c -11.1,-3.7 -7.4,-3.7 -17.26,-1.24 -9.87,2.47 -19.73,14.8 -8.63,16.03 11.09,1.23 19.72,-3.7 25.89,-14.79 z"
       inkscape:connector-curvature="0"
       style="fill:none;stroke:#000000;stroke-width:5.63030005;stroke-linecap:round;stroke-linejoin:round" />
    <path
       id="path2938"
       d="m 190.28,112.98 c 0,0 4.94,-11.1 13.57,-9.87 8.63,1.24 20.96,9.87 11.09,6.17 -8.63,6.16 -24.66,3.7 -24.66,3.7 z"
       inkscape:connector-curvature="0"
       style="fill:none;stroke:#000000;stroke-width:5.63030005;stroke-linecap:round;stroke-linejoin:round" />
    <path
       id="path2940"
       d="m 202.61,143.8 -11.09,-28.36 c 0,0 23.42,12.33 30.82,18.5"
       inkscape:connector-curvature="0"
       style="fill:none;stroke:#000000;stroke-width:5.63030005" />
    <path
       id="path2944"
       d="m 110.28,184.2 c 0,0 32.34,-14.53 39.69,-22.45 7.35,-7.92 10.29,-13.21 14.7,-13.21 4.41,0 101.42,44.9 110.24,48.87 8.82,3.96 41.16,7.92 20.58,10.56 -20.58,2.64 -85.25,0 -107.3,-5.28 -22.05,-5.28 -77.91,-18.49 -77.91,-18.49 z"
       inkscape:connector-curvature="0"
       style="fill:#ffffff;fill-opacity:0.21622003;fill-rule:evenodd;stroke:#000000;stroke-width:1.86249995;stroke-linejoin:round" />
    <rect
       id="rect2948"
       rx="3.7128"
       ry="11.602"
       height="254.56"
       width="280.01001"
       y="-172.32001"
       x="-427.09"
       style="fill:none" />
  </g>
  <metadata
     id="metadata36">
    <rdf:RDF>
      <cc:Work>
        <dc:format>image/svg+xml</dc:format>
        <dc:type
           rdf:resource="http://purl.org/dc/dcmitype/StillImage" />
        <cc:license
           rdf:resource="http://creativecommons.org/licenses/publicdomain/" />
        <dc:publisher>
          <cc:Agent
             rdf:about="http://openclipart.org/">
            <dc:title>Openclipart</dc:title>
          </cc:Agent>
        </dc:publisher>
        <dc:title>Tennis Shoe</dc:title>
        <dc:date>2005-10-11T20:07:45</dc:date>
        <dc:description>Tennis Shoe </dc:description>
        <dc:source>http://openclipart.org/detail/182968/tennis-shoe-by-Jarno-182968</dc:source>
        <dc:creator>
          <cc:Agent>
            <dc:title>Jarno</dc:title>
          </cc:Agent>
        </dc:creator>
        <dc:subject>
          <rdf:Bag>
            <rdf:li>shoe</rdf:li>
            <rdf:li>shoes</rdf:li>
            <rdf:li>tennis</rdf:li>
            <rdf:li>upload2openclipart</rdf:li>
          </rdf:Bag>
        </dc:subject>
      </cc:Work>
      <cc:License
         rdf:about="http://creativecommons.org/licenses/publicdomain/">
        <cc:permits
           rdf:resource="http://creativecommons.org/ns#Reproduction" />
        <cc:permits
           rdf:resource="http://creativecommons.org/ns#Distribution" />
        <cc:permits
           rdf:resource="http://creativecommons.org/ns#DerivativeWorks" />
      </cc:License>
    </rdf:RDF>
  </metadata>
</svg>
