<?xml version="1.0"?>
<svg xmlns:rdf="http://www.w3.org/1999/02/22-rdf-syntax-ns#" xmlns="http://www.w3.org/2000/svg" xmlns:cc="http://creativecommons.org/ns#" xmlns:dc="http://purl.org/dc/elements/1.1/" xmlns:svg="http://www.w3.org/2000/svg" id="0" height="59.16mm" width="61.35mm" version="1.0">
  <g id="1" stroke-linejoin="round" stroke="#000" stroke-linecap="round">
    <path id="2" stroke-width="1.2656px" fill-rule="evenodd" fill="#fff" d="m194.85 11.05l-22.1 22.101-4.51-0.97-3.51-0.379h-3.67l-3.71 0.548-3.63 1.181-3.16 1.645-3.08 2.446-2.28 2.447-139.38 139.35-0.7156 2.62-0.2109 1.73 0.1266 2.27 0.5484 2.28 1.3077 2.74 1.8562 2.58 3.4596 3.62 4.851 3.72 3.754 2.02 2.953 1.05 3.249 0.6 1.814 0.12 3.67-0.08 3.881-0.51 5.104-1.31 4.345-1.51 1.393-0.6 138.03-138.08 0.63-2.282 0.25-1.94-0.08-3.037-0.55-3.163-1.22-3.965-1.82-4.091 27.55-27.584-15.15-5.568z"/>
    <path id="3" stroke-width="2.4889px" fill="none" d="m48.049 146.82l26.957 15.06"/>
    <path id="4" stroke-width="2.4889px" fill="none" d="m70.281 124.21l26.999 15.1"/>
    <path id="5" stroke-width="2.4889px" fill="none" d="m94.158 101.69l27.002 15.06"/>
    <path id="6" stroke-width="2.4889px" fill="none" d="m116.77 78.45l27 15.057"/>
    <path id="7" stroke-width="2.4889px" fill="none" d="m140.6 55.21l27 15.058"/>
    <path id="8" stroke-width=".042186px" fill-rule="evenodd" fill="#f00" d="m196.8 13.539l-153.98 153.95-3.039-1.02-2.742-0.5h-2.953l-2.7 0.5-2.826 1.19-2.447 1.6-2.109 2.32-1.308 2.23-0.717 1.86-0.38 1.98v2.03l0.422 2.57 0.928 2.57 1.687 2.41 2.152 2.02 2.362 1.43 2.658 1.02 2.911 0.46 2.489-0.08 2.953-0.76 3.164-1.48 2.067-1.43 1.814-2.15 1.476-2.83 0.717-2.95 0.042-1.77-0.084-1.65-0.717-2.7-0.253-0.63 157.43-157.45-9.02-2.741z"/>
    <path id="9" stroke-width=".042186px" fill-rule="evenodd" fill="#e0e0e0" d="m212.49 16.112l-10.67 10.586-16.37-8.182 9.57-9.6587 3-2.1933 2.66-1.434 2.57-0.8014 1.98-0.2109 2.2 0.2953 1.85 0.6748 1.73 1.0123 1.18 1.3075 0.64 1.3075 0.38 2.0669-0.13 2.488-0.59 2.742z"/>
  </g>
  <metadata>
    <rdf:RDF>
      <cc:Work>
        <dc:format>image/svg+xml</dc:format>
        <dc:type rdf:resource="http://purl.org/dc/dcmitype/StillImage"/>
        <cc:license rdf:resource="http://creativecommons.org/licenses/publicdomain/"/>
        <dc:publisher>
          <cc:Agent rdf:about="http://openclipart.org/">
            <dc:title>Openclipart</dc:title>
          </cc:Agent>
        </dc:publisher>
        <dc:title>Thermometer Hot</dc:title>
        <dc:date>2010-04-12T19:17:54</dc:date>
        <dc:description>Thermometer hot - Thermom&#xE8;tre chaud - Thermometer heiss - Termometro caldo</dc:description>
        <dc:source>http://openclipart.org/detail/46393/thermometer-hot-by-palomaironique</dc:source>
        <dc:creator>
          <cc:Agent>
            <dc:title>palomaironique</dc:title>
          </cc:Agent>
        </dc:creator>
        <dc:subject>
          <rdf:Bag>
            <rdf:li>Messung</rdf:li>
            <rdf:li>Temperatur</rdf:li>
            <rdf:li>Thermometer</rdf:li>
            <rdf:li>alta</rdf:li>
            <rdf:li>caldo</rdf:li>
            <rdf:li>chaud</rdf:li>
            <rdf:li>clip art</rdf:li>
            <rdf:li>clipart</rdf:li>
            <rdf:li>elevata</rdf:li>
            <rdf:li>heiss</rdf:li>
            <rdf:li>hot</rdf:li>
            <rdf:li>measure</rdf:li>
            <rdf:li>mesure</rdf:li>
            <rdf:li>misura</rdf:li>
            <rdf:li>temperatura</rdf:li>
            <rdf:li>temperature</rdf:li>
            <rdf:li>temp&#xE9;rature</rdf:li>
            <rdf:li>termometro</rdf:li>
            <rdf:li>thermom&#xE8;tre</rdf:li>
          </rdf:Bag>
        </dc:subject>
      </cc:Work>
      <cc:License rdf:about="http://creativecommons.org/licenses/publicdomain/">
        <cc:permits rdf:resource="http://creativecommons.org/ns#Reproduction"/>
        <cc:permits rdf:resource="http://creativecommons.org/ns#Distribution"/>
        <cc:permits rdf:resource="http://creativecommons.org/ns#DerivativeWorks"/>
      </cc:License>
    </rdf:RDF>
  </metadata>
</svg>
