<?xml version="1.0" encoding="UTF-8" standalone="no"?>
<!-- Created with Inkscape (http://www.inkscape.org/) -->

<svg
   xmlns:dc="http://purl.org/dc/elements/1.1/"
   xmlns:cc="http://creativecommons.org/ns#"
   xmlns:rdf="http://www.w3.org/1999/02/22-rdf-syntax-ns#"
   xmlns:svg="http://www.w3.org/2000/svg"
   xmlns="http://www.w3.org/2000/svg"
   xmlns:sodipodi="http://sodipodi.sourceforge.net/DTD/sodipodi-0.dtd"
   xmlns:inkscape="http://www.inkscape.org/namespaces/inkscape"
   width="744.09448819"
   height="1052.3622047"
   id="svg2"
   version="1.1"
   inkscape:version="0.48.3.1 r9886"
   sodipodi:docname="New document 1">
  <defs
     id="defs4" />
  <sodipodi:namedview
     id="base"
     pagecolor="#ffffff"
     bordercolor="#666666"
     borderopacity="1.0"
     inkscape:pageopacity="0.0"
     inkscape:pageshadow="2"
     inkscape:zoom="0.56729519"
     inkscape:cx="61.803114"
     inkscape:cy="526.18109"
     inkscape:document-units="px"
     inkscape:current-layer="layer1"
     showgrid="false"
     inkscape:window-width="1317"
     inkscape:window-height="744"
     inkscape:window-x="49"
     inkscape:window-y="24"
     inkscape:window-maximized="1" />
  <metadata
     id="metadata7">
    <rdf:RDF>
      <cc:Work
         rdf:about="">
        <dc:format>image/svg+xml</dc:format>
        <dc:type
           rdf:resource="http://purl.org/dc/dcmitype/StillImage" />
        <dc:title></dc:title>
      </cc:Work>
    </rdf:RDF>
  </metadata>
  <g
     inkscape:label="Layer 1"
     inkscape:groupmode="layer"
     id="layer1">
    <path
       style="fill:#a05a2c"
       d="m 189.00001,856.15085 c -0.55,-0.18654 -2.71544,-0.62665 -4.81209,-0.97802 -5.65356,-0.94746 -4.58524,-3.04572 6.04564,-11.87414 5.07845,-4.2174 11.09715,-10.02563 13.37488,-12.90718 l 4.14134,-5.23919 -6.37489,-1.07452 c -7.19483,-1.21272 -9.95956,-1.99799 -14.61875,-4.15216 -2.90822,-1.34462 -3.66066,-1.33304 -7.27194,0.11191 -5.65867,2.26415 -12.58305,3.70151 -14.42559,2.99446 -0.85723,-0.32895 -1.5586,-1.4018 -1.5586,-2.38411 0,-1.94601 1.90048,-3 5.40938,-3 1.23519,0 5.10083,-1.1601 8.5903,-2.578 l 6.3445,-2.578 5.13311,2.51344 c 2.82321,1.38239 9.26658,3.23061 14.31861,4.10715 10.37036,1.79929 10.15058,1.86413 19.26846,-5.68536 4.68791,-3.88154 7.2686,-4.66754 8.54485,-2.60253 0.87013,1.4079 -7.25252,8.77348 -13.173,11.94523 -2.23509,1.19739 -5.00686,3.7973 -6.15949,5.77757 -3.04704,5.23497 -8.78463,11.61806 -15.36732,17.09624 l -5.76579,4.79834 3.17819,0.49156 c 1.74801,0.27035 7.2282,0.0242 12.1782,-0.54691 13.5522,-1.56372 45.7181,-0.89654 51.95412,1.07762 8.30897,2.63041 22.41903,1.99708 41.04588,-1.84235 21.28247,-4.38682 37.02357,-4.7188 48.80916,-1.02939 7.30768,2.28763 8.36725,2.37338 16.5,1.33528 5.89281,-0.75218 10.15729,-1.93408 13.24571,-3.67104 5.56132,-3.12776 14.73842,-4.5602 29.44513,-4.59605 7.695,-0.0188 13.5539,-0.65405 19.5,-2.1144 10.8871,-2.67385 17.4927,-2.80499 21.9902,-0.43657 4.9556,2.60963 36.187,5.46595 38.5274,3.52358 1.4364,-1.19212 1.3349,-1.56682 -1.0141,-3.74498 -3.0759,-2.85217 -2.8338,-4.62274 0.6897,-5.04393 1.8158,-0.21705 3.2537,0.5459 5.0482,2.67848 2.3217,2.75929 3.2839,3.07236 12.8839,4.19209 12.0829,1.40934 31.1201,0.73787 44.3747,-1.56517 11.7697,-2.04503 12.5,-2.30622 12.5,-4.4705 0,-1.00861 1.9734,-6.94079 4.3853,-13.18262 6.7687,-17.51689 9.9633,-31.41167 9.9666,-43.34878 0,-12.21853 -1.6627,-18.28169 -7.8892,-28.71168 -5.4238,-9.08527 -6.6607,-15.33037 -5.4071,-27.30059 0.4601,-4.39325 0.8608,-11.81943 0.8905,-16.50262 0.047,-7.35325 -0.3341,-9.3314 -2.7899,-14.5 -3.5534,-7.47866 -7.0916,-24.94973 -5.396,-26.64527 2.1109,-2.11093 3.8849,0.84225 5.6546,9.41308 0.9365,4.53589 3.1303,11.39708 4.875,15.24708 3.0663,6.76619 3.1587,7.36742 2.7648,18 -0.2241,6.05 -0.4405,15.725 -0.481,21.5 l -0.074,10.5 4.2931,7 c 6.6285,10.80781 8.7248,18.71413 8.6171,32.5 -0.1187,15.19154 -3.0879,26.95542 -13.9313,55.19542 -0.5722,1.49022 0.358,1.39002 7.685,-0.82786 20.8562,-6.31304 45.3476,-17.41901 78.6257,-35.65388 l 22.2896,-12.21368 3.1707,-6.39826 c 2.696,-5.44044 3.2301,-7.7608 3.5679,-15.5 0.5054,-11.58062 -4.1349,-40.222 -9.8493,-60.7925 -10.5638,-38.02727 -12.0716,-43.99758 -13.4627,-53.30924 -2.8248,-18.90762 -1.7798,-30.08038 4.5363,-48.5 5.879,-17.14479 8.2281,-29.4166 8.2311,-43 0,-14.74058 -1.7384,-21.2433 -11.789,-44.01262 -4.2456,-9.61806 -13.0191,-30.98738 -19.4968,-47.48738 -6.4778,-16.5 -12.6593,-32.025 -13.7369,-34.5 l -1.9591,-4.5 -4.2604,8.45594 c -4.4654,8.8629 -8.943,14.04406 -12.1368,14.04406 -2.9471,0 -2.3236,-3.76779 1.1002,-6.64873 1.6469,-1.38578 4.5695,-5.74423 6.4946,-9.68544 1.9251,-3.94121 4.3417,-8.74083 5.3702,-10.66583 1.0284,-1.925 3.351,-6.57805 5.1612,-10.34011 l 3.2913,-6.8401 -1.1656,-10.1599 c -0.6411,-5.58794 -1.8128,-14.32127 -2.6038,-19.40739 -2.3014,-14.79756 -0.7342,-21.13016 8.3535,-33.7525 12.7756,-17.7445 12.105,-16.26568 12.0971,-26.68017 0,-5.12591 -0.2866,-12.27819 -0.6282,-15.89396 l -0.6211,-6.57414 -7.6218,4.97012 c -4.192,2.73356 -8.6029,6.14192 -9.8021,7.57413 -1.9806,2.36565 -2.3872,2.47787 -4.4414,1.22597 -2.0575,-1.25386 -2.4693,-1.13617 -4.5698,1.30576 -1.2697,1.4761 -2.3085,3.72862 -2.3085,5.00561 0,4.27271 -4.3563,5.64132 -10.0794,3.16658 -1.1745,-0.50786 -2.0536,0.36872 -3.4293,3.41934 -2.5883,5.73987 -4.6477,6.60717 -9.7244,4.0954 -2.2541,-1.11527 -4.4142,-1.83264 -4.8,-1.59416 -1.1901,0.73551 -1.8318,9.86335 -0.8257,11.74344 1.5104,2.82216 -0.7487,30.96765 -3.1873,39.70953 -1.1466,4.1104 -4.5303,12.0327 -7.5193,17.60513 -3.0692,5.7218 -5.4346,11.41844 -5.4346,13.08799 0,3.04979 2.2674,6.15208 6.5449,8.95478 4.5186,2.96072 2.1275,8.03642 -6.0409,12.82343 -3.9614,2.32155 -4.504,3.05609 -4.504,6.09737 0,2.97875 -0.331,3.45785 -2.3887,3.45785 -1.9364,0 -2.5125,-0.6601 -3.0427,-3.48599 -0.8643,-4.60698 0.3636,-6.62034 6.4,-10.49387 2.7673,-1.77575 5.0314,-3.42172 5.0314,-3.65772 0,-0.236 -1.5168,-1.9459 -3.3707,-3.79979 -6.1163,-6.11626 -5.5101,-13.1313 2.306,-26.68816 7.1958,-12.48101 10.0647,-24.90538 10.0647,-43.58765 l 0,-8.26565 -5.236,-5.76058 c -5.4191,-5.96211 -5.4251,-5.96421 -13.2208,-4.65699 -3.7787,0.63364 -4.1392,0.45317 -8.0116,-4.01052 l -4.0548,-4.67402 -4.8005,1.77916 -4.8004,1.77917 -3.3952,-4.08742 c -1.8674,-2.24808 -4.942,-5.26716 -6.8324,-6.70906 l -3.4372,-2.62164 -5.3555,2.95225 c -9.2255,5.08551 -11.1526,4.06583 -17.36,-9.18568 -1.4618,-3.12078 -3.329,-5.93167 -4.1492,-6.24641 -1.903,-0.73024 -4.8676,0.834 -9.5993,5.06489 -4.4979,4.02186 -7.914,4.27968 -11.338,0.85568 -1.375,-1.375 -2.9974,-2.5 -3.6052,-2.5 -0.6079,0 -3.5024,2.475 -6.4323,5.5 -2.9299,3.025 -6.0417,5.5 -6.9151,5.5 -2.4251,0 -5.5842,-1.88085 -9.5956,-5.71291 -2.1587,-2.06219 -4.3949,-3.3309 -5.4969,-3.11868 -1.0217,0.19677 -3.8841,3.14547 -6.3609,6.55266 -5.2545,7.22851 -7.6521,7.84678 -14.612,3.768 l -4.2845,-2.51093 -5.9368,6.01093 c -3.2652,3.30601 -6.59764,6.01093 -7.40539,6.01093 -1.37778,0 -3.79824,-1.53252 -10.47382,-6.63154 l -2.79059,-2.13154 -6.5,3.8564 c -3.575,2.12102 -7.0991,4.15491 -7.83134,4.51975 -0.82999,0.41354 -3.46604,-1.43951 -7,-4.92076 -8.0933,-7.97257 -10.271,-8.92924 -15.72479,-6.90793 -5.71411,2.1178 -7.80332,0.99169 -13.91074,-7.49811 -4.27011,-5.93581 -4.80331,-6.35173 -6.34919,-4.95273 -5.35874,4.84959 -10.17527,4.01121 -17.34979,-3.01997 -5.40499,-5.29699 -7.83541,-5.34374 -12.60301,-0.24243 -3.28041,3.51003 -8.90529,5.13919 -14.63328,4.23831 l -3.90213,-0.61372 0.63881,3.99489 c 0.35134,2.19719 1.63627,6.20315 2.8554,8.90213 3.3183,7.34631 2.94146,17.33877 -1.08069,28.65537 -5.27785,14.84965 -4.34408,18.37132 8.45099,31.87253 8.06886,8.51417 9.63513,10.94561 14.27323,22.15741 0.63207,1.52794 1.94062,3.02094 2.90788,3.31779 10.92978,3.3543 25.33452,14.1581 23.89136,17.91892 -0.90273,2.35247 -2.76608,1.76089 -6.77079,-2.1496 l -3.72241,-3.63483 -1.49671,3.58214 c -0.8232,1.97018 -3.25221,6.19335 -5.3978,9.38483 -5.81833,8.6545 -5.83931,8.91312 -0.96586,11.90975 2.32147,1.42745 5.57086,3.89371 7.22086,5.48058 1.65,1.58686 4.52369,4.10781 6.38597,5.60209 4.46117,3.57961 6.13081,7.87409 6.03718,15.52815 -0.10426,8.52248 -1.90093,14.28212 -4.45519,14.28212 -1.495,0 -1.91162,-0.60082 -1.73355,-2.5 1.48392,-15.82595 1.42653,-17.46301 -0.7321,-20.88351 -2.68759,-4.25865 -3.73157,-3.27139 -4.63074,4.37912 -0.64176,5.46042 -1.28865,6.69402 -7.59656,14.48654 -10.09997,12.47705 -16.71694,26.89127 -29.38794,64.01785 -11.98816,35.12579 -13.15161,40.91186 -9.58464,47.66608 1.11361,2.10865 2.59174,6.75892 3.28474,10.33392 0.69301,3.575 1.85689,7.94805 2.58642,9.71788 1.97951,4.80232 1.63935,7.71923 -1.66316,14.26145 -6.85178,13.57331 -8.96003,28.09076 -9.00676,62.02067 -0.0346,25.15955 -0.29365,27.24743 -3.32491,26.80247 -2.02711,-0.29756 -2.05673,-0.72431 -1.82563,-26.30247 0.33085,-36.61841 1.99254,-48.59381 8.80951,-63.48808 3.32982,-7.27526 3.38532,-7.60211 1.95266,-11.5 -0.81101,-2.20656 -2.00832,-6.71192 -2.66068,-10.01192 -0.65236,-3.3 -1.97318,-7.575 -2.93516,-9.5 -2.56779,-5.13835 -3.16929,-9.93697 -2.01111,-16.04405 1.31268,-6.92173 19.98504,-61.58891 25.04697,-73.33016 4.887,-11.33549 12.10478,-23.28421 18.18801,-30.10943 3.13335,-3.51555 4.75667,-6.24019 4.75667,-7.9838 0,-1.4558 0.50697,-4.6603 1.12661,-7.1211 0.99114,-3.93617 0.90124,-4.7232 -0.74764,-6.5452 -1.03084,-1.13906 -3.22531,-2.75259 -4.87661,-3.58561 -8.55069,-4.31355 -9.49014,-8.65842 -3.85726,-17.83948 2.0048,-3.26764 4.71815,-7.80872 6.02966,-10.09128 l 2.38457,-4.1501 -3.27967,-2.02195 c -1.80381,-1.11206 -4.62966,-2.34407 -6.27966,-2.73778 -4.41703,-1.05396 -5.11517,-1.89054 -8.10323,-9.71022 -2.26219,-5.92007 -4.19893,-8.69261 -11.45989,-16.40543 -14.57074,-15.47748 -16.31286,-22.34596 -10.14172,-39.98466 3.86972,-11.06064 3.98449,-15.22275 0.66309,-24.04689 -1.91511,-5.088 -2.46982,-8.23696 -2.25,-12.77283 l 0.29175,-6.02003 8,-0.52826 c 4.4,-0.29054 8.52334,-0.85539 9.16299,-1.25524 0.63964,-0.39984 1.47474,-2.57222 1.85576,-4.82751 0.91204,-5.39827 3.13317,-7.43237 8.99277,-8.23551 6.835,-0.93685 12.91432,-4.81762 16.12244,-10.29186 2.67191,-4.55927 2.71311,-4.58245 7.27658,-4.09451 2.5242,0.2699 5.37993,0.8195 6.34605,1.22133 1.42465,0.59253 2.21484,-0.30556 4.18145,-4.75241 3.25033,-7.34958 6.76916,-10.07544 12.22062,-9.46669 2.28727,0.25542 5.50673,1.4243 7.15437,2.59753 1.64764,1.17322 3.21488,2.13313 3.48276,2.13313 0.26788,0 1.19821,-1.77737 2.06741,-3.94972 2.45438,-6.13409 7.19321,-7.76025 11.87728,-4.07576 l 2.51019,1.97452 3.56294,-5.36616 3.56293,-5.36616 6.00192,-0.0845 c 5.14078,-0.0724 6.09191,0.19904 6.62912,1.89164 0.745,2.34729 2.05232,2.56539 2.85405,0.47613 0.33938,-0.88442 1.84058,-1.5 3.65797,-1.5 2.5363,0 3.3245,0.5794 4.4489,3.2703 1.6718,4.00133 4.1784,6.36102 7.687,7.23648 1.4605,0.36444 2.8809,1.5245 3.1564,2.57791 0.4221,1.61396 1.4288,1.91531 6.3987,1.91531 4.8353,0 6.7501,0.54049 10.6283,3 5.1925,3.29296 8.4122,3.81229 9.2995,1.5 0.9906,-2.58162 4.2408,-1.65257 8.7458,2.5 2.3867,2.2 4.8401,4 5.4519,4 0.6119,0 1.8106,-1.35 2.6639,-3 1.9484,-3.76781 3.8367,-3.76647 9.5,0.007 2.475,1.64901 6.4034,3.72976 8.7299,4.6239 3.9063,1.50133 4.42,1.50114 6.7148,-0.002 3.5421,-2.32085 4.9123,-2.0755 11.0063,1.97064 2.9811,1.97935 5.841,3.33871 6.3554,3.02081 0.5144,-0.31791 1.2184,-1.99363 1.5644,-3.72382 0.5865,-2.93222 0.8484,-3.10196 3.8584,-2.49998 1.776,0.35521 4.8148,2.19423 6.7529,4.08671 2.6179,2.55632 3.9086,3.19758 5.0208,2.49448 2.0526,-1.29759 6.4847,-1.21082 11.2619,0.22048 3.6748,1.10099 4.1403,1.0204 5.7764,-1 2.2115,-2.73112 4.1037,-2.79638 5.7267,-0.1975 1.6287,2.60792 5.463,2.56023 10.245,-0.12741 3.5449,-1.99237 3.9327,-2.02411 6.1087,-0.5 3.1256,2.18931 5.8011,2.04862 8.4551,-0.44461 l 2.2055,-2.07203 5.3054,2.68845 5.3054,2.68845 1.7138,-2.11642 c 2.2932,-2.83199 6.1897,-2.6729 9.492,0.38755 1.486,1.37719 6.2551,3.62647 10.5981,4.99841 10.0504,3.17493 12.9546,4.70055 16.1286,8.47265 2.4916,2.96101 2.6863,3.01414 6.9079,1.88501 5.869,-1.56972 11.3562,-0.4816 12.1764,2.41459 0.3467,1.22395 1.1477,10.22584 1.78,20.00421 l 1.1498,17.77885 -6.9198,9.92842 c -3.8059,5.46063 -8.3702,12.00535 -10.1429,14.54384 -5.8565,8.38655 -6.4012,13.90133 -3.2564,32.97004 2.909,17.63874 2.6876,23.95072 -1.0918,31.13548 -1.6987,3.22936 -2.8609,6.73815 -2.6005,7.85155 0.2589,1.10713 3.1536,8.53797 6.4328,16.51297 3.2791,7.975 9.462,23.5 13.7398,34.5 4.2778,11 10.6966,26.525 14.264,34.5 8.2364,18.41272 11.8316,28.98795 13.3234,39.19096 2.1323,14.58257 -0.6694,33.69755 -8.1477,55.58833 -8.5057,24.89859 -7.665,39.90119 4.6133,82.31738 10.5938,36.59739 12.3768,47.19213 12.3391,73.32061 -0.027,18.83134 -0.1555,20.16715 -2.3527,24.5 -1.2782,2.5205 -3.1602,5.32686 -4.1821,6.23636 -2.2746,2.02433 -34.0395,19.66094 -48.2981,26.81626 -40.2539,20.20034 -71.6011,29.54351 -103.1749,30.75177 -9.0475,0.34623 -18.3222,0.0926 -24.3467,-0.66566 -9.4337,-1.18742 -9.7765,-1.16109 -11.1918,0.85952 -1.2932,1.84624 -2.4535,2.08038 -10.1533,2.04867 -13.7929,-0.0568 -32.4285,-2.31509 -35.216,-4.26754 -3.1594,-2.21297 -7.0228,-2.14049 -17.164,0.322 -5.5104,1.33805 -13.3707,2.20312 -23.3133,2.56576 -16.70571,0.60933 -23.33702,1.71294 -26.83747,4.46639 -5.26712,4.14312 -24.22301,5.15401 -33.94408,1.81019 -8.96192,-3.08269 -23.11712,-2.86564 -40.69485,0.624 -12.97936,2.57675 -14.27026,2.65066 -35,2.00388 -11.83798,-0.36934 -25.7986,-0.62421 -31.0236,-0.56636 -5.225,0.0579 -11.75,-0.24573 -14.5,-0.67461 -3.08693,-0.48143 -7.6783,-0.31061 -12,0.44646 -6.40783,1.12251 -20.60298,1.62155 -23,0.80858 z m -2.5,-4.50295 c 0,-0.55 -0.19844,-1 -0.44098,-1 -0.24254,0 -0.7191,0.45 -1.05902,1 -0.33992,0.55 -0.14148,1 0.44098,1 0.58246,0 1.05902,-0.45 1.05902,-1 z m 9.12756,-8.75 c 1.24387,-1.58606 1.2085,-1.62143 -0.37756,-0.37756 -0.9625,0.75485 -1.75,1.54235 -1.75,1.75 0,0.82304 0.82119,0.29331 2.12756,-1.37244 z m 328.62244,1.02153 c -2.0625,-0.21574 -5.4375,-0.21574 -7.5,0 -2.0625,0.21575 -0.375,0.39226 3.75,0.39226 4.125,0 5.8125,-0.17651 3.75,-0.39226 z M 205.62757,832.8979 c 1.24387,-1.58606 1.2085,-1.62143 -0.37756,-0.37756 -0.9625,0.75485 -1.75,1.54235 -1.75,1.75 0,0.82304 0.82119,0.29331 2.12756,-1.37244 z m 73.61701,-169 c -0.18332,-4.8125 -0.3333,-0.875 -0.3333,8.75 0,9.625 0.14998,13.5625 0.3333,8.75 0.18331,-4.8125 0.18331,-12.6875 0,-17.5 z m 49.38299,-204 c 1.24387,-1.58606 1.2085,-1.62143 -0.37756,-0.37756 -0.9625,0.75485 -1.75,1.54235 -1.75,1.75 0,0.82304 0.82119,0.29331 2.12756,-1.37244 z m 244.87244,-46.62756 c 0,-0.20765 -0.7875,-0.99515 -1.75,-1.75 -1.5861,-1.24387 -1.6214,-1.2085 -0.3776,0.37756 1.3064,1.66575 2.1276,2.19548 2.1276,1.37244 z m -233,-3 c 0,-0.20765 -0.7875,-0.99515 -1.75,-1.75 -1.58606,-1.24387 -1.62143,-1.2085 -0.37756,0.37756 1.30637,1.66575 2.12756,2.19548 2.12756,1.37244 z m -34,-32.90374 c 0,-0.15472 -2.8125,-2.96722 -6.25,-6.25 l -6.25,-5.9687 5.9687,6.25 c 5.54441,5.80572 6.5313,6.7076 6.5313,5.9687 z m 275,-47.09626 c 0,-0.20765 -0.7875,-0.99515 -1.75,-1.75 -1.5861,-1.24387 -1.6214,-1.2085 -0.3776,0.37756 1.3064,1.66575 2.1276,2.19548 2.1276,1.37244 z m 3.9493,-12.78245 c 2.9304,-2.37295 4.569,-2.3192 8.2039,0.2691 1.6291,1.16 3.1328,1.93828 3.3415,1.72951 0.2088,-0.20877 1.2919,-2.50786 2.4069,-5.10909 2.2294,-5.20084 4.0233,-5.85395 9.0043,-3.27815 2.7913,1.44343 2.8131,1.43005 3.9745,-2.44635 1.4088,-4.70246 5.5207,-8.21856 9.1642,-7.83639 1.7122,0.1796 3.7878,-0.69125 5.9163,-2.48229 1.8034,-1.51743 4.6874,-3.52 6.409,-4.45017 l 3.1301,-1.69122 -3.6716,-0.52247 c -2.4258,-0.3452 -4.4088,-1.46498 -5.8445,-3.30037 -2.5178,-3.2187 -7.599,-6.01421 -13.9895,-7.6966 -2.4719,-0.65075 -6.8172,-2.47915 -9.6562,-4.06311 -4.4479,-2.48161 -5.3292,-2.67816 -6.3724,-1.42115 -1.5414,1.85729 -6.0541,1.86655 -10.47,0.0215 -3.0211,-1.26232 -3.8129,-1.25123 -6.5037,0.0911 -2.5476,1.27089 -3.8838,1.33173 -7.9301,0.36102 -4.0837,-0.97966 -5.3565,-0.91391 -7.9145,0.40887 -3.5456,1.83351 -7.4421,2.02415 -10.2841,0.50315 -1.3954,-0.74678 -2.9026,-0.76025 -4.9565,-0.0443 -2.2386,0.78039 -4.1541,0.64042 -7.9316,-0.5796 -4.6038,-1.48684 -5.1184,-1.48349 -6.8065,0.0443 -2.7752,2.51145 -5.2218,2.00688 -9.2254,-1.90256 l -3.6409,-3.55527 -1.6743,2.55527 c -2.4178,3.69005 -7.9978,3.51894 -13.4238,-0.41164 -3.6518,-2.64534 -4.4344,-2.84886 -7.2202,-1.87773 -4.5677,1.59232 -10.5103,0.43818 -16.3113,-3.1679 -5.0209,-3.12116 -5.1302,-3.14091 -6.6944,-1.20923 -3.3469,4.1333 -8.8841,3.5692 -14.1358,-1.4401 -2.4827,-2.36816 -2.8918,-2.44981 -6.2286,-1.2432 -3.3706,1.2188 -3.9691,1.08371 -10.6417,-2.40174 -5.2829,-2.75955 -8.2812,-3.69318 -11.8603,-3.69318 -5.072,0 -8.6393,-1.96879 -15.8542,-8.75 -3.93701,-3.70031 -4.2579,-3.83033 -4.2579,-1.72525 0,1.68184 -4.61875,3.83553 -6.59732,3.07628 -0.68883,-0.26433 -1.86378,-2.6452 -2.61101,-5.29081 -0.82339,-2.91529 -1.93073,-4.81022 -2.81093,-4.81022 -0.79879,0 -2.92074,2.25 -4.71544,5 -5.24177,8.03189 -8.61372,9.37357 -13.63375,5.42482 l -2.63817,-2.07519 -1.96395,4.58171 c -2.50706,5.84874 -6.01179,7.73156 -9.87253,5.30374 -7.10797,-4.46983 -8.98661,-5.1213 -10.69047,-3.70722 -0.8963,0.74386 -2.94537,3.95894 -4.5535,7.14463 -3.59016,7.11205 -6.52543,8.21586 -14.10915,5.30571 -0.84452,-0.32408 -2.56486,1.14776 -4.42329,3.78433 -2.06403,2.92827 -4.94337,5.26624 -8.96088,7.27607 -3.25578,1.62877 -6.08107,3.04786 -6.27841,3.15353 -0.76564,0.40999 11.43466,11.237 12.70107,11.27141 0.73825,0.0201 2.48644,-0.86354 3.88486,-1.96354 5.12514,-4.03143 8.94497,-2.06573 15.96232,8.2143 l 3.18946,4.67238 3.88965,-1.5279 c 5.83147,-2.29067 10.92881,-0.56617 17.37223,5.87724 l 5.16562,5.16563 7.0968,-3.72275 c 3.90323,-2.04752 7.83529,-3.71289 8.73791,-3.70083 0.90261,0.0121 3.81936,1.82193 6.48167,4.02193 2.6623,2.2 5.09071,4 5.39647,4 0.30576,0 2.75354,-2.23116 5.43954,-4.95814 6.2651,-6.36078 9.1651,-7.03838 15.139,-3.5374 2.5076,1.46952 4.676,2.51969 4.8187,2.3337 0.1426,-0.18599 1.6902,-2.45564 3.4389,-5.04366 4.064,-6.01459 6.6648,-7.7945 11.3895,-7.7945 3.0432,0 4.6639,0.79646 8.1393,4 2.3867,2.2 4.7982,4 5.3589,4 0.5608,0 2.224,-1.57915 3.6961,-3.50923 2.44,-3.19897 9.0209,-7.49077 11.4862,-7.49077 0.5527,0 2.5749,1.3784 4.4937,3.0631 l 3.4887,3.06311 4.5052,-4.15278 c 5.5587,-5.12386 10.7293,-6.2343 14.6469,-3.14561 1.4079,1.11004 4.2563,5.45063 6.3296,9.64575 l 3.7697,7.6275 5.4053,-3.05054 c 2.9728,-1.67779 6.3642,-3.05053 7.5364,-3.05053 2.4064,0 10.8845,5.89465 13.7892,9.58746 1.6451,2.09134 2.2937,2.29316 4.5784,1.42453 5.3374,-2.02928 7.8019,-1.29187 12.0742,3.61278 l 4.0426,4.64103 3.1577,-1.6329 c 4.9097,-2.53889 6.751,-2.01733 11.425,3.23618 l 4.332,4.86908 0.5885,-4.02909 c 0.3604,-2.46731 1.4693,-4.74231 2.8608,-5.86908 z m -8.9493,6.78245 c 0,-0.20765 -0.7875,-0.99515 -1.75,-1.75 -1.5861,-1.24387 -1.6214,-1.2085 -0.3776,0.37756 1.3064,1.66575 2.1276,2.19548 2.1276,1.37244 z m -196,-9 c 0,-0.20765 -0.7875,-0.99515 -1.75,-1.75 -1.58606,-1.24387 -1.62143,-1.2085 -0.37756,0.37756 1.30637,1.66575 2.12756,2.19548 2.12756,1.37244 z m 25,-0.94813 c 0,-0.17912 -1.2375,-1.41662 -2.75,-2.75 l -2.75,-2.42431 2.42431,2.75 c 2.26589,2.57029 3.07569,3.20859 3.07569,2.42431 z m 12.5,-4.67431 c 0.9955,-1.1 1.585,-2 1.31,-2 -0.275,0 -1.3145,0.9 -2.31,2 -0.9955,1.1 -1.585,2 -1.31,2 0.275,0 1.3145,-0.9 2.31,-2 z M 289.193,296.91693 c -0.25354,-0.97297 -0.47766,-0.41903 -0.49804,1.23097 -0.0204,1.65 0.18706,2.44606 0.46099,1.76903 0.27392,-0.67703 0.29059,-2.02703 0.0371,-3 z m 202.80701,-0.26903 c 0.9955,-1.1 1.585,-2 1.31,-2 -0.275,0 -1.3145,0.9 -2.31,2 -0.9955,1.1 -1.585,2 -1.31,2 0.275,0 1.3145,-0.9 2.31,-2 z m -197.25,-3.66228 c -0.6875,-0.27741 -1.8125,-0.27741 -2.5,0 -0.6875,0.27741 -0.125,0.50438 1.25,0.50438 1.375,0 1.9375,-0.22697 1.25,-0.50438 z m 36.25,-21.33772 c 0.99549,-1.1 1.58498,-2 1.30998,-2 -0.275,0 -1.31449,0.9 -2.30998,2 -0.99549,1.1 -1.58498,2 -1.30998,2 0.275,0 1.31449,-0.9 2.30998,-2 z m 272.5,1.62244 c 0,-0.20765 -0.7875,-0.99515 -1.75,-1.75 -1.5861,-1.24387 -1.6214,-1.2085 -0.3776,0.37756 1.3064,1.66575 2.1276,2.19548 2.1276,1.37244 z M 391.62757,247.8979 c 1.24387,-1.58606 1.2085,-1.62143 -0.37756,-0.37755 -0.9625,0.75484 -1.75,1.54234 -1.75,1.75 0,0.82303 0.82119,0.2933 2.12756,-1.37245 z m -56.74142,584.31387 c -1.13831,-2.96637 0.3988,-4.71101 3.85698,-4.37774 2.72364,0.26248 3.25688,0.72319 3.25688,2.81387 0,2.09068 -0.53324,2.55139 -3.25688,2.81387 -2.24306,0.21617 -3.44367,-0.17293 -3.85698,-1.25 z m 120.97546,-1.06387 c -0.8846,-2.3052 0.4314,-4.68592 2.3854,-4.31536 1.0586,0.20077 1.8783,1.41841 2.0694,3.07391 0.256,2.21795 -0.084,2.74145 -1.7814,2.74145 -1.1538,0 -2.3568,-0.675 -2.6734,-1.5 z m -353.34942,-2.80644 c -4.905026,-1.67854 -5.067676,-4.19011 -0.3717,-5.73992 2.51809,-0.83105 6.37041,-3.98378 11.72494,-9.59567 5.53788,-5.80407 8.68661,-8.35797 10.30462,-8.35797 3.94283,0 2.68865,2.61182 -5.13477,10.6931 -4.10561,4.24092 -7.34129,7.83422 -7.1904,7.9851 0.15089,0.15089 2.6498,-0.62826 5.55314,-1.73144 11.92741,-4.53206 20.26943,-4.58367 20.92154,-0.12944 0.29704,2.0289 -0.0905,2.18362 -5.5,2.19606 -3.85331,0.009 -8.69144,1.01794 -14.31955,2.98662 -9.37437,3.27909 -10.8865,3.43927 -15.98782,1.69356 z m 2.98782,-2.69356 c 0,-0.55 -0.47656,-1 -1.05902,-1 -0.58246,0 -0.7809,0.45 -0.44098,1 0.33992,0.55 0.81648,1 1.05902,1 0.24254,0 0.44098,-0.45 0.44098,-1 z m 7.12755,-6.75 c 1.24388,-1.58606 1.20851,-1.62143 -0.37755,-0.37756 -1.66575,1.30637 -2.19548,2.12756 -1.37245,2.12756 0.20766,0 0.99516,-0.7875 1.75,-1.75 z m 6.37245,-7.25 c 0.99549,-1.1 1.58497,-2 1.30997,-2 -0.275,0 -1.31448,0.9 -2.30997,2 -0.99549,1.1 -1.58498,2 -1.30998,2 0.275,0 1.31449,-0.9 2.30998,-2 z m 230.5,15.5 c -0.99495,-1.19884 -0.98691,-1.81084 0.0401,-3.04826 2.04058,-2.45874 5.40714,-1.41069 5.77637,1.79826 0.26881,2.33617 -0.0514,2.75 -2.12755,2.75 -1.34419,0 -3.00418,-0.675 -3.68887,-1.5 z m -198,-6.5 c 0,-3.22288 0.35883,-4 1.84699,-4 2.34359,0 6.15301,3.25673 6.15301,5.26031 0,1.7347 -2.04753,2.73969 -5.58179,2.73969 -2.15458,0 -2.41821,-0.43608 -2.41821,-4 z m 4,0.55902 c 0,-0.24254 -0.45,-0.7191 -1,-1.05902 -0.55,-0.33992 -1,-0.14148 -1,0.44098 0,0.58246 0.45,1.05902 1,1.05902 0.55,0 1,-0.19844 1,-0.44098 z m 310.4113,1.55003 c -4.1657,-2.54023 -7.0944,-6.44828 -9.1324,-12.18644 -1.8205,-5.12591 -0.7664,-4.40893 -16.7789,-11.4117 -6.2747,-2.74413 -11.5,-6.9377 -11.5,-9.22939 0,-2.66012 2.9708,-2.39939 6.6996,0.588 2.0902,1.67464 6.9504,4.225 10.8004,5.66747 10.7775,4.03796 13.1286,5.82862 14.9829,11.41152 1.4821,4.46209 5.0571,8.92628 9.9296,12.39915 1.1847,0.84441 1.6723,1.98895 1.2814,3.00773 -0.8203,2.13749 -2.4801,2.07241 -6.2826,-0.24634 z m 113.9897,-2.50651 c -0.3706,-0.96563 2.2923,-5.58842 7.0988,-12.32391 4.2305,-5.92825 9.1112,-13.36079 10.846,-16.51676 2.9917,-5.44247 5.6429,-7.20728 7.154,-4.7622 0.9292,1.50354 -5.0376,12.05315 -13.5281,23.91849 -7.3848,10.32 -10.3685,12.81728 -11.5707,9.68438 z M 94.500014,806.66921 c -2.475,-0.46377 -6.75,-1.87838 -9.5,-3.14358 -6.113,-2.81244 -15.68834,-2.96806 -31.62834,-0.51402 -5.84558,0.89996 -12.48308,1.63629 -14.75,1.63629 -3.83047,0 -4.12143,-0.19428 -4.11843,-2.75 0.003,-2.69011 0.13928,-2.75327 6.25,-2.90026 3.43572,-0.0826 11.42177,-0.91912 17.74677,-1.85885 13.85858,-2.05901 22.09385,-1.51017 29.71875,1.98063 6.56629,3.00614 18.320626,3.48433 25.281246,1.02848 6.18235,-2.18126 8.20826,-1.98695 7.81955,0.75 -0.59248,4.17171 -16.77356,7.65372 -26.819546,5.77131 z m 142.666666,-4.68798 c -0.36667,-0.36666 -0.66667,-1.94166 -0.66667,-3.5 0,-2.13795 0.47637,-2.83333 1.94098,-2.83333 2.52011,0 3.39705,1.51705 2.63411,4.55684 -0.58569,2.33358 -2.48709,3.19782 -3.90842,1.77649 z m -101.17833,-7.3864 c -0.81334,-3.70314 1.14881,-6.40713 3.8869,-5.35643 2.7015,1.03666 1.85035,7.80611 -1.03316,8.21698 -1.71123,0.24384 -2.30195,-0.3483 -2.85374,-2.86055 z m -89.488336,-3.4267 c 0,-4.76601 16.0817,-11.83313 29.7727,-13.08364 4.45454,-0.40687 8.58542,-1.56512 12.2273,-3.42838 7.95094,-4.06788 11.633166,-4.87069 29.785786,-6.49402 17.18467,-1.53676 22.4421,-2.56948 28.30327,-5.55962 3.88458,-1.98177 9.36557,-7.6609 10.33184,-10.70535 0.32856,-1.0352 4.53077,-4.06154 9.33824,-6.72519 4.80747,-2.66364 11.44086,-6.68373 14.74086,-8.93351 l 6,-4.09052 14,-0.54299 c 16.7837,-0.65096 18.97742,-1.46042 32,-11.80762 14.67365,-11.65907 21.56336,-13.98413 31,-10.46152 3.80288,1.41958 5.08047,2.42885 5.33608,4.21543 0.2995,2.09332 0.0274,2.28868 -2.5,1.79502 -1.55984,-0.30466 -4.69952,-1.1163 -6.97706,-1.80362 -5.8791,-1.77422 -11.03627,0.44786 -23.24421,10.01533 -14.12477,11.06968 -17.53484,12.362 -34.03046,12.89656 -13.23761,0.42898 -13.47648,0.478 -18,3.69355 -2.52139,1.79234 -8.74685,5.59171 -13.83435,8.44303 -5.0875,2.85133 -9.25,5.62484 -9.25,6.16337 0,2.06047 -9.32865,10.82769 -13.71486,12.88945 -5.79948,2.72608 -15.83915,4.60124 -29.28514,5.46976 -13.75407,0.88841 -22.710206,2.96461 -28.426526,6.5898 -3.29679,2.09075 -5.89799,2.94445 -8.97171,2.94445 -9.42404,0 -23.26714,4.16467 -28.51171,8.57768 -3.77177,3.17373 -6.09005,3.15186 -6.09005,-0.0575 z m 192.999996,-2.05161 c 0,-3.09727 2.59728,-4.29991 4.71429,-2.18291 2.117,2.11701 0.91436,4.71429 -2.18291,4.71429 -2.04184,0 -2.53138,-0.48954 -2.53138,-2.53138 z m -94.75,-2.1309 c -3.17232,-1.28006 -0.0175,-7.33772 3.82143,-7.33772 2.53636,0 2.60058,4.08186 0.0998,6.34501 -1.94417,1.75945 -1.99143,1.77141 -3.92126,0.99271 z m 262.93266,-4.47633 c -4.58448,-2.26926 -6.38097,-4.24646 -13.93315,-15.33471 -6.31323,-9.2692 -7.33271,-9.71886 -20.26075,-8.93646 -13.49298,0.81659 -15.45298,0.007 -27.08579,-11.18356 l -8.99404,-8.65237 -5.20447,0.68519 c -2.86245,0.37686 -6.88057,0.92832 -8.92916,1.22548 -4.96257,0.71984 -11.1028,-1.48613 -19.80395,-7.11487 -4.95109,-3.20285 -7.00846,-5.11888 -6.77852,-6.31285 0.58171,-3.02057 3.12523,-2.40381 11.25333,2.72877 8.11559,5.12466 12.80988,6.72228 16.40208,5.58216 3.81805,-1.2118 7.80539,-18.52388 6.62379,-28.75889 l -0.65928,-5.71071 -2.78326,2.05775 c -1.53079,1.13176 -3.62616,1.89699 -4.65637,1.7005 -2.59051,-0.49407 -3.03783,-4.49107 -0.58958,-5.26812 1.04507,-0.33169 2.92551,-1.69454 4.17875,-3.02856 2.08188,-2.21606 2.27089,-3.31545 2.18905,-12.73281 -0.12125,-13.95293 1.54977,-18.41514 8.11565,-21.67161 4.24268,-2.10424 5.1081,-2.223 7.86827,-1.07969 3.82078,1.58262 6.85603,6.3443 6.861,10.76352 0.003,2.84741 -0.30787,3.2741 -2.18715,3 -1.48564,-0.21669 -2.44649,-1.31145 -2.98489,-3.40088 -0.4367,-1.69474 -1.60422,-3.81459 -2.5945,-4.71077 -1.66867,-1.51013 -2.01659,-1.48769 -4.75172,0.30653 -3.84097,2.51964 -5.30828,6.8034 -5.40192,15.77075 -0.0739,7.07629 -0.0165,7.2533 2.00206,6.173 2.46798,-1.32082 4.92186,-0.6039 4.92186,1.43796 0,0.8024 -1.40049,2.55495 -3.1122,3.89457 -3.0905,2.41868 -3.10445,2.47184 -2,7.6217 1.79466,8.36824 0.87394,19.81077 -2.43228,30.22774 -0.46812,1.47489 -0.0724,1.85985 1.91199,1.85985 4.64121,0 7.84078,2.01053 15.00125,9.42641 9.91019,10.26368 11.55509,10.954 24.06867,10.10108 14.4609,-0.98566 17.14701,0.22849 24.07251,10.88099 6.52852,10.04188 10.76705,14.09912 16.24006,15.54547 3.1738,0.83872 4.25,1.61984 4.25,3.08459 0,2.71046 -5.15417,2.62605 -10.81734,-0.17715 z m -53.18266,-31.2064 c 0,-0.18976 -1.0125,-1.20226 -2.25,-2.25 l -2.25,-1.90499 1.90499,2.25 c 1.79022,2.11444 2.59501,2.70524 2.59501,1.90499 z m 255,29.45359 c 0,-1.28792 1.3386,-2.42703 4.1953,-3.57004 2.3074,-0.92324 9.4106,-4.79711 15.7848,-8.60858 12.1022,-7.23649 16.0199,-8.44214 16.0199,-4.92996 0,1.1 -0.3518,2 -0.7818,2 -0.4299,0 -5.7174,2.9777 -11.75,6.6171 -16.828,10.15233 -23.4682,12.55493 -23.4682,8.49148 z m 57.8993,1.07113 c -2.4664,-1.04728 -14.8993,-12.76916 -14.8993,-14.04719 0,-2.77021 4.5646,-0.6542 10.5,4.86748 3.5473,3.3 6.9109,6 7.4748,6 0.5639,0 1.0252,0.9 1.0252,2 0,2.03858 -1.2388,2.39497 -4.1007,1.17971 z M 217.68359,742.8979 c 0.28638,-2.48893 0.69616,-2.75 4.31642,-2.75 2.86942,0 4.20288,-0.49463 4.71778,-1.75 0.41711,-1.01697 1.77846,-1.75 3.25,-1.75 2.16742,0 2.53222,0.44853 2.53222,3.1135 0,2.86148 -0.23302,3.0793 -2.87873,2.69099 -2.01705,-0.29604 -3.21689,0.11898 -4.00847,1.3865 -0.74611,1.1947 -2.33797,1.80901 -4.6877,1.80901 -3.29144,0 -3.53424,-0.20599 -3.24152,-2.75 z m 56.50935,-4.95032 c -2.81243,-0.72886 -1.93462,-6.69431 1.0474,-7.11796 2.94939,-0.41902 5.22882,3.94561 3.28425,6.28867 -0.69821,0.84128 -1.55187,1.47741 -1.89702,1.41361 -0.34516,-0.0638 -1.44074,-0.32674 -2.43463,-0.58432 z m 186.44877,-1.84664 c -2.9169,-3.70824 -3.4616,-7.62776 -2.1449,-15.43386 0.6424,-3.80858 0.8829,-7.82293 0.5344,-8.92078 -0.8792,-2.77023 -4.0607,-3.54167 -6.7707,-1.64177 -2.0696,1.4509 -2.2605,2.36426 -2.2605,10.81406 l 0,9.22931 -2.75,0.31642 c -2.6937,0.30995 -2.7502,0.20756 -2.761,-5 -0.016,-7.96913 -1.0028,-12.45408 -3.2751,-14.89314 -1.9767,-2.12175 -2.0878,-2.13242 -3.4076,-0.32746 -1.3258,1.81313 -2.1388,4.28305 -4.3471,13.20693 -1.4785,5.97498 -3.9826,8.19725 -9.2367,8.19725 -2.3526,0 -5.2307,-0.66764 -6.3957,-1.48365 -1.9489,-1.36508 -2.2458,-1.2889 -3.71493,0.95327 -3.59542,5.4873 -13.12658,3.71291 -16.34852,-3.04355 -1.77015,-3.71204 -1.54666,-5.26785 2.20732,-15.36638 1.91195,-5.1433 1.37044,-8.65796 -1.47299,-9.56043 -4.29888,-1.36441 -5.76675,0.20294 -6.99176,7.46562 -1.31525,7.79771 -6.0241,16.64084 -10.06377,18.89959 -3.5144,1.96506 -9.21968,0.75287 -13.2015,-2.80489 l -3.1709,-2.8332 -3.29126,2.51037 c -4.26438,3.2526 -11.06734,4.10293 -14.553,1.81904 -7.85872,-5.14923 -7.39479,-21.95116 0.78374,-28.38439 4.97658,-3.91458 11.49077,-1.84121 11.49077,3.65734 0,1.64934 -0.60094,2.17126 -2.5,2.17126 -1.375,0 -2.5,-0.45 -2.5,-1 0,-2.06393 -2.94107,-0.8915 -4.99323,1.9905 -3.02443,4.24742 -3.5685,9.02349 -1.51973,13.34095 2.37628,5.00764 4.85303,5.51128 9.84595,2.00213 l 4.09369,-2.87716 1.53666,-10.96535 c 1.26685,-9.04007 1.85236,-11.02601 3.3347,-11.31079 4.55565,-0.87521 5.71155,3.99102 3.62679,15.26851 -1.41409,7.64951 -0.65938,10.23329 3.57955,12.25469 3.27333,1.56094 3.56175,1.54665 5.57613,-0.27634 2.89727,-2.622 5.05652,-6.96404 6.42852,-12.92714 1.11779,-4.85827 1.07019,-5.07515 -1.67931,-7.65121 -3.74388,-3.5077 -3.8237,-7.92177 -0.19486,-10.77621 4.09658,-3.22237 7.19363,-2.7273 8.92959,1.42742 1.22009,2.9201 1.96996,3.5 4.52589,3.5 2.05265,0 4.02803,0.96452 5.98658,2.92308 3.70173,3.70173 3.80584,7.68597 0.43486,16.64185 -2.62359,6.97024 -2.34952,9.421 1.26114,11.27702 3.85113,1.97964 6.55713,-1.92824 7.66967,-11.07619 0.7582,-6.23427 1.50061,-7.23596 4.62731,-6.24358 1.8333,0.58186 2.0211,1.34014 1.7618,7.11383 -0.3184,7.08886 0.6383,8.59244 5.1683,8.12304 2.583,-0.26765 3.2005,-1.55455 5.981,-12.46358 1.3495,-5.29489 5.4649,-10.29547 8.473,-10.29547 1.252,0 3.4839,0.94991 4.9599,2.1109 2.5321,1.99182 2.7892,2.01524 4.5572,0.41525 1.0305,-0.9326 3.6869,-1.93884 5.903,-2.23609 3.524,-0.47267 4.4116,-0.15816 7.0776,2.50782 3.3825,3.38248 3.8288,6.8136 2.0834,16.01708 -0.9207,4.85463 0.1158,11.23294 1.8127,11.15514 1.3502,-0.0619 15.8317,-14.61498 17.8817,-17.9701 4.193,-6.86243 14.7425,-15 19.4459,-15 5.5169,0 7.4319,6.92903 3.8536,13.94311 -3.6315,7.11834 -13.0131,12.48932 -20.529,11.75286 -3.4332,-0.3364 -3.1493,1.46264 0.7255,4.59883 l 3.7255,3.0153 6.4622,-1.74922 c 3.5542,-0.96207 7.2777,-2.36754 8.2745,-3.12325 0.9968,-0.75571 2.8561,-1.38833 4.1319,-1.40583 1.8404,-0.0252 2.2535,0.43293 2,2.2182 -0.5826,4.10193 -15.4071,9.61276 -22.3535,8.30962 -2.0149,-0.37799 -5.128,-2.22065 -7.3947,-4.37692 l -3.9148,-3.7241 -4.5201,4.2707 c -5.4389,5.13884 -9.3807,5.68263 -12.4948,1.72374 z m -13.4082,-18.67661 c -0.2112,-2.35204 -0.3871,-0.67643 -0.3907,3.72357 0,4.4 0.1692,6.32439 0.3841,4.27643 0.2149,-2.04796 0.2178,-5.64796 0.01,-8 z m -97.7335,8.84601 c 0,-0.20765 -0.7875,-0.99515 -1.75,-1.75 -1.58606,-1.24387 -1.62143,-1.2085 -0.37756,0.37756 1.30637,1.66575 2.12756,2.19548 2.12756,1.37244 z m 66.9211,-7.37244 c -0.088,-6.44808 -0.5294,-6.08539 -1.2155,1 -0.2529,2.6125 -0.065,4.75 0.4172,4.75 0.4825,0 0.8417,-2.5875 0.7983,-5.75 z m 77.1606,1.10064 c 5.9327,-2.3738 11.8562,-11.07946 9.2868,-13.64879 -1.943,-1.94302 -16.3685,10.81486 -16.3685,14.47629 0,1.27724 2.5728,0.97661 7.0817,-0.8275 z m -126.18435,-6.68255 c 1.31805,-7.56883 1.42802,-13.66809 0.24643,-13.66809 -0.47093,0 -1.15268,3.4875 -1.51502,7.75 -0.36234,4.2625 -0.92952,8.7625 -1.26041,10 -0.33411,1.24956 -0.15076,2.25 0.41236,2.25 0.55769,0 1.51017,-2.84936 2.11664,-6.33191 z m 134.23025,4.58191 c 1.2438,-1.58606 1.2085,-1.62143 -0.3776,-0.37756 -1.6657,1.30637 -2.1955,2.12756 -1.3724,2.12756 0.2076,0 0.9951,-0.7875 1.75,-1.75 z m -39.4445,-4.4375 c -0.3192,-0.79773 -0.5562,-0.56078 -0.6041,0.60417 -0.043,1.05416 0.1929,1.64479 0.5252,1.3125 0.3323,-0.33229 0.3678,-1.1948 0.079,-1.91667 z m -0.6831,-4.19006 c 0,-0.20765 -0.7875,-0.99515 -1.75,-1.75 -1.5861,-1.24387 -1.6214,-1.2085 -0.3776,0.37756 1.3064,1.66575 2.1276,2.19548 2.1276,1.37244 z M 388.18312,697.4604 c -0.31922,-0.79773 -0.55618,-0.56078 -0.60416,0.60417 -0.0434,1.05416 0.19293,1.64479 0.52522,1.3125 0.33229,-0.33229 0.36781,-1.1948 0.0789,-1.91667 z m -123.93311,35.1074 c -1.04091,-0.60627 -1.75,-2.21474 -1.75,-3.96959 0,-2.70512 0.29088,-2.95031 3.5,-2.95031 3.41667,0 3.5,0.0952 3.5,4 0,4.25444 -1.51351,5.09621 -5.25,2.9199 z m 3.25,-2.9199 c 0,-0.55 -0.45,-1 -1,-1 -0.55,0 -1,0.45 -1,1 0,0.55 0.45,1 1,1 0.55,0 1,-0.45 1,-1 z m 19.5,-7 c -1.01607,-3.20134 0.3603,-6 2.95076,-6 2.68688,0 4.00088,3.28759 2.46272,6.16167 -1.30799,2.44401 -4.61784,2.34516 -5.41348,-0.16167 z m -13.87457,-5.51743 c -3.63395,-3.63395 -0.92062,-6.43014 4.68075,-4.82369 2.47916,0.71101 3.19382,1.46701 3.19382,3.37855 0,2.02648 -0.55333,2.51641 -3.12457,2.76657 -1.89671,0.18454 -3.76331,-0.33474 -4.75,-1.32143 z m 4.87457,-1.48257 c -0.33992,-0.55 -1.06803,-1 -1.61803,-1 -0.55,0 -0.72189,0.45 -0.38197,1 0.33992,0.55 1.06803,1 1.61803,1 0.55,0 0.72189,-0.45 0.38197,-1 z m 142.8982,-16.4048 c -1.1205,-2.91981 0.057,-8.07036 1.9262,-8.42466 4.0543,-0.76855 7.4077,5.69733 4.4756,8.62946 -1.6442,1.64416 -5.7426,1.51304 -6.4018,-0.2048 z m 4.6018,-3.0952 c 0,-0.76008 -0.45,-1.66008 -1,-2 -0.5694,-0.35191 -1,0.50929 -1,2 0,1.49071 0.4306,2.35191 1,2 0.55,-0.33992 1,-1.23992 1,-2 z m 11,-27.09804 c -18.5599,-2.0832 -23.49632,-2.7453 -30,-4.02376 -17.74443,-3.48812 -38.51486,-12.55263 -44.15394,-19.26941 -10.87042,-12.9479 -21.10611,-34.74621 -24.77694,-52.76587 -2.93163,-14.39103 -2.71134,-21.00084 1.04455,-31.34292 1.6978,-4.675 5.09581,-16.15 7.55112,-25.5 6.03341,-22.97562 9.4161,-29.83179 19.79414,-40.11954 6.61498,-6.55742 10.0041,-9.01229 17.61593,-12.75989 14.58833,-7.18241 22.4816,-8.92417 40.92514,-9.03075 17.8866,-0.10336 25.4881,1.27168 41.6011,7.52516 27.4277,10.64474 53.2028,37.28135 60.7864,62.81818 5.456,18.37243 -4.5418,54.50892 -22.8436,82.56684 -11.6385,17.84255 -24.2956,29.55306 -40.3279,37.3118 -8.0182,3.8804 -10.2677,4.52634 -16.5,4.73797 -3.9688,0.13477 -8.791,0.0683 -10.716,-0.14781 z m 24.255,-9.13679 c 19.7068,-9.5113 35.3995,-26.48045 48.2005,-52.1209 9.3135,-18.65526 15.357,-42.14413 14.1731,-55.08666 -1.4788,-16.16711 -20.991,-43.68403 -39.6286,-55.88582 -30.0048,-19.64379 -68.4411,-23.55021 -95.85947,-9.74256 -14.14117,7.12138 -24.18839,16.88076 -29.64182,28.79262 -1.42127,3.10447 -4.39481,12.76177 -6.60786,21.46067 -2.21306,8.6989 -5.44279,19.19147 -7.1772,23.31683 -2.81186,6.68814 -3.14787,8.52974 -3.10195,17.00065 0.10888,20.08421 11.86012,49.71947 25.3883,64.02634 10.35734,10.95351 35.48717,19.16282 67,21.88729 14.8227,1.28151 17.8916,0.87069 27.255,-3.64846 z m -7.3345,-7.60798 c -3.0688,-1.26244 -7.217,-3.54434 -9.2184,-5.07088 -3.7899,-2.89069 -9.7021,-10.96279 -9.7021,-13.24659 0,-1.44803 -9.5527,-6.44877 -26.5,-13.87249 -12.26094,-5.37087 -13.5,-6.11336 -13.5,-8.08967 0,-2.44223 4.45177,-1.49219 15.10536,3.22361 5.71704,2.53064 11.96964,5.26733 13.89464,6.08153 l 3.5,1.48037 -3.2551,-3.02981 c -3.4816,-3.2407 -5.2449,-6.81316 -5.2449,-10.62651 0,-1.96691 -0.9639,-2.71467 -5.75,-4.46052 -8.43293,-3.07614 -10.25,-4.17794 -10.25,-6.21521 0,-2.21445 2.54868,-2.3818 6.59636,-0.43313 1.597,0.76884 4.02864,1.73143 5.40364,2.13909 2.1595,0.64024 1.9349,0.19097 -1.64871,-3.29848 -2.28179,-2.22183 -4.45325,-5.42621 -4.82545,-7.12086 -0.566,-2.57698 -1.35987,-3.26131 -4.85129,-4.18193 -2.296,-0.60541 -9.91205,-3.34905 -16.92455,-6.09699 -9.98026,-3.91089 -12.75,-5.40078 -12.75,-6.85846 0,-1.02423 0.46264,-2.14815 1.02808,-2.49762 0.56545,-0.34946 6.07795,1.39016 12.25,3.86582 11.41176,4.57735 22.91833,8.31262 21.17973,6.87537 -0.52679,-0.43549 -3.5681,-2.5345 -6.75846,-4.66447 -7.24317,-4.83575 -9.69935,-7.90959 -9.69935,-12.13845 0,-4.20198 3.61058,-8.54993 7.27675,-8.76284 1.49701,-0.0869 2.72216,-0.49557 2.72254,-0.90807 0.002,-1.73674 2.68925,-0.48627 7.43635,3.45991 l 5.06436,4.20992 -4.18781,-4.6201 c -7.17866,-7.91969 -19.31219,-24.84604 -19.31219,-26.94063 0,-4.30332 3.9711,-1.00581 12.81453,10.6409 14.23687,18.74983 12.68547,17.39538 12.68547,11.07486 0,-4.39449 0.4707,-5.91746 2.5,-8.08931 2.1425,-2.29295 3.106,-2.60825 6.7379,-2.20477 4.1465,0.46066 4.2244,0.41421 3.6118,-2.15498 -1.0348,-4.3406 -4.9288,-14.36166 -7.7241,-19.87798 -1.4441,-2.84973 -2.6256,-6.32129 -2.6256,-7.71458 0,-4.50533 2.8448,-2.7836 6.1196,3.70367 6.4562,12.78968 9.0318,21.51599 12.0957,40.98053 0.9992,6.34777 1.2372,6.77678 4.3242,7.7956 4.9128,1.62136 8.1421,5.1427 8.9158,9.72209 0.5668,3.35514 1.0107,3.95577 2.6137,3.53657 1.6451,-0.43021 1.931,0.0305 1.931,3.11167 0,3.45114 0.1566,3.61663 3.4231,3.61663 2.4798,0 4.2605,0.83739 6.462,3.03891 3.5278,3.5278 4.5019,7.54237 3.9465,16.26439 -0.3856,6.05631 -0.2991,6.32646 2.6349,8.22929 1.6684,1.08207 4.0777,3.99241 5.354,6.46741 1.9969,3.87232 2.2655,5.61587 1.9259,12.5 -0.4471,9.06272 -1.892,12.53287 -7.9586,19.11436 -4.8249,5.23444 -8.1347,5.63529 -16.8673,2.04283 z m 11.075,-3.90719 c 0,-0.6875 -1.9149,-4.13734 -4.25,-7.66631 -3.6449,-5.50869 -5.0618,-6.76568 -10.0163,-8.88614 -5.5645,-2.38153 -5.8416,-2.4058 -7.75,-0.6787 -2.7136,2.45573 -2.5203,3.48905 1.5402,8.23281 5.5016,6.42729 20.4905,13.01428 20.4761,8.99834 z m 4.4397,-1.64522 c 0.3043,-0.49236 -0.096,-1.14445 -0.89,-1.44907 -0.9628,-0.36945 -1.2582,-0.0714 -0.8873,0.89522 0.6446,1.67981 1.0109,1.79396 1.7773,0.55385 z m 3.6275,-12.49431 c 0.8442,-3.77224 0.8555,-6.2007 0.043,-9.2187 -1.0696,-3.97226 -5.0653,-9.39177 -6.9244,-9.39177 -1.0986,0 -5.1811,9.51502 -5.1811,12.0756 0,0.99489 1.8818,4.81015 4.1817,8.47835 3.7455,5.97367 4.315,6.48733 5.4583,4.92366 0.7021,-0.96018 1.7923,-4.0504 2.4227,-6.86714 z m -13.9288,-3.86047 c -0.3054,-1.9099 -0.6766,-2.52841 -0.9001,-1.5 -0.2093,0.9625 -0.8835,1.75 -1.4982,1.75 -0.7918,0 1.5296,2.42511 2.8412,2.9682 0.042,0.0175 -0.1571,-1.4307 -0.4429,-3.2182 z m -17.8819,-2.21398 2.193,-1.53602 -2.2225,0 c -1.3089,0 -2.2225,0.61661 -2.2225,1.5 0,0.825 -0.6609,1.5 -1.4686,1.5 -0.939,0 -1.2459,0.58042 -0.851,1.60946 0.559,1.45689 0.7011,1.46031 1.4981,0.036 0.4843,-0.8654 1.8674,-2.26465 3.0735,-3.10946 z m 35.4103,0.21398 c -0.2774,-0.6875 -0.5044,-0.125 -0.5044,1.25 0,1.375 0.227,1.9375 0.5044,1.25 0.2774,-0.6875 0.2774,-1.8125 0,-2.5 z m -25.3138,-5.29747 c -6.4375,-8.01718 -10.8818,-11.47018 -17.7333,-13.77777 -5.8879,-1.98308 -9.6161,-1.39419 -8.8845,1.40338 1.1058,4.22866 14.8786,13.3609 19.7693,13.10827 1.65,-0.0852 4.35,0.47641 6,1.24809 1.65,0.77169 3.1568,1.43961 3.3485,1.48428 0.1917,0.0447 -0.9333,-1.51514 -2.5,-3.46625 z m 7.1444,0.55892 c 0.3504,-0.56686 -0.051,-0.7345 -0.941,-0.39301 -1.7324,0.66479 -2.0493,1.38156 -0.6109,1.38156 0.5175,0 1.2159,-0.44485 1.5519,-0.98855 z m 4.2306,-20.22665 c 0.6247,-6.51499 -0.909,-11.3915 -3.879,-12.33416 -4.2976,-1.364 -7.8445,5.20902 -7.8445,14.53711 0,4.79563 0.54,6.90747 2.6014,10.17287 l 2.6014,4.12087 2.9863,-5.39074 c 1.9165,-3.45962 3.1826,-7.43811 3.5344,-11.10595 z m -35.7235,14.83764 c 0,-0.20765 -0.7875,-0.99515 -1.75,-1.75 -1.5861,-1.24387 -1.6214,-1.2085 -0.3776,0.37756 1.3064,1.66575 2.1276,2.19548 2.1276,1.37244 z m 22.2,-3.82244 c -0.66,-0.66 -1.2832,-3.6975 -1.385,-6.75 l -0.185,-5.55 -0.3701,5.33118 c -0.3308,4.76637 0.7365,8.16882 2.5625,8.16882 0.3177,0 0.038,-0.54 -0.6224,-1.2 z m 16.8,-2.34797 c 0,-1.18139 -1.8907,-1.17914 -2.3443,0.003 -0.3694,0.96277 -0.071,1.25818 0.8952,0.88726 0.797,-0.30604 1.4491,-0.70656 1.4491,-0.89026 z m -24.7914,-9.70203 c -0.9737,-1.99691 -1.0331,-1.88442 -0.5279,1 0.6897,3.93764 -0.368,4.09851 -9.0758,1.38042 -5.4152,-1.6903 -6.0326,-1.70945 -7.5834,-0.23527 -2.1949,2.08655 -1.8817,2.38238 1.2585,1.18851 1.8728,-0.71206 4.252,-0.48701 8.8886,0.84077 6.1573,1.76323 6.3562,1.7617 7.2342,-0.0557 0.5678,-1.17517 0.4957,-2.70385 -0.1942,-4.11876 z m 24.4745,4.0625 c -0.3192,-0.79773 -0.5562,-0.56078 -0.6041,0.60417 -0.043,1.05416 0.1929,1.64479 0.5252,1.3125 0.3323,-0.33229 0.3678,-1.1948 0.079,-1.91667 z m -28.7717,-5.0625 c -3.5723,-6.93528 -9.0554,-12.66932 -14.4972,-15.16063 -3.1107,-1.42416 -6.0212,-2.58937 -6.4677,-2.58937 -1.20554,0 -2.16666,3.73099 -1.50119,5.8277 0.79789,2.5139 12.96699,11.10532 17.96509,12.68335 5.6763,1.79218 5.805,1.77043 4.501,-0.76105 z m 9.0973,-15.04922 c -0.5548,-2.63957 -1.0087,-6.54441 -1.0087,-8.67742 0,-3.0163 -0.5963,-4.34727 -2.6832,-5.98882 -4.6057,-3.62283 -5.7278,-2.49049 -6.5543,6.61382 l -0.7374,8.12422 4.4874,6.69197 c 2.4682,3.68058 4.5233,7.66925 4.567,8.86371 0.044,1.19446 0.7226,-0.75326 1.5087,-4.32826 1.0732,-4.88104 1.1779,-7.69535 0.4205,-11.29922 z m 20.6744,13.11172 c -0.3192,-0.79773 -0.5562,-0.56078 -0.6041,0.60417 -0.043,1.05416 0.1929,1.64479 0.5252,1.3125 0.3323,-0.33229 0.3678,-1.1948 0.079,-1.91667 z m -18,-2 c -0.3192,-0.79773 -0.5562,-0.56078 -0.6041,0.60417 -0.043,1.05416 0.1929,1.64479 0.5252,1.3125 0.3323,-0.33229 0.3678,-1.1948 0.079,-1.91667 z m -32.6831,-2.19006 c 0,-0.20765 -0.7875,-0.99515 -1.75,-1.75 -1.58606,-1.24387 -1.62143,-1.2085 -0.37756,0.37756 1.30636,1.66575 2.12756,2.19548 2.12756,1.37244 z m 21,-1 c 0,-0.20765 -0.7875,-0.99515 -1.75,-1.75 -1.5861,-1.24387 -1.6214,-1.2085 -0.3776,0.37756 1.3064,1.66575 2.1276,2.19548 2.1276,1.37244 z m 14.3299,-3.03968 c 0.2991,-0.77948 -0.052,-1.64582 -0.7799,-1.92518 -0.9036,-0.34677 -1.1639,0.10292 -0.8202,1.41724 0.6009,2.29771 0.8793,2.38611 1.6001,0.50794 z m -18.3875,-16.26133 c 0.036,-3.26798 0.6267,-5.74769 1.6002,-6.72114 2.3051,-2.30517 -0.1021,-17.29656 -3.0276,-18.85461 -1.6782,-0.89377 -1.8283,-0.83685 -0.8981,0.3406 1.7845,2.25858 2.5414,11.40117 1.7907,21.62852 -0.6711,9.14124 -0.7719,9.44871 -2.9624,9.02997 -2.0167,-0.38551 -2.1392,-0.21482 -1.1065,1.54152 0.9206,1.56563 0.8708,2.07931 -0.2401,2.47816 -1.0035,0.3603 -0.7196,0.87007 1,1.79559 2.3,1.23785 2.4306,1.13716 3.0938,-2.3838 0.3808,-2.02193 0.7183,-6.0066 0.75,-8.85481 z m -17.5631,5.44375 c 1.6596,-0.26609 1.4684,-0.44893 -0.8793,-0.84093 -2.76815,-0.4622 -3.00857,-0.2661 -3.11095,2.53742 -0.10191,2.7909 -0.0303,2.85938 0.87934,0.84093 0.54466,-1.20857 1.94459,-2.35041 3.11091,-2.53742 z m 5.2415,-5.01518 c -1.3708,-2.3375 -4.0267,-5.15 -5.90195,-6.25 -1.87523,-1.1 -5.06191,-3.26635 -7.08151,-4.81411 -4.28049,-3.28044 -8.38643,-3.90828 -9.93861,-1.51971 -0.8068,1.24152 -0.7255,2.09664 0.31897,3.35515 2.78301,3.35331 13.34576,9.75558 18.214,11.03978 2.7363,0.72184 5.2286,1.56589 5.5384,1.87566 1.5321,1.53206 1.1016,0.15122 -1.1493,-3.68677 z m 3.3792,-1.75 c -0.5887,-1.1 -1.2954,-2 -1.5704,-2 -0.275,0 -0.018,0.9 0.5704,2 0.5887,1.1 1.2954,2 1.5704,2 0.275,0 0.018,-0.9 -0.5704,-2 z m 6.0524,-5.50491 c 1.5807,-5.04821 -2.3754,-21.49509 -5.1705,-21.49509 -0.3504,0 -1.208,0.68804 -1.9059,1.52897 -0.9141,1.10137 -1.1049,3.85386 -0.6823,9.84212 0.4749,6.73006 1.1217,9.17891 3.3965,12.85951 2.348,3.79912 2.86,4.19488 3.1155,2.40788 0.1682,-1.17616 0.7292,-3.49069 1.2467,-5.14339 z m -10.0524,-3.96371 c 0,-2.67237 -0.3443,-3.33648 -1.5,-2.89301 -0.825,0.31659 -1.5,1.20246 -1.5,1.96862 0,0.76615 -0.7875,1.40896 -1.75,1.42845 -1.33561,0.027 -1.15802,0.37384 0.75,1.46456 3.618,2.06822 4,1.88021 4,-1.96862 z m 62.1276,85.71862 c 1.2438,-1.58606 1.2085,-1.62143 -0.3776,-0.37756 -0.9625,0.75485 -1.75,1.54235 -1.75,1.75 0,0.82304 0.8212,0.29331 2.1276,-1.37244 z M 338.20727,574.40956 c -0.23919,-1.24391 -0.44398,-0.46166 -0.45508,1.73834 -0.0111,2.2 0.18461,3.21775 0.4349,2.26166 0.25029,-0.95609 0.25937,-2.75609 0.0202,-4 z m 187.98574,-19.49263 c -0.2535,-0.97297 -0.4777,-0.41903 -0.498,1.23097 -0.02,1.65 0.187,2.44606 0.4609,1.76903 0.274,-0.67703 0.2906,-2.02703 0.037,-3 z m -22.693,-44.61404 c 0,-0.18976 -1.0125,-1.20226 -2.25,-2.25 l -2.25,-1.90499 1.905,2.25 c 1.7902,2.11444 2.595,2.70524 2.595,1.90499 z m -136,-12.15499 c 1.29175,-1.375 2.12363,-2.5 1.84863,-2.5 -0.275,0 -1.55688,1.125 -2.84863,2.5 -1.29175,1.375 -2.12363,2.5 -1.84863,2.5 0.275,0 1.55688,-1.125 2.84863,-2.5 z m 59.7617,-22.18708 c -0.9561,-0.25029 -2.7561,-0.25937 -4,-0.0202 -1.2439,0.23919 -0.4617,0.44398 1.7383,0.45508 2.2,0.0111 3.2178,-0.18461 2.2617,-0.4349 z m 126.905,177.02041 c -0.3667,-0.36666 -0.6667,-1.26164 -0.6667,-1.98883 0,-1.61074 8.6984,-13.30476 11.3264,-15.227 3.1035,-2.27008 5.6277,-9.11184 5.6516,-15.31828 0.048,-12.37159 2.7548,-19.99867 14.1262,-39.79922 14.1611,-24.65805 14.6,-29.24354 5.5509,-58 -8.0608,-25.6158 -8.5991,-28.03207 -7.4063,-33.24491 0.9596,-4.19325 0.8262,-4.69435 -2.5614,-9.61898 -4.1698,-6.06189 -5.4993,-12.48282 -3.7757,-18.23564 0.8257,-2.75612 1.7263,-3.90047 3.0694,-3.90047 2.7706,0 3.2586,1.46793 1.9453,5.8512 -1.5059,5.02633 -0.1379,9.37346 4.7449,15.07794 l 3.6123,4.22013 -1.2743,5.31209 c -1.5926,6.63839 -1.3602,7.8239 6.0822,31.03864 10.2107,31.84942 9.6976,37.82442 -5.5385,64.5 -10.3378,18.09941 -12.6136,24.11057 -13.1119,34.63274 -0.4948,10.44775 -2.6707,17.05536 -6.8714,20.86726 -1.8183,1.65 -5.1795,5.5875 -7.4694,8.75 -3.8895,5.37177 -5.823,6.69395 -7.4336,5.08333 z m 42.0833,-174.88865 c -0.4125,-0.42791 -0.75,-1.59444 -0.75,-2.59229 0,-2.04289 1.3846,-2.45897 11.2508,-3.38092 5.7338,-0.5358 6.8466,-0.38117 7.3868,1.02639 1.1371,2.96323 -1.9503,4.60514 -9.7392,5.17938 -4.0691,0.3 -7.7359,0.19534 -8.1484,-0.23256 z m 6.519,-2.10062 c -0.677,-0.27392 -2.027,-0.29059 -3,-0.0371 -0.9729,0.25354 -0.419,0.47766 1.231,0.49804 1.65,0.0204 2.4461,-0.18706 1.769,-0.46099 z m -3.7132,-14.25382 c -1.4471,-2.3414 1.8321,-5.02894 6.1942,-5.07659 1.5927,-0.0174 1.6264,3.20991 0.05,4.78635 -1.411,1.41103 -5.4359,1.59812 -6.2442,0.29024 z m -61.2863,-5.06313 c 0.4884,-3.64106 0.2071,-4.26727 -3.3683,-7.4974 -7.0021,-6.32596 -3.874,-10.09957 3.4185,-4.12393 2.4125,1.97682 4.9613,3.59422 5.6641,3.59422 0.8864,0 1.1115,0.99556 0.7348,3.25 -0.9953,5.95622 -2.536,8.75 -4.8255,8.75 -1.9361,0 -2.102,-0.40587 -1.6236,-3.97289 z m -0.2695,-8.37212 c 0,-0.18976 -1.0125,-1.20226 -2.25,-2.25 l -2.25,-1.90499 1.905,2.25 c 1.7902,2.11444 2.595,2.70524 2.595,1.90499 z m -111.5,2.95411 c -1.65,-0.72193 -5.9858,-3.14284 -9.6352,-5.37978 l -6.63511,-4.06717 -0.62666,3.91892 c -0.48522,3.03437 -1.07543,3.91893 -2.61485,3.91893 -1.63321,0 -1.98574,-0.66952 -1.97453,-3.75 0.0387,-10.64024 2.62458,-11.27547 15.63705,-3.84132 5.3827,3.07523 10.7668,5.59132 11.9645,5.59132 1.2446,0 3.5198,-1.52865 5.3101,-3.56775 3.0724,-3.49917 5.9866,-4.20077 6.8372,-1.64607 0.2356,0.70741 -1.5804,3.29491 -4.0355,5.75 -4.8806,4.88056 -8.372,5.63469 -14.227,3.07292 z m 85.0285,-3.40194 c -0.3626,-2.63606 -0.1392,-7.77874 0.4963,-11.42818 l 1.1555,-6.63534 10.1294,-5.57182 c 11.2088,-6.16552 13.6904,-6.76768 13.69,-3.32182 -2e-4,1.79846 -1.885,3.31038 -9.3922,7.53385 -10.5063,5.9108 -10.5732,6.01795 -10.5938,16.96615 -0.013,6.98749 -0.1008,7.25 -2.4199,7.25 -2.1151,0 -2.4858,-0.57963 -3.0653,-4.79284 z m 74.7925,-2.95716 c -0.339,-0.9625 -1.2352,-3.29217 -1.9916,-5.17705 -1.494,-3.72273 -0.6946,-5.48398 2.2315,-4.91673 1.9833,0.38448 4.9717,8.01341 4.0648,10.37677 -0.7774,2.02597 -3.556,1.84331 -4.3047,-0.28299 z m -218.8744,-4.33641 c -0.36929,-0.59752 0.79955,-2.60408 2.59743,-4.45902 3.81412,-3.93517 3.40425,-4.93548 -3.73714,-9.12061 -4.90839,-2.8765 -6.71093,-5.48557 -5.79142,-8.3827 0.70718,-2.22812 5.34626,-4.95126 8.43487,-4.95126 3.01203,0 2.62515,3.6346 -0.56479,5.30597 l -2.61444,1.36985 4.54131,2.66138 c 5.313,3.11363 8.68758,7.04215 8.68758,10.11366 0,1.24698 -1.5403,3.54482 -3.59639,5.36514 -3.66072,3.24096 -6.74747,4.05467 -7.95701,2.09759 z m 105.5534,-3.2798 c -4.125,-1.24247 -9.8625,-3.47594 -12.75,-4.96326 l -5.25,-2.70422 0,3.01684 c 0,2.51602 -0.3976,3.01685 -2.395,3.01685 -2.0836,0 -2.4471,-0.54705 -2.7962,-4.20807 -0.5364,-5.62445 0.1575,-9.84176 1.7178,-10.4405 0.7019,-0.26936 3.5066,1.11258 6.2325,3.07098 6.2727,4.50644 10.614,6.36131 21.2409,9.0754 7.1248,1.81965 8.5517,2.52124 8.8196,4.33653 0.2812,1.90598 -0.1385,2.15924 -3.5,2.11208 -2.1008,-0.0295 -7.1946,-1.07015 -11.3196,-2.31263 z m -122.96482,-5.56805 c -1.43974,-2.69019 -1.29435,-4.02906 0.51286,-4.72255 1.75734,-0.67435 4.37147,2.22759 4.42016,4.90681 0.0437,2.40494 -3.62057,2.26807 -4.93302,-0.18426 z m 148.96482,-7.00858 c 0,-5.01306 6.6787,-13.27091 18,-22.25594 4.125,-3.27377 8.5383,-7.60582 9.8074,-9.62677 2.2239,-3.54155 2.2834,-4.18985 1.646,-17.92445 -0.6492,-13.98824 -0.623,-14.25 1.4236,-14.25 2.8459,0 3.3149,2.46625 3.4824,18.31441 0.1365,12.91398 0.06,13.42838 -2.5781,17.42737 -1.4952,2.26635 -6.2688,6.82313 -10.6079,10.12619 -8.6865,6.61249 -12.2654,10.43182 -15.2415,16.26556 -2.1609,4.23566 -5.9319,5.45855 -5.9319,1.92363 z m -89.6579,-5.60804 c -0.32968,-0.85914 0.29625,-2.53177 1.40332,-3.75 1.09915,-1.20952 3.23592,-4.10412 4.74838,-6.43245 2.735,-4.21038 2.7404,-4.25333 0.999,-7.92307 -2.37371,-5.00224 -2.99099,-14.46132 -1.5148,-23.21304 1.1025,-6.53664 1.4316,-7.21358 3.3719,-6.93702 1.6191,0.23077 2.096,0.9239 1.931,2.80646 -1.7065,19.47152 -1.6996,19.62383 1.1536,25.45571 l 2.7234,5.56643 -3.185,5.23893 c -5.6736,9.33245 -10.2025,12.91013 -11.6308,9.18805 z m 59.2415,-7.69912 c -1.9819,-9.81136 -1.436,-15.75 1.4477,-15.75 1.508,0 1.9111,1.20645 2.4988,7.47801 0.3854,4.11291 0.4379,8.16291 0.1167,9 -0.8828,2.30068 -3.5479,1.82318 -4.0632,-0.72801 z m -84.00216,-2.92609 c -0.22687,-0.72815 -0.66661,-3.79026 -0.97719,-6.80469 -0.41934,-4.07006 -1.14891,-5.94532 -2.83447,-7.28558 -4.09849,-3.25889 -11.85302,-6.839 -23.54773,-10.87151 -18.28008,-6.30323 -24.25523,-10.16134 -28.11884,-18.15608 -2.86834,-5.93529 -3.81654,-14.86915 -1.75935,-16.57647 2.39669,-1.98907 3.31586,-0.71552 3.95532,5.48025 1.27499,12.35343 7.78358,17.78997 30.60806,25.56655 11.45233,3.90194 21.83215,9.33033 24.82601,12.98339 0.67829,0.82764 1.35329,4.8273 1.5,8.88814 0.22981,6.36085 0.024,7.43296 -1.48627,7.74162 -0.96417,0.19706 -1.93866,-0.23747 -2.16554,-0.96562 z"
       id="path3031"
       inkscape:connector-curvature="0" />
    <path
       style="fill:#ffff00;fill-opacity:1"
       d=""
       id="path3033"
       inkscape:connector-curvature="0" />
    <path
       style="fill:#ffff00;fill-opacity:1"
       d=""
       id="path3035"
       inkscape:connector-curvature="0" />
    <path
       style="fill:#ffff00;fill-opacity:1"
       d=""
       id="path3037"
       inkscape:connector-curvature="0" />
    <path
       style="fill:#ffff00;fill-opacity:1"
       d=""
       id="path3039"
       inkscape:connector-curvature="0" />
    <path
       style="fill:#ffff00;fill-opacity:1"
       d=""
       id="path3041"
       inkscape:connector-curvature="0" />
    <path
       style="fill:#ffff00;fill-opacity:1"
       d=""
       id="path3043"
       inkscape:connector-curvature="0" />
    <path
       style="fill:#ffff00;fill-opacity:1"
       d=""
       id="path3045"
       inkscape:connector-curvature="0" />
    <path
       style="fill:#ffff00;fill-opacity:1"
       d=""
       id="path3047"
       inkscape:connector-curvature="0" />
    <path
       style="fill:#ffff00;fill-opacity:1"
       d=""
       id="path3049"
       inkscape:connector-curvature="0" />
    <path
       style="fill:#ffff00;fill-opacity:1"
       d=""
       id="path3051"
       inkscape:connector-curvature="0" />
    <path
       style="fill:#ffff00;fill-opacity:1"
       d=""
       id="path3053"
       inkscape:connector-curvature="0" />
    <path
       style="fill:#a05a2c;fill-opacity:1"
       d="m 449.69957,641.73693 c -8.6943,-6.48638 -8.03534,-12.92242 0.83692,-8.17414 5.76566,3.0857 13.12061,14.29248 9.27832,14.13745 -1.23386,-0.0498 -5.78572,-2.73327 -10.11524,-5.96331 z"
       id="path3055"
       inkscape:connector-curvature="0" />
    <path
       style="fill:#a05a2c;fill-opacity:1"
       d="m 465.24499,634.18147 c -2.48412,-4.42588 -2.75033,-8.03229 -0.84363,-11.42857 2.58249,-4.60004 2.92054,-4.61244 4.63244,-0.16993 1.01567,2.63571 1.3953,7.77857 0.84363,11.42857 l -1.00303,6.63636 -3.62941,-6.46643 z"
       id="path3057"
       inkscape:connector-curvature="0" />
    <path
       style="fill:#a05a2c;fill-opacity:1"
       d="m 453.28571,604.93361 c 0,-11.42239 3.63564,-15.25226 6.75703,-7.11804 1.64538,4.28778 -2.39683,18.54661 -5.25774,18.54661 -0.82461,0 -1.49929,-5.14285 -1.49929,-11.42857 z"
       id="path3059"
       inkscape:connector-curvature="0" />
    <path
       style="fill:#a05a2c;fill-opacity:1"
       d="m 432.88795,616.45724 c -4.68639,-3.90416 -5.43703,-5.62051 -2.45938,-5.62342 4.58717,-0.004 14.28572,6.38719 14.28572,9.41477 0,3.45258 -5.08958,1.82093 -11.82634,-3.79135 z"
       id="path3061"
       inkscape:connector-curvature="0" />
    <path
       style="fill:#ffff00;fill-opacity:1"
       d=""
       id="path3063"
       inkscape:connector-curvature="0" />
    <path
       style="fill:#a05a2c;fill-opacity:1"
       d="m 439.21324,590.11581 c -2.10187,-4.22122 -2.92324,-10.00693 -1.82527,-12.85714 1.90485,-4.94476 2.12679,-4.94977 4.84406,-0.10934 1.56626,2.79007 2.38763,8.57579 1.82527,12.85714 l -1.02249,7.78428 -3.82157,-7.67494 z"
       id="path3065"
       inkscape:connector-curvature="0" />
    <path
       style="fill:#ffff00;fill-opacity:1"
       d=""
       id="path3067"
       inkscape:connector-curvature="0" />
    <path
       style="fill:#ffff00;fill-opacity:1"
       d=""
       id="path3069"
       inkscape:connector-curvature="0" />
    <path
       style="fill:#a05a2c;fill-opacity:1"
       d="m 421.54761,593.82242 c -8.91578,-7.22803 -6.03533,-10.11561 3.16668,-3.17452 3.88161,2.92791 6.29454,6.08641 5.36206,7.01889 -0.93248,0.93248 -4.77042,-0.79749 -8.52874,-3.84437 z"
       id="path3071"
       inkscape:connector-curvature="0" />
    <path
       style="fill:#ffff00;fill-opacity:1"
       d=""
       id="path3073"
       inkscape:connector-curvature="0" />
    <path
       style="fill:#ffff00;fill-opacity:1"
       d=""
       id="path3075"
       inkscape:connector-curvature="0" />
    <path
       style="fill:#a05a2c;fill-opacity:1"
       d="m 423.88718,562.07931 c -0.82147,-3.14129 -0.32857,-6.43145 1.09533,-7.31147 1.42391,-0.88002 2.58892,1.69012 2.58892,5.71144 0,8.7544 -1.62841,9.4616 -3.68425,1.60003 z"
       id="path3077"
       inkscape:connector-curvature="0" />
    <path
       style="fill:#ffff00;fill-opacity:1"
       d=""
       id="path3079"
       inkscape:connector-curvature="0" />
    <path
       style="fill:#ffff00;fill-opacity:1"
       d=""
       id="path3081"
       inkscape:connector-curvature="0" />
    <path
       style="fill:#ffff00;fill-opacity:1"
       d=""
       id="path3083"
       inkscape:connector-curvature="0" />
    <path
       style="fill:#ffff00;fill-opacity:1"
       d=""
       id="path3085"
       inkscape:connector-curvature="0" />
    <path
       style="fill:#ffff00;fill-opacity:1"
       d=""
       id="path3087"
       inkscape:connector-curvature="0" />
    <path
       style="fill:#ffff00;fill-opacity:1"
       d=""
       id="path3089"
       inkscape:connector-curvature="0" />
    <path
       style="fill:#ffff00;fill-opacity:1"
       d=""
       id="path3859"
       inkscape:connector-curvature="0" />
    <path
       style="fill:#d38d5f;fill-opacity:1"
       d=""
       id="path3861"
       inkscape:connector-curvature="0" />
    <path
       style="fill:#a05a2c;fill-opacity:1"
       d="m 468.99853,646.71038 c 0,-1.10753 -0.96692,-1.69138 -2.1487,-1.29745 -1.18179,0.39393 -3.76622,-1.72137 -5.74317,-4.70067 -1.97696,-2.97929 -7.08222,-7.17942 -11.34504,-9.33361 -5.8623,-2.96248 -7.03984,-4.18944 -4.83333,-5.03616 1.60448,-0.6157 4.10709,-0.66286 5.56136,-0.1048 3.39125,1.30134 3.37372,-0.43504 -0.0425,-4.20992 -1.47765,-1.63278 -2.19042,-4.26178 -1.58395,-5.84222 0.9609,-2.50407 1.50194,-2.38045 4.20806,0.96147 l 3.10539,3.83499 2.19758,-4.10622 c 3.70351,-6.92008 5.23414,-14.26015 4.12751,-19.79332 -1.36994,-6.84973 -5.53111,-8.38781 -9.4844,-3.50571 -5.10726,6.3072 -6.93457,4.63002 -6.93457,-6.36482 0,-10.60531 -3.30499,-18.01973 -8.03233,-18.01973 -1.7181,0 -2.50789,-1.86014 -2.43244,-5.72894 0.0983,-5.03737 0.29726,-5.26887 1.6486,-1.91777 0.84528,2.09615 3.24207,4.35238 5.32619,5.01386 2.08412,0.66147 4.5928,3.50756 5.57484,6.32464 0.98204,2.81708 2.50117,5.12196 3.37583,5.12196 0.87467,0 1.59031,1.20949 1.59031,2.68776 0,1.47826 1.78479,3.37032 3.96619,4.20458 6.84405,2.61742 9.73786,7.52126 9.88265,16.74712 0.10281,6.55044 1.15926,9.76642 4.34298,13.22063 4.81987,5.22935 6.97441,10.2817 5.44196,12.76126 -0.5809,0.93991 -2.64946,-1.51139 -4.59681,-5.44733 -1.94735,-3.93594 -4.52027,-7.15625 -5.7176,-7.15625 -2.34431,0 -6.26836,7.28978 -6.26836,11.64485 0,1.46587 -0.73843,2.20885 -1.64095,1.65106 -2.85772,-1.76617 -3.72614,2.07174 -0.98377,4.3477 2.10729,1.7489 2.6327,1.7014 2.66521,-0.24095 0.0223,-1.33061 1.76466,0.55536 3.87198,4.19103 2.10732,3.63568 4.40729,6.61032 5.11106,6.61032 0.70376,0 2.19583,-2.77633 3.31572,-6.16963 1.11989,-3.39329 2.76788,-6.16963 3.66221,-6.16963 2.26672,0 2.03237,2.66628 -0.83822,9.53656 -2.53912,6.07696 -6.34949,9.84883 -6.34949,6.28534 z m -10.5765,-22.8729 c 0,-0.96951 -0.79324,-1.76275 -1.76275,-1.76275 -0.96952,0 -1.76275,0.79324 -1.76275,1.76275 0,0.96951 0.79323,1.76275 1.76275,1.76275 0.96951,0 1.76275,-0.79324 1.76275,-1.76275 z m 7.051,-12.33925 c 0,-0.96952 -0.3498,-1.76275 -0.77734,-1.76275 -0.42754,0 -1.26759,0.79323 -1.86679,1.76275 -0.59919,0.96951 -0.24938,1.76275 0.77735,1.76275 1.02673,0 1.86678,-0.79324 1.86678,-1.76275 z m -14.79976,-22.43835 c -1.79187,-1.79186 -3.27034,0.90586 -1.80015,3.28468 1.11059,1.79697 1.52579,1.79836 2.12288,0.007 0.40824,-1.22474 0.26302,-2.70604 -0.32273,-3.29179 l 0,6e-5 z"
       id="path3867"
       inkscape:connector-curvature="0" />
    <path
       style="fill:#ffff00;fill-opacity:1"
       d=""
       id="path3869"
       inkscape:connector-curvature="0" />
    <path
       style="fill:#ffff00;fill-opacity:1"
       d=""
       id="path3871"
       inkscape:connector-curvature="0" />
    <path
       style="fill:#ffff00;fill-opacity:1"
       d=""
       id="path3873"
       inkscape:connector-curvature="0" />
    <path
       style="fill:#ffff00;fill-opacity:1"
       d="m 439.49534,587.063 c -1.39726,-3.79749 -1.59815,-6.96356 -0.55923,-8.81375 1.49879,-2.66919 1.70628,-2.66696 2.74544,0.0296 0.61827,1.60436 0.86992,5.57054 0.55923,8.81376 l -0.56489,5.89674 -2.18055,-5.92634 z"
       id="path3875"
       inkscape:connector-curvature="0" />
    <path
       style="fill:#ffff00;fill-opacity:1"
       d=""
       id="path3877"
       inkscape:connector-curvature="0" />
    <path
       style="fill:#ffff00;fill-opacity:1"
       d="m 454.95013,604.88791 c -0.0295,-5.08994 0.73963,-9.25444 1.70915,-9.25444 2.83738,0 2.75466,10.91351 -0.12025,15.86476 -1.01618,1.75008 -1.55342,-0.48503 -1.5889,-6.61032 z"
       id="path3879"
       inkscape:connector-curvature="0" />
    <path
       style="fill:#ffff00;fill-opacity:1"
       d=""
       id="path3881"
       inkscape:connector-curvature="0" />
    <path
       style="fill:#ffff00;fill-opacity:1"
       d=""
       id="path3883"
       inkscape:connector-curvature="0" />
    <path
       style="fill:#ffff00;fill-opacity:1"
       d=""
       id="path3885"
       inkscape:connector-curvature="0" />
    <path
       style="fill:#ffff00;fill-opacity:1"
       d="m 465.9366,632.89452 c -1.39726,-3.79749 -1.59815,-6.96356 -0.55923,-8.81376 1.49879,-2.66919 1.70628,-2.66695 2.74544,0.0296 0.61827,1.60435 0.86992,5.57054 0.55923,8.81375 l -0.56488,5.89675 -2.18056,-5.92634 z"
       id="path3887"
       inkscape:connector-curvature="0" />
    <path
       style="fill:#ffff00;fill-opacity:1"
       d=""
       id="path3889"
       inkscape:connector-curvature="0" />
    <path
       style="fill:#ffff00;fill-opacity:1"
       d="m 449.79469,639.87638 c -5.63655,-5.26533 -6.68009,-7.22514 -3.84717,-7.22514 2.27263,0 12.47451,8.77781 12.47451,10.7332 0,2.92495 -3.08261,1.67149 -8.62734,-3.50806 z"
       id="path3891"
       inkscape:connector-curvature="0" />
    <path
       style="fill:#ffff00;fill-opacity:1"
       d=""
       id="path3893"
       inkscape:connector-curvature="0" />
    <path
       style="fill:#ffff00;fill-opacity:1"
       d=""
       id="path3895"
       inkscape:connector-curvature="0" />
    <path
       style="fill:#ffff00;fill-opacity:1"
       d="m 435.50627,616.78648 c -2.90097,-2.26917 -3.50334,-3.44135 -1.76275,-3.43025 2.8383,0.0181 8.81375,3.96932 8.81375,5.82802 0,1.99678 -2.53493,1.13475 -7.051,-2.39777 z"
       id="path3897"
       inkscape:connector-curvature="0" />
    <path
       style="fill:#ffff00;fill-opacity:1"
       d=""
       id="path3899"
       inkscape:connector-curvature="0" />
    <path
       style="fill:#ffff00;fill-opacity:1"
       d=""
       id="path3901"
       inkscape:connector-curvature="0" />
    <path
       style="fill:#ffff00;fill-opacity:1"
       d=""
       id="path3903"
       inkscape:connector-curvature="0" />
    <path
       style="fill:#ffff00;fill-opacity:1"
       d="m 430.21802,598.17356 c 0,-1.51148 0.79323,-2.25791 1.76275,-1.65871 0.96951,0.59919 1.76275,1.83586 1.76275,2.74815 0,0.9123 -0.79324,1.65872 -1.76275,1.65872 -0.96952,0 -1.76275,-1.23667 -1.76275,-2.74816 z"
       id="path3905"
       inkscape:connector-curvature="0" />
    <path
       style="fill:#ffff00;fill-opacity:1"
       d="m 419.93995,611.59661 c -1.18364,-3.39537 -4.34477,-6.47998 -9.15629,-8.93463 -4.0417,-2.06193 -6.943,-4.1545 -6.44732,-4.65017 0.49567,-0.49568 2.50348,-0.0437 4.46181,1.00434 4.76234,2.54873 7.58745,2.40657 6.95444,-0.34996 -0.77633,-3.38068 1.53088,-3.43109 7.8348,-0.17121 l 5.67169,2.93295 -4.36809,1.80688 c -4.32105,1.78741 -4.30164,1.82016 1.80152,3.04034 5.66585,1.13275 5.7641,1.25242 1.20328,1.46552 -4.04886,0.18919 -4.76833,0.85596 -3.89449,3.60921 1.77787,5.60155 -2.11227,5.83788 -4.06135,0.24673 l 0,0 z"
       id="path3907"
       inkscape:connector-curvature="0" />
    <path
       style="fill:#ffff00;fill-opacity:1"
       d="m 419.64151,584.46327 c -6.06377,-2.84844 -6.71445,-6.88243 -0.87367,-5.41648 3.73565,0.93758 4.24874,0.61826 3.23816,-2.01528 -0.82254,-2.1435 -0.55115,-2.72785 0.86145,-1.85481 1.13427,0.70102 2.06231,0.56673 2.06231,-0.29841 0,-0.86515 1.18986,-1.573 2.64413,-1.573 1.45427,0 2.64413,1.45427 2.64413,3.23171 0,1.77744 -0.79324,3.23171 -1.76276,3.23171 -0.96951,0 -1.76275,1.58648 -1.76275,3.5255 0,3.97086 -0.80305,4.104 -7.051,1.16906 z"
       id="path3909"
       inkscape:connector-curvature="0" />
    <path
       style="fill:#ffff00;fill-opacity:1"
       d="m 408.78956,589.56324 c -1.12926,-2.47845 -2.7447,-4.50627 -3.58987,-4.50627 -3.50954,0 -29.62695,-10.96114 -29.62695,-12.43405 0,-0.8807 6.7297,0.83381 14.95488,3.81003 8.22519,2.97622 15.82166,5.12238 16.88105,4.76925 1.0594,-0.35313 -1.70411,-3.24913 -6.14112,-6.43555 -9.48696,-6.81302 -10.68229,-12.59352 -3.56809,-17.25492 4.2882,-2.80974 4.74939,-2.76303 9.8337,0.99596 2.93397,2.16918 5.63295,3.6455 5.99774,3.28071 0.36479,-0.36479 -3.66376,-6.09292 -8.95233,-12.72917 -8.36296,-10.49411 -11.13277,-15.12204 -9.05051,-15.12204 0.31079,0 4.82048,5.31032 10.02155,11.8007 l 9.45648,11.80069 1.67302,-5.19038 c 2.37232,-7.35986 4.55157,-9.59725 9.34787,-9.59725 5.19376,0 5.18901,-0.31051 -0.21584,-14.10201 -4.55623,-11.62609 -5.55852,-16.11494 -2.93227,-13.13249 2.66429,3.02566 8.70234,19.1593 9.88627,26.41608 1.04018,6.37566 0.78529,7.11396 -2.456,7.11396 -1.98914,0 -3.61663,-0.62326 -3.61663,-1.38502 0,-0.76176 -1.24356,-1.38502 -2.76346,-1.38502 -2.30616,0 -2.68247,2.17519 -2.27396,13.14425 0.26923,7.22934 0.0537,13.5801 -0.47905,14.11281 -0.53271,0.53271 -2.4087,-0.62277 -4.16888,-2.56774 -2.87476,-3.17658 -2.90355,-3.53631 -0.28298,-3.53631 1.74216,0 2.91733,-1.42015 2.91733,-3.5255 0,-1.93903 -0.79324,-3.5255 -1.76275,-3.5255 -0.96951,0 -1.76275,0.70837 -1.76275,1.57415 0,3.04257 -5.61522,3.68499 -9.3492,1.06961 -5.4159,-3.79344 -10.04106,-3.36941 -10.04106,0.92056 0,2.28294 2.74259,5.30362 7.62882,8.40238 4.19585,2.66093 7.29708,5.83326 6.89162,7.04964 -0.40546,1.21637 0.0804,4.55691 1.07965,7.42341 2.31223,6.63285 -0.69963,8.9708 -3.53628,2.74503 l 0,0 z"
       id="path3911"
       inkscape:connector-curvature="0" />
    <path
       style="fill:#ffff00;fill-opacity:1"
       d=""
       id="path3913"
       inkscape:connector-curvature="0" />
    <path
       style="fill:#ffff00;fill-opacity:1"
       d=""
       id="path3915"
       inkscape:connector-curvature="0" />
    <path
       style="fill:#ffff00;fill-opacity:1"
       d="m 468.99853,646.71038 c 0,-1.10753 -0.96692,-1.69138 -2.1487,-1.29745 -1.18179,0.39393 -3.76622,-1.72137 -5.74317,-4.70067 -1.97696,-2.97929 -7.08222,-7.17942 -11.34504,-9.33361 -5.8623,-2.96248 -7.03984,-4.18944 -4.83333,-5.03616 1.60448,-0.6157 4.10709,-0.66286 5.56136,-0.1048 3.39125,1.30134 3.37372,-0.43504 -0.0425,-4.20992 -1.47765,-1.63278 -2.19042,-4.26178 -1.58395,-5.84222 0.96012,-2.50204 1.50593,-2.37552 4.22198,0.97865 l 3.1193,3.85218 2.75609,-5.32969 c 7.28506,-14.08775 2.36927,-32.37543 -5.94323,-22.10993 -4.9076,6.06064 -6.93457,4.63435 -6.93457,-4.87954 0,-10.9462 -2.55839,-17.81941 -7.07223,-18.99981 -2.62002,-0.68515 -3.45267,-2.31013 -3.29979,-6.43973 0.11246,-3.03784 0.56932,-4.1244 1.01524,-2.41458 0.44592,1.70982 3.11874,4.30227 5.93961,5.761 2.82087,1.45873 5.62295,4.6209 6.22686,7.02705 0.6039,2.40615 1.80525,4.37481 2.66966,4.37481 0.86441,0 1.57165,1.20949 1.57165,2.68776 0,1.47826 1.78479,3.37032 3.96619,4.20458 6.66772,2.54999 9.76541,7.55227 9.84717,15.90163 0.0507,5.17479 1.30728,9.33885 3.7237,12.33926 5.09935,6.33174 7.59026,12.71733 5.69869,14.60891 -0.9232,0.9232 -2.48607,-0.62869 -3.78066,-3.7541 -3.07635,-7.42697 -6.87199,-10.39879 -9.06076,-7.09417 -0.92192,1.39192 -2.1479,4.6993 -2.7244,7.34973 -0.57649,2.65042 -1.69001,4.42227 -2.47449,3.93743 -2.70502,-1.67179 -3.38805,2.30686 -0.76915,4.48035 2.10757,1.74913 2.62602,1.70165 2.63131,-0.24095 0.004,-1.33061 1.5258,0.0722 3.38262,3.11733 4.95587,8.12748 6.67068,8.42092 8.94469,1.53063 1.12283,-3.40223 2.77323,-6.18587 3.66756,-6.18587 2.26672,0 2.03237,2.66628 -0.83822,9.53656 -2.53912,6.07696 -6.34949,9.84883 -6.34949,6.28534 z m -10.5765,-22.8729 c 0,-0.96951 -0.79324,-1.76275 -1.76275,-1.76275 -0.96952,0 -1.76275,0.79324 -1.76275,1.76275 0,0.96951 0.79323,1.76275 1.76275,1.76275 0.96951,0 1.76275,-0.79324 1.76275,-1.76275 z m 7.051,-12.33925 c 0,-0.96952 -0.3498,-1.76275 -0.77734,-1.76275 -0.42754,0 -1.26759,0.79323 -1.86679,1.76275 -0.59919,0.96951 -0.24938,1.76275 0.77735,1.76275 1.02673,0 1.86678,-0.79324 1.86678,-1.76275 z m -14.79976,-22.43835 c -1.79187,-1.79186 -3.27034,0.90586 -1.80015,3.28468 1.11059,1.79697 1.52579,1.79836 2.12288,0.007 0.40824,-1.22474 0.26302,-2.70604 -0.32273,-3.29179 l 0,6e-5 z"
       id="path3917"
       inkscape:connector-curvature="0" />
    <path
       style="fill:#ffff00;fill-opacity:1"
       d=""
       id="path3919"
       inkscape:connector-curvature="0" />
    <path
       style="fill:#ffff00;fill-opacity:1"
       d=""
       id="path3921"
       inkscape:connector-curvature="0" />
    <path
       style="fill:#ffff00;fill-opacity:1"
       d="m 437.38075,603.22919 c -0.0614,-2.12418 -0.90497,-4.3524 -1.87448,-4.95159 -2.60537,-1.61021 -2.13945,-3.8193 0.80552,-3.8193 3.47874,0 4.71152,3.84848 2.77564,8.6649 l -1.59494,3.96815 -0.11174,-3.86216 z"
       id="path3923"
       inkscape:connector-curvature="0" />
    <path
       style="fill:#ffff00;fill-opacity:1"
       d=""
       id="path3925"
       inkscape:connector-curvature="0" />
    <path
       style="fill:#ffff00;fill-opacity:1"
       d="m 429.27686,629.35994 c -2.94141,-1.58308 -11.90323,-5.94728 -19.91515,-9.69823 -8.01193,-3.75094 -14.19662,-7.19041 -13.74377,-7.64326 0.45285,-0.45285 7.69886,1.97974 16.10224,5.40576 10.29316,4.19649 14.96637,5.41479 14.32121,3.73353 -1.63926,-4.27184 2.20565,-4.7596 7.54559,-0.95723 2.8092,2.00034 6.57167,3.68725 8.36103,3.74871 2.78051,0.0955 2.69879,0.33535 -0.56226,1.65025 -2.0986,0.84619 -4.47831,2.68609 -5.28825,4.08866 -1.27144,2.20176 -2.20319,2.15693 -6.82064,-0.32819 l 0,0 z"
       id="path3927"
       inkscape:connector-curvature="0" />
    <path
       style="fill:#ffff00;fill-opacity:1"
       d=""
       id="path3929"
       inkscape:connector-curvature="0" />
    <path
       style="fill:#ffff00;fill-opacity:1"
       d="m 451.73013,650.05278 c -9.52384,-4.7142 -18.07968,-15.15589 -14.33713,-17.49726 1.82845,-1.14389 2.67365,-0.62979 3.07943,1.87309 1.20777,7.44972 22.75192,19.95204 24.6369,14.29709 0.36565,-1.09693 1.42882,-1.52224 2.3626,-0.94513 2.34498,1.44927 -1.68077,6.02404 -5.29955,6.02228 -1.57794,-7.6e-4 -6.27695,-1.6883 -10.44225,-3.75007 l 0,0 z"
       id="path3931"
       inkscape:connector-curvature="0" />
    <path
       style="fill:#ffff00;fill-opacity:1"
       d=""
       id="path3933"
       inkscape:connector-curvature="0" />
    <path
       style="fill:#ffff00;fill-opacity:1"
       d="m 439.05927,611.28148 c -5.6875,-3.06385 -5.8163,-3.30876 -1.74006,-3.30876 2.82049,0 5.02723,-1.384 6.14212,-3.85215 2.87472,-6.36404 6.16986,-6.02166 5.97123,0.62045 -0.16309,5.45374 -0.27218,5.55926 -1.5187,1.46895 -1.24466,-4.08422 -1.39312,-3.93876 -2.02772,1.9867 l -0.68474,6.39358 -6.14213,-3.30877 z"
       id="path3935"
       inkscape:connector-curvature="0" />
    <path
       style="fill:#ffff00;fill-opacity:1"
       d="m 432.46088,562.14121 c 0,-4.36281 0.34376,-6.1476 0.76392,-3.96619 0.42015,2.1814 0.42015,5.75097 0,7.93238 -0.42016,2.1814 -0.76392,0.39661 -0.76392,-3.96619 z"
       id="path3937"
       inkscape:connector-curvature="0" />
    <path
       style="fill:#ffff00;fill-opacity:1"
       d=""
       id="path3939"
       inkscape:connector-curvature="0" />
    <path
       style="fill:#ffff00;fill-opacity:1"
       d=""
       id="path3941"
       inkscape:connector-curvature="0" />
    <path
       style="fill:#ffff00;fill-opacity:1"
       d=""
       id="path3943"
       inkscape:connector-curvature="0" />
    <path
       style="fill:#ffff00;fill-opacity:1"
       d="m 429.37434,590.38688 c -2.78189,-3.07396 -2.84183,-3.56716 -0.43351,-3.56716 1.53711,0 3.0779,-1.78479 3.42398,-3.96619 0.50635,-3.19151 0.81379,-2.85522 1.57404,1.72174 1.29789,7.81372 -0.58411,10.2099 -4.56451,5.81161 z"
       id="path3945"
       inkscape:connector-curvature="0" />
    <path
       style="fill:#ffff00;fill-opacity:1"
       d=""
       id="path3947"
       inkscape:connector-curvature="0" />
    <path
       style="fill:#ffff00;fill-opacity:1"
       d=""
       id="path3949"
       inkscape:connector-curvature="0" />
    <path
       style="fill:#ffe500;fill-opacity:1"
       d=""
       id="path3951"
       inkscape:connector-curvature="0" />
  </g>
</svg>
