<?xml version="1.0" encoding="UTF-8" standalone="no"?>
<!-- Created with Inkscape (http://www.inkscape.org/) -->

<svg
   xmlns:dc="http://purl.org/dc/elements/1.1/"
   xmlns:cc="http://creativecommons.org/ns#"
   xmlns:rdf="http://www.w3.org/1999/02/22-rdf-syntax-ns#"
   xmlns:svg="http://www.w3.org/2000/svg"
   xmlns="http://www.w3.org/2000/svg"
   xmlns:sodipodi="http://sodipodi.sourceforge.net/DTD/sodipodi-0.dtd"
   xmlns:inkscape="http://www.inkscape.org/namespaces/inkscape"
   width="677.67682"
   height="685.72833"
   id="svg2"
   version="1.1"
   inkscape:version="0.48.4 r9939"
   sodipodi:docname="une cantine.svg">
  <defs
     id="defs4" />
  <sodipodi:namedview
     id="base"
     pagecolor="#ffffff"
     bordercolor="#666666"
     borderopacity="1.0"
     inkscape:pageopacity="0.0"
     inkscape:pageshadow="2"
     inkscape:zoom="0.56729519"
     inkscape:cx="26.199057"
     inkscape:cy="336.19515"
     inkscape:document-units="px"
     inkscape:current-layer="layer1"
     showgrid="false"
     inkscape:window-width="1278"
     inkscape:window-height="779"
     inkscape:window-x="0"
     inkscape:window-y="19"
     inkscape:window-maximized="1"
     fit-margin-top="0"
     fit-margin-left="0"
     fit-margin-right="0"
     fit-margin-bottom="0" />
  <metadata
     id="metadata7">
    <rdf:RDF>
      <cc:Work
         rdf:about="">
        <dc:format>image/svg+xml</dc:format>
        <dc:type
           rdf:resource="http://purl.org/dc/dcmitype/StillImage" />
        <dc:title />
      </cc:Work>
    </rdf:RDF>
  </metadata>
  <g
     inkscape:label="Layer 1"
     inkscape:groupmode="layer"
     id="layer1"
     transform="translate(-35.604057,-176.6479)">
    <path
       style="fill:#000000"
       d="m 286.25713,784.6479 0,-77.71428 -8.46428,0.22605 c -4.65536,0.12435 -14.05072,0.89575 -20.87858,1.71429 l -12.41428,1.48823 -1.65549,19.42857 c -3.20721,37.63945 -2.97858,42.26281 2.37787,48.08505 5.4268,5.89872 6.486,14.66537 2.1033,17.4083 -1.54945,0.96974 -9.06133,2.01065 -16.69307,2.31317 -16.12441,0.63913 -16.52151,0.072 -16.57322,-23.67162 -0.0461,-21.16642 -3.61469,-19.3042 -6.41112,3.34556 -5.20459,42.15479 -7.81643,57.6624 -9.71166,57.6624 -2.70415,0 -2.48263,-7.26485 1.41792,-46.50284 l 3.37303,-33.93142 -7.89182,-9.33653 c -4.3405,-5.13509 -10.08619,-14.2534 -12.7682,-20.2629 -2.68201,-6.00951 -5.7294,-10.39253 -6.77197,-9.74003 -1.04256,0.65251 -1.89557,23.75424 -1.89557,51.33719 l 0,50.15081 -9.02858,0 -9.02857,0 0,-29.34224 0,-29.34226 -9.02857,-9.61113 c -4.96571,-5.28613 -9.14573,-11.88213 -9.28893,-14.65776 -0.41332,-8.01148 -0.73723,-9.3462 -3.4435,-14.18946 -2.64248,-4.72915 0.37212,-33.15157 5.51535,-52 l 2.33891,-8.57143 -9.71195,0 c -12.11959,0 -12.42355,0.92713 -12.46477,38.01913 -0.0277,24.89977 -0.4513,27.84475 -4.14608,28.8232 -3.30772,0.87593 -4.22027,3.71819 -4.65038,14.48416 -0.29432,7.3669 -1.58132,14.67093 -2.86001,16.23113 -3.66978,4.47781 -10.858261,5.93282 -14.439821,2.92277 -4.08115,-3.42992 -4.41079,-22.9739 -0.45597,-27.03427 2.26055,-2.32087 2.03619,-3.48423 -1.12857,-5.85197 -3.21321,-2.40403 -3.99163,-6.7454 -4.17322,-23.2747 -0.47109,-42.8821 -3.64507,-46.7891 -3.97326,-4.89088 -0.19825,25.30926 -1.16689,40.57143 -2.57495,40.57143 -1.39791,0 -2.3588,-13.70409 -2.52419,-36 -0.14688,-19.8 -1.04242,-39.08572 -1.99009,-42.85715 -0.94767,-3.77142 -1.84321,18.6 -1.99009,49.71429 l -0.26705,56.57143 -9.02858,0 -9.02857,0 0,-58.92745 0,-58.92745 -6.77143,-2.5883 -6.77143,-2.58828 0,44.37287 c 0,28.05813 -0.82989,44.37289 -2.25714,44.37289 -1.46764,0 -2.25148,-32.17954 -2.24095,-92 l 0.0162,-92 11.39798,-0.56061 c 6.26889,-0.30837 13.39328,-1.64201 15.83198,-2.96368 4.24146,-2.2987 4.14823,-2.64654 -2.14715,-8.01079 -3.81126,-3.24757 -9.45376,-5.60777 -13.40641,-5.60777 -3.7539,0 -8.43192,-0.62432 -10.3956,-1.38741 -7.40976,-2.87938 -3.08793,-4.76142 10.44372,-4.54795 13.6862,0.216 14.06164,0.0606 16.04856,-6.63607 6.99175,-23.56508 14.32291,-32.19305 29.46924,-34.68208 9.075841,-1.49145 17.079181,2.57929 22.969621,11.68304 2.98402,4.61184 7.36498,24.25995 8.46677,37.9725 0.39301,4.89127 67.69664,13.2102 72.72001,8.98839 1.77711,-1.49353 5.76852,-8.14704 8.86979,-14.78558 7.00183,-14.98802 15.33523,-18.86356 26.02493,-12.10324 3.75264,2.37323 5.3409,1.90994 10.6908,-3.11852 3.45586,-3.2482 8.57475,-6.46494 11.37531,-7.1483 5.64698,-1.37789 27.04388,3.67923 30.538,7.21758 1.22651,1.24204 6.95404,1.69168 12.72783,0.9992 8.94061,-1.0723 11.48969,-0.4139 17.18433,4.43847 3.67756,3.13365 8.63375,6.07961 11.01373,6.54661 7.12442,1.39792 6.59081,6.04749 -1.15984,10.10624 -6.71642,3.51716 -7.86485,3.52752 -14.89195,0.13417 -12.46392,-6.01888 -15.8794,-4.95694 -17.62041,5.47847 -0.90364,5.41636 -3.46408,10.52909 -6.26937,12.51885 -2.60804,1.84988 -4.2953,3.73607 -3.7495,4.19152 1.45857,1.21715 55.01143,7.95594 56.03193,7.05075 0.47745,-0.4235 -0.41008,-3.89486 -1.97229,-7.71413 -5.61354,-13.72379 4.80776,-37.49767 19.64865,-44.82411 23.92209,-11.80954 47.98489,1.89131 51.71439,29.44507 1.1614,8.58071 0.3997,12.24722 -4.3218,20.80169 l -5.7316,10.38492 7.1401,1.14313 c 32.6301,5.22404 79.5493,10.9347 90.6545,11.0338 11.9622,0.10675 15.1774,-0.92251 27.5479,-8.81876 7.7028,-4.91678 14.051,-10.17582 14.1072,-11.68672 0.056,-1.51093 -3.453,-6.24341 -7.798,-10.51662 -9.0249,-8.87579 -9.7352,-14.42297 -3.5992,-28.10526 8.4291,-18.79517 33.6375,-27.87154 49.0349,-17.65511 11.7405,7.79004 17.7953,32.11681 10.9929,44.16695 -4.5383,8.03946 -4.1396,11.42858 1.3446,11.42858 8.3588,0 16.9336,7.07046 30.5223,25.16756 13.1144,17.4654 13.3995,17.68 23.4331,17.63685 16.1644,-0.0695 69.9714,7.92548 69.9714,10.3968 0,2.35019 -11.9121,1.34893 -38.5822,-3.24304 -14.3271,-2.46679 -51.3769,-0.86556 -48.4543,2.09412 0.7304,0.73957 10.1902,1.41607 21.0218,1.50334 l 19.6939,0.15863 1.9675,10.88935 c 3.0028,16.61897 -4.8638,22.89145 -16.8494,13.43506 -4.709,-3.71527 -8.3945,-4.10825 -29.4346,-3.13854 l -24.0517,1.10848 13.3302,6.74551 c 7.3316,3.71004 13.3528,7.43666 13.3804,8.2814 0.028,0.84473 1.8176,3.861 3.9777,6.70283 l 3.9274,5.16693 39.0093,-8.02407 c 44.379,-9.12867 41.064,-8.64144 41.064,-6.03548 0,1.09376 -4.3168,3.14464 -9.5928,4.55751 -14.5253,3.88969 -54.8056,11.73954 -60.2397,11.73954 -4.3968,0 -8.8701,5.63452 -6.4328,8.10268 0.5694,0.57662 16.0891,-2.03918 34.4882,-5.81287 34.7371,-7.12464 44.2257,-8.27246 40.5357,-4.90354 -1.1794,1.07671 -16.3643,4.73625 -33.7443,8.13229 -39.7422,7.76558 -39.5,7.68848 -39.5,12.57418 0,3.67764 1.2104,3.85924 12.5438,1.88192 6.8991,-1.20368 13.0554,-1.67047 13.6806,-1.03733 0.6252,0.63314 0.023,7.1741 -1.3414,14.5355 -7.8973,42.65138 -10.6208,59.25723 -9.9289,60.53867 0.4277,0.79205 13.9973,4.76871 30.1546,8.83705 16.1574,4.06835 29.377,8.30602 29.377,9.41708 0,2.84409 -0.066,2.83303 -31.9456,-5.36009 -15.7942,-4.05911 -29.2602,-6.82972 -29.9246,-6.15692 -1.4554,1.47388 -5.6883,22.47781 -12.7469,63.25139 -2.8837,16.65718 -6.0652,30.28568 -7.0701,30.28568 -3.1039,0 -2.1877,-8.7986 4.0038,-38.45048 1.0679,-5.11436 0.7147,-5.25584 -9.697,-3.88517 -5.9429,0.78235 -18.931,3.17081 -28.8624,5.30766 l -18.0572,3.88516 -2.0057,16.57143 c -2.6173,21.6245 -6.9045,22.1385 -4.7657,0.5714 1.4683,-14.80621 1.2637,-15.99997 -2.7421,-15.99997 -5.2632,0 -30.4972,4.62567 -32.6831,5.99115 -0.8624,0.53875 -0.1117,5.83972 1.6684,11.77992 4.0152,13.399 4.0247,14.2289 0.1628,14.2289 -3.5563,0 -5.8303,-6.8561 -5.8753,-17.7143 -0.05,-12.0398 -3.8934,-8.49495 -5.576,5.1429 -1.9984,16.1967 -5.7406,16.2667 -5.7406,0.1074 0,-12.098 -0.2153,-12.5269 -7.3357,-14.6092 -4.0346,-1.17991 -9.01,-2.84106 -11.0564,-3.69148 -3.0321,-1.26002 -2.7188,0.4579 1.6929,9.28238 6.5472,13.096 7.1975,22.1654 1.5099,21.0563 -2.8706,-0.5599 -4.7269,-4.9893 -7.0152,-16.7391 l -3.1116,-15.97773 -16.4212,-8.05906 -16.4212,-8.05909 -1.262,12.3816 c -0.9335,9.15936 -0.1212,15.42058 3.1211,24.05908 5.1695,13.7733 5.0348,12.8203 1.8126,12.8203 -1.415,0 -3.9219,-1.8 -5.5711,-4 -2.8557,-3.8095 -3.0019,-3.8095 -3.0703,0 -0.039,2.2 -1.0592,4 -2.2661,4 -1.2068,0 -2.0538,-5.4 -1.8822,-12 0.2725,-10.4777 -2.9069,-23.6671 -9.5044,-39.42854 -1.1975,-2.8608 -1.9707,5.90617 -2.0663,23.42857 -0.093,17.03977 -1.0363,27.99997 -2.4099,27.99997 -1.4604,0 -2.2571,-27.38118 -2.2571,-77.5722 0,-72.35945 0.2654,-77.57136 3.95,-77.55925 8.8449,0.029 51.5598,-7.97974 54.3364,-10.18781 2.4744,-1.96777 11.685,-17.99644 11.685,-20.33479 0,-0.38135 -12.4425,-0.67945 -27.65,-0.66249 -15.2075,0.016 -31.0589,-0.73669 -35.2253,-1.67479 l -7.5752,-1.70567 5.3181,4.36606 c 7.2961,5.98994 3.5723,8.68384 -5.7686,4.17309 -4.2044,-2.0303 -11.2313,-4.37289 -15.6153,-5.20576 -6.7349,-1.27947 -11.2723,-5.61353 -10.6866,-10.20779 0.2847,-2.23237 5.8399,-1.38992 9.1743,1.39127 1.8622,1.55321 6.108,3.51188 9.4352,4.35264 5.155,1.30265 5.8854,0.89323 4.9397,-2.76894 -0.6697,-2.59307 0.8297,-6.07504 3.7803,-8.77913 4.3546,-3.9907 8.2636,-4.48155 35.6889,-4.48155 20.8053,0 33.1444,1.00253 38.0278,3.08971 6.4757,2.7677 7.8871,2.62139 13.5429,-1.40402 3.4726,-2.47152 10.1632,-5.88334 14.868,-7.58181 4.7049,-1.69847 10.0027,-4.70882 11.7729,-6.68969 2.8434,-3.18162 2.3065,-4.09904 -4.6042,-7.86782 -4.3025,-2.34644 -7.8228,-5.58642 -7.8228,-7.19997 0,-5.28654 -4.328,-5.84908 -25.4381,-3.30629 -36.1747,4.3573 -35.5048,4.11646 -35.5048,12.76528 0,14.96535 -14.0323,20.05271 -22.4177,8.12747 -2.5674,-3.6512 -4.668,-8.27977 -4.668,-10.28571 0,-2.54423 -2.088,-3.64715 -6.9046,-3.64715 -7.8347,0 -7.0549,3.65513 1.481,6.94155 2.983,1.14848 5.4236,3.14219 5.4236,4.43045 0,2.87536 -2.3407,2.94182 -6.6379,0.18857 -2.1368,-1.36908 -5.6206,-0.79509 -10.1572,1.67348 -5.326,2.89815 -13.3564,3.77463 -35.1192,3.8331 -30.0405,0.0807 -38.19267,-1.21262 -43.86767,-6.95945 -3.03917,-3.07765 -7.65553,-3.36325 -31.82456,-1.96889 -15.54835,0.897 -27.77505,2.13186 -27.17043,2.74413 0.60462,0.61228 32.29827,11.05411 70.43033,23.20407 l 69.33103,22.09086 23.8721,-2.83637 c 29.3646,-3.48902 34.0292,-3.6213 34.0292,-0.96509 0,1.14987 -7.8717,2.83705 -17.4928,3.74925 -34.2322,3.24565 -41.1763,5.295 -14.4599,4.26734 14.0824,-0.54167 28.0485,-1.60606 31.0357,-2.3653 3.0138,-0.76597 5.4313,-0.36718 5.4313,0.89595 0,2.00551 -21.2579,5.16366 -54.8769,8.15269 -8.4681,0.75289 -10.6045,0.28448 -9.6914,-2.12494 0.6441,-1.69988 0.1754,-3.71399 -1.0418,-4.47572 -1.2172,-0.76176 -33.9296,-11.42887 -72.6943,-23.70467 -38.76471,-12.27581 -72.76665,-23.06909 -75.55986,-23.98507 -3.53589,-1.15952 -5.07858,-0.74706 -5.07858,1.35787 0,2.98716 7.08768,6.04425 27.30405,11.77694 52.29284,14.82846 121.61199,37.43849 121.63689,39.67463 0.023,1.98135 -1.6853,2.14889 -6.1766,0.6061 -3.414,-1.17266 -29.5686,-9.3747 -58.12148,-18.22674 -28.55285,-8.85202 -53.69178,-16.65122 -55.86428,-17.33157 -2.81536,-0.88162 -3.95,0.0249 -3.95,3.15555 0,3.50731 3.52518,5.44128 17.49285,9.59684 13.46425,4.00581 65.27201,20.59637 103.82861,33.24935 3.6092,1.18441 4.1691,154.2122 0.5643,154.2122 -1.2415,0 -2.2572,-4.1397 -2.2572,-9.1994 0,-7.6935 -0.9177,-9.5528 -5.606,-11.3578 l -5.6061,-2.1584 1.377,-28.43788 c 0.7574,-15.6408 0.6809,-34.08089 -0.1701,-40.97796 l -1.5472,-12.54016 -9.4596,1.22173 c -5.2027,0.67196 -9.8792,1.59091 -10.3921,2.04213 -0.5129,0.45122 -1.4095,14.1954 -1.9924,30.54265 -0.6267,17.57552 -1.9822,29.72226 -3.317,29.72226 -1.4437,0 -1.8738,-10.74832 -1.1935,-29.82768 l 1.0636,-29.82765 -9.2283,0.6848 -9.2283,0.68482 -1.45384,20.57143 c -0.79961,11.31428 -1.5614,33.68571 -1.69286,49.71428 -0.22142,26.98573 -0.5553,29.14283 -4.51218,29.14283 -3.97449,0 -4.22054,-1.7174 -3.52022,-24.5714 1.55251,-50.66521 1.21412,-79.76203 -0.9961,-85.64894 -1.25407,-3.3402 -4.54961,-7.30306 -7.32341,-8.80635 -4.44847,-2.41088 -5.65783,-1.9555 -10.25398,3.86103 -6.12999,7.75767 -6.49506,15.72091 -2.08332,45.44427 1.67875,11.31036 2.58195,21.80551 2.00708,23.32254 -0.57488,1.51705 0.56893,5.092 2.54181,7.94432 6.33065,9.15266 4.61899,20.36903 -4.5704,29.94983 -4.48657,4.6776 -10.21199,8.5047 -12.72315,8.5047 -3.78938,0 -2.78611,-1.9266 5.90028,-11.3306 10.59408,-11.4693 11.95776,-14.74642 8.46135,-20.33394 -1.4861,-2.3749 -3.01592,-2.50759 -6.58846,-0.57143 -2.55913,1.38695 -6.49723,2.55186 -8.75135,2.58871 -2.25412,0.0368 -7.39946,3.10807 -11.4341,6.82496 -5.61848,5.1759 -7.33571,8.6382 -7.33571,14.7901 0,7.8471 -0.20811,8.0322 -9.02858,8.0322 l -9.02857,0 0,-77.71426 z m 13.54286,-24.87627 c 0,-98.38254 -0.0865,-100.32775 -4.51429,-101.5003 -4.46424,-1.18219 -4.51428,-0.0702 -4.51428,100.30485 0,99.97648 0.0677,101.50028 4.51428,101.50028 4.44572,0 4.51429,-1.5238 4.51429,-100.30483 z m 11.20572,66.83511 c 0.044,-1.43694 -1.44358,-3.20464 -3.30572,-3.92828 -2.68654,-1.04395 -3.36919,0.67559 -3.30572,8.32688 0.079,9.51182 0.12369,9.56512 3.30572,3.92828 1.77416,-3.14286 3.26175,-6.88997 3.30572,-8.32688 z m 112.93712,6.04116 c 0,-2.53968 -1.5048,-4.57142 -3.3857,-4.57142 -6.1499,0 -4.0169,6.77558 2.8214,8.9624 0.3104,0.0992 0.5643,-1.87669 0.5643,-4.39098 z m 99.3143,-7.9119 c 0,-4.69712 -1.5841,-6.04528 -9.5929,-8.16414 -5.276,-1.39589 -16.048,-4.52124 -23.9377,-6.94524 -15.8104,-4.85755 -22.898,-5.54742 -22.898,-2.22882 0,1.96704 6.7634,5.67609 19.1857,10.52149 36.6173,14.28279 37.2429,14.39728 37.2429,6.81671 z m 30.8867,1.0906 c 9.7031,-1.38002 30.3383,-5.39895 45.8562,-8.93092 30.1774,-6.86862 35.7669,-10.8224 21.6236,-15.29552 -6.6244,-2.09509 -8.4572,-1.84352 -11.9053,1.63419 -4.5819,4.62126 -27.2411,9.96786 -52.6041,12.41234 -21.6252,2.08423 -27.0857,4.16716 -27.0857,10.33205 0,3.29239 1.0497,4.46466 3.2368,3.61476 1.7802,-0.69177 11.1755,-2.38688 20.8785,-3.7669 z m -99.1653,-17.9091 c -2.1725,-0.40171 -3.95,-2.20171 -3.95,-4 0,-2.48733 3.3752,-3.26859 14.1072,-3.26544 l 14.1071,0.005 -0.7541,-13.5054 c -0.5538,-9.91623 0.2773,-15.09963 3.1271,-19.50409 2.1348,-3.29925 3.3944,-6.49182 2.7991,-7.09458 -1.9509,-1.97561 -19.5355,5.42615 -31.0915,13.08708 -10.8484,7.19189 -11.3213,7.93991 -11.2732,17.82919 0.032,6.71047 1.5946,12.32181 4.464,16.03662 2.4277,3.14286 4.4365,6.41876 4.4641,7.27977 0.028,0.86103 1.2622,4.46103 2.7436,8 l 2.6934,6.43451 1.2566,-10.28571 c 1.05,-8.59429 0.6071,-10.40583 -2.6934,-11.01611 z m -126.96425,15.58755 c 1.64997,-2.7035 -0.55869,-2.7035 -6.77143,0 -4.35232,1.89392 -4.33683,1.97017 0.43107,2.12505 2.71994,0.0885 5.57311,-0.86791 6.34036,-2.12505 z m 93.14815,-112.37584 c -8.2057,-5.27429 -14.5161,4.68884 -9.3248,14.72233 4.2723,8.25712 7.21,33.53691 7.7624,66.79636 0.807,48.59806 3.1959,33.68812 3.8196,-23.8394 0.4677,-43.14798 -0.045,-56.2576 -2.2572,-57.67929 z m -89.37545,101.46967 c 1.80894,-1.83184 1.53075,-8.71315 -1.02228,-25.28615 -4.18044,-27.13728 -2.92328,-34.81719 8.2857,-50.61676 4.48228,-6.31796 8.14959,-12.21289 8.14959,-13.09984 0,-2.61646 -16.50163,-18.95358 -19.07951,-18.88928 -1.29985,0.0325 -5.55716,4.91813 -9.46068,10.85714 -14.18752,21.58549 -14.34552,22.28531 -14.34552,63.53916 l 0,38.11083 12.49371,-1.04918 c 6.87156,-0.57706 13.61209,-2.18172 14.97899,-3.56592 z M 169.04487,782.93362 c 0.0875,-17.28572 0.34147,-59.2 0.56429,-93.14286 l 0.40511,-61.71429 7.79309,0.79228 c 7.11298,0.72313 7.51512,0.45312 4.60793,-3.09417 -2.36166,-2.88165 -5.42201,-3.58263 -11.83704,-2.71132 -6.79728,0.92327 -20.11161,-2.70066 -62.11219,-16.9058 -29.403161,-9.94455 -54.245881,-18.08099 -55.206051,-18.08099 -0.96016,0 -1.74574,0.87237 -1.74574,1.93859 0,3.03913 13.4605,8.2546 62.071431,24.0504 l 45.14286,14.66889 0.5896,92.81392 c 0.57755,90.91547 0.68143,92.81392 5.07857,92.81392 4.25517,0 4.49726,-1.63694 4.64814,-31.42857 z m 357.24726,25.14286 c 0.5744,-0.94286 2.1821,-12 3.5728,-24.57143 3.8219,-34.55013 11.8289,-85.70759 13.4237,-85.76581 0.7762,-0.0283 17.1549,-0.5365 36.3971,-1.12928 19.2421,-0.59275 38.5407,-1.92279 42.8857,-2.95559 7.3966,-1.75817 7.8684,-2.41422 7.4036,-10.29556 -0.7117,-12.07013 -9.6315,-27.04894 -19.2798,-32.37621 l -8.1907,-4.52245 -7.4239,5.5582 c -8.7353,6.54002 -28.6051,8.88969 -40.7764,4.82194 -6.5415,-2.18622 -9.4077,-1.90288 -17.7321,1.75303 -11.497,5.04928 -17.0148,10.74533 -25.7925,26.62601 -3.4743,6.28572 -11.1091,19.65714 -16.9662,29.71429 -13.7103,23.5421 -14.5754,26.64763 -9.2705,33.28176 4.0026,5.00555 4.5182,5.10222 8.0636,1.51186 2.0833,-2.10958 5.0635,-4.62974 6.6227,-5.60034 3.8829,-2.41694 24.9499,-28.48492 29.9562,-37.06711 3.5078,-6.0133 9.8717,-9.6598 9.8717,-5.65639 0,3.26183 -17.0061,26.76942 -30.5716,42.25934 -8.1813,9.34183 -16.4475,19.99216 -18.3693,23.66738 -4.3966,8.40782 -4.5953,28.08352 -0.3272,32.40562 6.2033,6.28186 33.9019,12.61079 36.5031,8.34074 z m 36.465,-0.62163 c 25.2581,-3.58946 37.5039,-7.37124 40.9088,-12.63357 1.7155,-2.65125 5.0212,-11.93914 7.346,-20.63978 2.3248,-8.70061 4.906,-17.45115 5.736,-19.44562 1.3455,-3.23351 -2.6578,-3.60489 -36.9578,-3.42857 l -38.4667,0.19771 -1.1052,6.85715 c -2.1071,13.07348 -5.6754,42.63803 -5.6754,47.02256 0,5.16139 4.2616,5.47408 28.2143,2.07012 z m 79.2634,-23.97179 c 1.4388,-8.78791 2.1621,-16.74944 1.6074,-17.6923 -1.4847,-2.5234 -11.5341,-2.08692 -13.1565,0.57143 -0.7673,1.25714 -3.2858,2.28571 -5.5967,2.28571 -4.429,0 -6.5057,6.29728 -6.5018,19.71552 0,6.00773 1.1437,7.51975 7.1789,9.5059 12.339,4.06071 13.6336,2.92978 16.4687,-14.38626 z m -411.07052,-6.38105 c 6.45388,-22.00768 2.46975,-32.19568 -8.1246,-20.77575 -4.45202,4.79895 -5.14585,7.70368 -4.68188,19.60082 0.29958,7.68185 1.11026,14.89369 1.80152,16.02633 2.35013,3.8507 7.59688,-3.22987 11.00496,-14.8514 z m 12.10678,13.64409 c 1.84757,-2.25438 1.67427,-4.18169 -0.66765,-7.42498 -3.68165,-5.0987 -4.85107,-4.39683 -6.97895,4.18861 -1.17484,4.74021 -0.73394,6.28103 1.7973,6.28103 1.84472,0 4.4769,-1.3701 5.8493,-3.04466 z m 205.08044,-36.17305 c 0.7972,-10.16675 0.1052,-16.88602 -2.3162,-22.49658 -3.3794,-7.82992 -3.4567,-7.46788 -3.6369,17.02858 -0.1348,18.30868 0.4872,24.34875 2.3162,22.49657 1.3752,-1.3926 3.0118,-9.05545 3.6369,-17.02857 z M 69.035999,683.53577 c -0.5495,-74.61255 -0.8839,-80.59738 -4.54316,-81.31047 -3.70213,-0.72144 -3.95,4.33277 -3.95,80.54073 0,79.9589 0.0755,81.31045 4.54316,81.31045 4.47805,0 4.53466,-1.15424 3.95,-80.54071 z m 394.406831,75.96928 c 4.87,-2.51429 10.1633,-4.57143 11.763,-4.57143 3.3155,0 3.7872,-2.63388 1.0438,-5.82857 -1.0256,-1.19429 -3.2043,-6.49582 -4.8415,-11.78122 -2.6281,-8.48393 -2.5213,-10.31382 0.9116,-15.61947 2.1387,-3.30535 7.3645,-7.48046 11.613,-9.27806 4.2484,-1.79757 7.7244,-3.91067 7.7244,-4.69577 0,-1.50807 -31.4181,0.84732 -40.0643,3.00357 -6.2357,1.55511 -6.3366,4.16279 -0.6016,15.55392 3.4475,6.84763 4.283,12.21474 3.6336,23.34046 -0.4638,7.9464 -0.6617,14.448 -0.4399,14.448 0.2219,0 4.3879,-2.05715 9.2579,-4.57143 z m 166.5951,-6.43927 c 0.6399,-3.37269 0.9698,-6.33337 0.7331,-6.57932 -1.5052,-1.56397 -5.485,3.71644 -6.7514,8.9577 -1.1616,4.80758 -0.7801,5.94352 1.6755,4.9893 1.7487,-0.67954 3.703,-3.995 4.3428,-7.36768 z m 16.1158,3.58212 c 2.5318,-8.32214 3.387,-15.42448 1.8536,-15.39357 -3.9515,0.0798 -6.7512,3.82221 -8.096,10.82215 -1.1013,5.73291 -0.6509,7.42857 1.9731,7.42857 1.8701,0 3.7912,-1.28572 4.2693,-2.85715 z m -543.25675,-2.28571 c 3.35984,-4.21344 5.4132,-20.64656 3.04048,-24.33308 -3.29368,-5.11739 -8.808181,-1.19179 -11.332831,8.06746 -3.85706,14.14599 1.54032,24.73307 8.292351,16.26562 z m 293.50055,-0.98325 16.4689,-1.41974 -1.4017,-7.08423 c -3.1529,-15.93438 -3.5771,-16.5283 -7.0338,-9.84759 -4.6643,9.01499 -9.6749,10.8901 -21.2761,7.96217 -5.4987,-1.3878 -10.5157,-3.30085 -11.1489,-4.25122 -1.7342,-2.60316 -13.52022,-5.16053 -13.52022,-2.93367 0,1.06594 1.7775,6.38329 3.95,11.81632 3.67131,9.18132 4.42774,9.78299 10.72142,8.528 3.7243,-0.74265 14.1824,-1.98917 23.2404,-2.77004 z m -241.05469,-16.73104 0,-13.71428 -7.9,0 c -6.18166,0 -7.9,0.91975 -7.9,4.22848 0,3.93017 12.1978,23.20009 14.68559,23.20009 0.61293,0 1.11441,-6.17143 1.11441,-13.71429 z m 78.93675,9.95952 c 2.76025,-0.88276 2.80082,-1.38905 0.2398,-2.99188 -3.55934,-2.22764 -16.54407,1.68187 -14.84305,4.469 1.03922,1.70279 6.33556,1.16707 14.60325,-1.47712 z m -20.19258,-22.96073 2.55937,-16.42976 12.79823,-1.2941 c 7.03903,-0.71175 20.41609,-2.38078 29.72681,-3.70892 9.31071,-1.32816 19.21393,-2.57129 22.00714,-2.76253 2.79322,-0.19132 5.07857,-1.29118 5.07857,-2.4443 0,-2.1613 -7.7331,-1.45607 -34.92439,3.18494 -8.65627,1.47746 -20.39766,2.12752 -26.09198,1.44457 l -10.35331,-1.24172 -2.68659,18.81658 c -1.47762,10.34912 -2.56876,20.82032 -2.42476,23.26937 0.32089,5.457 0.96595,2.63876 4.31091,-18.83413 z m 413.40552,15.03756 c 9.5451,-2.60816 18.8365,-5.93331 20.6476,-7.38922 3.3385,-2.6839 11.2206,-40.36141 8.4436,-40.36141 -0.8302,0 -2.6041,1.10852 -3.9421,2.4634 -5.1155,5.18025 -21.3703,7.44615 -62.7988,8.75408 l -42.8857,1.35395 -1.3356,12.57142 c -0.7346,6.91429 -2.056,16.45962 -2.9365,21.21187 l -1.6009,8.64041 34.5268,-1.2512 c 24.6226,-0.89228 39.5051,-2.6115 51.8816,-5.9933 z m -422.49254,-2.86019 c 0,-4.22452 0.62355,-12.28788 1.38568,-17.91856 l 1.38567,-10.2376 -13.52089,-7.12594 c -7.43649,-3.91927 -14.15433,-6.48448 -14.92854,-5.70048 -3.13377,3.17346 -0.99403,11.33582 6.71534,25.61659 13.03165,24.13975 18.96274,28.94588 18.96274,15.36599 z m 31.36228,-0.59707 c 0.48996,-0.42037 1.38098,-5.92976 1.98003,-12.24311 l 1.08918,-11.47883 -9.00895,0 c -8.95924,0 -9.01658,0.0565 -10.39386,10.23193 -1.94498,14.36987 -0.38606,17.30103 8.3112,15.62697 3.92235,-0.75497 7.53243,-1.71662 8.0224,-2.13696 z m 160.20506,0.63163 c 1.3861,-1.69124 3.1423,-6.22496 3.9026,-10.07495 1.0774,-5.4549 0.4307,-7.51577 -2.9296,-9.33693 -2.3717,-1.28535 -5.5316,-1.57381 -7.022,-0.64099 -4.134,2.58723 -13.9755,16.77223 -13.9755,20.14336 0,4.03571 16.7047,3.96023 20.0245,-0.0905 z m -44.03184,-2.62617 c -0.71183,-1.87849 -2.20353,-2.84635 -3.31486,-2.15081 -3.18693,1.99456 -2.35643,5.56626 1.29425,5.56626 2.01355,0 2.80678,-1.3408 2.02061,-3.41545 z m 19.38994,-4.45874 c 1.4887,-1.8165 2.3749,-5.67365 1.9692,-8.57143 -0.6041,-4.31609 -2.3283,-5.40057 -9.53631,-5.99826 -13.97099,-1.15849 -17.70248,9.00955 -5.30833,14.46475 9.27487,4.08226 9.61354,4.08503 12.87544,0.10492 z m 109.212,-5.26866 3.8593,-8.57143 -5.6984,6.41316 c -5.7315,6.45056 -7.2707,10.72969 -3.8592,10.72969 1.0115,0 3.5757,-3.85714 5.6983,-8.57142 z M 312.008,701.21933 c -2.00999,-20.02754 -3.32868,-26.28571 -5.53885,-26.28571 -1.2515,0 -2.11522,11.25911 -2.06025,26.85714 l 0.0946,26.85714 4.32575,-8 c 3.25254,-6.01524 4.04119,-10.83536 3.17875,-19.42857 z m -197.12557,9.71429 c 1.00195,-71.5 0.9652,-72.23301 -3.95166,-78.82007 -4.24093,-5.68151 -6.02151,-6.29484 -17.556031,-6.04709 -15.01593,0.32254 -13.93738,-2.26011 2.74989,-6.58475 l 11.842261,-3.06901 -15.407881,-5.02525 c -8.47433,-2.76389 -16.1101,-5.02526 -16.96836,-5.02526 -0.85827,0 -1.29406,8.53252 -0.96843,18.96114 0.57741,18.49237 0.75706,19.04336 7.26614,22.28572 8.90085,4.43378 10.44138,11.55616 9.31985,43.0887 -0.50958,14.32741 -0.39909,27.4417 0.24555,29.14286 0.76434,2.01708 5.01392,3.09301 12.216281,3.09301 l 11.04423,0 0.16816,-12 z m 40.46041,-35.55011 0,-42.97865 -15.39585,-5.02135 c -8.46772,-2.76173 -18.78229,-5.02132 -22.92126,-5.02132 -7.42677,0 -7.47089,0.061 -3.36653,4.65367 2.28738,2.55954 4.74141,8.98811 5.45338,14.28571 1.39706,10.39511 3.3337,11.13042 18.96407,7.20046 l 6.43381,-1.61767 -1.06749,12.31035 c -0.58712,6.77068 -2.67194,22.0025 -4.63293,33.84846 -1.96099,11.84597 -3.04624,22.38882 -2.41168,23.42857 0.63457,1.03975 5.15667,1.89045 10.04912,1.89045 l 8.89536,0 0,-42.97868 z m -23.84349,-35.76774 c 12.81211,-6.69799 14.09008,-7.02023 10.50808,-2.64956 -1.43135,1.74649 -4.85679,3.67138 -7.61209,4.27749 -2.7553,0.60612 -7.04107,1.79842 -9.52393,2.64955 -2.48285,0.85113 0.49972,-1.07374 6.62794,-4.27748 z m 253.62068,76.00356 c 1.4897,-1.50857 2.7085,-4.49641 2.7085,-6.63963 0,-3.17628 -1.5651,-3.69177 -8.4643,-2.78803 -4.6553,0.60981 -11.00352,0.0629 -14.10709,-1.21547 -5.01244,-2.06457 -4.44506,-2.34043 5.07859,-2.46912 5.8968,-0.0798 10.7214,-0.98562 10.7214,-2.01319 0,-1.02756 -5.8404,-3.73129 -12.97857,-6.00832 -7.13821,-2.277 -14.24821,-4.63204 -15.8,-5.23339 -4.12569,-1.59879 -3.44431,2.42811 1.27971,7.56292 2.25563,2.4518 5.17554,6.40197 6.48872,8.77817 1.31317,2.37621 5.30801,4.6275 8.87744,5.00286 3.5694,0.37536 7.5004,2.27628 8.7355,4.22425 2.7015,4.26096 3.9132,4.39072 7.4601,0.79895 z m -31.14861,-6.63924 c 0,-1.11975 -3.52922,-7.0105 -7.84274,-13.09059 -5.72445,-8.06889 -10.21503,-11.77444 -16.62613,-13.71956 -11.59535,-3.51801 -12.19936,-3.41253 -9.51734,1.66231 4.22267,7.99001 27.75918,29.60349 30.90584,28.3807 1.69421,-0.65835 3.08037,-2.11314 3.08037,-3.23286 z m 54.17141,0.31922 c 0,-1.06478 -4.5707,-3.51308 -10.1571,-5.44066 -5.5865,-1.92759 -10.1416,-2.79571 -10.1226,-1.92915 0.077,3.52176 3.7152,6.72912 10.1226,8.92437 6.9272,2.37337 10.1571,1.87904 10.1571,-1.55456 z M 322.37142,699.0786 c 0,-1.6576 -1.34404,-4.14338 -2.98676,-5.52398 -2.39032,-2.00891 -2.79058,-1.15657 -2.00435,4.26823 0.94078,6.49106 4.99111,7.51013 4.99111,1.25575 z m -115.11429,-2.4307 c 0,-1.88571 -1.7775,-3.4426 -3.95,-3.45977 -2.1725,-0.0183 -6.48929,-0.58832 -9.59286,-1.26923 -4.56036,-1.00053 -4.12736,-0.3552 2.25715,3.36397 9.59515,5.58947 11.28571,5.79395 11.28571,1.36503 z m 64.32857,-6.60939 13.54286,-2.8805 0.65776,-16.12636 c 0.65005,-15.93767 0.58403,-16.14644 -5.64286,-17.84226 -3.46533,-0.94375 -18.79511,-1.93216 -34.06616,-2.19646 l -27.76554,-0.48052 0.67983,5.92489 c 0.61456,5.35611 1.97994,6.13122 14.22268,8.07417 17.11618,2.71636 41.67395,2.94055 46.83572,0.42754 2.37469,-1.15611 3.95,-1.02455 3.95,0.3299 0,1.23913 -3.10375,3.55486 -6.89724,5.14606 -7.82008,3.28018 -41.98849,1.90434 -52.35276,-2.10805 -3.41393,-1.32165 -6.20715,-2.05458 -6.20715,-1.62871 0,0.42588 -1.00967,6.16567 -2.24371,12.75513 -1.23404,6.58944 -1.59565,13.04268 -0.80358,14.34051 1.72758,2.83065 35.92796,0.55307 56.09015,-3.73534 z m -73.35714,-12.68428 c 0,-12.92987 3.4574,-13.26075 6.94655,-0.66482 2.71036,9.78448 3.14617,10.27084 4.57116,5.10135 0.86634,-3.14286 1.67641,-11.00496 1.80015,-17.47131 l 0.225,-11.75706 -9.28715,2.1131 c -5.10793,1.16222 -13.7415,5.21657 -19.18571,9.00972 -7.694,5.36061 -9.89857,8.31449 -9.89857,13.26297 0,8.57097 1.24647,9.41401 13.91904,9.41401 l 10.90953,0 0,-9.00796 z m 303.29737,-6.86889 c 12.9601,-3.04493 14.9024,-6.35524 4.8495,-8.26507 -5.0086,-0.9515 -9.0291,-0.6656 -9.8869,0.70302 -1.715,2.73634 -45.46,5.0474 -45.46,2.40169 0,-1.00096 3.809,-1.96 8.4643,-2.1312 5.9105,-0.21737 6.8254,-0.6243 3.0324,-1.34873 -7.2539,-1.38542 -25.0395,1.42118 -25.0395,3.95124 0,5.48768 46.2328,8.87287 64.0402,4.68905 z M 185.81427,655.79892 c 22.48145,-10.35429 24.85255,-11.8925 25.50886,-16.54859 0.57118,-4.0521 -0.74576,-5.01984 -8.21117,-6.03383 -4.8903,-0.66423 -13.57607,-0.67299 -19.30172,-0.0206 l -10.41025,1.18934 0,13.60752 c 0,7.48412 0.76178,13.23781 1.69285,12.78597 0.93107,-0.45186 5.75572,-2.69278 10.72143,-4.97984 z m 300.79066,3.84994 c -2.1581,-0.57209 -6.2209,-0.59284 -9.0286,-0.0462 -2.8077,0.54672 -1.0421,1.01481 3.9237,1.04018 4.9657,0.0254 7.2629,-0.42196 5.1049,-0.99405 z m 96.8856,-8.74525 c 9.3032,-3.93635 9.0754,-7.05406 -0.253,-3.46252 -3.3566,1.29232 -10.5475,2.34967 -15.9798,2.34967 -5.4324,0 -10.5048,1.02857 -11.272,2.28571 -2.2006,3.60574 18.2744,2.73264 27.5048,-1.17286 z M 277.51154,640.05467 c 1.62164,-2.9344 5.09387,-3.9782 13.23374,-3.9782 l 11.03524,0 1.39011,-10.85714 c 0.76456,-5.97143 1.84625,-13.10839 2.40374,-15.85991 1.34133,-6.62018 -1.49181,-8.04585 -10.01196,-5.03812 -3.85728,1.36167 -22.51076,3.14935 -41.45213,3.97261 l -34.43886,1.49685 -0.67568,15.79538 c -0.4724,11.04355 0.20662,16.40201 2.25715,17.81182 1.61304,1.10903 14.43647,1.70558 28.49648,1.32567 21.49688,-0.58087 25.91341,-1.32361 27.76217,-4.66896 z m 151.50989,1.7741 c 6.7562,-2.85634 4.4215,-5.2891 -8.8156,-9.18594 -10.855,-3.19559 -15.6017,-3.37586 -31.7141,-1.20455 -19.0181,2.56286 -31.6104,6.06114 -29.50218,8.19602 4.7997,4.86048 59.65978,6.57955 70.03188,2.19447 z m -49.0929,-3.36807 c 4.9462,-2.26027 29.7756,-3.20338 27.6494,-1.05024 -0.7246,0.73372 -8.2578,1.73431 -16.7405,2.22359 -10.3627,0.59769 -13.942,0.2128 -10.9089,-1.17335 z m 91.723,-1.01643 c 2.2294,-8.49241 -0.9293,-14.44021 -7.412,-13.95657 -5.9658,0.44507 -9.0304,8.8586 -6.1244,16.81378 2.7703,7.58343 11.2662,5.79013 13.5364,-2.85721 z m 100.1388,6.31412 c 2.9991,-1.16541 3.1506,-1.8519 0.7489,-3.39357 -4.6784,-3.00316 -8.6535,-2.34812 -8.6535,1.42594 0,3.72302 2.0647,4.23696 7.9046,1.96763 z m -515.761781,-5.5311 c 0,-2.58848 -0.88609,-4.15175 -1.96908,-3.47395 -2.36415,1.47961 -4.74321,-11.73753 -4.77751,-26.54196 -0.0137,-5.89724 -0.92507,-11.28567 -2.02537,-11.97431 -3.37219,-2.11049 -4.74242,8.1995 -3.25853,24.5181 1.10179,12.11653 2.44331,16.26684 6.09526,18.85714 5.9477,4.21868 5.93523,4.22158 5.93523,-1.38502 z m 608.997981,-6.02428 c 0.6439,-6.73646 0.2086,-7.26393 -5.6209,-6.81019 -4.0282,0.31353 -6.6005,1.97325 -7.096,4.5784 -1.3103,6.88987 1.4962,11.04697 6.9303,10.26557 3.8818,-0.55821 5.2542,-2.46347 5.7866,-8.03378 z m -64.7957,-3.13764 c 10.8848,-12.72074 13.9874,-32.89708 7.2649,-47.24304 -4.3552,-9.29402 -20.2391,-17.92531 -37.3607,-20.30181 -9.0889,-1.26153 -11.2834,-0.65214 -18.4868,5.13367 -9.5373,7.66043 -17.1054,22.04212 -17.1054,32.50564 0,10.28103 9.6648,28.57781 16.8455,31.891 3.2661,1.50697 9.6995,2.81223 14.2964,2.90059 4.597,0.0882 10.3896,1.06643 12.8724,2.17347 7.0226,3.13126 15.2456,0.45289 21.6737,-7.05952 z m -19.0186,-1.83111 c -0.7122,-3.60608 -0.4186,-9.52037 0.6524,-13.14286 1.8415,-6.22823 1.9579,-6.06832 2.1414,2.94098 0.1067,5.24005 0.8105,11.15433 1.564,13.14286 0.7536,1.98855 0.3727,3.61552 -0.8464,3.61552 -1.2191,0 -2.7992,-2.95042 -3.5114,-6.5565 z m 9.9374,0.65175 c 0.1083,-2.66275 0.6431,-3.20435 1.3637,-1.38096 0.652,1.64998 0.5718,3.62141 -0.1781,4.38096 -0.7501,0.75952 -1.2835,-0.5905 -1.1855,-3 z m 6.8551,-12.76544 c -0.1441,-2.09719 -0.8464,-5.69719 -1.5609,-8 -1.2312,-3.96851 -1.1644,-3.97452 1.2804,-0.1152 1.4187,2.23949 2.1211,5.83949 1.5609,8 -0.9177,3.53885 -1.0446,3.55028 -1.2804,0.1152 z m -13.5013,-16.18695 c -4.0914,-18.37379 -4.7549,-18.96615 -17.2698,-15.41785 -5.8415,1.65622 -12.5395,5.09673 -14.8844,7.64557 -2.345,2.54885 -4.2635,3.53769 -4.2635,2.19744 0,-3.83997 6.4459,-8.38528 17.7747,-12.53373 l 10.4396,-3.82284 -9.6723,-0.17714 c -5.382,-0.0985 -12.14,1.46025 -15.2357,3.51431 -3.1218,2.07131 -5.5635,2.62978 -5.5635,1.27243 0,-3.60334 9.3226,-9.53534 14.9856,-9.53534 2.7239,0 5.338,-1.17097 5.8091,-2.60214 0.6256,-1.90062 3.078,-1.78869 9.0965,0.41515 4.5319,1.65954 7.672,3.94784 6.9779,5.08512 -0.6941,1.1373 2.3527,1.75243 6.7706,1.36699 4.4178,-0.38544 8.7641,0.04 9.6583,0.94563 0.8942,0.90551 -2.1584,1.6464 -6.7836,1.6464 -5.0315,0 -7.849,0.91812 -7.0144,2.28571 0.7673,1.25714 4.3223,2.28572 7.9,2.28572 3.5778,0 7.0016,0.8136 7.6085,1.80802 0.6069,0.99442 -2.2922,1.40658 -6.4425,0.91593 l -7.546,-0.89211 1.1992,12.79837 c 0.6595,7.03909 0.7331,12.79836 0.1634,12.79836 -0.5696,0 -2.2381,-5.4 -3.7078,-12 z m -31.1235,4 c 6.0909,-11.46549 9.6648,-14.93829 17.5881,-17.09061 6.3171,-1.716 6.8325,-1.60583 3.0748,0.6574 -2.4828,1.4954 -8.9673,7.34749 -14.4099,13.00464 -8.4114,8.74283 -9.3493,9.25712 -6.253,3.42857 z m 8.2832,4.38096 c 0.048,-2.88736 2.5375,-6.06117 7.8654,-10.02608 3.3618,-2.50174 3.0737,-1.62643 -1.1285,3.42857 -3.1036,3.73339 -5.8968,7.21655 -6.2072,7.74036 -0.3103,0.5238 -0.5487,0.009 -0.5297,-1.14285 z m -18.0917,-5.38892 c 0,-1.18295 1.0041,-2.77924 2.2313,-3.54729 1.2795,-0.80078 1.6579,0.1168 0.8871,2.15081 -1.5006,3.95982 -3.1184,4.68432 -3.1184,1.39648 z m 54.1714,-6.99204 c -5.2529,-1.70359 -5.3011,-1.84579 -0.6975,-2.05788 2.72,-0.12525 5.5731,0.80073 6.3404,2.05788 0.7672,1.25714 1.0811,2.18317 0.6975,2.05787 -0.3836,-0.1253 -3.2368,-1.05136 -6.3404,-2.05787 z m -260.54871,30.85714 c 4.65134,-9.92601 8.60902,-10.40055 7.22722,-0.86656 l -1.03389,7.13344 11.49913,-1.43808 c 6.32451,-0.79093 18.73185,-2.08354 27.57195,-2.87246 14.2306,-1.26996 15.9467,-1.92276 14.9724,-5.69536 -1.4634,-5.66701 3.167,-5.45314 6.7214,0.31045 2.8514,4.62356 17.5334,6.77131 17.5334,2.56484 0,-10.13545 -16.1489,-32.26301 -26.8092,-36.73456 -5.86,-2.45803 -7.0998,-2.14139 -12.3221,3.14693 -6.9669,7.05509 -14.65043,7.50336 -22.42749,1.3085 -8.65558,-6.89465 -15.53891,-5.70059 -27.23428,4.72439 -7.41054,6.6056 -11.1341,12.06288 -12.86641,18.85714 -1.34079,5.25872 -2.95365,11.36133 -3.58414,13.56133 -0.95683,3.33874 0.35387,4 7.92846,4 8.15235,0 9.45583,-0.81317 12.82355,-8 z m 307.96801,3.39705 c 1.067,-1.74834 1.4392,-3.99931 0.8272,-5.00219 -1.6074,-2.63365 -9.875,-2.24659 -9.875,0.46228 0,1.26149 -5.8753,2.28572 -13.1115,2.28572 -8.4503,0 -14.669,1.25897 -17.4929,3.54144 -4.0204,3.24971 -2.6477,3.47346 16.6654,2.71648 14.8314,-0.58133 21.6196,-1.76368 22.9868,-4.00373 z M 311.92685,620.6479 c 0.90882,-6.00839 0.5981,-9.71428 -0.81447,-9.71428 -1.2561,0 -2.28382,4.8 -2.28382,10.66667 0,12.69358 1.08467,12.36016 3.09829,-0.95239 z m -99.17568,0.13989 c 1.87235,-4.94103 -0.093,-7.01383 -8.34135,-8.7976 -4.02041,-0.86944 -13.11958,-4.03429 -20.22039,-7.03298 -15.64885,-6.60855 -22.07516,-6.99294 -22.07516,-1.32039 0,2.81513 4.81232,6.55707 15.10177,11.74279 23.16323,11.67387 32.61569,13.11248 35.53513,5.40822 z m 237.90566,2.32823 c 2.1121,-3.82199 6.0051,-4.26249 27.0018,-3.05539 5.3358,0.30675 10.0783,0.176 10.5389,-0.29037 0.4607,-0.46645 1.107,-7.53125 1.4364,-15.69955 l 0.5988,-14.85142 -28.0233,-3.79795 c -15.4128,-2.08889 -29.5662,-2.96468 -31.4521,-1.94626 -2.7688,1.49531 -3.2893,5.85577 -2.7043,22.65511 l 0.7245,20.80338 9.8848,0 c 6.8872,0 10.5245,-1.15767 11.9945,-3.81755 z m 175.8909,-2.32435 c -2.158,-0.57209 -6.2209,-0.59284 -9.0286,-0.0462 -2.8076,0.54672 -1.042,1.01481 3.9237,1.04019 4.9657,0.0254 7.2629,-0.42197 5.1049,-0.99406 z m 37.7808,-0.7152 c -0.7672,-1.25714 -3.3664,-2.28571 -5.776,-2.28571 -2.4096,0 -4.3811,1.02857 -4.3811,2.28571 0,1.25715 2.5992,2.28572 5.7761,2.28572 3.2759,0 5.1722,-0.98935 4.381,-2.28572 z m -496.5714,-2.28571 c 0.80505,-1.31909 -1.28634,-2.2709 -4.94536,-2.25072 -4.92307,0.0272 -5.58353,0.53029 -2.95464,2.25072 4.33662,2.83801 6.16793,2.83801 7.9,0 z m 357.7571,-6.72224 c 0,-3.69723 1.085,-7.40128 2.4111,-8.2312 1.326,-0.82994 1.844,-3.00528 1.151,-4.8341 -0.693,-1.82883 0.2015,-6.86764 1.9881,-11.19737 4.1644,-10.09301 0.7936,-10.42487 -10.4616,-1.02997 -7.0432,5.87915 -15.4028,22.23506 -15.4028,30.13634 0,1.03319 4.5707,1.87854 10.1571,1.87854 9.7357,0 10.1571,-0.27895 10.1571,-6.72224 z m -373.03984,3.05557 c -0.75003,-0.75952 -2.69682,-0.84071 -4.32619,-0.18035 -1.8006,0.72965 -1.26575,1.27127 1.36369,1.38094 2.3794,0.0992 3.71253,-0.44098 2.9625,-1.2005 z m 349.30684,-16.95895 c -0.7491,-1.22734 -0.2863,-2.23152 1.0284,-2.23152 1.3147,0 2.3904,-1.02857 2.3904,-2.28572 0,-1.25714 -2.4785,-2.28571 -5.5077,-2.28571 -4.6819,0 -5.3972,0.94228 -4.7716,6.28571 0.4048,3.45715 0.8925,8.34286 1.0837,10.85715 0.2996,3.93803 0.8182,3.69298 3.7432,-1.76848 1.8675,-3.48695 2.7826,-7.3441 2.0336,-8.57143 z m 121.9799,11.38265 c 1.5657,-2.56546 -2.718,-9.04274 -5.9804,-9.04274 -1.0894,0 -1.9807,2.57142 -1.9807,5.71428 0,5.80236 5.1398,7.95125 7.9611,3.32846 z m -479.49204,-4.22967 c -11.07995,-8.6261 1.38533,-16.78619 18.84047,-12.33344 10.76738,2.74672 53.17614,1.10805 53.17614,-2.05472 0,-1.19497 2.92389,-6.4723 6.49753,-11.72736 l 6.49752,-9.5547 -12.03217,0.77662 c -13.3451,0.86137 -16.00586,2.87125 -17.12744,12.93767 -0.88955,7.98391 -8.82105,10.60057 -15.05729,4.96754 -5.24075,-4.7338 -11.34603,-5.22875 -21.47729,-1.74105 -13.28777,4.57431 -53.85059,2.5539 -59.89255,-2.98322 -2.97908,-2.73015 -6.039681,-3.6344 -8.645681,-2.55433 -3.07641,1.27504 -1.08701,2.69574 8.380221,5.98468 6.82786,2.37202 14.59933,6.82652 17.26993,9.89886 2.67061,3.07236 9.78061,7.11808 15.8,8.99047 14.10861,4.38864 14.18017,4.38304 7.77061,-0.60702 z m 277.78444,-16.78343 c -1.1983,-1.21351 -5.3121,-1.50951 -9.1416,-0.65774 l -6.9628,1.54864 6.619,5.64012 c 3.6405,3.10206 7.4352,7.90923 8.4326,10.68258 1.4727,4.09463 1.9468,3.1581 2.5226,-4.98235 0.39,-5.51367 -0.2714,-11.01772 -1.4698,-12.23125 z m -103.31724,15.23287 c 0.9499,-2.5067 0.22572,-3.37143 -2.39289,-2.85714 -2.06528,0.40562 -4.17779,2.0232 -4.69447,3.59463 -1.38182,4.20265 5.48617,3.488 7.08736,-0.73749 z M 208.9763,602.50601 c -2.15802,-0.5721 -6.22088,-0.59285 -9.02857,-0.0462 -2.80769,0.54672 -1.04203,1.01482 3.92369,1.04019 4.96571,0.0254 7.26291,-0.42197 5.10488,-0.99406 z m 26.74569,-4.90766 c 5.99945,-12.25303 10.10539,-11.78951 5.44815,0.61504 -2.02986,5.40651 -1.72226,5.86162 3.95,5.84434 11.39655,-0.0347 45.36525,-4.5557 51.24825,-6.82073 5.56042,-2.14082 5.68082,-2.54213 2.5682,-8.56048 -1.79615,-3.47287 -6.88903,-9.84094 -11.31752,-14.15125 -7.38106,-7.18409 -8.50995,-7.58861 -13.5518,-4.85613 -5.17039,2.80212 -8.16887,2.65508 -26.21485,-1.2856 -3.85063,-0.84087 -7.75292,0.41476 -12.13357,3.9042 -6.64281,5.29139 -14.78146,20.58453 -14.86929,27.94055 -0.0746,6.24718 11.53074,4.19495 14.87243,-2.62994 z m -75.86486,2.09716 c 0,-1.15236 -1.26964,-2.52781 -2.82143,-3.05654 -4.18078,-1.42448 -10.86063,0.78882 -9.43426,3.12594 1.63521,2.67931 12.25569,2.6192 12.25569,-0.0694 z m 169.28572,-8.09243 c 4.12296,-3.37769 14.39111,-7.30464 24.26428,-9.27959 9.57399,-1.91511 9.25596,-3.9379 -1.36521,-8.68324 -8.17239,-3.65132 -59.18206,-11.79255 -63.90285,-10.19902 -1.19211,0.4024 2.44537,5.46978 8.0833,11.26087 5.63792,5.79111 11.20144,13.06137 12.36337,16.15616 1.79479,4.78041 3.2453,5.46832 9.64199,4.57273 4.14118,-0.57982 9.05298,-2.30238 10.91512,-3.82791 z M 92.707119,589.02633 c -4.03464,-1.78677 -7.33571,-4.27431 -7.33571,-5.52784 0,-1.25354 -4.82464,-2.17653 -10.72143,-2.05107 l -10.72143,0.22812 15.8,5.37101 c 17.53462,5.96067 24.296931,6.99223 12.97857,1.97982 z m 285.645411,-3.65278 c 0.4029,-2.15264 -1.4828,-5.03948 -4.2831,-6.55712 -4.3204,-2.34149 -5.54921,-1.97783 -9.00824,2.66594 -2.94778,3.95744 -3.30172,5.84519 -1.34045,7.14926 4.44782,2.95735 13.86089,0.86135 14.63179,-3.25808 z m -214.47342,-3.92066 c 6.8314,-3.87143 -2.80643,-5.92814 -24.863,-5.30576 -30.20086,0.85222 -39.034871,4.52086 -19.78755,8.21753 7.86866,1.51127 40.61386,-0.62412 44.65055,-2.91177 z m 33.46404,-1.54378 c 1.69198,-6.82669 -1.36436,-10.89517 -7.31321,-9.73504 -5.06465,0.98773 -6.71536,7.76099 -2.99711,12.29792 4.16722,5.08474 8.69376,3.95957 10.31032,-2.56288 z m -17.17174,-2.11835 c 0,-2.23408 -2.16253,-3.40325 -6.20714,-3.35589 -5.94545,0.0697 -6.02243,0.21418 -1.82573,3.42858 5.5828,4.27609 8.03287,4.25392 8.03287,-0.0727 z m 234.74282,1.30567 c -3.3147,-1.94229 -21.5247,-3.48581 -30.4714,-2.58284 -4.5143,0.45562 -4.5143,0.45562 0,2.42003 6.0722,2.64233 34.9665,2.79673 30.4714,0.16274 z M 52.205829,564.6479 l 3.54871,-10.85714 -6.63442,0 c -7.23756,0 -7.66467,1.38187 -5.16389,16.70743 1.66571,10.208 3.40371,8.97547 8.2496,-5.85029 z m 18.67337,7.08848 c -0.0986,-2.70135 1.13472,-5.37344 2.74066,-5.93799 2.14024,-0.75241 2.51356,0.6129 1.39816,5.11328 l -1.52172,6.13975 13.27327,-1.46121 c 24.920671,-2.7434 30.870261,-3.96848 27.999381,-5.76523 -1.84046,-1.15187 -1.99457,-2.24869 -0.45162,-3.21436 1.28818,-0.80621 2.98014,-0.4205 3.7599,0.85715 0.77976,1.27764 3.38923,2.32299 5.79882,2.32299 6.11851,0 5.55739,-6.32866 -1.49264,-16.83504 -6.27373,-9.34949 -5.71483,-9.25022 -26.983251,-4.79307 -4.88576,1.02388 -7.76659,0.38836 -9.86923,-2.17724 -4.49153,-5.48048 -9.84362,-4.39883 -18.82936,3.80535 -6.02103,5.49733 -8.51758,9.95406 -9.60303,17.14286 l -1.46678,9.71428 7.71333,0 c 6.44221,0 7.6838,-0.80939 7.53411,-4.91152 z m 321.723531,-3.27735 c 9.068,-4.66752 14.394,-17.89952 11.3484,-28.19366 -2.1104,-7.13296 -3.8699,-8.7195 -12.5474,-11.31408 -5.551,-1.65978 -11.1446,-2.35948 -12.4302,-1.55488 -1.2855,0.80459 -4.4344,0.32637 -6.9975,-1.0627 -3.96893,-2.151 -5.64982,-1.45276 -11.33238,4.70745 -3.66973,3.97817 -6.67223,9.6957 -6.67223,12.70562 0,6.14972 -3.86407,7.20352 -7.65117,2.08663 -1.77222,-2.39454 -3.49731,-2.72914 -5.89169,-1.14281 -2.82431,1.8712 -2.54721,2.47589 1.67121,3.64679 3.86051,1.07156 4.76219,2.59287 3.81112,6.43017 -2.053,8.28331 5.28567,14.73333 19.34625,17.00357 13.17919,2.12795 17.88389,1.5581 27.34559,-3.3121 z m -22.267,-2.07597 c -4.03467,-1.77582 -7.33574,-3.53557 -7.33574,-3.91054 0,-0.37497 6.09424,-0.68176 13.54284,-0.68176 7.4486,0 13.5429,0.79689 13.5429,1.77086 0,1.3816 -10.0943,6.54754 -11.997,6.13968 -0.2295,-0.0491 -3.7184,-1.54243 -7.753,-3.31824 z m 1.6928,-12.30659 c 0,-1.1 -3.0471,-2.61714 -6.77139,-3.37142 -8.0989,-1.64028 -9.31065,-9.09159 -2.11287,-12.99248 5.94296,-3.22087 11.14146,0.67888 11.14146,8.35805 0,3.91061 1.2658,5.43443 4.5143,5.43443 2.4828,0 4.5142,1.02857 4.5142,2.28571 0,1.25714 -2.5392,2.28571 -5.6428,2.28571 -3.1036,0 -5.6429,-0.9 -5.6429,-2 z m -3.46317,-13.65746 c -1.27181,-1.35575 -5.56537,2.08032 -5.56537,4.4539 0,1.23252 1.42112,0.91467 3.15806,-0.70631 1.73694,-1.62101 2.82018,-3.30741 2.40731,-3.74759 z m 17.54397,8.43077 c -4.1057,-4.15765 -3.4167,-8.27559 1.8635,-11.13721 5.9234,-3.21024 11.6544,1.0149 10.6861,7.87817 -0.7772,5.50868 -8.3787,7.48272 -12.5496,3.25904 z m 4.8376,-5.46345 c 0.7708,-2.03411 0.3924,-2.95159 -0.8871,-2.15082 -1.2272,0.76805 -2.2313,2.36435 -2.2313,3.5473 0,3.28784 1.6179,2.56333 3.1184,-1.39648 z m -214.78081,24.01398 c 4.62495,-1.3007 20.87638,-2.68438 36.11429,-3.07483 15.23791,-0.39042 30.12874,-1.70919 33.09073,-2.93056 l 5.38545,-2.22069 -6.51402,-2.59003 c -3.5827,-1.4245 -27.84401,-4.71712 -53.91401,-7.31691 -26.07,-2.59978 -52.83866,-5.37123 -59.4859,-6.15877 l -12.08589,-1.43189 5.59178,5.66256 c 3.07548,3.11443 6.94068,9.4401 8.58933,14.05708 l 2.99754,8.39449 15.91086,-0.0137 c 8.75097,-0.007 19.69489,-1.07696 24.31984,-2.3777 z m 89.21244,-1.33593 c 8.27166,-2.24477 5.79684,-5.41648 -4.22638,-5.41648 -8.01514,0 -8.91545,0.47525 -6.49505,3.42857 3.14717,3.8401 3.59229,3.92263 10.72143,1.98791 z m 16.36429,-5.41648 c 0,-1.25714 -1.07567,-2.28571 -2.39036,-2.28571 -1.3147,0 -1.76261,1.02857 -0.99536,2.28571 0.76725,1.25715 1.84291,2.28572 2.39036,2.28572 0.54745,0 0.99536,-1.02857 0.99536,-2.28572 z m 272.29198,-1.12877 c 3.5558,-1.87797 11.1666,-3.42083 16.9128,-3.42858 9.4224,-0.0137 10.7167,-0.67209 13.1906,-6.72025 2.945,-7.19986 1.2497,-20.7224 -2.5979,-20.7224 -2.2257,0 -14.8907,-5.18279 -22.5026,-9.20855 -2.7531,-1.45604 -4.0176,-0.81227 -4.8673,2.47788 -0.6758,2.61728 -3.0909,4.44496 -5.8734,4.44496 -3.5883,0 -4.7256,1.43495 -4.7256,5.96208 0,5.16599 -0.7295,5.77666 -5.4635,4.57346 -6.0338,-1.53355 -12.5937,0.24958 -12.5937,3.42329 0,1.12263 1.4808,2.04117 3.2906,2.04117 1.8098,0 5.9692,4.62857 9.2431,10.28571 6.6609,11.50988 6.9603,11.63854 15.9869,6.87123 z m 5.3366,-8.01408 c 0,-1.25715 2.0914,-2.28572 4.6475,-2.28572 2.5561,0 4.0197,1.02857 3.2525,2.28572 -0.7673,1.25714 -2.8586,2.28571 -4.6475,2.28571 -1.7889,0 -3.2525,-1.02857 -3.2525,-2.28571 z m -5.6429,-9.14286 c -1.6459,-2.69685 0.4891,-6.85714 3.519,-6.85714 1.1681,0 2.1239,2.05714 2.1239,4.57142 0,4.82076 -3.2839,6.15095 -5.6429,2.28572 z m 14.6715,-3.42857 c 0,-1.88572 1.5235,-3.42857 3.3857,-3.42857 1.8621,0 3.3857,1.54285 3.3857,3.42857 0,1.88571 -1.5236,3.42857 -3.3857,3.42857 -1.8622,0 -3.3857,-1.54286 -3.3857,-3.42857 z m -305.00024,5.77927 c 3.66269,-12.37968 4.92511,-27.14561 2.45309,-28.69271 -1.11903,-0.70037 -5.11157,0.33792 -8.87232,2.30729 -3.76074,1.96937 -6.83771,2.63721 -6.83771,1.48407 0,-1.15315 2.53928,-2.74202 5.64285,-3.53082 7.42318,-1.88669 7.32321,-5.60989 -0.11197,-4.17058 -12.60122,2.43938 -21.73013,27.49468 -12.8666,35.31381 10.32947,9.11236 17.36876,8.18562 20.59266,-2.71106 z m -11.56409,2.99266 c 1.55179,-0.63408 4.09107,-0.63408 5.64286,0 1.55179,0.63408 0.28214,1.15289 -2.82143,1.15289 -3.10357,0 -4.37321,-0.51881 -2.82143,-1.15289 z m -2.82143,-7.62908 c 0.76725,-1.25714 4.44214,-2.28571 8.16642,-2.28571 3.93952,0 6.18802,0.95591 5.37644,2.28571 -0.76725,1.25715 -4.44213,2.28572 -8.16642,2.28572 -3.93952,0 -6.18802,-0.95591 -5.37644,-2.28572 z m 8.7223,-10.29979 c 8.18449,-4.32254 10.65372,-4.27929 4.95344,0.0869 -2.40977,1.84573 -5.96477,3.34955 -7.9,3.3418 -1.93523,-0.007 -0.60928,-1.5506 2.94656,-3.42857 z m 1.01163,-7.2616 c 1.62938,-0.66027 3.57615,-0.57909 4.3262,0.18034 0.75003,0.75952 -0.58311,1.29975 -2.96251,1.20051 -2.62944,-0.10972 -3.16428,-0.6513 -1.36369,-1.38094 z m 24.65945,27.78142 c 11.38618,-8.07616 7.62262,-28.80313 -6.85296,-37.74112 -8.70293,-5.37367 -16.34833,-6.23434 -8.98483,-1.01146 3.33132,2.36291 5.10911,6.36245 5.58079,12.55539 l 0.6922,9.08791 6.20714,-3.27696 c 3.43934,-1.81575 6.20714,-2.26517 6.20714,-1.00791 0,1.248 -3.04714,3.34475 -6.77143,4.65947 -3.72428,1.31475 -6.77143,3.29292 -6.77143,4.39596 0,1.10571 2.53182,1.03076 5.64286,-0.16709 3.62825,-1.39691 5.64286,-1.37671 5.64286,0.0567 0,1.22603 -1.83729,2.22914 -4.08288,2.22914 -2.24558,0 -6.05451,1.61666 -8.46428,3.59257 -4.15735,3.40885 -4.00628,3.52866 2.9543,2.34286 4.03465,-0.68734 7.33572,-0.39566 7.33572,0.6482 0,1.04387 -3.30107,2.97029 -7.33572,4.28094 -6.70319,2.17756 -6.84381,2.40316 -1.63081,2.61637 3.13773,0.12845 7.92181,-1.33907 10.63133,-3.26092 z m -49.95389,-9.07717 c -2.87295,-9.29508 -9.50419,-10.74139 -15.98734,-3.48692 -2.21827,2.48219 -6.18462,5.28768 -8.81411,6.23442 -3.83033,1.37908 -2.76139,2.00411 5.37625,3.14361 22.22113,3.11159 22.20892,3.11529 19.4252,-5.89111 z m -132.66889,-1.89991 c 0.61019,-3.2405 -0.39872,-4.01467 -4.468171,-3.42857 -2.92008,0.42057 -5.60662,2.6174 -6.04446,4.94268 -0.61019,3.2405 0.39872,4.01467 4.46817,3.42857 2.92008,-0.42057 5.606621,-2.6174 6.044461,-4.94268 z m 20.70083,-7.22455 c 0,-2.59497 -1.67349,-2.29291 -7.89665,1.42531 -4.34315,2.59497 -7.33265,5.64221 -6.64333,6.77168 1.79113,2.93481 14.53998,-4.25244 14.53998,-8.19699 z m -34.985721,5.69589 c 0.76725,-1.25714 0.56288,-2.28571 -0.45414,-2.28571 -1.01702,0 -4.69865,-2.67568 -8.18139,-5.94595 -6.06292,-5.693 -6.46213,-5.76608 -9.38525,-1.71787 -1.67914,2.32544 -2.8548,4.42875 -2.61257,4.67406 0.24223,0.24528 3.46025,2.04057 7.15117,3.9895 7.80547,4.12158 11.53451,4.47726 13.48218,1.28597 z m 269.949291,-7.71141 c 7.93293,-9.12637 9.53049,-9.95618 18.34166,-9.52708 5.3086,0.25851 11.3959,1.25424 13.5275,2.21273 6.7848,3.05093 9.2665,0.43392 4.7891,-5.05033 -2.7533,-3.37241 -7.7565,-5.56972 -14.8633,-6.52757 -9.1805,-1.23737 -11.99754,-0.58292 -19.69512,4.57557 -10.68805,7.16254 -16.50574,15.38766 -14.54456,20.56318 2.00755,5.29778 2.7216,4.93938 12.44472,-6.2465 z m -140.35952,2.23623 c 1.43766,-1.75421 6.13274,-3.85796 10.43351,-4.67501 8.81574,-1.67477 9.97257,-4.52215 3.3053,-8.13553 -5.96691,-3.2338 -12.17757,0.18538 -16.58409,9.13034 -3.4911,7.08665 -1.77045,9.3122 2.84528,3.6802 z m -103.63262,-5.95339 c 4.59669,-4.65488 6.0557,-16.86037 2.66229,-22.27157 -0.98058,-1.56363 -6.80538,-3.84356 -12.94401,-5.06647 -10.760131,-2.14361 -11.369791,-1.97986 -16.968381,4.55728 -3.19398,3.72942 -7.07135,6.78076 -8.61639,6.78076 -3.11503,0 -1.44382,8.07929 2.77151,13.39854 6.42675,8.10978 26.126351,9.65828 33.094981,2.60146 z m -22.383871,0.16571 c -2.13919,-1.37117 0.261,-1.997 7.2488,-1.89003 5.745811,0.088 9.918251,1.02619 9.272081,2.08496 -1.54774,2.536 -12.461241,2.40722 -16.520881,-0.19497 z m 6.58386,-7.02286 c 0,-1.25714 1.58352,-2.28571 3.518931,-2.28571 1.93541,0 2.89118,1.02857 2.12393,2.28571 -0.76724,1.25715 -2.350761,2.28572 -3.518921,2.28572 -1.16816,0 -2.12394,-1.02857 -2.12394,-2.28572 z m -6.77142,-7.86509 c 0,-1.95991 1.01571,-3.56348 2.25714,-3.56348 1.24143,0 2.25714,0.96787 2.25714,2.15081 0,1.18295 -1.01571,2.78652 -2.25714,3.56348 -1.24143,0.77696 -2.25714,-0.19086 -2.25714,-2.15081 z m 13.542861,-0.13486 c 0,-2.09525 1.09189,-3.44096 2.42642,-2.99047 1.33454,0.45047 2.42643,1.79618 2.42643,2.99047 0,1.19429 -1.09189,2.54 -2.42643,2.99047 -1.33453,0.45044 -2.42642,-0.89527 -2.42642,-2.99052 z m 217.54855,16.53774 c -2.629,-1.55289 -7.40392,-4.70876 -10.61091,-7.01301 -3.61599,-2.59812 -7.58764,-3.62491 -10.4557,-2.70311 -5.65139,1.81639 -6.10884,5.73715 -0.6748,5.7835 2.1725,0.0183 6.48929,1.46055 9.59286,3.20446 3.10357,1.74393 8.18215,3.25646 11.28572,3.36119 5.54162,0.18697 5.55711,0.13965 0.86283,-2.63303 z m 218.08002,0.63751 c 0,-3.69728 16.9382,-13.90224 21.6214,-13.02652 2.3847,0.4459 7.1333,2.17621 10.5524,3.84512 7.4614,3.64195 9.7159,2.09175 6.3154,-4.34258 -2.4621,-4.65858 -11.0449,-8.17696 -18.6531,-7.64652 -7.5534,0.52661 -18.9629,7.59546 -22.7567,14.09909 -4.7186,8.0891 -4.7802,9.32469 -0.4651,9.32469 1.8621,0 3.3857,-1.01399 3.3857,-2.25328 z M 84.633499,499.33272 c 6.38749,-6.46482 14.20591,-7.70749 23.873631,-3.79449 4.54361,1.83902 5.3192,-1.76519 1.12857,-5.24457 -7.37605,-6.12414 -22.338191,-2.80494 -28.803581,6.38981 -7.67729,10.91824 -5.71789,12.28379 3.80138,2.64925 z M 357.35713,656.45963 c -8.69,-3.79929 -18.23988,-7.93184 -21.22195,-9.18348 -4.10621,-1.72345 -4.78798,-2.91764 -2.80948,-4.92118 4.71295,-4.77262 45.47433,11.15387 45.47433,17.76795 0,4.78187 -3.4904,4.18558 -21.4429,-3.66329 z m 139.1067,-7.83001 c -9.3037,-4.18387 -7.1784,-8.13945 6.6231,-12.32681 16.1674,-4.90517 33.0261,2.55186 22.0141,9.73737 -8.1959,5.34795 -20.108,6.42505 -28.6372,2.58944 z m 21.1504,-5.696 c 3.6886,-1.60512 3.0694,-1.98739 -3.3857,-2.09006 -4.345,-0.069 -9.4235,0.87141 -11.2857,2.09006 -2.5857,1.69213 -1.7856,2.18601 3.3857,2.09005 3.7243,-0.069 8.8029,-1.00962 11.2857,-2.09005 z M 368.66023,401.3419 C 186.17982,393.2272 36.446599,386.15141 35.919759,385.6179 c -0.52683,-0.5335 -0.37888,-1.55632 0.32877,-2.27293 1.27451,-1.29065 635.361701,25.32147 662.501501,27.80462 13.6321,1.24727 20.4923,5.78224 7.9,5.22231 -3.414,-0.15177 -155.5093,-6.91531 -337.9898,-15.03 z m 189.5826,-21.81247 c -60.83,-2.46837 -110.9742,-4.84834 -111.4316,-5.28883 -2.1081,-2.03001 -3.0306,-197.5927 -0.9322,-197.5927 1.4413,0 2.6554,33.32267 3.3746,92.62256 0.618,50.9424 1.6836,93.18967 2.368,93.88282 0.6845,0.69315 4.3861,-0.38484 8.2257,-2.39554 l 6.9812,-3.6558 0,-90.22702 c 0,-58.62754 0.7905,-90.22702 2.2572,-90.22702 1.4661,0 2.2571,31.2381 2.2571,89.14286 0,49.02857 0.2539,89.21618 0.5643,89.3058 0.3104,0.0896 54.1866,1.50495 119.7249,3.14517 106.8887,2.67509 124.3502,3.64222 121.037,6.70379 -0.5172,0.47798 -54.2655,-0.43497 -119.4405,-2.02876 l -118.5,-2.89782 -11.2857,5.26683 -11.2857,5.26682 7.9,0.21162 c 4.345,0.11638 58.1779,2.24976 119.6286,4.74084 61.4507,2.49109 116.5532,4.53874 122.45,4.55034 5.8968,0.0116 10.7214,1.04965 10.7214,2.3068 0,2.99223 -20.1729,2.62263 -154.6143,-2.83276 z m -37.8071,-37.73229 -28.7786,-0.71439 0,-82.21743 c 0,-53.2878 0.7942,-82.21742 2.2571,-82.21742 1.4616,0 2.2572,28.07055 2.2572,79.64023 l 0,79.64023 38.9357,1.49564 c 21.4146,0.8226 70.1689,1.49878 108.3429,1.50263 44.762,0.005 69.4071,0.8186 69.4071,2.2927 0,2.13914 -115.5469,2.48611 -192.4214,0.57781 z m 30.3469,-58.38135 c -29.9279,-38.58156 -34.1979,-44.85201 -30.7615,-45.17301 1.6387,-0.15308 66.398,82.97774 66.4197,85.26226 0.047,4.92172 -6.1276,-2.01989 -35.6582,-40.08925 z m 51.7869,-22.12215 c -33.7311,-35.06703 -60.4636,-64.29997 -59.4057,-64.96208 1.0579,-0.66211 29.5295,27.48244 63.2702,62.54346 33.7406,35.06101 60.4731,64.29395 59.4056,64.96208 -1.0676,0.66813 -29.5391,-27.47642 -63.2701,-62.54346 z"
       id="path3047"
       inkscape:connector-curvature="0" />
    <path
       style="fill:#ffb380;fill-opacity:1"
       d="m 484.5181,746.33825 c -3.72275,-5.68163 -2.96211,-7.57459 17.48147,-43.50513 24.2937,-42.6973 26.86359,-44.60027 60.24847,-44.61316 21.97728,-0.008 23.29321,-0.21799 32.13214,-5.11584 l 9.21638,-5.107 6.99163,4.62684 c 9.79314,6.4808 16.75643,18.95524 16.82641,30.14382 l 0.0552,8.82942 -7.051,1.27843 c -3.87805,0.70313 -23.11407,1.84437 -42.74671,2.5361 -34.57797,1.21829 -35.70006,1.37311 -35.83486,4.94429 -0.0765,2.02764 -0.53927,2.69507 -1.02828,1.48318 -2.24214,-5.55662 -7.81229,-1.41091 -20.13157,14.98338 -12.35587,16.44299 -28.75575,33.93295 -31.81803,33.93295 -0.79583,0 -2.7494,-1.98777 -4.34127,-4.41728 z"
       id="path3049"
       inkscape:connector-curvature="0" />
    <path
       style="fill:#ffb380;fill-opacity:1"
       d="m 366.22406,570.92094 c -13.51306,-2.76636 -19.75718,-7.81512 -19.85692,-16.05558 -0.0308,-2.54745 -1.26509,-5.63513 -2.74278,-6.86151 -1.4777,-1.22638 -2.2758,-2.64071 -1.77356,-3.14295 0.50224,-0.50225 2.47496,0.50023 4.38382,2.22773 4.50584,4.07773 8.12675,2.56446 9.42765,-3.94006 0.5713,-2.8565 3.11921,-7.66615 5.66203,-10.68811 4.47841,-5.3223 4.96468,-5.4631 15.51736,-4.49337 21.76494,2.00007 26.10378,5.15895 26.31543,19.15887 0.25794,17.06231 -16.64013,27.9493 -36.93303,23.79498 l 0,0 z m 18.04278,-2.52016 c 3.36215,-1.4048 6.11301,-3.31817 6.11301,-4.25193 0,-2.53846 -13.06799,-4.25497 -21.52102,-2.82684 l -7.41901,1.25343 7.8597,4.11011 c 9.51369,4.97503 7.67094,4.76385 14.96732,1.71523 l 0,0 z m -0.93799,-14.07316 c 0,-1.38894 -1.61907,-3.03922 -3.59793,-3.66728 -2.12682,-0.67503 -4.01554,-3.23004 -4.61931,-6.24888 -1.34207,-6.71036 -4.79036,-9.36839 -10.34507,-7.97424 -4.38347,1.10018 -8.12167,7.09907 -6.72134,10.78609 1.03262,2.71883 14.86835,9.05831 20.43608,9.36373 3.15618,0.17314 4.84757,-0.61521 4.84757,-2.25942 z m 14.02148,-5.31002 c 5.50752,-6.63616 -1.56422,-15.54365 -9.47771,-11.93802 -7.82622,3.56586 -5.16874,14.48512 3.52531,14.48512 2.11117,0 4.78975,-1.14619 5.9524,-2.5471 z"
       id="path3051"
       inkscape:connector-curvature="0" />
    <path
       style="fill:#ffb380;fill-opacity:1"
       d="m 538.96383,552.2399 c -3.42855,-5.16376 -7.82769,-9.89457 -9.77586,-10.51289 -5.14922,-1.6343 -0.42026,-4.20302 7.80082,-4.23732 5.74726,-0.024 6.60004,-0.61791 7.63175,-5.31525 0.76546,-3.48514 2.2425,-5.28825 4.33193,-5.28825 1.74374,0 4.25873,-1.63491 5.58888,-3.63315 l 2.41844,-3.63314 10.57651,4.62066 c 16.04482,7.00966 15.82017,6.80618 16.41383,14.86771 0.81189,11.025 -3.07358,15.98905 -12.48828,15.95494 -4.93217,-0.0179 -6.62982,-0.54715 -5.02178,-1.56567 2.6791,-1.69691 1.22385,-5.47399 -2.09262,-5.43135 -1.15467,0.0148 -3.2854,0.77677 -4.73495,1.69315 -2.29687,1.45206 -2.24446,1.95824 0.40789,3.9392 2.69833,2.01529 2.03047,2.59377 -5.8897,5.10153 l -8.93314,2.8285 -6.23372,-9.38867 z m 20.64009,-11.83929 c 0,-2.26219 -0.47417,-4.58725 -1.05371,-5.16679 -2.19489,-2.19489 -5.99729,1.01427 -5.99729,5.0616 0,3.04311 0.98216,4.21828 3.5255,4.21828 2.51821,0 3.5255,-1.17517 3.5255,-4.11309 z m 15.54667,-1.61585 c -0.30981,-2.18141 -1.75315,-3.96619 -3.20742,-3.96619 -1.45427,0 -2.8976,1.78478 -3.20741,3.96619 -0.43353,3.05255 0.30532,3.96619 3.20741,3.96619 2.9021,0 3.64095,-0.91364 3.20742,-3.96619 z"
       id="path3053"
       inkscape:connector-curvature="0" />
    <path
       style="fill:#ffc896;fill-opacity:1"
       d="m 81.762876,523.49629 c -2.833961,-2.83396 -5.126643,-6.60184 -5.094848,-8.37307 0.03179,-1.77123 3.674856,-6.31432 8.095692,-10.09578 l 8.037883,-6.87536 8.958897,2.06796 c 11.78701,2.72077 13.63024,4.52325 13.63024,13.32897 0,7.43357 -6.21321,17.4004 -8.60285,13.80015 -0.60075,-0.90511 -2.67876,-2.54528 -4.61778,-3.64483 -1.93903,-1.09955 -2.533959,-2.02331 -1.32207,-2.05279 1.21189,-0.0295 2.20344,-1.30162 2.20344,-2.82698 0,-1.70899 -1.18391,-2.52872 -3.084813,-2.1359 -1.696648,0.35062 -2.974642,1.99526 -2.839987,3.65476 0.170992,2.10732 -1.082008,3.01727 -4.154784,3.01727 -3.186552,0 -4.119852,0.72904 -3.384964,2.64413 1.647165,4.29244 -2.28324,3.03228 -7.824056,-2.50853 z m 13.046176,-11.42114 c 1.106258,-2.88287 -0.193726,-4.57922 -3.509243,-4.57922 -1.292684,0 -2.350334,1.58648 -2.350334,3.52551 0,4.00821 4.420769,4.80318 5.859577,1.05371 l 0,0 z m 13.530678,-1.05371 c 0,-1.95862 -1.17516,-3.52551 -2.64412,-3.52551 -1.46896,0 -2.64413,1.56689 -2.64413,3.52551 0,1.95861 1.17517,3.5255 2.64413,3.5255 1.46896,0 2.64412,-1.56689 2.64412,-3.5255 z"
       id="path3055"
       inkscape:connector-curvature="0" />
    <path
       style="fill:#ffc896;fill-opacity:1"
       d="m 543.02376,556.83371 c -1.12388,-2.09999 -4.77972,-6.84692 -8.12407,-10.54873 l -6.08066,-6.73055 7.14571,-1.20726 c 5.47613,-0.92519 7.76516,-2.40514 9.79691,-6.33412 1.45816,-2.81977 3.84558,-5.12686 5.30538,-5.12686 1.4598,0 3.11077,-1.18986 3.66883,-2.64412 0.55806,-1.45427 1.92133,-2.6435 3.02949,-2.64274 4.24552,0.003 23.57318,10.3175 24.6651,13.163 3.49033,9.09563 -1.37042,18.56512 -9.52958,18.56512 -3.53443,0 -5.1883,-0.88018 -5.1883,-2.76121 0,-1.97228 -1.38504,-2.60185 -4.84756,-2.20344 -3.76376,0.43307 -4.76074,1.40474 -4.45919,4.346 0.2756,2.68827 -0.82848,4.09363 -3.80243,4.84005 -2.30494,0.5785 -5.39352,1.51335 -6.8635,2.07743 -1.64631,0.63175 -3.45743,-0.44067 -4.71613,-2.79257 l 0,0 z m 17.1769,-15.84551 c 0.70238,-4.06839 -2.38651,-7.6884 -5.53081,-6.48182 -1.58664,0.60885 -2.82203,3.09 -2.82203,5.66772 0,3.74091 0.72671,4.48112 3.94818,4.02151 2.1715,-0.30981 4.1536,-1.75314 4.40466,-3.20741 z m 15.54883,-0.16916 c 0.65669,-1.06255 -0.11841,-3.24395 -1.72246,-4.84756 -2.56522,-2.56452 -3.11782,-2.59722 -4.58846,-0.27153 -0.91961,1.45426 -1.68416,3.63567 -1.69901,4.84756 -0.0332,2.71355 6.3666,2.9305 8.00993,0.27153 l 0,0 z"
       id="path3825"
       inkscape:connector-curvature="0" />
    <path
       style="fill:#ffc896;fill-opacity:1"
       d="m 374.25068,566.91711 c -5.70252,-2.57241 -4.883,-4.78022 1.76275,-4.74891 5.9848,0.0282 11.60691,2.45626 9.00195,3.88774 -4.09049,2.2478 -7.14849,2.49244 -10.7647,0.86117 z"
       id="path3827"
       inkscape:connector-curvature="0" />
    <path
       style="fill:#ffc896;fill-opacity:1"
       d="m 360.74965,568.34478 c -8.5592,-3.04997 -12.64715,-7.24573 -13.94594,-14.31372 -0.90716,-4.93673 -0.61927,-5.39239 2.97311,-4.70567 2.86667,0.548 4.52944,-0.38697 5.95367,-3.34773 1.92407,-3.99985 1.97928,-4.00871 2.09544,-0.33602 0.20118,6.36079 22.40636,14.74412 25.55575,9.6483 0.5313,-0.85966 -0.2731,-2.59138 -1.78755,-3.84827 -1.51446,-1.25689 -4.34585,-5.40639 -6.29198,-9.22112 -3.3166,-6.50107 -3.92624,-6.87295 -9.72479,-5.93197 -6.0532,0.9823 -6.13035,0.92036 -3.58409,-2.87718 2.19813,-3.27834 4.20752,-3.87068 12.93844,-3.81412 20.14091,0.13047 27.08229,4.59669 27.08229,17.4253 0,5.81427 -1.15922,9.17479 -4.55838,13.21446 -4.24354,5.04316 -4.81852,5.23513 -8.3246,2.77938 -4.14192,-2.90112 -21.65151,-3.59826 -25.71726,-1.02393 -1.87172,1.18512 -0.81262,2.43083 4.40688,5.18335 8.12213,4.28324 3.71383,5.012 -7.07099,1.16894 l 0,0 z m 37.71985,-19.40131 c 3.38534,-4.07908 0.72117,-11.23737 -4.68755,-12.59488 -2.55908,-0.64228 -5.91826,-0.37504 -7.46485,0.59387 -3.58905,2.24848 -4.58899,8.77495 -1.85008,12.07514 2.75395,3.3183 11.22423,3.27346 14.00248,-0.0741 l 0,10e-6 z"
       id="path3829"
       inkscape:connector-curvature="0" />
    <path
       style="fill:#ffc896;fill-opacity:1"
       d="m 358.61209,566.65928 c -9.69483,-4.21943 -15.43942,-16.85733 -7.66253,-16.85733 1.96945,0 4.05113,-1.2256 4.62595,-2.72357 0.87037,-2.26815 1.48916,-2.08964 3.70056,1.06758 4.48814,6.40772 21.4105,11.50475 24.04483,7.24232 0.49787,-0.80557 -1.85611,-5.56499 -5.23105,-10.5765 -5.17903,-7.69042 -6.98759,-9.11183 -11.59353,-9.11183 -4.65104,0 -5.13307,-0.39063 -3.26283,-2.64413 2.88772,-3.47949 20.89665,-3.53508 29.142,-0.09 7.48407,3.12705 7.92526,4.77114 0.90345,3.36678 -8.38697,-1.6774 -14.28107,7.37558 -8.53989,13.11675 2.72683,2.72683 10.67007,2.72683 13.3969,0 4.04128,-4.04128 2.33348,5.19056 -1.86264,10.06883 -3.56061,4.13946 -4.51873,4.41902 -9.1328,2.66475 -5.59752,-2.12817 -23.56255,-2.02523 -24.9024,0.14268 -0.4545,0.73539 0.94989,2.5812 3.12086,4.1018 4.92994,3.45307 0.96731,3.58921 -6.74688,0.23181 l 0,10e-6 z"
       id="path3831"
       inkscape:connector-curvature="0" />
    <path
       style="fill:#ffc896;fill-opacity:1"
       d="m 82.486811,522.02804 c -2.650417,-2.76644 -4.818941,-5.81287 -4.818941,-6.76985 0,-0.95698 3.371261,-5.04566 7.491691,-9.08596 7.471147,-7.32585 7.513443,-7.34067 15.424069,-5.40307 9.73049,2.38334 14.10201,5.94652 14.10201,11.49439 0,4.91766 -4.64072,14.62264 -6.99224,14.62264 -2.39454,0 -4.44853,-3.97604 -3.87016,-7.49169 0.71189,-4.32719 -5.346561,-3.99833 -8.118776,0.44069 -1.210941,1.93902 -3.318745,3.5255 -4.684005,3.5255 -1.365261,0 -2.759586,0.83188 -3.0985,1.84862 -0.338914,1.01674 -2.78473,-0.41483 -5.435148,-3.18127 z m 12.808566,-11.0066 c 0,-2.35034 -1.175167,-3.52551 -3.525501,-3.52551 -2.350334,0 -3.525501,1.17517 -3.525501,3.52551 0,2.35033 1.175167,3.5255 3.525501,3.5255 2.350334,0 3.525501,-1.17517 3.525501,-3.5255 z m 13.220633,0 c 0,-1.42772 -1.38817,-2.86319 -3.08482,-3.18993 -2.16439,-0.41682 -3.08481,0.53496 -3.08481,3.18993 0,2.65496 0.92042,3.60674 3.08481,3.18992 1.69665,-0.32674 3.08482,-1.76221 3.08482,-3.18992 z"
       id="path3833"
       inkscape:connector-curvature="0" />
    <path
       style="fill:#ff2a2a;fill-opacity:1"
       d="m 485.96955,745.25343 c -3.76704,-5.37821 -1.1478,-11.35848 22.01108,-50.25577 19.9031,-33.42894 23.7363,-35.87704 56.20644,-35.89672 16.77651,-0.0102 19.5262,-0.4925 29.37803,-5.15322 l 10.86914,-5.14199 7.25985,6.21416 c 9.23571,7.90542 14.18926,17.59866 14.18926,27.76593 0,6.83947 -0.56218,8.08839 -3.96619,8.81119 -2.18141,0.4632 -20.55648,1.74301 -40.83351,2.84403 -20.27702,1.10102 -38.12487,2.66235 -39.66189,3.46961 -1.53701,0.80727 -4.12439,1.875 -5.74973,2.37273 -1.62533,0.49774 -9.16109,8.26576 -16.74613,17.26227 -18.88953,22.40461 -27.19932,31.44713 -28.89891,31.44713 -0.79106,0 -2.61691,-1.68271 -4.05744,-3.73935 z"
       id="path3835"
       inkscape:connector-curvature="0" />
    <path
       style="fill:#ff2a2a;fill-opacity:1"
       d="m 536.6207,806.28267 c -0.55795,-1.45401 0.38538,-14.14581 2.0963,-28.20402 l 3.11076,-25.56037 36.73954,0 c 27.37272,0 36.73954,0.53858 36.73954,2.11248 0,3.38719 -8.94971,31.79938 -11.68718,37.10268 -3.32812,6.44758 -11.63871,9.65775 -35.64157,13.76747 -24.13597,4.1325 -30.01534,4.27908 -31.35739,0.78176 z"
       id="path3837"
       inkscape:connector-curvature="0" />
    <path
       style="fill:#ff2a2a;fill-opacity:1"
       d="m 513.94867,807.72747 c -9.21502,-2.0646 -20.57686,-6.40922 -22.93935,-8.7717 -3.80137,-3.80137 -3.48318,-22.85852 0.51159,-30.6407 1.72267,-3.35591 11.11103,-16.01713 20.86303,-28.13604 9.75199,-12.11891 19.84448,-25.19316 22.42776,-29.0539 2.58327,-3.86073 4.6792,-5.84382 4.65763,-4.40687 -0.092,6.12851 -13.78137,98.56388 -14.85397,100.29938 -1.19597,1.93513 -4.28134,2.14044 -10.66669,0.70983 z"
       id="path3839"
       inkscape:connector-curvature="0" />
    <path
       style="fill:#ff2a2a;fill-opacity:1"
       d="m 95.529877,752.21964 c -3.055489,-8.25978 3.372809,-24.9535 8.410103,-21.84028 2.73431,1.6899 2.39572,12.32834 -0.62228,19.55142 -2.92248,6.99449 -5.740697,7.82277 -7.787823,2.28886 z"
       id="path3841"
       inkscape:connector-curvature="0" />
    <path
       style="fill:#ff2a2a;fill-opacity:1"
       d="m 146.80469,739.02333 c -7.7484,-12.07484 -7.50248,-14.70906 1.37321,-14.70906 l 7.051,0 -0.17571,7.49169 c -0.0966,4.12043 -0.71458,9.42079 -1.37321,11.77857 -1.13598,4.06666 -1.48916,3.83236 -6.87529,-4.5612 z"
       id="path3843"
       inkscape:connector-curvature="0" />
    <path
       style="fill:#280b0b;fill-opacity:1"
       d="m 219.8089,783.12039 c -2.08416,-15.2056 -1.4102,-19.64628 3.88034,-25.56742 7.14117,-7.99235 9.8462,-5.5995 8.47716,7.49884 -1.03944,9.94477 -7.19306,26.24699 -9.9075,26.24699 -0.73096,0 -1.83346,-3.68028 -2.45,-8.17841 z"
       id="path3845"
       inkscape:connector-curvature="0" />
    <path
       style="fill:#280b0b;fill-opacity:1"
       d="m 236.34243,789.09536 c 0.0148,-2.1814 0.72282,-5.0649 1.57328,-6.40777 1.23102,-1.94379 1.96925,-1.65126 3.62083,1.43474 1.59506,2.9804 1.58897,4.46141 -0.0264,6.40777 -3.06414,3.69207 -5.1986,3.09947 -5.16774,-1.43474 z"
       id="path3847"
       inkscape:connector-curvature="0" />
    <path
       style="fill:#280b0b;fill-opacity:1"
       d="m 305.46814,778.76931 c 0.66088,-30.8469 1.36935,-38.97403 3.89327,-44.66117 4.58008,-10.3203 16.64105,-27.42137 19.33962,-27.42137 2.18136,0 16.90495,14.58858 16.90495,16.74995 0,0.53018 -3.126,5.91363 -6.94666,11.96323 -10.35016,16.38832 -11.8213,23.79444 -9.27506,46.69332 3.65658,32.88446 4.40529,31.08934 -13.82725,33.15212 l -10.89676,1.23283 0.80789,-37.70891 z"
       id="path3849"
       inkscape:connector-curvature="0" />
    <path
       style="fill:#280b0b;fill-opacity:1"
       d="m 419.84758,780.67605 c -0.26856,-19.58764 -3.14089,-42.72313 -6.63674,-53.45631 -2.13358,-6.55068 -2.33472,-9.54187 -0.85936,-12.77994 2.10161,-4.61253 3.29691,-5.02647 7.26672,-2.51649 2.121,1.34104 2.73196,7.63902 3.20367,33.02458 0.32058,17.25214 -0.17113,35.73034 -1.09268,41.06266 l -1.67554,9.69513 -0.20607,-15.02963 z"
       id="path3851"
       inkscape:connector-curvature="0" />
    <path
       style="fill:#280b0b;fill-opacity:1"
       d="m 447.98469,744.43901 c 0.0846,-2.0535 0.50228,-2.4712 1.06499,-1.065 0.50921,1.27249 0.44658,2.79286 -0.13916,3.37861 -0.58575,0.58575 -1.00237,-0.45538 -0.92583,-2.31361 z"
       id="path3853"
       inkscape:connector-curvature="0" />
    <path
       style="fill:#280b0b;fill-opacity:1"
       d="m 442.55727,750.85957 c 0,-16.62285 2.4048,-22.53075 4.38946,-10.78365 1.38188,8.1793 -0.57596,26.54437 -2.82982,26.54437 -0.8578,0 -1.55964,-7.09233 -1.55964,-15.76072 z"
       id="path3855"
       inkscape:connector-curvature="0" />
    <path
       style="fill:#ff6600;fill-opacity:1"
       d="m 317.42289,631.32917 c 0.0782,-4.94249 5.57408,-20.59887 8.84167,-25.18779 5.5744,-7.82852 17.22047,-15.79616 23.0888,-15.79616 2.73964,0 7.57836,1.58351 10.75271,3.51891 7.75022,4.72531 14.8231,4.4414 21.79299,-0.87479 3.17774,-2.42378 7.41483,-4.40687 9.41575,-4.40687 7.33654,0 22.6279,17.46002 28.17441,32.1702 1.75866,4.66424 1.61278,4.84748 -3.85753,4.84541 -3.51959,-10e-4 -7.63634,-1.68005 -10.80705,-4.40688 -6.21053,-5.34108 -8.09889,-5.53319 -8.09889,-0.8239 0,1.96946 -0.99155,3.94003 -2.20344,4.37905 -1.7372,0.62933 -45.14413,6.06031 -48.96291,6.12614 -0.51038,0.009 -0.61612,-3.25392 -0.23499,-7.25047 0.87865,-9.2135 -2.11568,-8.66253 -9.08938,1.67247 -4.41692,6.54585 -5.72843,7.35675 -11.89857,7.35675 -3.81397,0 -6.92508,-0.59493 -6.91357,-1.32207 z"
       id="path3859"
       inkscape:connector-curvature="0" />
    <path
       style="fill:#ff6600;fill-opacity:1"
       d="m 333.67899,697.0384 c -7.38794,-7.24563 -12.93948,-13.66702 -12.33674,-14.26975 2.32758,-2.32758 11.99461,1.49782 17.31329,6.85115 5.19422,5.22807 14.00144,17.60475 14.00144,19.67606 0,3.80089 -7.62729,-1.12541 -18.97799,-12.25746 z"
       id="path3861"
       inkscape:connector-curvature="0" />
    <path
       style="fill:#ff6600;fill-opacity:1"
       d=""
       id="path3863"
       inkscape:connector-curvature="0" />
    <path
       style="fill:#ffb380;fill-opacity:1"
       d="m 379.47396,736.92303 c -3.79247,-2.40624 8.10866,-18.63912 14.177,-19.33713 6.12577,-0.70461 7.61055,2.73294 4.82545,11.17187 -2.67506,8.10552 -12.46587,12.31258 -19.00245,8.16526 z"
       id="path3867"
       inkscape:connector-curvature="0" />
    <path
       style="fill:#ffb380;fill-opacity:1"
       d=""
       id="path3869"
       inkscape:connector-curvature="0" />
    <path
       style="fill:#ffb380;fill-opacity:1"
       d=""
       id="path3871"
       inkscape:connector-curvature="0" />
    <path
       style="fill:#ffb380;fill-opacity:1"
       d="m 362.33397,728.83372 c -12.36144,-5.1976 -11.71872,-13.3332 1.05334,-13.3332 7.66501,0 10.91284,3.77061 8.57516,9.95544 -2.01772,5.3383 -3.62486,5.9021 -9.6285,3.37776 l 0,0 z"
       id="path3873"
       inkscape:connector-curvature="0" />
    <path
       style="fill:#ffb380;fill-opacity:1"
       d="m 256.58707,563.90396 c -0.64962,-1.0511 1.48533,-1.76275 5.28825,-1.76275 3.80292,0 5.93787,0.71165 5.28825,1.76275 -1.41252,2.28551 -9.16398,2.28551 -10.5765,0 z"
       id="path3875"
       inkscape:connector-curvature="0" />
    <path
       style="fill:#ffb380;fill-opacity:1"
       d="m 364.22834,587.00333 c -0.53677,-0.86852 0.55795,-3.44654 2.43271,-5.72894 l 3.40867,-4.1498 4.07358,4.02422 c 3.47783,3.4357 3.68688,4.26958 1.42944,5.70194 -3.35665,2.12983 -10.06661,2.22008 -11.3444,0.15258 z"
       id="path3877"
       inkscape:connector-curvature="0" />
    <path
       style="fill:#ffb380;fill-opacity:1"
       d=""
       id="path3879"
       inkscape:connector-curvature="0" />
    <path
       style="fill:#ffb380;fill-opacity:1"
       d="m 92.20174,540.54751 c 0.399111,-1.21189 2.608664,-2.47793 4.910117,-2.81342 3.653353,-0.53257 3.888103,-0.2529 1.849527,2.20343 -2.760637,3.32637 -7.80411,3.78149 -6.759644,0.60999 z"
       id="path3881"
       inkscape:connector-curvature="0" />
    <path
       style="fill:#ffb380;fill-opacity:1"
       d=""
       id="path3883"
       inkscape:connector-curvature="0" />
    <path
       style="fill:#ffb380;fill-opacity:1"
       d="m 149.94065,599.15897 c 0,-0.96951 1.58648,-1.76275 3.5255,-1.76275 1.93903,0 3.5255,0.79324 3.5255,1.76275 0,0.96951 -1.58647,1.76275 -3.5255,1.76275 -1.93902,0 -3.5255,-0.79324 -3.5255,-1.76275 z"
       id="path3885"
       inkscape:connector-curvature="0" />
    <path
       style="fill:#ff5555;fill-opacity:1"
       d="m 222.21343,599.10037 c 0,-5.76323 8.15807,-20.22929 14.34328,-25.4338 5.30178,-4.46116 6.39262,-4.70016 15.51073,-3.39842 11.83871,1.69015 19.02807,1.64 24.42443,-0.17039 3.37435,-1.13203 5.3023,0.0195 11.70057,6.98852 8.12649,8.85143 12.77914,16.1749 11.24846,17.70558 -1.851,1.85101 -25.61681,5.92228 -41.58968,7.12465 l -16.36336,1.23176 1.16458,-7.2829 c 1.31962,-8.25244 -0.88967,-9.59716 -5.13147,-3.12336 -6.62837,10.11617 -15.30754,13.72128 -15.30754,6.35836 z"
       id="path3887"
       inkscape:connector-curvature="0" />
    <path
       style="fill:#ff5555;fill-opacity:1"
       d="m 217.44237,682.07933 c 0.59149,-7.05529 1.31202,-13.0318 1.60118,-13.28115 0.28917,-0.24935 6.47504,0.60633 13.74638,1.90151 24.70662,4.40078 49.42552,2.10578 50.73164,-4.71011 0.4705,-2.45529 -0.67436,-2.57862 -9.34596,-1.00684 -11.09167,2.01044 -47.2156,-0.91966 -51.10188,-4.14499 -1.23314,-1.02341 -2.67596,-3.51995 -3.20627,-5.54787 -0.95659,-3.65799 -0.72103,-3.6811 29.81556,-2.92482 37.81874,0.93663 36.91538,0.41247 35.14667,20.39325 l -1.24129,14.02274 -16.14479,2.8592 c -8.87964,1.57256 -24.00447,3.40092 -33.61073,4.06303 l -17.46595,1.20384 1.07544,-12.82779 0,0 z"
       id="path3891"
       inkscape:connector-curvature="0" />
    <path
       style="fill:#003100;fill-opacity:1"
       d="m 197.04648,736.42527 c -5.96541,-7.8458 -16.73835,-29.46543 -17.45364,-35.02676 -0.47982,-3.73055 0.081,-4.33551 3.65392,-3.94187 2.32139,0.25575 8.27068,2.64567 13.22063,5.31092 l 8.99991,4.84591 -0.62699,14.96072 c -0.81507,19.44861 -1.97308,21.50661 -7.79383,13.85108 l 0,0 z"
       id="path3893"
       inkscape:connector-curvature="0" />
    <path
       style="fill:#003100;fill-opacity:1"
       d="m 176.73446,683.41846 c -3.54227,-3.54228 -2.37756,-9.82884 2.73226,-14.74742 5.1157,-4.92422 18.99112,-12.03109 27.59616,-14.13449 4.75587,-1.16252 5.04043,-0.95042 3.99026,2.97414 -0.62196,2.32426 -1.14166,8.39043 -1.1549,13.48037 -0.0258,9.93149 -2.39743,12.32214 -4.38156,4.41674 -3.0289,-12.06811 -7.98176,-11.1893 -7.98176,1.41624 l 0,8.70972 -9.34258,0 c -5.13842,0 -10.29446,-0.95189 -11.45788,-2.1153 z"
       id="path3895"
       inkscape:connector-curvature="0" />
    <path
       style="fill:#003100;fill-opacity:1"
       d=""
       id="path3897"
       inkscape:connector-curvature="0" />
    <path
       style="fill:#ff5555;fill-opacity:1"
       d="m 218.05928,683.34269 c 0.59545,-6.06626 1.57729,-11.58671 2.18187,-12.26766 0.60459,-0.68095 7.04665,-0.40443 14.31571,0.6145 16.5425,2.31883 42.76308,1.25406 46.5519,-1.89038 2.48885,-2.06557 2.80094,-1.44072 2.80094,5.6078 0,4.36281 -1.01355,8.77355 -2.25234,9.80166 -1.99595,1.65649 -24.94937,5.07307 -54.57063,8.12276 l -10.11009,1.04089 1.08264,-11.02957 z"
       id="path3899"
       inkscape:connector-curvature="0" />
    <path
       style="fill:#001c00;fill-opacity:1"
       d="m 187.79589,618.98403 c -15.85109,-7.22626 -23.75323,-12.33576 -23.75323,-15.35873 0,-4.05559 3.84322,-3.39366 26.79512,4.61501 18.44327,6.43546 20.91048,7.7649 20.44599,11.01719 -0.81177,5.68402 -10.67173,5.56922 -23.48788,-0.27347 l 0,0 z"
       id="path3901"
       inkscape:connector-curvature="0" />
    <path
       style="fill:#001c00;fill-opacity:1"
       d="m 218.0475,683.45542 c 0.60192,-6.12826 1.58907,-11.69944 2.19365,-12.38039 0.60459,-0.68095 7.04665,-0.3988 14.31571,0.627 15.80958,2.23105 42.99254,1.05113 46.70164,-2.02715 2.29297,-1.903 2.6512,-1.12848 2.6512,5.73207 0,4.36281 -1.01355,8.77355 -2.25234,9.80166 -1.97101,1.63579 -20.32759,4.41162 -54.58241,8.25378 l -10.12187,1.13532 1.09442,-11.14229 z"
       id="path3903"
       inkscape:connector-curvature="0" />
    <path
       style="fill:#ff8080;fill-opacity:1"
       d=""
       id="path3905"
       inkscape:connector-curvature="0" />
    <path
       style="fill:#ff8080;fill-opacity:1"
       d="m 181.77862,614.52935 c -14.56358,-7.50811 -19.48331,-11.94181 -13.0353,-11.74748 1.77744,0.0536 11.56071,3.05966 21.7406,6.68021 19.64723,6.98769 23.98232,11.28565 12.33925,12.23359 -4.49265,0.36577 -10.2128,-1.58211 -21.04455,-7.16632 z"
       id="path3907"
       inkscape:connector-curvature="0" />
    <path
       style="fill:#a5ffff;fill-opacity:1"
       d="m 57.530861,569.6329 c 1.505848,-8.46619 6.692201,-17.04091 13.041711,-21.56216 6.04815,-4.30666 9.369553,-4.45816 15.120929,-0.68972 3.784556,2.47974 5.809445,2.58533 14.979869,0.78116 5.83208,-1.14739 12.16133,-1.59182 14.06501,-0.98761 1.90368,0.6042 5.52803,4.62527 8.05412,8.93572 4.92824,8.40941 4.62125,14.34601 -0.63003,12.18345 -7.15123,-2.945 -9.23959,-3.00566 -9.23959,-0.26837 0,1.74675 -2.11607,3.13542 -5.72894,3.7596 -5.94154,1.02649 -29.637407,4.36196 -31.424212,4.42332 -0.559222,0.0192 -0.667499,-2.34479 -0.240617,-5.25333 0.588767,-4.01152 0.08948,-5.28825 -2.068047,-5.28825 -1.821528,0 -2.844197,1.51063 -2.844197,4.20128 0,4.18263 -3.690523,6.29482 -11.097067,6.35115 -2.693044,0.0205 -2.989463,-0.96109 -1.988939,-6.58624 z"
       id="path3909"
       inkscape:connector-curvature="0" />
    <path
       style="fill:#a5ffff;fill-opacity:1"
       d="m 95.846112,720.77455 c -3.743383,-1.50808 -3.872249,-2.51278 -4.406877,-34.35835 l -0.550734,-32.80484 -7.491691,-6.21938 -7.491691,-6.21938 0,-16.59994 c 0,-9.12996 0.594929,-16.58931 1.322064,-16.57633 0.727134,0.013 7.128075,1.8761 14.224312,4.14027 l 12.902245,4.11667 -10.805338,3.03182 c -13.687324,3.84047 -13.038167,6.91156 1.707476,8.07789 9.659532,0.76404 11.635972,1.54343 14.845702,5.85426 3.47688,4.66961 3.73808,7.54523 4.28319,47.15358 l 0.58051,42.1807 -7.63151,-0.11173 c -4.19734,-0.0615 -9.36678,-0.81081 -11.487658,-1.66524 l 0,0 z"
       id="path3911"
       inkscape:connector-curvature="0" />
    <path
       style="fill:#a5ffff;fill-opacity:1"
       d="m 138.16466,714.42579 c -0.59887,-1.56061 0.61677,-14.84734 2.7014,-29.52607 2.08464,-14.67873 3.78937,-29.33635 3.7883,-32.57248 l -0.002,-5.88388 -7.49169,1.32554 c -13.92849,2.46445 -14.32583,2.31582 -16.85299,-6.30391 -1.27911,-4.36281 -3.50881,-10.11378 -4.9549,-12.77994 -2.61846,-4.82768 -2.60603,-4.84757 3.03077,-4.84757 3.11301,0 12.67671,2.10579 21.25266,4.67952 l 15.59265,4.67952 0,42.03338 0,42.03337 -7.9877,0 c -5.71597,0 -8.29737,-0.80699 -9.07654,-2.83748 l 0,0 z m -3.77781,-72.15425 c 4.91984,-1.17173 11.55791,-7.15278 9.84243,-8.86825 -1.23899,-1.239 -18.28125,7.28856 -19.94452,9.97978 -0.80677,1.30539 -0.095,1.64732 2.07869,0.9986 1.81806,-0.54258 5.42859,-1.49214 8.0234,-2.11013 z"
       id="path3915"
       inkscape:connector-curvature="0" />
    <path
       style="fill:#ffff41;fill-opacity:1"
       d="m 506.82088,614.89948 c -1.9327,-3.12717 9.55156,-24.20677 15.7734,-28.9524 3.18405,-2.42859 6.29405,-4.41562 6.91113,-4.41562 1.36619,0 -0.29765,15.04897 -2.33872,21.15301 -0.81046,2.42379 -1.94978,6.58828 -2.53181,9.25444 -0.96007,4.39787 -1.78134,4.84757 -8.85301,4.84757 -4.28712,0 -8.31956,-0.84915 -8.96099,-1.887 z"
       id="path3917"
       inkscape:connector-curvature="0" />
    <path
       style="fill:#ffff41;fill-opacity:1"
       d=""
       id="path3919"
       inkscape:connector-curvature="0" />
    <path
       style="fill:#ffff41;fill-opacity:1"
       d="m 274.40317,527.6234 c -0.58848,-1.53357 -1.06997,-4.6597 -1.06997,-6.94697 0,-2.28728 -0.79324,-4.64893 -1.76275,-5.24812 -0.96951,-0.59919 -1.76275,-1.83586 -1.76275,-2.74816 0,-3.4875 4.21093,-1.38805 11.16606,5.56708 l 7.2258,7.2258 -5.87281,2.46933 c -7.18728,3.02203 -6.63296,3.04434 -7.92358,-0.31896 z"
       id="path3921"
       inkscape:connector-curvature="0" />
    <path
       style="fill:#ffff41;fill-opacity:1"
       d="m 244.26484,545.97522 c -3.92224,-4.66132 -4.50683,-6.63715 -3.52046,-11.89857 1.67666,-8.9436 6.29929,-16.30997 8.8872,-14.16219 1.35602,1.1254 4.17108,0.82567 8.24927,-0.8783 6.66152,-2.78336 8.40135,-2.1969 8.40135,2.83191 0,2.00017 -2.32298,4.17866 -6.16963,5.78589 -3.39329,1.41781 -6.16963,3.41155 -6.16963,4.43054 0,2.35351 2.8011,2.36442 7.16689,0.0279 2.90847,-1.55656 3.40995,-1.23269 3.4119,2.20344 0.002,3.5505 -0.86723,4.02821 -7.32958,4.02821 -4.62504,0 -7.63394,0.88942 -8.15012,2.40914 -0.62754,1.8476 0.87544,2.24762 6.4482,1.71617 7.63013,-0.72765 8.42791,0.1059 5.44169,5.68571 -2.93603,5.48604 -11.11696,4.41606 -16.66708,-2.17987 l 0,0 z m 14.96635,2.06398 c 0,-0.96951 -1.98309,-1.76275 -4.40687,-1.76275 -2.42378,0 -4.40688,0.79324 -4.40688,1.76275 0,0.96951 1.9831,1.76275 4.40688,1.76275 2.42378,0 4.40687,-0.79324 4.40687,-1.76275 z m 4.40688,-24.67851 c 0.59919,-0.96951 -0.54385,-1.76275 -2.54009,-1.76275 -1.99625,0 -3.62954,0.79324 -3.62954,1.76275 0,0.96951 1.14305,1.76275 2.5401,1.76275 1.39705,0 3.03034,-0.79324 3.62953,-1.76275 z"
       id="path3923"
       inkscape:connector-curvature="0" />
    <path
       style="fill:#ffff41;fill-opacity:1"
       d="m 281.45944,547.28828 c 0.66436,-1.73129 -0.58734,-2.73802 -4.02152,-3.23448 l -4.98609,-0.7208 5.72894,-1.39275 c 5.993,-1.45694 7.98058,-6.19471 2.64412,-6.30277 -2.35435,-0.0477 -2.0413,-0.65899 1.32206,-2.58166 2.42379,-1.38556 5.00181,-2.54731 5.72894,-2.58166 2.28934,-0.10817 1.43629,8.70549 -1.36733,14.12708 -2.69096,5.20375 -6.86787,7.42662 -5.04912,2.68704 z"
       id="path3925"
       inkscape:connector-curvature="0" />
    <path
       style="fill:#ffff41;fill-opacity:1"
       d=""
       id="path3927"
       inkscape:connector-curvature="0" />
    <path
       style="fill:#ffff41;fill-opacity:1"
       d="m 308.58822,526.00482 c -2.42379,-1.38556 -6.23848,-2.54731 -8.4771,-2.58167 -2.25307,-0.0346 -3.58384,-0.84944 -2.98078,-1.82521 1.8651,-3.01781 8.51484,-1.92879 15.86475,2.59814 5.1324,3.16113 6.0917,4.34081 3.5255,4.33538 -1.93902,-0.004 -5.50859,-1.14108 -7.93237,-2.52664 z"
       id="path3929"
       inkscape:connector-curvature="0" />
    <path
       style="fill:#ffff41;fill-opacity:1"
       d="m 213.39968,531.16977 c 0,-0.60237 1.64049,-3.39908 3.64553,-6.2149 3.73916,-5.25116 9.10766,-6.52972 13.98197,-3.32994 2.35034,1.5429 2.35034,1.92862 0,3.47152 -1.45427,0.95467 -3.67506,1.7479 -4.9351,1.76275 -1.26004,0.0148 -4.6313,1.23722 -7.49169,2.71639 -2.86039,1.47916 -5.20071,2.19654 -5.20071,1.59418 z"
       id="path3931"
       inkscape:connector-curvature="0" />
    <path
       style="fill:#2b2200;fill-opacity:1"
       d="m 579.90493,635.44612 c -0.40396,-0.40183 -6.57694,-1.53936 -13.71772,-2.52784 -9.41627,-1.30346 -14.2022,-2.91883 -17.42011,-5.8797 -6.12396,-5.63481 -12.7461,-20.35492 -12.76682,-28.3789 -0.0231,-8.95849 6.87913,-22.03672 15.96014,-30.24087 7.17297,-6.48035 7.78389,-6.68357 17.17766,-5.71405 13.52204,1.3956 30.78438,10.16601 35.7165,18.14635 5.25016,8.49494 6.17117,19.2294 2.68019,31.23794 -3.69035,12.69434 -13.92025,24.08769 -21.62796,24.08769 -2.89707,0 -5.59792,-0.32878 -6.00188,-0.73062 z m 6.00415,-12.9307 c -1.17776,-13.20683 -1.76616,-14.75665 -4.16336,-10.96614 -2.20775,3.49097 -2.12877,15.2329 0.13087,19.45509 3.56005,6.65201 5.09464,3.42148 4.03249,-8.48895 l 0,0 z m 8.24475,5.72894 c 0,-1.45427 -0.79324,-2.64413 -1.76275,-2.64413 -0.96951,0 -1.76275,1.18986 -1.76275,2.64413 0,1.45427 0.79324,2.64412 1.76275,2.64412 0.96951,0 1.76275,-1.18985 1.76275,-2.64412 z m 2.58509,-23.60403 c -2.73777,-2.62116 -2.8883,-2.56874 -1.97661,0.68827 0.54277,1.93902 1.61798,5.90521 2.38935,8.81375 l 1.40249,5.28825 0.57412,-5.97652 c 0.37466,-3.90026 -0.4554,-6.96218 -2.38935,-8.81375 l 0,0 z m -8.16005,-9.24741 -0.59467,-8.57539 6.61032,10e-4 c 8.91404,10e-4 8.382,-2.73046 -0.88138,-4.52571 l -7.49169,-1.4519 6.61032,-0.64256 c 8.70896,-0.84655 8.53224,-3.95524 -0.22485,-3.95524 -3.91589,0 -7.76952,-1.12583 -9.02286,-2.63602 -3.2209,-3.88094 -15.22571,-7.13268 -18.01899,-4.88079 -1.24266,1.0018 -4.73778,2.35082 -7.76695,2.99782 -5.6482,1.20641 -14.48157,8.91457 -12.49381,10.90233 0.60995,0.60994 4.3309,-0.18017 8.2688,-1.7558 11.91865,-4.7689 16.40522,-3.4058 5.75277,1.7478 -5.09743,2.46611 -10.08308,6.00672 -11.07921,7.86801 -2.43224,4.54468 1.22873,4.47208 7.12665,-0.14134 7.26814,-5.68522 9.68602,-4.10301 3.86365,2.5283 -4.92937,5.61424 -8.52054,12.79265 -7.107,14.20619 0.33223,0.33223 6.39491,-4.831 13.47262,-11.47385 14.57986,-13.68404 13.18685,-14.13609 19.0973,6.19724 3.4017,11.70262 4.95682,9.13272 3.87898,-6.41018 l 0,0 z m -18.90123,5.24467 c 4.37746,-6.14757 1.95549,-6.52681 -4.35179,-0.68141 -5.13521,4.75914 -6.92107,12.08394 -1.93787,7.94825 1.49953,-1.24449 4.32987,-4.51457 6.28966,-7.26684 l 0,0 z m -22.3838,0.91321 c 0.6113,-1.59304 0.74894,-3.25894 0.30587,-3.70202 -1.40092,-1.40092 -4.56565,1.41217 -4.56565,4.05835 0,3.45768 2.88894,3.21602 4.25978,-0.35633 z m 57.4365,-5.97265 c 0,-2.49588 -4.20421,-3.89353 -9.12625,-3.03393 l -4.09438,0.71505 4.40687,1.95674 c 5.67501,2.51982 8.81376,2.64878 8.81376,0.36214 z"
       id="path3933"
       inkscape:connector-curvature="0" />
    <path
       style="fill:#2b2200;fill-opacity:1"
       d=""
       id="path3935"
       inkscape:connector-curvature="0" />
    <path
       style="fill:#2b2200;fill-opacity:1"
       d="m 345.61589,534.60239 c -0.008,-4.27333 1.76726,-7.14258 7.936,-12.82872 4.37024,-4.02835 10.02079,-8.11315 12.55677,-9.07733 5.43871,-2.06779 15.45929,-0.57437 22.18874,3.30691 5.61392,3.23789 8.54066,8.50239 3.60078,6.47694 -1.70765,-0.70017 -8.33236,-1.67924 -14.72159,-2.17571 l -11.61678,-0.90268 -9.967,10.35251 -9.967,10.35251 -0.01,-5.50443 z"
       id="path3939"
       inkscape:connector-curvature="0" />
    <path
       style="fill:#2b2200;fill-opacity:1"
       d=""
       id="path3941"
       inkscape:connector-curvature="0" />
    <path
       style="fill:#2b2200;fill-opacity:1"
       d="m 534.2269,529.08963 c 0.02,-4.01585 7.84265,-13.11552 13.95604,-16.23434 10.04541,-5.12479 20.28614,-4.76309 25.96634,0.9171 2.48254,2.48255 4.08435,4.94308 3.55957,5.46785 -0.52477,0.52478 -4.9803,-0.38314 -9.90117,-2.01759 -8.7046,-2.8912 -9.16128,-2.86802 -16.85347,0.85571 -4.34853,2.10509 -9.41184,5.74126 -11.2518,8.08038 -3.35278,4.26237 -5.48785,5.40521 -5.47551,2.93089 z"
       id="path3943"
       inkscape:connector-curvature="0" />
    <path
       style="fill:#2b2200;fill-opacity:1"
       d="m 79.430621,500.9089 c 0,-2.54776 7.453164,-8.86131 12.894697,-10.92305 7.051857,-2.67188 10.819932,-2.34442 15.364072,1.33521 3.93107,3.18318 3.86599,3.20779 -6.49932,2.45804 -9.379075,-0.67843 -11.058363,-0.26239 -16.114797,3.99232 -3.104559,2.61231 -5.644652,4.02418 -5.644652,3.13748 z"
       id="path3947"
       inkscape:connector-curvature="0" />
    <path
       style="fill:#2b2200;fill-opacity:1"
       d="m 74.262609,535.60395 c -7.080143,-3.212 -7.554283,-3.80193 -5.060205,-6.29601 2.494078,-2.49408 3.426983,-2.26293 9.956308,2.46689 3.962406,2.87035 6.702219,5.72097 6.088475,6.33472 -1.595617,1.59562 -2.296972,1.43564 -10.984578,-2.5056 z"
       id="path3949"
       inkscape:connector-curvature="0" />
    <path
       style="fill:#2b2200;fill-opacity:1"
       d="m 112.67748,535.6413 c 2.28881,-1.90677 5.06514,-3.44047 6.16963,-3.40821 1.10448,0.0323 0.13549,1.61873 -2.15332,3.5255 -2.28881,1.90677 -5.06514,3.44047 -6.16963,3.40821 -1.10448,-0.0322 -0.13549,-1.61873 2.15332,-3.5255 l 0,0 z"
       id="path3953"
       inkscape:connector-curvature="0" />
    <path
       style="fill:#ffff00;fill-opacity:1"
       d=""
       id="path3955"
       inkscape:connector-curvature="0" />
    <path
       style="fill:#ffff8c;fill-opacity:1"
       d="m 346.49827,533.93719 c 1.55586,-5.41358 8.61499,-13.14172 16.41197,-17.96733 4.33407,-2.68239 7.65727,-3.37548 12.8471,-2.67938 6.36646,0.85393 16.86837,5.94408 15.36514,7.44731 -0.3415,0.3415 -6.1613,-0.0762 -12.93289,-0.92825 l -12.31198,-1.54915 -10.32293,10.04184 c -8.3259,8.09918 -10.07792,9.1893 -9.05641,5.63496 z"
       id="path3957"
       inkscape:connector-curvature="0" />
    <path
       style="fill:#ffff8c;fill-opacity:1"
       d="m 371.16587,518.23619 c -6.27066,-0.74357 -7.88207,-1.42659 -5.58477,-2.36719 4.81119,-1.96988 11.97161,-1.46716 17.92402,1.2584 5.07438,2.32352 5.11002,2.41604 0.88138,2.28769 -2.42379,-0.0736 -8.37307,-0.60408 -13.22063,-1.1789 z"
       id="path3959"
       inkscape:connector-curvature="0" />
  </g>
</svg>
