<?xml version="1.0" encoding="UTF-8" standalone="no"?>
<!-- Created with Inkscape (http://www.inkscape.org/) -->

<svg
   xmlns:dc="http://purl.org/dc/elements/1.1/"
   xmlns:cc="http://creativecommons.org/ns#"
   xmlns:rdf="http://www.w3.org/1999/02/22-rdf-syntax-ns#"
   xmlns:svg="http://www.w3.org/2000/svg"
   xmlns="http://www.w3.org/2000/svg"
   xmlns:xlink="http://www.w3.org/1999/xlink"
   xmlns:sodipodi="http://sodipodi.sourceforge.net/DTD/sodipodi-0.dtd"
   xmlns:inkscape="http://www.inkscape.org/namespaces/inkscape"
   width="744.09448819"
   height="1052.3622047"
   id="svg2"
   version="1.1"
   inkscape:version="0.48.3.1 r9886"
   sodipodi:docname="New document 1">
  <defs
     id="defs4">
    <linearGradient
       x1="114.57"
       y1="111.33"
       x2="504.37"
       gradientUnits="userSpaceOnUse"
       y2="671.45"
       id="linearGradient4146">
      <stop
         offset="0"
         stop-color="#e00"
         id="stop4142" />
      <stop
         offset="1"
         stop-color="#9a0000"
         id="stop4144" />
    </linearGradient>
  </defs>
  <sodipodi:namedview
     id="base"
     pagecolor="#ffffff"
     bordercolor="#666666"
     borderopacity="1.0"
     inkscape:pageopacity="0.0"
     inkscape:pageshadow="2"
     inkscape:zoom="0.56729519"
     inkscape:cx="102.5491"
     inkscape:cy="430.80073"
     inkscape:document-units="px"
     inkscape:current-layer="layer1"
     showgrid="false"
     inkscape:window-width="1317"
     inkscape:window-height="744"
     inkscape:window-x="49"
     inkscape:window-y="24"
     inkscape:window-maximized="1" />
  <metadata
     id="metadata7">
    <rdf:RDF>
      <cc:Work
         rdf:about="">
        <dc:format>image/svg+xml</dc:format>
        <dc:type
           rdf:resource="http://purl.org/dc/dcmitype/StillImage" />
        <dc:title></dc:title>
      </cc:Work>
    </rdf:RDF>
  </metadata>
  <g
     inkscape:label="Layer 1"
     inkscape:groupmode="layer"
     id="layer1">
    <image
       y="56.647923"
       x="845.92853"
       id="image3044"
       xlink:href="file:///home/flo/jeu/asset/ine/une%20%C3%A9pine.jpg"
       height="911.42853"
       width="622.42859"
       style="fill:#002600;fill-opacity:1" />
    <path
       style="fill:#002600;fill-opacity:1"
       d="m 423.36997,930.21071 c 15.35532,-1.11235 4.04255,1.71969 16.43645,-5.70983 2.54311,-5.08339 2.1878,-17.25136 8.50426,-24.58051 5.9744,-6.93221 6.0808,-8.36991 0.50362,-6.80491 -6.86211,1.92556 -13.35722,-5.13735 -15.2859,-16.62223 -3.52692,-21.00205 5.85107,-89.88551 15.94925,-117.15095 1.37928,-3.72415 0.82884,-4.34001 -2.6057,-2.91528 -8.14275,3.37778 -11.07657,-6.03304 -11.07657,-35.53044 0,-28.33741 4.44421,-60.12854 10.57776,-75.66644 3.37721,-8.5554 3.2307,-9.2428 -3.52709,-16.54801 -7.02575,-7.59485 -7.05038,-7.74333 -6.96415,-42.00659 0.0476,-18.9116 1.69947,-44.03518 3.67089,-55.83014 4.52195,-27.05482 4.50871,-46.35638 -0.0377,-54.95378 -2.56651,-4.85336 -3.64909,-17.42201 -3.92521,-45.57143 -0.20979,-21.37836 -1.12206,-42.48865 -2.02746,-46.91176 l -1.64616,-8.04201 -4.56744,7.40868 c -3.97392,6.44594 -4.59166,13.41274 -4.75381,53.61344 l -0.18649,46.20476 -0.80794,-42.33741 c -0.50766,-26.60256 -1.70654,-41.73705 -3.22579,-40.72204 -1.32981,0.88846 -2.41785,8.1003 -2.41785,16.02635 0,17.51393 -3.45207,28.62044 -8.27401,26.6202 -5.76411,-2.39108 -6.2224,7.47256 -1.31737,28.35197 5.21529,22.19993 5.76682,23.25909 10.15139,19.49414 3.52411,-3.02605 21.75815,-7.14297 21.75815,-4.9126 0,0.78276 -5.04056,2.79524 -11.20124,4.47219 -6.16068,1.67692 -12.0002,4.40848 -12.97674,6.07012 -0.97654,1.66161 -1.47285,18.0999 -1.10291,36.52952 0.73096,36.41642 -1.77202,47.04871 -11.00496,46.74722 -4.98533,-0.16272 -4.99146,-0.03 -0.57745,12.52766 10.10797,28.75694 11.25884,80.4087 2.34395,105.19679 -2.28086,6.34199 -3.78977,7.3708 -8.81195,6.00822 l -6.0598,-1.64414 3.70162,11.34144 c 4.77191,14.62066 10.6705,54.75268 11.40266,77.58013 0.635,19.79738 -2.33738,26.39392 -11.89302,26.39392 -5.97616,0 -7.80771,4.86481 -3.58283,9.51639 1.27213,1.40065 5.33104,12.19706 9.01978,23.99202 5.32534,17.02821 7.25762,28.12089 7.92731,53.90124 0.355,13.66607 12.16636,13.5097 10.38213,16.81709 m 18.40347,14.04399 c -3.55437,3.81067 -4.65039,2.08222 -10.70353,0.28624 -23.41347,5.89123 -25.08484,-72.94434 -35.09763,-98.19421 -4.14885,-10.46234 -8.16611,-20.59158 -8.92729,-22.50944 -1.02852,-2.59146 0.31444,-3.02621 5.2291,-1.69279 9.77456,2.65199 16.3324,-4.88134 16.3324,-18.76186 0,-18.4868 -4.8608,-55.36998 -10.00845,-75.94328 -6.05041,-24.18111 -6.09179,-26.7922 -0.33542,-21.16077 2.4942,2.44008 5.7619,4.43648 7.26153,4.43648 9.85746,0 10.48297,-77.43676 0.85533,-105.88655 -8.41094,-24.85439 -8.96106,-27.40765 -5.05377,-23.45588 4.5962,4.64855 11.41192,4.18981 13.21495,-0.88942 3.53718,-9.96441 0.76192,-23.81938 -10.93054,-54.5683 -16.50936,-43.41659 -20.66631,-51.83401 -29.6206,-59.97888 l -7.55671,-6.87362 -136.71307,-0.0783 c -75.19212,-0.0432 -137.307136,-0.72072 -138.033286,-1.50571 -0.726149,-0.78495 6.742926,-1.42721 16.597946,-1.42721 13.61473,0 17.4979,-0.80479 16.16817,-3.35084 -1.40004,-2.68067 -1.08214,-2.68067 1.58951,0 2.57407,2.58277 30.36725,3.35314 121.25381,3.36086 136.75584,0.0107 127.48922,-1.80237 141.65331,27.72933 l 8.46602,17.65137 3.53837,-18.00417 c 1.9461,-9.90232 3.48977,-23.10761 3.43038,-29.34513 -0.0595,-6.23752 0.65124,-10.83372 1.57916,-10.21377 0.92794,0.61994 4.35943,-7.20342 7.62554,-17.38525 5.86273,-18.27653 5.89909,-19.01739 2.85216,-58.14338 -3.64304,-46.78098 -7.02853,-64.78673 -17.2717,-91.85963 -4.17451,-11.03334 -7.09494,-20.59582 -6.48982,-21.24995 0.60512,-0.65414 4.4363,2.26574 8.51373,6.48862 5.7471,5.95209 7.41352,6.67096 7.41352,3.19808 0,-9.48121 -9.48035,-60.77674 -9.81469,-88.23915 6.46059,-6.02544 3.40118,-2.79644 8.61986,0.43256 12.0268,19.80439 24.37212,56.43466 28.64897,56.43466 1.39087,0 5.31861,-3.01576 8.72833,-6.70168 7.31485,-7.90739 9.55654,-8.57652 6.23133,-1.86003 -5.83384,11.78368 -10.59971,52.53381 -9.27736,79.3256 0.73514,14.89436 1.39151,36.63976 1.45864,48.32312 l 0.12206,21.2425 6.19948,-6.2959 c 7.42622,-7.54173 8.34675,-4.15668 1.12836,4.14936 -4.88448,5.62045 -5.00708,7.78196 -3.33036,58.72304 1.85823,56.45595 3.10321,61.09139 13.63939,50.78391 4.99498,-4.88657 5.03279,-4.85174 3.28429,3.02571 -0.97287,4.38308 -2.80938,10.16049 -4.08115,12.83867 -1.27174,2.67821 -3.29257,10.51917 -4.49076,17.42437 -1.19818,6.90523 -3.28902,17.98329 -4.64629,24.61795 -1.35729,6.63467 -3.2304,27.14181 -4.16251,45.57143 -1.40803,27.84026 -1.01275,35.26199 2.33688,43.87502 3.19505,8.21559 5.06176,10.07541 8.9963,8.96315 6.12572,-1.73166 6.12634,-1.19532 0.0198,16.17555 -9.56553,27.20584 -15.01171,77.10824 -10.86274,99.53354 1.90453,10.294 4.32248,10.48961 12.42588,1.00525 3.46415,-4.05451 5.79375,-5.56239 5.17685,-3.35084 -15.11257,54.17406 -21.63346,90.08434 -21.63346,119.1287 0,24.92049 2.99284,29.76213 16.91029,27.35637 8.50069,-1.46944 9.98363,-1.08605 8.79132,2.27283 -0.78887,2.22222 -2.35481,4.04042 -3.4799,4.04042 -4.53187,0 -9.17472,15.11358 -13.59153,33.60215 M 403.55804,253.87685 c 0,7.96667 -4.25682,9.92908 -9.42322,4.34415 -4.36194,-4.71528 -3.64277,-0.66366 2.00727,11.30846 7.11123,15.06833 11.62525,38.54858 15.90523,82.73303 2.05389,21.2034 4.33176,39.19741 5.06193,39.98671 0.73015,0.78929 1.32756,-0.21634 1.32756,-2.23491 0,-2.01849 3.47397,-7.54456 7.71995,-12.28018 l 7.71997,-8.61016 -2.84722,-49.1519 c -2.41215,-41.64133 -2.28198,-52.33681 0.85191,-69.99517 2.03449,-11.4638 4.48845,-22.22394 5.45321,-23.91143 1.17803,-2.06049 0.33227,-2.47833 -2.57516,-1.27227 -2.38113,0.98774 -5.86678,1.79589 -7.74592,1.79589 -2.5314,0 -3.64832,5.38249 -4.31105,20.77521 l -0.89446,20.77521 -0.10365,-21.60068 c -0.057,-11.88037 -1.48354,-24.38806 -3.17017,-27.79486 -2.9773,-6.01377 -17.47968,-53.63431 -22.5312,-48.68254 -5.05151,4.95177 7.55502,65.15462 7.55502,83.81544 z m 6.19983,264.90912 c -1.73732,-18.70063 -1.8682,-18.98494 -6.60639,-14.34958 -3.05633,2.98999 -3.66785,6.71775 -3.52563,10.3641 0.34692,8.89485 9.15955,26.03133 10.54337,24.53541 0.74858,-0.80921 0.56346,-10.05668 -0.41135,-20.54993 z M 405.429,479.51206 c -1.33193,-8.62592 -3.29811,-16.70455 -4.36933,-17.95254 -2.25312,-2.62494 -7.42081,21.13707 -7.42081,34.12228 0,12.10093 2.71314,13.96461 8.93899,6.14029 4.78878,-6.01827 5.0505,-8.06617 2.85115,-22.31003 z m 45.20718,3.75139 c 0.0209,-1.10578 -1.07794,-2.0105 -2.44183,-2.0105 -1.36388,0 -2.46271,2.71418 -2.44183,6.03151 0.0308,4.87732 0.498,5.26205 2.44183,2.0105 1.32213,-2.21155 2.42095,-4.92573 2.44183,-6.03151 z m -38.59692,-51.70427 c 0.86872,-3.74163 0.49316,-8.86841 -0.83457,-11.39286 -2.16449,-4.11528 -2.38425,-4.03553 -2.12549,0.7715 0.15871,2.94874 -0.53583,8.07553 -1.54349,11.39286 -1.04452,3.43871 -0.80981,6.03151 0.54597,6.03151 1.30794,0 3.08886,-3.06135 3.95758,-6.80301 z m 10.05971,278.89123 c -1.7e-4,-119.42394 0.30425,-168.67076 0.67651,-109.43734 0.37227,59.23339 0.37242,156.94389 3.5e-4,217.13445 -0.37209,60.19052 -0.67668,11.72684 -0.67686,-107.69711 z m 148.84524,-88.81273 c -24.2858,-5.5046 -63.39477,-26.72169 -84.12266,-45.63756 -15.54616,-14.18708 -38.39953,-44.95409 -35.62179,-47.95685 0.61728,-0.66727 4.68776,4.73493 9.04553,12.00486 8.40874,14.02812 26.73626,33.10115 44.50932,46.31989 24.23692,18.02626 55.23474,29.82128 95.94715,36.50896 l 14.87877,2.44411 -13.63888,0.12545 c -7.50138,0.0692 -21.45022,-1.64499 -30.99744,-3.80894 z m 35.98942,-10.65942 c -5.44561,-5.3183 -23.52951,-31.55537 -40.18649,-58.30462 -17.52598,-28.14473 -36.83424,-55.65207 -45.82947,-65.29051 -16.40853,-17.58183 -38.21042,-32.86962 -46.93538,-32.91176 -9.74572,-0.0469 -20.9357,5.88523 -24.50737,12.99236 -2.19856,4.37488 -3.5998,5.4709 -3.66107,2.86363 -0.13986,-5.9489 9.42389,-14.65486 20.19012,-18.37925 8.00751,-2.77008 10.44713,-2.43432 19.83836,2.73034 15.69232,8.62994 37.20801,27.22944 48.45656,41.88885 5.41578,7.058 20.2204,29.72094 32.89912,50.36211 21.76385,35.43187 41.19086,62.96339 49.59318,70.2824 2.0619,1.79605 2.91522,3.30393 1.89622,3.35084 -1.01897,0.0469 -6.30817,-4.26607 -11.75378,-9.58439 z m -47.40634,-17.87955 c -3.2679,-3.35711 -9.84732,-11.4247 -14.62093,-17.92801 -4.7736,-6.50329 -11.46905,-15.06503 -14.87877,-19.02605 -3.40972,-3.96101 -10.02549,-12.48008 -14.70174,-18.93123 -7.2836,-10.0482 -25.59389,-28.617 -43.57344,-44.18865 -3.63823,-3.15097 -2.97754,-3.03833 2.47979,0.42282 15.88212,10.07276 32.03221,27.2237 61.89371,65.72928 17.07215,22.01411 30.6584,40.02565 30.19165,40.02565 -0.46675,0 -3.52235,-2.74672 -6.79027,-6.10381 z M 206.41432,534.80682 c -20.02577,-3.86815 -55.93455,-15.8199 -69.37737,-23.09133 -14.31115,-7.74114 -19.24015,-12.32573 -36.88414,-34.30692 -16.572864,-20.64675 -9.127702,-15.96737 9.61866,6.04545 7.93669,9.31962 19.53726,19.70712 25.77905,23.08332 40.91724,22.13233 108.18077,32.76103 138.32976,21.85828 19.36443,-7.00275 37.29127,-24.61664 56.12875,-55.1489 10.91814,-17.69641 11.93803,-14.90352 1.64341,4.50036 -10.90051,20.54596 -32.08216,42.69324 -48.83819,51.06469 -12.17319,6.08183 -18.24715,7.28931 -39.203,7.79344 -13.63887,0.32811 -30.37749,-0.48116 -37.19693,-1.79839 z m 42.15652,-26.74715 c 2.4686,-2.94874 5.04632,-5.36135 5.72827,-5.36135 0.68194,0 -0.77987,2.41261 -3.24847,5.36135 -2.46861,2.94874 -5.04633,5.36134 -5.72827,5.36134 -0.68194,0 0.77987,-2.4126 3.24847,-5.36134 z m 8.67928,-11.5615 c 0,-0.46134 3.6267,-4.38183 8.05934,-8.71219 l 8.05933,-7.87337 -7.28338,8.71218 c -6.78914,8.12099 -8.83529,9.94436 -8.83529,7.87338 z M 127.06088,482.13062 c 1.36388,-1.46887 8.61728,-8.56498 16.11867,-15.76913 10.89596,-10.46425 11.89338,-11.04574 4.95959,-2.89137 -4.77361,5.61391 -12.02701,12.71003 -16.11867,15.76913 -4.09166,3.05913 -6.32348,4.36025 -4.95959,2.89137 z m 65.71457,1.28426 c 0,-0.5331 6.97442,-7.49698 15.49872,-15.47531 8.52429,-7.97832 12.70895,-11.14237 9.29923,-7.03124 -6.17871,7.44975 -24.79795,24.34852 -24.79795,22.50655 z m 79.35344,-5.85472 c 0,-0.55664 1.95284,-2.66767 4.33965,-4.69118 3.93309,-3.33441 4.0208,-3.23959 0.93626,1.01212 -3.23953,4.46533 -5.27591,5.88536 -5.27591,3.67906 z M 161.04782,426.21432 c -9.94881,-9.53673 -17.20221,-17.30711 -16.11867,-17.26752 2.14473,0.0783 37.47694,34.55242 35.44732,34.58633 -0.68194,0.0107 -9.37983,-7.78205 -19.32865,-17.31881 z m 138.86426,3.92622 c -3.08722,-5.79869 -5.11286,-10.54305 -4.50143,-10.54305 1.70892,0 12.12877,18.90871 11.05782,20.06641 -0.5188,0.56082 -3.46918,-3.72469 -6.55639,-9.52336 z m -57.85704,-1.83087 c -3.08454,-4.25171 -2.99683,-4.34652 0.93626,-1.01211 2.3868,2.0235 4.33964,4.13453 4.33964,4.69117 0,2.2063 -2.03637,0.78627 -5.2759,-3.67906 z M 105.98262,413.30396 c 20.51895,-23.53512 61.13604,-48.71633 88.77473,-55.03728 51.45272,-11.76718 114.95253,12.17106 135.39359,51.04089 3.3639,6.39656 0.64862,4.16643 -9.51832,-7.81781 -29.51766,-34.79376 -81.92232,-51.0679 -127.24607,-39.51598 -26.5431,6.76519 -61.10114,27.64229 -86.16403,52.05316 l -12.398981,12.07643 z m 128.63304,4.28302 c -3.08455,-4.25171 -2.99684,-4.34652 0.93626,-1.01211 2.3868,2.0235 4.33964,4.13453 4.33964,4.69117 0,2.2063 -2.03638,0.78627 -5.2759,-3.67906 z m 50.99652,-10.51132 c -3.81905,-5.41262 -5.67732,-8.99504 -4.12948,-7.96095 3.17468,2.121 13.91025,17.8021 12.18764,17.8021 -0.61294,0 -4.23911,-4.42852 -8.05816,-9.84115 z m 201.019,5.0164 c -4.09166,-2.82709 -13.69385,-12.5701 -21.33822,-21.65112 l -13.89883,-16.51096 10.7665,-17.72015 c 6.38503,-10.50888 10.42231,-20.0348 9.92075,-23.40785 -0.46516,-3.12823 -0.36867,-4.17981 0.2145,-2.33684 1.7733,5.60477 3.88626,3.93923 18.05509,-14.2319 13.52406,-17.34424 72.76002,-79.41642 82.80477,-86.76947 2.87538,-2.10485 -14.11799,16.50893 -37.76304,41.36397 l -42.99096,45.19097 5.79404,4.87207 c 3.18673,2.67964 14.99609,8.69908 26.24302,13.37654 11.24692,4.67745 20.0373,8.94945 19.53417,9.49333 -1.43211,1.54812 -32.29921,-11.54797 -43.51192,-18.46095 l -10.10088,-6.22742 -6.19455,8.04202 c -3.40699,4.42311 -8.62349,12.14055 -11.5922,17.14987 l -5.39765,9.10787 8.66093,8.31649 c 4.76352,4.57409 10.81484,9.84156 13.44741,11.70548 2.67151,1.89151 1.49929,1.70791 -2.65293,-0.41548 -4.09166,-2.09242 -10.1447,-6.93479 -13.45118,-10.7608 -3.30651,-3.82599 -6.67943,-6.95638 -7.49543,-6.95638 -0.816,0 -3.55603,4.15998 -6.08899,9.24438 l -4.60535,9.24438 14.02146,17.26436 c 17.49123,21.53663 23.58364,24.42023 47.46886,22.46746 58.44914,-4.77856 92.55701,-58.87321 107.81621,-170.99508 2.69489,-19.80154 4.90493,-39.92328 4.91121,-44.71498 0.0124,-8.63795 -0.0915,-8.71219 -12.06272,-8.71219 -17.79347,0 -52.53905,7.13545 -70.67126,14.51325 -51.57907,20.98697 -91.67557,71.45045 -98.16162,123.54137 l -2.33647,18.7647 0.71329,-20.37918 c 1.04357,-29.81592 13.15279,-55.39502 39.86286,-84.20505 32.52569,-35.08285 67.32877,-51.12157 118.04727,-54.40115 16.2842,-1.05297 31.55418,-1.08116 33.9333,-0.0626 3.8195,1.63519 3.84636,1.87392 0.22938,2.04028 -3.16918,0.14578 -4.46413,3.98003 -5.72213,16.94262 -10.92801,112.6041 -38.40317,180.67446 -81.93414,202.99371 -17.46463,8.95446 -53.60397,10.79549 -64.47468,3.28446 z m 11.15908,-32.70466 c -2.04584,-1.42922 -2.60379,-2.59856 -1.2399,-2.59856 1.36389,0 4.15366,1.16934 6.19949,2.59856 2.04583,1.42923 2.60378,2.59857 1.23989,2.59857 -1.36388,0 -4.15365,-1.16934 -6.19948,-2.59857 z m -75.97969,-26.80672 c 0,-14.00651 0.41795,-19.73645 0.92878,-12.73319 0.51084,7.00326 0.51084,18.46313 0,25.46638 -0.51083,7.00326 -0.92878,1.27332 -0.92878,-12.73319 z m -0.41053,-33.5084 c 0.0506,-4.42311 0.60631,-5.90803 1.23504,-3.29982 0.62873,2.6082 0.58739,6.22711 -0.092,8.04202 -0.67917,1.8149 -1.19358,-0.31909 -1.14304,-4.7422 z m 47.25803,-10.72269 c 0.0275,-5.89748 0.53536,-7.99444 1.1285,-4.65992 0.59315,3.33452 0.57063,8.15973 -0.0501,10.72269 -0.62062,2.56296 -1.10594,-0.16529 -1.07841,-6.06277 z M 421.6597,296.28657 c 0,-8.10904 0.46489,-11.42637 1.03306,-7.37185 0.56819,4.05452 0.56819,10.68918 0,14.7437 -0.56817,4.05451 -1.03306,0.73718 -1.03306,-7.37185 z m 122.62672,-4.21395 c -9.61472,-5.63859 -8.52576,-7.5845 1.23989,-2.21566 9.34764,5.13905 11.00199,6.47098 7.8527,6.32228 -1.25024,-0.059 -5.3419,-1.90701 -9.09259,-4.10662 z M 421.11239,275.95814 c 0.11903,-3.12283 0.70659,-3.75804 1.49819,-1.61958 0.71634,1.93511 0.62825,4.24719 -0.19566,5.13796 -0.82403,0.89076 -1.41011,-0.69251 -1.30244,-3.51838 z m 160.52594,-16.35152 c 1.79009,-0.77436 3.92891,-0.67913 4.75295,0.21164 0.82401,0.89077 -0.64063,1.52434 -3.25473,1.40795 -2.88884,-0.12862 -3.47643,-0.76384 -1.49822,-1.61959 z m 14.7527,-40.27481 c 3.08464,-0.6412 7.54827,-0.61685 9.91918,0.0541 2.37091,0.67095 -0.153,1.19557 -5.60845,1.16581 -5.45555,-0.0297 -7.39537,-0.57871 -4.31073,-1.21991 z m -26.68671,-3.3072 c 0,-1.38736 1.10313,-3.25947 2.4514,-4.16024 1.40569,-0.93914 1.82141,0.13688 0.97458,2.52247 -1.64854,4.64404 -3.42598,5.49373 -3.42598,1.63777 z M 421.71031,189.05968 c 0,-9.5834 0.45009,-13.50388 1.00018,-8.71218 0.55007,4.7917 0.55007,12.63266 0,17.42437 -0.55009,4.7917 -1.00018,0.87121 -1.00018,-8.71219 z"
       id="path3047"
       inkscape:connector-curvature="0"
       sodipodi:nodetypes="ccssssssssssssscsscsssssssssscssscssscsscccsssssssssssscscssssscsccssssssccssssscssssscssssscsscsscscssssssscsssssscsscsssassssssscscscscsssssssscsssssccccssscscsssssssssssssssssssssssssssssssssscssssssssssssssssccssssssssssssssscssssssssscscsscssscsssscsscsssssscssscssscsssssssccssssssssscscccscccsssssscscscccscsssscsssssssss" />
    <path
       style="fill:#002600;fill-opacity:1"
       d=""
       id="path3051"
       inkscape:connector-curvature="0" />
    <path
       style="fill:#002600;fill-opacity:1"
       d="m 439.47079,544.83475 c -0.11532,-3.87805 0.60767,-12.08808 1.60665,-18.24451 2.83107,-17.44714 2.5587,-38.94686 -0.65267,-51.51868 -1.96913,-7.70869 -3.40571,-24.98081 -4.50028,-54.10694 -1.03199,-27.46094 -2.33612,-43.66116 -3.64138,-45.2339 -1.39382,-1.67945 -1.45209,-2.80967 -0.18522,-3.59264 1.01659,-0.62829 1.99132,-6.44988 2.16608,-12.93688 0.27459,-10.19322 0.40836,-10.63342 0.98527,-3.24229 0.65106,8.34104 0.75204,8.47577 4.08915,5.45573 1.88188,-1.70307 3.4216,-2.22714 3.4216,-1.16458 0,1.06256 -0.70178,2.36565 -1.55952,2.89576 -0.85773,0.5301 -1.94177,3.55156 -2.40898,6.71434 -1.08095,7.3175 1.64355,89.88407 3.2631,98.889 1.43106,7.95687 4.7704,9.87312 9.59561,5.50636 4.58821,-4.15227 5.22399,-2.9988 2.46718,4.47608 -1.25148,3.39329 -2.33577,5.17808 -2.40953,3.96619 -0.24686,-4.05598 -5.34106,-2.25974 -6.48185,2.28552 -1.49963,5.97501 0.68448,7.82228 4.06804,3.44064 2.64003,-3.41878 2.68767,-3.3927 1.61463,0.88415 -2.9306,11.68049 -8.26999,39.52362 -9.66674,50.40878 -1.14982,8.9607 -1.61675,10.30996 -1.77114,5.11787 z"
       id="path3821"
       inkscape:connector-curvature="0" />
    <path
       style="fill:#002600;fill-opacity:1"
       d="m 431.53028,304.21927 c -1.12015,-26.83941 -0.9393,-39.66261 0.70296,-49.84243 1.21611,-7.53833 2.34482,-13.48761 2.50823,-13.22063 0.16342,0.26698 -0.15291,22.69607 -0.70295,49.84243 l -1.00007,49.35702 -1.50817,-36.13639 z"
       id="path3823"
       inkscape:connector-curvature="0" />
    <path
       style="fill:#002600;fill-opacity:1"
       d="m 395.16572,257.50638 c -1.22411,-1.47496 -1.41499,-2.64413 -0.43168,-2.64413 0.96951,0 2.75024,1.18986 3.95718,2.64413 1.22411,1.47496 1.41499,2.64413 0.43168,2.64413 -0.96951,0 -2.75025,-1.18986 -3.95718,-2.64413 z"
       id="path3825"
       inkscape:connector-curvature="0" />
    <path
       style="fill:#002600;fill-opacity:1"
       d="m 392.56033,171.45379 c -1.84102,-4.24807 1.72046,-8.08185 4.72069,-5.08162 1.49227,1.49227 1.53034,2.1153 0.12925,2.1153 -1.09233,0 -2.31807,1.38816 -2.72388,3.08481 -0.69093,2.88875 -0.82606,2.88122 -2.12606,-0.11849 z"
       id="path3827"
       inkscape:connector-curvature="0" />
    <path
       style="fill:#002600;fill-opacity:1"
       d="m 438.09743,565.98776 c -0.005,-8.72562 0.29271,-12.51743 0.6624,-8.42626 0.36969,4.09118 0.37409,11.23032 0.01,15.86476 -0.36432,4.63444 -0.66679,1.28711 -0.67217,-7.4385 z"
       id="path3835"
       inkscape:connector-curvature="0" />
    <path
       style="fill:#667e00;fill-opacity:1"
       d="m 415.57726,918.98076 -8.67384,-10.72482 -1.44059,-18.45826 c -1.64866,-21.12428 -4.96337,-35.95499 -12.38369,-55.40712 -5.40803,-14.17699 -5.33261,-17.21082 0.42786,-17.21082 1.88181,0 5.00794,-1.58648 6.94697,-3.52551 3.08963,-3.08962 3.52432,-5.86828 3.51595,-22.47507 -0.0108,-21.40737 -5.44143,-61.97022 -10.45212,-78.0696 l -3.3371,-10.72214 4.85575,1.0665 c 6.13838,1.34822 8.09864,-0.96469 11.32906,-13.3671 6.15336,-23.62435 5.05231,-65.98117 -2.41569,-92.93035 -4.41916,-15.94708 -4.37867,-17.57697 0.45383,-18.26617 7.47259,-1.06571 8.99277,-8.30781 9.82445,-46.80332 0.50638,-23.43889 1.44992,-36.19884 2.75262,-37.22521 1.09017,-0.85892 6.1373,-2.91715 11.21584,-4.57383 5.07854,-1.65668 9.68647,-3.74474 10.23985,-4.64012 1.6404,-2.65423 -9.13969,-1.855 -16.90886,1.25361 -4.46478,1.78645 -7.82783,2.25552 -8.8491,1.23425 -1.97247,-1.97248 -8.60669,-31.15136 -8.66083,-38.09241 -0.0279,-3.5823 1.11277,-5.32878 4.26269,-6.52637 5.02637,-1.91103 7.94948,-10.45806 8.15248,-23.83745 0.0735,-4.84757 0.74032,-10.36454 1.48172,-12.25993 1.20328,-3.07622 3.07508,26.43191 4.01021,63.21928 0.17476,6.87482 0.80459,-8.12451 1.39963,-33.33185 0.9513,-40.29908 1.49279,-46.67928 4.48582,-52.85452 l 3.40393,-7.023 1.14976,7.023 c 0.63237,3.86265 1.68135,23.681 2.33107,44.04077 0.79181,24.81242 2.08194,40.20726 3.91286,46.69124 3.54129,12.54102 3.50049,26.57925 -0.17169,59.0738 -2.03149,17.97632 -2.80525,36.34177 -2.41692,57.36668 l 0.57118,30.92544 5.7884,7.30246 5.7884,7.30245 -3.57804,11.12913 c -5.52323,17.17951 -8.8593,43.93709 -8.85991,71.06267 -6.7e-4,29.5926 1.75163,37.89914 7.99501,37.89914 5.04898,0 5.21441,1.39169 1.57158,13.22063 -4.99549,16.22124 -11.44357,59.68868 -12.42084,83.73066 -1.10233,27.11862 0.84113,33.93722 11.05336,38.78052 l 5.5752,2.64412 -3.25735,6.16963 c -1.79154,3.3933 -4.15595,9.83231 -5.25425,14.3089 -1.31047,5.34142 -3.31911,8.78751 -5.84336,10.02503 -9.16594,4.49365 -10.57423,3.97953 -19.5713,-7.14494 l 0,0 z m 7.35128,-274.86075 c -0.26583,-37.15567 -0.48345,-7.26967 -0.4836,66.41331 -1.5e-4,73.68298 0.21735,104.08306 0.48333,67.55574 0.26598,-36.52731 0.2661,-96.81339 2.7e-4,-133.96905 z"
       id="path3837"
       inkscape:connector-curvature="0" />
    <path
       style="fill:#3fad00;fill-opacity:1"
       d="m 416.31873,384.45976 c 0,-1.43483 -1.64048,-17.10128 -3.64551,-34.81433 -4.29383,-37.93293 -8.70069,-61.99201 -13.80959,-75.39292 -4.57191,-11.99233 -4.57239,-11.96986 0.26828,-12.65734 5.77451,-0.82011 5.83448,-7.89844 0.42539,-50.20539 -3.02612,-23.66856 -4.04157,-36.90642 -2.91728,-38.03071 2.22512,-2.22512 3.77588,0.74587 13.80743,26.45273 7.2082,18.47172 8.30472,23.21468 10.28185,44.47395 1.92413,20.68936 2.25812,22.1857 2.55745,11.45788 0.61892,-22.18122 2.06896,-27.78061 7.57467,-29.24973 5.7994,-1.5475 6.03447,-0.0374 2.22081,14.26635 -4.41984,16.57731 -4.9607,33.33981 -2.63825,81.7648 l 2.24502,46.81054 -6.42239,7.10882 c -3.53231,3.90983 -6.42238,7.89976 -6.42238,8.86647 0,0.96673 -0.79324,1.75768 -1.76275,1.75768 -0.96952,0 -1.76275,-1.17396 -1.76275,-2.6088 z m 6.58987,-40.07882 c -0.3572,-5.12244 -0.65322,-1.38115 -0.65781,8.31398 -0.005,9.69513 0.28767,13.88621 0.64947,9.31353 0.36179,-4.57268 0.36555,-12.50506 0.008,-17.62751 l 6e-5,0 z m 0.40753,-25.61897 c -0.0437,-5.39395 -0.38789,-6.03613 -1.87025,-3.48993 -0.99916,1.71621 -1.3182,4.69085 -0.70899,6.61031 1.69202,5.33108 2.63848,4.18604 2.57924,-3.12038 z M 422.8845,291.4709 c -0.39232,-3.16828 -0.72141,-1.00108 -0.7313,4.816 -0.01,5.81707 0.3111,8.4093 0.71331,5.76051 0.40221,-2.6488 0.41031,-7.40823 0.018,-10.57651 l 10e-6,0 z m 0.48523,-15.45564 c 0,-1.93902 -0.79324,-3.5255 -1.76275,-3.5255 -0.96951,0 -1.76275,1.58648 -1.76275,3.5255 0,1.93903 0.79324,3.5255 1.76275,3.5255 0.96951,0 1.76275,-1.58647 1.76275,-3.5255 z"
       id="path3839"
       inkscape:connector-curvature="0" />
    <path
       style="fill:#3fad00;fill-opacity:1"
       d="m 416.66719,918.24929 c -8.57049,-9.77074 -8.78221,-10.28789 -9.92309,-24.23783 -1.74796,-21.37291 -4.17712,-33.42152 -11.00644,-54.59177 -6.24325,-19.3535 -6.18385,-22.11982 0.47692,-22.21297 1.06163,-0.0141 3.35452,-1.6008 5.09533,-3.52437 2.86509,-3.1659 3.07032,-6.21512 2.16517,-32.1702 -0.96658,-27.71654 -3.40694,-46.15606 -8.88454,-67.13207 -2.60804,-9.98729 -2.60411,-10.01639 1.35069,-10.01639 10.30018,0 14.23875,-15.24161 14.12083,-54.64527 -0.0702,-23.46119 -0.86033,-32.61384 -4.08605,-47.3327 -4.06786,-18.56142 -4.00626,-23.17733 0.30932,-23.17733 4.85589,0 6.87134,-9.92102 8.41538,-41.42464 2.15015,-43.87046 1.58198,-41.7931 12.6899,-46.39708 5.09734,-2.11273 9.76149,-3.84132 10.36478,-3.84132 2.78099,0 2.93935,10.38108 0.57953,37.98956 -1.40451,16.43199 -2.56992,45.19268 -2.5898,63.91266 l -0.0361,34.03632 5.50698,6.85269 5.50698,6.8527 -3.64891,13.75626 c -5.48462,20.6768 -7.36505,38.37734 -7.36505,69.32752 0,29.37883 1.31613,35.98419 7.49164,37.59914 2.62506,0.68647 3.30936,1.97417 2.65543,4.99696 -9.313,43.04919 -13.67257,75.13511 -13.67257,100.6286 0,18.57267 2.7015,26.277 10.41047,29.68932 3.81601,1.68912 5.14311,3.24023 4.34439,5.07769 -0.63251,1.4551 -2.9132,7.34991 -5.06821,13.09962 -3.80415,10.14967 -9.43737,16.86864 -14.14278,16.86864 -1.26655,0 -6.24362,-4.49269 -11.06016,-9.98374 l 0,0 z m 6.25917,-238.12342 c -0.2886,-17.20886 -0.52473,-3.12889 -0.52473,31.28882 0,34.41771 0.23613,48.49768 0.52473,31.28883 0.28859,-17.20886 0.28859,-45.3688 0,-62.57765 z"
       id="path3841"
       inkscape:connector-curvature="0" />
    <path
       style="fill:#3fad00;fill-opacity:1"
       d="m 411.10604,481.11518 c -1.0738,-3.73475 -2.89175,-13.00868 -4.03989,-20.60873 -1.89346,-12.53376 -1.80623,-13.97569 0.93844,-15.51168 4.43833,-2.48382 8.31414,-11.00579 8.31414,-18.28081 0,-3.79193 0.71197,-5.92118 1.76275,-5.27176 0.98728,0.61017 1.84005,9.76765 1.93846,20.81635 0.31682,35.5695 2.65039,29.41299 4.54948,-12.0026 1.77122,-38.6272 2.77578,-46.71289 5.80356,-46.71289 0.7358,0 1.87647,12.49349 2.53483,27.76332 1.21478,28.17552 3.99019,61.72124 5.6682,68.51036 0.8194,3.3152 -0.0226,3.84527 -7.58296,4.77403 -4.67758,0.57462 -10.62643,1.55554 -13.21966,2.17982 -4.29209,1.03325 -4.89008,0.52602 -6.66735,-5.65541 l 0,0 z"
       id="path3843"
       inkscape:connector-curvature="0" />
    <g
       id="layer1-5"
       transform="matrix(0.01838142,0.29731876,-0.29731876,0.01838142,393.92796,666.4219)"
       style="fill:#ff6600">
      <rect
         x="-209.07001"
         y="-131.61"
         width="1151.6"
         height="1053.2"
         id="rect4076"
         style="fill-opacity:0;fill:#ff6600" />
      <path
         d="m 116.06,72.462 c -14.97,83.108 -79.747,259.6 -79.747,259.6 28.134,-30.692 58.189,-45.164 78.344,-51.906 12.442,135.14 157.72,448.72 428.25,462.59 -97.365,-82.899 20.469,-90.338 164.94,-88.438 -240.44,-13.546 -508.43,-138.14 -548.81,-377.5 19.687,3.3356 52.09,11.482 91.5,31.625 0,0 -120.53,-156.99 -134.47,-235.97 z"
         id="path3933"
         inkscape:connector-curvature="0"
         style="fill:#ff6600" />
    </g>
  </g>
</svg>
