<?xml version="1.0" encoding="UTF-8" standalone="no"?>
<!-- Created with Inkscape (http://www.inkscape.org/) -->

<svg
   xmlns:dc="http://purl.org/dc/elements/1.1/"
   xmlns:cc="http://creativecommons.org/ns#"
   xmlns:rdf="http://www.w3.org/1999/02/22-rdf-syntax-ns#"
   xmlns:svg="http://www.w3.org/2000/svg"
   xmlns="http://www.w3.org/2000/svg"
   xmlns:sodipodi="http://sodipodi.sourceforge.net/DTD/sodipodi-0.dtd"
   xmlns:inkscape="http://www.inkscape.org/namespaces/inkscape"
   width="744.09448819"
   height="1052.3622047"
   id="svg2"
   version="1.1"
   inkscape:version="0.48.3.1 r9886"
   sodipodi:docname="New document 1">
  <defs
     id="defs4" />
  <sodipodi:namedview
     id="base"
     pagecolor="#ffffff"
     bordercolor="#666666"
     borderopacity="1.0"
     inkscape:pageopacity="0.0"
     inkscape:pageshadow="2"
     inkscape:zoom="0.35"
     inkscape:cx="-127.85714"
     inkscape:cy="520"
     inkscape:document-units="px"
     inkscape:current-layer="layer1"
     showgrid="false"
     inkscape:window-width="1317"
     inkscape:window-height="744"
     inkscape:window-x="49"
     inkscape:window-y="24"
     inkscape:window-maximized="1" />
  <metadata
     id="metadata7">
    <rdf:RDF>
      <cc:Work
         rdf:about="">
        <dc:format>image/svg+xml</dc:format>
        <dc:type
           rdf:resource="http://purl.org/dc/dcmitype/StillImage" />
        <dc:title></dc:title>
      </cc:Work>
    </rdf:RDF>
  </metadata>
  <g
     inkscape:label="Layer 1"
     inkscape:groupmode="layer"
     id="layer1">
    <path
       style="fill:#000000"
       d="m 385.86479,771.25508 c -6.8489,-6.30507 -8.783,-14.53947 -5.2748,-22.45715 3.9884,-9.00138 20.9476,-8.42341 34.5129,1.1762 l 10.8784,7.69823 -2.159,-44.20505 c -1.1874,-24.31282 -2.9253,-50.94224 -3.8619,-59.17652 l -1.7029,-14.97143 -19.0998,1.26767 c -14.9802,0.99421 -19.5137,0.015 -21.0186,-4.53642 -5.3735,-16.25429 9.5987,-115.68231 27.8887,-185.20408 3.4418,-13.08291 6.2579,-25.63098 6.2579,-27.8846 0,-4.73693 -24.3047,33.3061 -39.0513,61.1251 -9.3251,17.59165 -9.6746,19.44014 -4.8462,25.63315 7.5576,9.69361 6.4064,20.56698 -3.5756,33.77145 -9.9258,13.13003 -19.944,14.84837 -27.8026,4.76872 -6.6831,-8.57191 -6.9803,-33.5003 -0.4986,-41.81401 4.3737,-5.60977 3.2007,-8.33209 -12.2225,-28.36614 -9.3832,-12.18847 -20.4684,-27.2137 -24.6338,-33.38942 l -7.5733,-11.22857 2.3435,11.22857 c 5.3321,25.54854 7.9679,53.14098 9.7356,101.91387 1.0275,28.3488 2.6212,62.31036 3.5416,75.47013 l 1.6734,23.92689 -18.3397,-2.50199 -18.33963,-2.50199 2.08029,23.10275 c 1.14416,12.70648 2.08029,37.23133 2.08029,54.49964 0,30.41225 0.20569,31.26917 6.55874,27.32252 3.60731,-2.24093 13.40171,-3.56339 21.76531,-2.93882 14.5268,1.08483 15.2513,1.67358 16.2087,13.17145 1.1968,14.37317 -4.5045,17.11938 -31.8071,15.32098 l -17.56239,-1.15685 -1.96337,-63.62857 c -1.07985,-34.99571 -2.16811,-63.89375 -2.41836,-64.21789 -0.25026,-0.32413 -8.43996,-1.16627 -18.19935,-1.87142 l -17.74434,-1.28212 -1.64268,13.1 c -0.90347,7.205 -4.55004,28.25857 -8.10348,46.78572 -3.55345,18.52714 -6.43745,34.94893 -6.4089,36.49285 0.0287,1.54393 6.6769,2.80715 14.7741,2.80715 18.51291,0 27.19618,5.27335 27.19618,16.51625 0,14.78545 -7.19638,18.60586 -25.46486,13.51879 -28.80912,-8.02225 -28.80792,-8.01873 -18.78961,-54.8869 4.77881,-22.35646 9.60068,-48.6485 10.71528,-58.42672 l 2.02654,-17.77857 -15.68245,-0.0573 c -24.5654,-0.0898 -25.65438,-2.23093 -16.37504,-32.19621 4.38753,-14.16844 10.99928,-38.20569 14.69278,-53.41614 l 6.71545,-27.65536 -7.34115,8.00536 c -15.07558,16.43957 -29.26509,6.58986 -22.12745,-15.35986 2.62429,-8.0702 2.62927,-12.8141 0.0187,-17.66655 -5.44992,-10.12962 -0.91238,-18.21212 10.96788,-19.53651 l 10.66434,-1.1889 -13.56544,-10.23822 c -18.28091,-13.79712 -21.65151,-21.78168 -15.91839,-37.70881 3.23178,-8.97816 8.76111,-14.87411 19.38584,-20.67119 8.17544,-4.4607 16.33127,-8.11036 18.12407,-8.11036 6.07444,0 3.30124,-6.26214 -4.63105,-10.45735 -11.63838,-6.15527 -18.08812,-20.04474 -20.16747,-43.43047 -1.42164,-15.98882 -3.52002,-22.05372 -9.09812,-26.29619 -6.66459,-5.06882 -8.46126,-4.62285 -22.24062,5.52058 -8.24468,6.06917 -15.66545,11.03486 -16.4906,11.03486 -2.21878,0 -1.82068,-34.6332 0.5567,-48.43106 2.00867,-11.65787 2.36832,-11.87795 15.31633,-9.37212 7.29265,1.41135 20.19062,6.62427 28.66216,11.58427 l 15.40281,9.01817 11.04125,-9.77542 c 15.85461,-14.03695 47.26059,-19.83831 66.85677,-12.34988 16.23534,6.20412 22.49884,3.66761 26.42804,-10.70251 2.1352,-7.80884 19.2709,-27.32778 23.9219,-27.24894 1.194,0.0203 4.5308,8.0206 7.4152,17.77858 2.8844,9.75797 6.3044,20.68926 7.6001,24.29177 2.0347,5.65729 0.4311,6.55 -11.7661,6.55 -12.7823,0 -14.6881,1.22016 -20.0893,12.86197 -4.2292,9.11573 -5.3566,16.64036 -3.8707,25.83436 3.2137,19.88463 -2.6683,42.93631 -14.6032,57.22946 l -10.58729,12.67938 8.42949,19.95036 c 9.1123,21.56665 48.4017,77.76705 56.909,81.40406 3.888,1.66215 10.5738,-6.92813 26.2211,-33.68996 11.5513,-19.75653 26.081,-43.32534 32.2881,-52.37513 8.8596,-12.91694 10.246,-16.87076 6.449,-18.39202 -14.119,-5.65682 -32.2449,-39.35603 -32.2449,-59.94895 0,-9.33889 -1.0397,-10.59906 -7.5523,-9.15396 -4.4802,0.99413 -9.8169,-0.95286 -13.1195,-4.78644 -5.2734,-6.12109 -5.513,-5.69358 -4.5396,8.09802 0.9471,13.41823 1.8545,14.65268 11.5685,15.73843 11.7909,1.31787 11.0969,8.17899 -0.8273,8.17899 -10.1152,0 -17.7751,-9.39059 -17.7731,-21.78878 0,-11.51577 11.4332,-48.48065 17.5687,-56.81122 2.2743,-3.08786 5.1144,-10.39113 6.3114,-16.22949 2.975,-14.50959 15.9464,-28.6848 26.2489,-28.6848 4.6779,0 12.1946,-3.36857 16.7038,-7.48572 8.5245,-7.78332 24.9753,-9.80539 32.8279,-4.03508 2.7291,2.0055 7.4569,1.79319 11.854,-0.53234 10.7971,-5.71032 21.4101,-1.11804 36.3749,15.73939 7.3374,8.26542 14.7528,15.02804 16.4787,15.02804 3.7827,0 12.977,19.75713 12.977,27.88555 0,3.19009 2.8652,9.12589 6.367,13.19067 9.5016,11.02903 11.6718,25.91853 5.5751,38.24914 l -5.1931,10.50321 12.4842,0 c 6.8664,0 14.8332,1.04625 17.704,2.32499 7.0281,3.13047 14.6547,21.01438 14.6547,34.36421 0,15.64181 -12.7757,36.03394 -23.4817,37.48084 -7.8912,1.06647 -8.7632,2.66247 -8.7632,16.03883 0,13.69468 0.5035,14.54171 6.449,10.84828 8.4693,-5.26132 19.3469,1.26421 19.3469,11.60632 0,17.76533 -15.821,39.68668 -31.0334,42.99933 -5.8604,1.27614 -12.3356,4.6705 -14.3894,7.54302 -5.2092,7.28579 -20.2795,6.52142 -26.4082,-1.33942 -2.8139,-3.6092 -8.8287,-15.82027 -13.3662,-27.13572 -4.5375,-11.31544 -8.2583,-17.20496 -8.2685,-13.08782 -0.026,9.85835 7.7588,65.19526 15.9635,113.49656 8.9155,52.48636 8.9379,52.26332 -5.5284,55.05404 -6.6505,1.28293 -13.7586,2.92523 -15.7957,3.64947 -2.4551,0.87283 2.0321,22.54383 13.3082,64.27268 11.2691,41.70265 15.9811,64.45541 13.9579,67.39782 -3.7596,5.46764 -34.8784,10.33915 -44.1727,6.91504 -4.3297,-1.59506 -6.7977,-5.64367 -6.7977,-11.15095 0,-13.56078 7.5827,-18.17714 26.8163,-16.32574 l 17.133,1.64921 -14.3052,-52.65051 c -7.8678,-28.95773 -15.4147,-54.05883 -16.7709,-55.78017 -1.3561,-1.72134 -10.6288,-1.9458 -20.606,-0.49885 l -18.1404,2.63085 1.9997,36.056 c 1.0998,19.83078 3.0173,49.27288 4.2611,65.42686 2.1996,28.5683 2.0522,29.46321 -5.3955,32.75 -11.0889,4.89375 -34.1927,4.14522 -40.1069,-1.29944 z m 32.8699,-10.2466 c -14.9154,-13.45703 -25.5572,-16.89889 -31.3737,-10.14726 -8.8695,10.29529 0.016,17.60105 21.2889,17.50347 l 18.146,-0.0832 -8.0612,-7.27301 z M 252.0765,759.5469 c 2.94383,-8.90475 -4.9095,-13.55611 -22.88807,-13.55611 -19.99741,0 -21.73389,6.52171 -3.68094,13.82447 14.93434,6.04123 24.51511,5.94444 26.56901,-0.26836 z m 65.08679,-2.32754 c 0,-7.0387 -24.1502,-9.77301 -33.73398,-3.8194 -12.30496,7.64412 -7.09421,11.69119 13.58088,10.54801 15.3375,-0.84805 20.1531,-2.45584 20.1531,-6.72861 z m 178.5887,4.08784 c 6.9325,-5.09627 -6.0831,-11.57355 -23.2563,-11.57355 -13.3729,0 -21.3756,6.40122 -15.9198,12.73406 2.977,3.45559 34.153,2.53208 39.1761,-1.16051 z M 302.61759,625.28365 c -0.02,-6.69036 -0.9349,-18.48036 -2.0342,-26.20001 -1.9739,-13.86208 -2.1832,-14.03571 -16.91572,-14.03571 -8.2044,0 -27.90059,-4.14637 -43.76931,-9.21416 -15.86872,-5.06778 -29.05531,-8.85743 -29.30353,-8.42142 -1.6486,2.89575 -17.14437,60.55384 -16.48096,61.32386 0.45521,0.52841 20.34693,2.4613 44.20383,4.29534 70.91799,5.45195 64.34069,6.2445 64.29989,-7.7479 z m 149.9742,2.35418 c 23.0551,-3.34952 42.4918,-6.68695 43.1925,-7.41651 0.7008,-0.7296 -0.5927,-13.99492 -2.8745,-29.47852 l -4.1486,-28.15201 -19.4785,0 c -22.0266,0 -73.7828,7.07807 -78.9708,10.79987 -1.8805,1.349 -4.4353,15.47162 -5.6775,31.38359 l -2.2586,28.93082 14.1488,0.0112 c 7.7819,0.006 33.0121,-2.72899 56.0672,-6.07847 z m -153.1632,-55.6899 c 0,-4.43051 -4.5892,-5.62595 -21.76533,-5.66961 -11.97092,-0.0303 -31.04393,-2.5941 -42.38447,-5.69706 -11.34055,-3.10295 -21.34262,-4.80199 -22.22682,-3.77563 -0.88421,1.02635 0.4138,2.76396 2.88447,3.86134 35.4937,15.76508 83.49215,22.25034 83.49215,11.28096 z m 128.895,-12.95682 c 15.0279,-2.13732 34.4154,-3.88604 43.0833,-3.88604 l 15.7598,0 -2.143,-14.03571 c -3.6815,-24.11197 -4.9174,-26.27356 -18.6753,-32.66332 -19.482,-9.04831 -40.7061,-10.85267 -55.5346,-4.72128 -11.4417,4.73099 -13.1814,7.1724 -16.8664,23.66914 -6.0642,27.1483 -5.5827,39.95785 1.4097,37.50372 3.1036,-1.08926 17.9385,-3.72918 32.9665,-5.86651 z m 3.3091,-28.21461 c 0,-3.43095 1.5598,-5.63456 3.4663,-4.8969 1.9065,0.73765 3.4663,2.94126 3.4663,4.8969 0,1.95564 -1.5598,4.15925 -3.4663,4.8969 -1.9065,0.73766 -3.4663,-1.46595 -3.4663,-4.8969 z m -132.2041,19.11086 c 0,-24.93527 -7.3798,-86.38139 -13.75805,-114.55372 l -7.20282,-31.81429 -22.94949,0 -22.94949,0 -2.11904,37.42857 c -1.16547,20.58572 -4.82339,52.58715 -8.12871,71.11429 -3.30533,18.52715 -5.0833,34.84794 -3.95105,36.26842 3.54726,4.45032 33.31747,9.66243 57.68108,10.09869 22.61087,0.40488 23.37757,0.12475 23.37757,-8.54196 z m -32.24492,-30.65134 c 0,-6.60961 6.94155,-5.45854 8.93452,1.48155 0.702,2.44455 -1.02108,4.44464 -3.82908,4.44464 -2.80799,0 -5.10544,-2.66678 -5.10544,-5.92619 z m 0,-42.95184 c 0,-4.23864 1.45102,-6.66567 3.22449,-5.3934 1.77347,1.27227 3.22449,4.74024 3.22449,7.70661 0,2.96637 -1.45102,5.39339 -3.22449,5.39339 -1.77347,0 -3.22449,-3.46797 -3.22449,-7.7066 z m -4.69903,-40.69192 c -2.20256,-4.13672 2.88401,-8.60352 5.86152,-5.14734 3.0658,3.55865 2.49443,8.63158 -0.97219,8.63158 -1.66881,0 -3.86901,-1.56791 -4.88933,-3.48424 z m 94.98475,108.71471 c 0,-1.82182 -3.5519,-6.01381 -7.8931,-9.31555 -8.3786,-6.37242 -13.5182,-2.75813 -10.2285,7.19289 1.9167,5.79804 18.1216,7.69618 18.1216,2.12266 z m -150.30963,-20.8845 c 6.21253,-11.00576 6.77163,-25.79432 1.17697,-31.13202 -7.4281,-7.08695 -16.62231,-6.83897 -17.9142,0.48318 -0.97396,5.52028 0.1383,6.41122 5.52597,4.42635 8.86007,-3.26415 9.03842,5.67897 0.2964,14.86223 -3.54694,3.72596 -6.44898,9.88201 -6.44898,13.6801 0,10.12871 11.18004,8.63503 17.36384,-2.31984 z m 159.39113,-0.77875 c -1.3958,-13.68609 -16.3595,-19.87232 -25.3145,-10.46539 -6.8672,7.2138 -5.1802,15.89096 1.785,9.18111 3.3168,-3.19521 5.1552,-2.36519 7.8876,3.56111 1.9595,4.25006 6.5102,7.72738 10.1125,7.72738 5.2042,0 6.3401,-2.05525 5.5294,-10.00421 z m 112.2769,-21.82864 c -1.0242,-3.09808 -3.5635,-24.57272 -5.643,-47.72143 -2.0795,-23.14872 -4.6616,-43.14266 -5.738,-44.43098 -1.0763,-1.28832 -10.9547,-3.22647 -21.9519,-4.307 l -19.9948,-1.96459 -8.0336,28.63556 c -4.4185,15.74956 -10.2467,37.59991 -12.9516,48.55631 l -4.9181,19.92074 10.3751,-2.86507 c 15.2534,-4.21223 42.5386,-2.29442 54.6289,3.83974 13.8927,7.04856 16.466,7.10946 14.227,0.33671 z m 48.6657,-6.56977 c 2.873,-2.57721 3.04,-5.55636 0.6073,-10.83264 -1.8455,-4.00279 -2.9033,-11.82629 -2.3506,-17.38555 0.7957,-8.00337 2.6832,-10.09029 9.0661,-10.02383 7.8007,0.0812 8.0259,-0.61455 6.9687,-21.52143 -0.9426,-18.64178 -1.9718,-21.60536 -7.5031,-21.60536 -10.2128,0 -25.2615,-20.00638 -25.2615,-33.58368 0,-13.87026 7.4117,-31.88667 15.3163,-37.23077 5.0395,-3.40714 4.8671,-3.82724 -1.6122,-3.92888 -3.9903,-0.0626 -7.2551,-1.79811 -7.2551,-3.85668 0,-2.05857 3.3373,-3.74285 7.4163,-3.74285 15.4595,0 20.1684,-18.50229 8.7057,-34.20679 -5.9665,-8.1744 -6.7029,-8.34559 -9.8337,-2.28607 -3.7223,7.20429 -14.3833,8.79981 -17.6613,2.64318 -2.9134,-5.47173 4.5059,-14.80747 11.7678,-14.80747 8.9257,0 7.6246,-13.48879 -2.4265,-25.15571 l -8.4807,-9.84402 -4.6236,10.24309 c -5.7361,12.7077 -18.1732,12.39183 -19.7509,-0.50161 -0.7744,-6.32931 1.2239,-9.41593 8.0613,-12.45159 l 9.0909,-4.0362 -9.2529,-9.27526 c -12.2841,-12.31383 -26.2165,-11.05744 -26.2165,2.36416 0,12.62191 -3.8701,18.71428 -11.8881,18.71428 -5.9767,0 -6.4562,-1.55782 -4.6083,-14.97143 l 2.0624,-14.97143 -10.929,0 c -11.4036,0 -21.3174,8.52714 -15.0997,12.98768 5.0855,3.64825 4.0621,16.88676 -1.4967,19.36281 -7.0756,3.15164 -14.0972,-5.12148 -12.052,-14.19996 1.514,-6.72021 0.7038,-7.42173 -5.9757,-5.17419 -7.8545,2.64289 -22.2374,18.43015 -22.2374,24.40873 0,1.80506 2.768,4.30168 6.1511,5.54805 6.6647,2.45533 11.0934,11.81728 8.1793,17.29036 -2.4348,4.57299 -13.4522,4.33958 -15.9426,-0.33776 -3.3424,-6.27751 -6.8325,-4.23613 -11.027,6.44985 -3.1049,7.90989 -3.1305,10.52948 -0.1145,11.69642 2.1375,0.82706 6.602,4.6559 9.9211,8.50854 5.8966,6.84452 6.1862,6.63055 12.6577,-9.35007 3.6426,-8.99519 9.8145,-19.70975 13.7153,-23.81013 7.3897,-7.76785 34.5274,-19.69461 44.8124,-19.69461 14.7812,0 47.3208,33.90852 56.1935,58.55758 5.7943,16.09732 5.6547,43.87249 -0.2877,57.21103 -4.563,10.24238 -20.4898,28.10499 -27.4659,30.80419 -2.1128,0.81748 0.1525,13.53244 5.9693,33.50791 17.5665,60.32291 27.7655,73.6707 44.6906,58.48811 z m -303.4946,-49.06406 2.26482,-40.66274 -7.47344,2.7533 c -27.61176,10.17247 -41.18985,24.1704 -37.28788,38.44082 1.05311,3.85147 7.59584,10.70892 14.5394,15.23878 6.94356,4.52986 14.51744,13.19963 16.83084,19.26616 2.3134,6.06652 5.25362,9.81422 6.53381,8.32823 1.2802,-1.486 3.3468,-21.00005 4.59245,-43.36455 z m 332.0084,32.55124 c 9.4621,-11.85112 13.2571,-26.36717 8.3749,-32.03426 -3.9183,-4.5482 -13.4058,2.30307 -13.4928,9.7437 -0.026,2.32116 -1.3676,6.63841 -2.9787,9.59389 -2.3898,4.38385 -3.8395,4.49685 -7.8706,0.6135 -7.7484,-7.46439 -11.7935,-1.89189 -7.9402,10.93848 4.2413,14.12249 13.2031,14.55158 23.9074,1.14469 z m -2.1851,-83.20052 c 12.6889,-13.75871 13.5593,-28.93353 1.9533,-34.05548 -11.9077,-5.25513 -24.1837,1.23544 -24.1837,12.78647 0,5.07589 1.3201,10.1759 2.9335,11.33336 4.661,3.34374 13.189,-1.91679 13.189,-8.13571 0,-4.61752 -0.8993,-4.80581 -4.8367,-1.01269 -3.9375,3.79312 -4.8368,3.60483 -4.8368,-1.01269 0,-8.16558 8.4914,-10.76477 13.2814,-4.06538 5.6972,7.96832 -0.2277,17.84602 -11.6445,19.4135 -9.7843,1.34333 -14.4078,-4.04294 -14.4855,-16.87522 -0.073,-12.01545 8.5334,-19.91735 21.6924,-19.91735 22.7127,0 30.1156,20.10605 15.0533,40.88426 -4.5914,6.33366 -6.8732,11.51574 -5.0708,11.51574 6.3001,0 16.6431,-19.82732 16.6431,-31.9044 0,-19.24949 -9.0108,-29.03679 -27.14,-29.47886 -13.013,-0.31731 -16.5113,1.21534 -23.1171,10.12769 -9.8478,13.28642 -10.1689,30.98323 -0.7727,42.59291 9.392,11.60439 19.2515,10.91352 31.3418,-2.19615 z m -72.324,-3.73148 c 13.8751,-9.08668 22.3337,-28.10541 22.0545,-49.58879 -0.2983,-22.94193 -15.1686,-51.11217 -35.5903,-67.42139 -16.3036,-13.02046 -29.6168,-13.20449 -51.371,-0.7101 -21.3694,12.27332 -34.3804,59.74914 -23.2497,84.8352 16.3752,36.90581 58.1956,52.50609 88.1565,32.88508 z m -65.1819,-16.17785 c -8.4902,-4.75293 -10.0295,-12.64763 -1.6122,-8.26843 22.633,11.77505 59.4846,1.08231 70.4361,-20.43752 3.2581,-6.40211 7.0619,-11.6402 8.453,-11.6402 10.3334,0 -11.0486,28.957 -27.97,37.87898 -14.3796,7.58176 -38.0545,8.76639 -49.3069,2.46717 z m 2.4184,-60.93186 c 0,-3.08786 2.1765,-5.61429 4.8367,-5.61429 2.6602,0 4.8368,2.52643 4.8368,5.61429 0,3.08785 -2.1766,5.61428 -4.8368,5.61428 -2.6602,0 -4.8367,-2.52643 -4.8367,-5.61428 z m 37.1823,-6.71142 c -1.3803,-3.69129 -1.6048,-7.76165 -0.499,-9.04524 3.2744,-3.80084 5.914,1.53811 4.4069,8.91371 -1.3361,6.53856 -1.5099,6.54441 -3.9079,0.13152 z m -172.18757,80.98969 c 19.24867,-13.12018 26.43377,-41.2435 18.74627,-73.37526 -2.9693,-12.41093 -4.1084,-13.60709 -9.6689,-10.1528 -7.0221,4.36223 -28.65689,-0.72578 -40.50658,-9.52623 -6.12735,-4.55061 -7.24231,-4.1556 -10.94639,3.87817 -5.005,10.85534 -21.53737,20.51213 -35.11665,20.51213 -9.80009,0 -9.99227,0.34921 -9.99227,18.15577 0,30.27685 5.0774,41.29829 23.81542,51.69573 13.3705,7.41909 19.99536,8.82584 35.01337,7.43488 10.18746,-0.94356 23.08255,-4.82363 28.65573,-8.62239 z m -67.15165,-14.07414 c -4.97594,-4.97131 -7.95318,-10.31152 -6.61608,-11.86714 1.3371,-1.55563 5.69016,0.68519 9.67347,4.9796 12.30192,13.2627 37.94816,12.75401 55.53781,-1.10158 12.58802,-9.91572 21.06522,-9.14068 9.74032,0.89051 -20.94064,18.54842 -53.49063,21.92967 -68.33552,7.09861 z m 9.25722,-45.4304 c 1.45835,-8.12991 7.18101,-8.62737 8.48993,-0.73802 0.67973,4.09695 -0.90179,6.55 -4.22288,6.55 -3.09786,0 -4.87532,-2.42102 -4.26705,-5.81198 z m 30.60038,3.31674 c -3.71021,-4.30665 -2.3482,-8.73333 2.68707,-8.73333 2.66021,0 4.83674,2.52643 4.83674,5.61429 0,5.84475 -3.8136,7.4257 -7.52381,3.11904 z m -84.36031,-22.2345 c 11.25656,-7.24887 9.64882,-15.57436 -3.84767,-19.92467 -19.86982,-6.40463 -20.34984,-6.00745 -20.34984,16.83785 l 0,20.84058 8.88118,-6.80487 c 4.88465,-3.74267 11.777,-8.66967 15.31633,-10.94889 z m 21.05876,3.9854 c 2.93289,-4.10202 3.12848,-6.93259 0.67578,-9.77959 -4.61633,-5.35846 -10.46266,-0.72747 -10.46266,8.28768 0,8.74108 4.15136,9.37392 9.78688,1.49191 z m 183.68247,4.35978 c 0,-0.77723 -2.1765,-3.50989 -4.8367,-6.07258 -3.9613,-3.81611 -4.8367,-3.56034 -4.8367,1.41313 0,3.33992 2.1765,6.07258 4.8367,6.07258 2.6602,0 4.8367,-0.63591 4.8367,-1.41313 z M 234.55134,298.072 c 4.36338,-5.83235 6.16485,-10.84106 4.17596,-11.61061 -5.09636,-1.97188 -24.81138,9.65472 -31.70966,18.70023 -5.91925,7.76174 -5.8996,7.7772 6.96195,5.47566 8.37891,-1.49939 15.58661,-5.90188 20.57175,-12.56528 z m 58.37545,-1.10701 c 3.7779,-2.7728 2.2741,-4.72846 -7.1515,-9.29983 -6.56454,-3.18377 -17.23835,-5.78867 -23.71961,-5.78867 -10.12307,0 -11.21678,0.79347 -7.75928,5.62924 7.08837,9.914 30.27507,15.59162 38.63039,9.45926 z m 16.8739,-8.28897 c -4.9255,-5.71727 -8.5599,-1.49859 -5.828,6.76492 1.613,4.87912 3.0114,5.36258 5.88,2.03285 2.8685,-3.32973 2.8562,-5.42207 -0.052,-8.79777 z m 207.2809,0.68619 c 1.0961,-2.05858 0.5418,-3.74286 -1.2316,-3.74286 -1.7735,0 -4.1213,1.68428 -5.2173,3.74286 -1.0961,2.05857 -0.5419,3.74285 1.2316,3.74285 1.7735,0 4.1213,-1.68428 5.2173,-3.74285 z m -180.3845,-13.8844 c -1.0047,-3.03893 -2.7033,-9.57956 -3.7747,-14.53475 -1.0714,-4.95518 -2.7855,-9.00943 -3.809,-9.00943 -4.2765,0 -16.7869,16.7575 -16.7869,22.48577 0,8.95735 1.6964,9.9039 14.6123,8.15363 8.5866,-1.16358 11.1121,-2.99992 9.7583,-7.09522 z m 51.4049,-1.08703 c -1.096,-2.05858 -3.3582,-3.74286 -5.027,-3.74286 -1.6688,0 -3.0342,1.68428 -3.0342,3.74286 0,2.05857 2.2622,3.74285 5.027,3.74285 2.7649,0 4.1303,-1.68428 3.0342,-3.74285 z m 107.4159,-22.22322 c 0.8061,-2.80714 -0.4031,-4.21071 -2.8215,-3.275 -2.3276,0.90063 -4.8669,3.84813 -5.6428,6.55 -0.8061,2.80714 0.403,4.21072 2.8214,3.275 2.3277,-0.90062 4.867,-3.84812 5.6429,-6.55 z m -76.7832,-9.81196 c 0,-3.20935 -1.451,-4.79423 -3.2245,-3.52197 -1.7735,1.27227 -3.2245,3.8981 -3.2245,5.83518 0,1.93708 1.451,3.52197 3.2245,3.52197 1.7735,0 3.2245,-2.62583 3.2245,-5.83518 z m 38.6939,-3.52197 c 0,-3.08786 -1.451,-5.61428 -3.2245,-5.61428 -1.7735,0 -3.2245,2.52642 -3.2245,5.61428 0,3.08786 1.451,5.61429 3.2245,5.61429 1.7735,0 3.2245,-2.52643 3.2245,-5.61429 z"
       id="path3066"
       inkscape:connector-curvature="0" />
    <path
       style="fill:#ff6600;stroke:none"
       d="m 459,497.3269 c -8.48103,-2.76032 -20.43707,-3.79495 -35.1272,-3.03979 -15.23902,0.78338 -21.9288,0.1641 -21.18917,-1.96148 0.59448,-1.70847 6.116,-22.20436 12.27005,-45.54642 l 11.18918,-42.44013 18.57143,1.87527 c 10.21428,1.0314 19.3958,2.77231 20.40337,3.86869 1.79872,1.95728 11.0252,73.79975 11.0252,85.84832 0,7.01696 0.10308,7.00857 -17.14286,1.39554 z"
       id="path3068"
       inkscape:connector-curvature="0" />
    <path
       style="fill:#ffaaaa"
       d="m 263.18331,633.47973 c -51.4283,-3.65005 -67.54304,-5.9639 -66.23383,-9.51028 0.67442,-1.82686 4.17785,-14.57155 7.78541,-28.32155 3.60755,-13.75 7.63582,-25 8.9517,-25 1.31588,0 12.37114,2.773 24.56724,6.16222 12.19611,3.38923 30.53188,7.5678 40.74617,9.28572 l 18.57143,3.12349 2.30314,21.16088 c 1.77395,16.29876 1.44571,21.70471 -1.42857,23.52768 -2.05244,1.30174 -4.37457,2.19582 -5.16029,1.98686 -0.78571,-0.20897 -14.33179,-1.29572 -30.1024,-2.41502 z"
       id="path3070"
       inkscape:connector-curvature="0" />
    <path
       style="fill:#f4d7d7"
       d="m 429.22392,392.21521 c -12.69879,-5.60262 -29.52308,-23.82686 -34.8335,-37.73201 -5.79853,-15.18321 -4.11946,-34.33942 4.83421,-55.15278 7.36993,-17.13189 18.49006,-27.34682 34.44791,-31.64383 10.10676,-2.72147 13.22466,-2.28311 24.86809,3.49629 24.8705,12.34486 45.70855,50.55047 42.60227,78.10933 -1.89022,16.76994 -10.63385,32.84952 -22.09967,40.6414 -10.88745,7.39883 -35.65024,8.5329 -49.81931,2.2816 z m 35.0848,-18.50326 c 13.36555,-6.8186 31.83414,-26.83428 31.83414,-34.50086 0,-8.7519 -4.2016,-6.84442 -12.48066,5.66608 -13.14094,19.8573 -37.65639,27.96356 -65.74353,21.7387 -8.92015,-1.97695 -10.82643,-1.68395 -9.77437,1.50234 3.84217,11.63648 37.70821,15.00939 56.16442,5.59374 l 0,0 z m -34.5936,-59.49112 c 1.68814,-5.07012 -7.91725,-8.09998 -10.81495,-3.4114 -1.30915,2.11824 -1.70237,4.94821 -0.87383,6.28882 2.11464,3.42156 10.25902,1.41666 11.68878,-2.87742 l 0,0 z m 32.14202,-10.88441 c 0,-4.29456 -1.64668,-6.97424 -4.28571,-6.97424 -4.48246,0 -5.48996,4.96588 -2.55776,12.60706 2.43217,6.33813 6.84347,2.70721 6.84347,-5.63282 z"
       id="path3072"
       inkscape:connector-curvature="0" />
    <path
       style="fill:#f4d7d7"
       d="m 422.8061,386.25918 c -5.86478,-3.98522 -10.66324,-7.56677 -10.66324,-7.959 0,-0.39222 10.69011,-0.6673 23.75581,-0.61128 21.23671,0.0911 25.02131,-0.73391 35.68989,-7.77968 14.9735,-9.88884 28.64284,-29.45849 23.89383,-34.2075 -2.47767,-2.47767 -5.82572,-0.3207 -13.59994,8.76174 -15.49528,18.10274 -24.27236,21.71124 -51.88245,21.3303 -16.09752,-0.22212 -23.58669,0.72238 -23.61956,2.97874 -0.0265,1.81718 -2.91933,-1.18285 -6.42857,-6.66674 -4.94608,-7.72924 -6.38044,-14.19768 -6.38044,-28.77345 0,-37.87061 26.47139,-69.51949 53.85058,-64.38312 21.77612,4.08522 47.53054,36.92163 52.09742,66.42324 2.59472,16.76158 -5.15339,38.44582 -17.66136,49.42796 -8.94969,7.85793 -11.78531,8.70465 -29.15139,8.70465 -15.88488,0 -21.0956,-1.26272 -29.90058,-7.24586 z m 5.99199,-73.7607 c 0.7269,-3.77453 -0.44557,-4.947 -4.2201,-4.2201 -2.87466,0.55361 -5.67961,3.35856 -6.23322,6.23322 -0.7269,3.77453 0.44557,4.947 4.2201,4.2201 2.87466,-0.55361 5.6796,-3.35856 6.23322,-6.23322 z m 33.33665,-4.68216 c 2.15951,-6.80401 -0.22553,-11.45414 -5.87479,-11.45414 -4.3344,0 -5.28812,5.05244 -2.38284,12.62347 2.37734,6.19525 6.08693,5.66995 8.25763,-1.16933 l 0,0 z"
       id="path3842"
       inkscape:connector-curvature="0" />
    <path
       style="fill:#f4be90;fill-opacity:1"
       d="m 392.14286,551.47906 c 0,-6.17242 2.00768,-17.98317 4.46151,-26.24612 3.74016,-12.5945 6.03506,-15.681 14.19394,-19.09 13.62163,-5.69148 29.88388,-5.06727 48.3919,1.85747 17.69745,6.62146 19.90079,9.42607 23.66184,30.11894 l 2.63308,14.48691 -35.95685,3.49655 c -19.77627,1.9231 -40.77828,4.19456 -46.67114,5.04769 l -10.71428,1.55115 0,-11.22259 z m 47.29671,-18.22297 c 2.94435,-4.76405 -3.67774,-10.22717 -7.61919,-6.28571 -3.29693,3.29692 -1.23349,9.3918 3.17962,9.3918 1.38595,0 3.38375,-1.39774 4.43957,-3.10609 z"
       id="path3844"
       inkscape:connector-curvature="0" />
    <path
       style="fill:#f4be90;fill-opacity:1"
       d="m 424.59746,388.01165 c -4.93569,-3.00961 -9.64556,-6.55867 -10.46638,-7.88678 -0.82082,-1.32812 9.03665,-2.39662 21.90549,-2.37444 21.68647,0.0374 24.27672,-0.60572 35.41296,-8.79217 12.51885,-9.20284 21.3136,-19.12965 24.36792,-27.50458 3.41527,-9.36463 -2.80365,-7.65242 -13.92458,3.83375 -16.53811,17.08128 -25.11751,20.6843 -49.75001,20.8931 -11.78572,0.0999 -22.79981,1.07602 -24.47576,2.16913 -6.22763,4.06187 -14.03105,-15.38365 -14.06411,-35.04663 -0.0636,-37.80834 26.43301,-69.49149 53.81902,-64.35384 21.66621,4.0646 47.53236,36.91734 52.04645,66.10446 2.65543,17.16943 -3.30724,35.1053 -15.83547,47.63352 -10.42202,10.42202 -11.53587,10.81748 -30.43971,10.80719 -14.28945,-0.008 -22.0606,-1.49775 -28.59582,-5.48271 z m 3.25968,-74.54574 c 0,-6.1243 -8.30191,-5.23972 -9.50605,1.01288 -0.73533,3.81828 0.42831,4.98192 4.24659,4.24659 2.8927,-0.55709 5.25946,-2.92385 5.25946,-5.25947 z m 34.377,-5.96276 c 2.3529,-7.41332 -2.88162,-13.7792 -7.51796,-9.14286 -3.37956,3.37956 -0.93951,15.14475 3.14096,15.14475 1.35964,0 3.32929,-2.70085 4.377,-6.00189 l 0,0 z"
       id="path3846"
       inkscape:connector-curvature="0" />
    <path
       style="fill:#f4be90;fill-opacity:1"
       d="m 227.85714,390.96206 c -21.71099,-10.02027 -30,-24.33242 -30,-51.79927 l 0,-16.82739 10.71429,-1.93989 c 15.1756,-2.74764 25.0377,-8.34077 32.03568,-18.16853 l 6.05762,-8.50713 11.74469,6.12168 c 7.02221,3.66018 17.33875,6.20189 25.65696,6.32116 13.40685,0.19225 14.01327,0.56278 16.69272,10.19949 10.32985,37.15159 -5.38552,70.05561 -36.66319,76.76347 -19.80536,4.24748 -22.72561,4.07313 -36.23877,-2.16359 z m 34.21958,-10.1513 c 13.9731,-4.20528 31.1113,-17.58885 28.31566,-22.11229 -0.85101,-1.37696 -8.54192,1.49836 -17.09091,6.3896 -19.01424,10.87884 -36.76366,11.93556 -49.39567,2.94078 -9.64681,-6.86914 -14.62009,-7.58672 -14.62009,-2.10949 0,8.14835 17.38972,18.48335 31.68877,18.83315 4.07168,0.0996 13.56769,-1.67418 21.10224,-3.94175 l 0,0 z m -27.59229,-52.52951 c 0.5934,-4.03278 -0.59776,-6.20478 -3.40281,-6.20478 -5.55599,0 -8.47775,4.78606 -6.3333,10.37441 2.32664,6.06313 8.62747,3.3647 9.73611,-4.16963 z m 29.78901,4.5095 c 1.93953,-5.27413 -0.62825,-10.71428 -5.0572,-10.71428 -5.81924,0 -8.01951,5.41734 -4.11237,10.12516 4.23581,5.10383 7.43375,5.30929 9.16957,0.58912 l 0,0 z"
       id="path3848"
       inkscape:connector-curvature="0" />
    <path
       style="fill:#f4be90;fill-opacity:1"
       d=""
       id="path3850"
       inkscape:connector-curvature="0" />
    <path
       style="fill:#f4bea8;fill-opacity:1"
       d=""
       id="path3854"
       inkscape:connector-curvature="0" />
    <path
       style="fill:#f4bea8;fill-opacity:1"
       d="m 400.58969,361.84365 c -6.04491,-11.295 -6.63253,-35.28545 -1.28102,-52.29929 6.65127,-21.14612 24.93035,-38.89646 40.05509,-38.89646 13.23433,0 23.96442,5.71448 35.58792,18.95291 13.15814,14.98629 29.39657,51.11034 20.50475,45.61489 -1.32039,-0.81605 -9.88736,4.84647 -19.0377,12.58338 -17.23096,14.56932 -17.70487,14.72455 -56.31159,18.44397 -14.50748,1.39768 -16.67663,0.90873 -19.51745,-4.3994 z m 27.26745,-48.37774 c 0,-6.1243 -8.30191,-5.23972 -9.50605,1.01288 -0.73533,3.81828 0.42831,4.98192 4.24659,4.24659 2.8927,-0.55709 5.25946,-2.92385 5.25946,-5.25947 z m 34.28572,-8.5323 c 0,-7.83094 -6.36214,-11.0733 -8.87561,-4.52331 -2.3648,6.16257 0.92552,13.84001 5.30568,12.37995 1.96346,-0.65448 3.56993,-4.18997 3.56993,-7.85664 z"
       id="path3856"
       inkscape:connector-curvature="0" />
    <path
       style="fill:#f4bea8;fill-opacity:1"
       d="m 232.14286,391.44352 c -6.37961,-2.39719 -20.50009,-12.67649 -19.19973,-13.97685 0.6211,-0.62109 5.33747,0.97006 10.48084,3.53591 17.87496,8.91721 61.1796,-2.60356 67.02282,-17.83074 2.87249,-7.48558 0.61843,-7.524 -15.80592,-0.26937 -23.23384,10.26237 -29.47738,11.15378 -43.09728,6.15309 -22.40257,-8.22533 -22.24817,-8.21923 -22.37227,-0.88375 l -0.11439,6.7618 -3.81788,-7.14286 c -2.09984,-3.92857 -4.72212,-15.82142 -5.82731,-26.42857 -1.82453,-17.51119 -1.52843,-19.28718 3.21799,-19.30165 12.23686,-0.0373 26.79092,-6.50822 36.02845,-16.01872 9.8887,-10.18092 9.92281,-10.1908 18.99205,-5.50091 4.99706,2.58408 15.49904,5.45791 23.33774,6.38628 17.39484,2.06017 20.38857,6.53046 20.61676,30.78535 0.21865,23.24212 -8.69104,39.87207 -26.33983,49.1633 -12.11877,6.37995 -32.54191,8.54326 -43.12204,4.56769 z m 2.34157,-62.96767 c 0.69344,-4.86041 -0.509,-6.39938 -5,-6.39938 -4.44737,0 -5.913,1.8224 -5.913,7.35235 0,9.37811 9.55814,8.54345 10.913,-0.95297 z M 265,328.98123 c 0,-3.50373 -2.3155,-5.80504 -6.42857,-6.38919 -4.81539,-0.6839 -6.42857,0.51105 -6.42857,4.7619 0,5.63956 4.53413,9.18423 10,7.81777 C 263.71429,334.77885 265,331.99313 265,328.98123 z"
       id="path3858"
       inkscape:connector-curvature="0" />
    <path
       style="fill:#f4bea8;fill-opacity:1"
       d="m 392.14286,559.80183 c 0,-6.22998 5.98171,-34.05431 8.82535,-41.05169 4.19074,-10.31221 16.32127,-14.76141 36.16802,-13.26561 29.65633,2.23512 40.0435,10.48641 45.03181,35.77206 2.16785,10.9888 3.3337,10.60326 -45.73947,15.12582 -18.85714,1.73786 -36.53571,3.81661 -39.28571,4.61944 -2.75,0.80283 -5,0.26282 -5,-1.20002 z m 48.57143,-29.15393 c 0,-3.80953 -1.90477,-5.71429 -5.71429,-5.71429 -3.80952,0 -5.71429,1.90476 -5.71429,5.71429 0,3.80952 1.90477,5.71428 5.71429,5.71428 3.80952,0 5.71429,-1.90476 5.71429,-5.71428 z"
       id="path3860"
       inkscape:connector-curvature="0" />
    <path
       style="fill:#f41fa8;fill-opacity:1"
       d="m 231.39983,629.32245 c -16.90866,-1.92166 -31.24283,-4.01672 -31.8537,-4.65567 -1.2106,-1.26627 12.08461,-48.74486 14.25857,-50.91882 0.73379,-0.73379 13.19578,1.47613 27.69331,4.91094 14.49752,3.4348 32.99912,7.62042 41.11465,9.30137 l 14.75552,3.05627 1.08606,17.67282 c 0.59733,9.72005 0.56979,19.27997 -0.0612,21.24425 -1.42401,4.43297 -24.45922,4.22283 -66.99321,-0.61116 l 0,0 z"
       id="path3862"
       inkscape:connector-curvature="0" />
    <path
       style="fill:#f41f93;fill-opacity:1"
       d="m 224.18706,627.09679 c -19.88164,-2.31386 -23.45651,-3.50768 -22.33565,-7.45897 0.73394,-2.58731 3.55232,-12.858 6.26307,-22.82375 2.71075,-9.96575 6.62298,-18.76973 8.69385,-19.5644 5.4502,-2.09143 76.37091,13.47557 78.8622,17.31016 1.15451,1.77701 2.1188,10.62378 2.14286,19.6595 l 0.0437,16.42857 -25,-0.39817 c -13.75,-0.219 -35.65153,-1.63782 -48.67008,-3.15294 z"
       id="path3864"
       inkscape:connector-curvature="0" />
    <path
       style="fill:#f41f69;fill-opacity:1"
       d="m 238.17479,627.55885 c -16.32529,-1.25161 -31.03159,-3.6249 -32.68068,-5.27398 -2.09301,-2.09301 -1.30307,-8.83163 2.61621,-22.31765 l 5.61454,-19.31932 17.06614,0.54401 c 15.44094,0.49221 60.16263,10.17152 63.79952,13.80841 0.81517,0.81517 2.03817,9.16935 2.71777,18.56485 l 1.23566,17.08273 -15.3434,-0.4067 c -8.43888,-0.22368 -28.70046,-1.43074 -45.02576,-2.68235 z"
       id="path3866"
       inkscape:connector-curvature="0" />
    <path
       style="fill:#f41f69;fill-opacity:1"
       d="m 256.02174,627.6651 c -17.50948,-1.17832 -35.98696,-3.05424 -41.06109,-4.1687 -8.97694,-1.97167 -9.18119,-2.35087 -7.57564,-14.0646 3.11662,-22.73821 6.20554,-27.35974 18.25856,-27.3178 13.09222,0.0456 63.69104,10.22482 66.61188,13.40069 1.1513,1.25184 2.97518,9.66892 4.05307,18.70464 1.76446,14.79102 1.44093,16.38668 -3.24579,16.00837 -2.86307,-0.23112 -19.53152,-1.38428 -37.04099,-2.5626 l 0,0 z"
       id="path3868"
       inkscape:connector-curvature="0" />
    <path
       style="fill:#f4eb52;fill-opacity:1"
       d=""
       id="path3870"
       inkscape:connector-curvature="0" />
    <path
       style="fill:#f4eb52;fill-opacity:1"
       d="m 508.79696,339.19852 c -1.06452,-20.20964 -2.65623,-26.61472 -9.52404,-38.32509 -9.66278,-16.47612 -37.18999,-44.51125 -43.70481,-44.51125 -3.77505,0 -3.66232,-0.62526 0.68598,-3.80481 2.86186,-2.09265 6.01568,-8.84265 7.00848,-15.00001 1.4921,-9.254 3.05408,-11.34156 9.00829,-12.0394 4.78814,-0.56118 9.51228,1.61367 14.09029,6.48674 l 6.88708,7.33096 -6.42753,4.50202 c -4.79654,3.35963 -6.20553,6.78861 -5.55268,13.51326 1.25247,12.90103 11.63623,14.02411 18.92032,2.04638 5.00996,-8.23821 5.60029,-8.46694 9.70589,-3.76057 5.25777,6.02712 10.82006,16.44123 10.82006,20.2581 0,1.52101 -3.94601,4.14106 -8.76891,5.82233 -7.34208,2.55947 -8.62055,4.34831 -7.85714,10.99379 1.18141,10.2842 11.37403,12.32205 17.54741,3.50832 l 4.33026,-6.18231 4.51704,8.735 c 8.26743,15.98743 5.51284,26.84636 -7.62581,30.06186 -8.44729,2.06736 -10.95311,10.38549 -3.1286,10.38549 4.34331,0 4.35556,0.41212 0.15043,5.05875 -2.51796,2.78231 -5.75391,8.23723 -7.191,12.12205 -2.03448,5.49972 -2.89581,1.69186 -3.89101,-17.20161 z"
       id="path3872"
       inkscape:connector-curvature="0" />
    <path
       style="fill:#f4eb52;fill-opacity:1"
       d="m 395.22385,272.66524 c -1.45379,-3.82376 -4.67032,-7.73015 -7.14784,-8.68086 -6.73581,-2.58477 -5.4736,-8.83769 3.78459,-18.74861 9.92005,-10.61945 14.56797,-11.28326 14.56797,-2.08057 0,9.1954 7.49114,15.3019 13.81092,11.25816 3.23922,-2.07264 4.76051,-6.99481 4.76051,-15.40277 0,-10.74139 0.93376,-12.6187 7.14286,-14.36063 13.05766,-3.66326 13.40473,-3.28379 12.60804,13.78493 -0.67156,14.38775 -1.56303,16.5731 -7.40008,18.1405 -9.62461,2.58445 -29.58349,13.14192 -34.9049,18.46332 -4.20033,4.20033 -4.79731,4.00414 -7.22207,-2.37347 z"
       id="path3874"
       inkscape:connector-curvature="0" />
    <path
       style="fill:#f4eb52;fill-opacity:1"
       d="m 374.29974,303.41109 c -6.80582,-5.85787 -7.46185,-7.7535 -4.96029,-14.3331 2.18676,-5.75162 4.0805,-7.05611 7.84312,-5.40268 2.72816,1.19885 7.80847,2.1112 11.28958,2.02745 l 6.32929,-0.15229 -5.96621,11.83443 c -3.28141,6.50893 -6.12959,12.04648 -6.32929,12.30565 -0.19969,0.25917 -3.89249,-2.56658 -8.2062,-6.27946 z"
       id="path3876"
       inkscape:connector-curvature="0" />
    <path
       style="fill:#f4eb52;fill-opacity:1"
       d=""
       id="path3878"
       inkscape:connector-curvature="0" />
    <path
       style="fill:#f4eb52;fill-opacity:1"
       d="m 262.45923,291.66234 c -10.24948,-5.55127 -5.32984,-9.79262 7.89815,-6.80922 9.4601,2.1336 21.78548,7.89362 21.78548,10.18102 0,3.20565 -22.1942,0.68458 -29.68363,-3.3718 z"
       id="path3882"
       inkscape:connector-curvature="0" />
    <path
       style="fill:#f4eb52;fill-opacity:1"
       d="m 212.14286,303.58846 c 6.43269,-6.99678 19.93926,-15.79771 24.24435,-15.79771 0.91904,0 0.2948,2.57143 -1.38721,5.71429 -3.50414,6.54755 -12.49873,12.75391 -22.85714,15.77167 L 205,311.35767 l 7.14286,-7.76921 z"
       id="path3884"
       inkscape:connector-curvature="0" />
    <path
       style="fill:#f4eb52;fill-opacity:1"
       d=""
       id="path3886"
       inkscape:connector-curvature="0" />
    <path
       style="fill:#f4eb52;fill-opacity:1"
       d="m 149.28571,306.27251 c 0,-10.81952 1.24649,-16.28228 3.9522,-17.32055 4.89071,-1.87675 24.61923,6.08085 24.61923,9.93029 0,2.88496 -23.39897,23.19422 -26.72283,23.19422 -1.01673,0 -1.8486,-7.11178 -1.8486,-15.80396 z"
       id="path3888"
       inkscape:connector-curvature="0" />
    <path
       style="fill:#f4eb52;fill-opacity:1"
       d="m 315.01419,275.6479 c 0.008,-3.53572 3.08958,-10.27237 6.84838,-14.97035 l 6.83419,-8.54177 3.372,12.52266 c 3.72138,13.82015 1.59579,17.291 -10.64019,17.37428 -4.77901,0.0325 -6.42493,-1.60581 -6.41438,-6.38482 z"
       id="path3890"
       inkscape:connector-curvature="0" />
    <path
       style="fill:#4b0037;fill-opacity:1"
       d="m 237.85714,552.56977 c -19.06466,-4.06478 -19.40646,-5.31862 -13.09973,-48.05436 2.40104,-16.26999 5.12564,-42.43894 6.05467,-58.15323 2.62901,-44.469 0.76608,-41.42857 25.38412,-41.42857 l 21.08734,0 4.44443,20.71429 c 7.57092,35.28595 13.72038,80.97776 14.22137,105.66781 l 0.47923,23.6179 L 275,555.42691 c -11.78571,0.27132 -28.5,-1.01439 -37.14286,-2.85714 z m 39.04048,-34.58697 c -2.43259,-6.33922 -10.46905,-5.57279 -10.46905,0.99843 0,6.01811 5.68966,9.42498 9.6651,5.78729 1.38722,-1.26937 1.749,-4.32295 0.80395,-6.78572 z m -2.41319,-39.25397 c -1.34596,-9.14713 -8.05586,-10.12679 -8.05586,-1.17617 0,4.80145 1.56722,7.38095 4.48443,7.38095 2.97811,0 4.17776,-2.08418 3.57143,-6.20478 z m -2.34157,-40.7044 c 0,-0.65719 -0.78042,-3.22862 -1.73426,-5.71428 -2.48445,-6.47438 -9.69431,-5.58571 -9.69431,1.19489 0,3.80952 1.90476,5.71429 5.71428,5.71429 3.14286,0 5.71429,-0.53771 5.71429,-1.1949 z"
       id="path3902"
       inkscape:connector-curvature="0" />
    <path
       style="fill:#552200;fill-opacity:1"
       d="m 384.83013,618.50504 c 0.98721,-8.25 2.52549,-21.18912 3.41842,-28.75361 1.24995,-10.5891 3.03516,-14.28953 7.7589,-16.08287 10.86896,-4.12634 57.04851,-9.23439 74.63907,-8.25605 l 17.0751,0.94967 1.85829,11.42857 c 1.02207,6.28572 2.4616,18.08109 3.19897,26.21194 l 1.34067,14.78336 -18.84549,3.28654 c -16.42891,2.8651 -83.15479,11.3389 -89.82788,11.40762 -1.32603,0.0137 -1.60325,-6.72517 -0.61605,-14.97517 z"
       id="path3904"
       inkscape:connector-curvature="0" />
    <path
       style="fill:#552200;fill-opacity:1"
       d="m 457.85714,767.79075 c -2.97121,-1.92014 1.84863,-2.67937 15.71429,-2.47535 15.18788,0.22349 17.93766,0.81907 11.42857,2.47535 -12.43325,3.16373 -22.24734,3.16373 -27.14286,0 z"
       id="path3906"
       inkscape:connector-curvature="0" />
    <path
       style="fill:#552200;fill-opacity:1"
       d=""
       id="path3908"
       inkscape:connector-curvature="0" />
    <path
       style="fill:#ff6600;fill-opacity:1"
       d=""
       id="path3930"
       inkscape:connector-curvature="0" />
    <path
       style="fill:#ff6600;fill-opacity:1"
       d=""
       id="path3932"
       inkscape:connector-curvature="0" />
    <path
       style="fill:#ff6600;fill-opacity:1"
       d="m 457.85714,758.05656 c 0,-5.39905 16.97562,-8.89298 26.98952,-5.55501 13.05767,4.35255 9.23127,8.12222 -9.13237,8.99697 -14.35841,0.68396 -17.85715,0.01 -17.85715,-3.44196 z"
       id="path3934"
       inkscape:connector-curvature="0" />
    <path
       style="fill:#ff6600;fill-opacity:1"
       d="m 395.52973,764.54642 c -11.58838,-3.33934 -11.60357,-12.00829 -0.0234,-13.35159 5.27546,-0.61196 10.51183,1.76586 17.11843,7.77339 l 9.51809,8.65503 -8.57143,-0.17393 c -4.71429,-0.0957 -12.83305,-1.40197 -18.0417,-2.9029 z"
       id="path3936"
       inkscape:connector-curvature="0" />
    <path
       style="fill:#80006d;fill-opacity:1"
       d=""
       id="path3940"
       inkscape:connector-curvature="0" />
    <path
       style="fill:#80006d;fill-opacity:1"
       d="m 280.56187,757.97441 c 4.85625,-5.85143 17.84345,-8.06295 26.97084,-4.59272 12.14424,4.61723 6.0237,8.69478 -13.05117,8.69478 -14.73051,0 -16.81441,-0.61412 -13.91967,-4.10206 z"
       id="path3942"
       inkscape:connector-curvature="0" />
    <path
       style="fill:#80006d;fill-opacity:1"
       d="m 224.17714,756.82719 c -11.26138,-6.00544 -9.32514,-9.03644 5.7726,-9.03644 13.75364,0 22.54228,4.33704 20.35247,10.04359 -2.16974,5.65423 -14.52698,5.17785 -26.12507,-1.00715 z"
       id="path3944"
       inkscape:connector-curvature="0" />
    <path
       style="fill:#ff2180;fill-opacity:1"
       d=""
       id="path3946"
       inkscape:connector-curvature="0" />
    <path
       style="fill:#ff2180;fill-opacity:1"
       d=""
       id="path3948"
       inkscape:connector-curvature="0" />
    <path
       style="fill:#ff2180;fill-opacity:1"
       d=""
       id="path3950"
       inkscape:connector-curvature="0" />
    <path
       style="fill:#ff2180;fill-opacity:1"
       d=""
       id="path3952"
       inkscape:connector-curvature="0" />
    <path
       style="fill:#ff2180;fill-opacity:1"
       d="m 523.7788,394.5483 c -11.03112,-14.0238 -4.18557,-43.2962 11.27246,-48.20239 8.29427,-2.63249 24.2733,0.61339 28.58292,5.80617 4.16493,5.01843 3.42631,5.12914 -7.89318,1.18315 -12.20908,-4.25611 -28.39027,2.6437 -31.04975,13.23991 -3.05086,12.15559 1.91452,22.48787 11.32829,23.57263 9.059,1.04388 18.98046,-6.21072 18.98046,-13.87857 0,-6.47794 -7.36975,-12.40808 -12.82076,-10.31633 -5.13587,1.97082 -5.79659,12.29877 -0.89139,13.93383 2.55309,0.85103 2.58976,1.66329 0.14334,3.17526 -5.01247,3.09788 -10.11356,-8.39064 -6.6222,-14.91431 3.52597,-6.58835 11.20241,-8.83713 19.58327,-5.73684 9.91431,3.66754 8.60673,19.10116 -2.58843,30.55184 -10.87294,11.12109 -20.11321,11.64391 -28.02504,1.58565 l 1e-5,0 z"
       id="path3954"
       inkscape:connector-curvature="0" />
    <path
       style="fill:#ff2180;fill-opacity:1"
       d=""
       id="path3956"
       inkscape:connector-curvature="0" />
    <path
       style="fill:#ff2180;fill-opacity:1"
       d=""
       id="path3958"
       inkscape:connector-curvature="0" />
    <path
       style="fill:#ff2180;fill-opacity:1"
       d=""
       id="path3960"
       inkscape:connector-curvature="0" />
    <path
       style="fill:#ffaa92;fill-opacity:1"
       d="m 257.85714,572.14822 c -8.64285,-1.99563 -18.92857,-5.11137 -22.85714,-6.92386 -6.42672,-2.96504 -5.99704,-3.13654 4.28571,-1.71052 6.28572,0.87171 20.42858,2.29764 31.42858,3.16873 25.54001,2.02252 29.96535,3.28992 24.20564,6.93242 -5.51395,3.48707 -17.69621,3.00496 -37.06279,-1.46677 z"
       id="path3972"
       inkscape:connector-curvature="0" />
    <path
       style="fill:#ffaa92;fill-opacity:1"
       d="m 192.14286,525.31892 c 0,-2.93093 2.57143,-8.59801 5.71428,-12.59351 3.14286,-3.9955 5.71429,-9.31174 5.71429,-11.81388 0,-2.64459 -2.39251,-4.54935 -5.71429,-4.54935 -6.12418,0 -7.66389,-4.17212 -2.6771,-7.25412 5.00446,-3.09293 14.10567,7.52488 14.10567,16.45621 0,12.13917 -7.63805,24.88957 -15,25.03988 -1.17857,0.0241 -2.14285,-2.35429 -2.14285,-5.28523 z"
       id="path3974"
       inkscape:connector-curvature="0" />
    <path
       style="fill:#ffaa92;fill-opacity:1"
       d=""
       id="path3976"
       inkscape:connector-curvature="0" />
    <path
       style="fill:#ffaa92;fill-opacity:1"
       d="m 353.57143,524.93361 c -2.84425,-3.14286 -7.0078,-5.71428 -9.25235,-5.71428 -7.06959,0 -2.08956,-7.10066 5.62499,-8.02027 8.15248,-0.9718 17.1658,8.63462 14.53471,15.49113 -2.07723,5.41318 -4.8183,4.97175 -10.90735,-1.75658 z"
       id="path3978"
       inkscape:connector-curvature="0" />
    <path
       style="fill:#ffaa92;fill-opacity:1"
       d="m 341.70022,540.52467 c -2.85833,-7.44869 1.6918,-8.46888 8.29978,-1.8609 l 6.26984,6.26984 -6.43888,0 c -3.54138,0 -7.20021,-1.98402 -8.13074,-4.40894 z"
       id="path3980"
       inkscape:connector-curvature="0" />
    <path
       style="fill:#ffaa92;fill-opacity:1"
       d="m 535.10053,479.40716 c -4.76456,-8.90265 -3.75533,-15.39535 2.04233,-13.13897 9.23693,3.59491 10.4228,2.98921 13.80051,-7.04886 4.42612,-13.15382 12.62806,-15.21017 12.62806,-3.16606 0,5.63635 -3.11037,12.22402 -8.86741,18.78092 -10.00519,11.39529 -15.29224,12.62862 -19.60349,4.57297 l 0,0 z"
       id="path3982"
       inkscape:connector-curvature="0" />
  </g>
</svg>
