<?xml version="1.0"?>
<svg xmlns:rdf="http://www.w3.org/1999/02/22-rdf-syntax-ns#" xmlns="http://www.w3.org/2000/svg" xmlns:cc="http://creativecommons.org/ns#" xmlns:xlink="http://www.w3.org/1999/xlink" xmlns:dc="http://purl.org/dc/elements/1.1/" xmlns:svg="http://www.w3.org/2000/svg" id="svg2" viewBox="0 0 600 600" version="1.1">
  <defs id="defs4">
    <linearGradient id="linearGradient3918">
      <stop id="stop3920" stop-color="#fff" stop-opacity="0" offset="0"/>
      <stop id="stop3922" stop-color="#9a5223" offset="1"/>
    </linearGradient>
    <filter id="filter3779">
      <feGaussianBlur id="feGaussianBlur3781" stdDeviation="4.0923873"/>
    </filter>
    <filter id="filter3789">
      <feGaussianBlur id="feGaussianBlur3791" stdDeviation="1.7524087"/>
    </filter>
    <filter id="filter3912">
      <feGaussianBlur id="feGaussianBlur3914" stdDeviation="1.7666654"/>
    </filter>
    <filter id="filter4122">
      <feGaussianBlur id="feGaussianBlur4124" stdDeviation="1.1680893"/>
    </filter>
    <filter id="filter4498">
      <feGaussianBlur id="feGaussianBlur4500" stdDeviation="9.4792853"/>
    </filter>
    <radialGradient id="radialGradient4686" xlink:href="#linearGradient3918" gradientUnits="userSpaceOnUse" cy="274.39" cx="317.5" gradientTransform="matrix(1.1893 -.39164 .31325 1.2981 -146.05 42.56)" r="122.5"/>
    <radialGradient id="radialGradient4688" xlink:href="#linearGradient3918" gradientUnits="userSpaceOnUse" cy="274.39" cx="317.5" gradientTransform="matrix(1.1744 .016129 -.015171 1.0338 -51.206 -14.399)" r="122.5"/>
    <radialGradient id="radialGradient4690" gradientUnits="userSpaceOnUse" cy="248.58" cx="323.41" gradientTransform="matrix(1 0 0 .90087 0 27.153)" r="122.5">
      <stop id="stop3816" stop-color="#040201" offset="0"/>
      <stop id="stop3818" stop-color="#803300" offset="1"/>
    </radialGradient>
    <linearGradient id="linearGradient4692" y2="348.94" gradientUnits="userSpaceOnUse" y1="138.15" x2="304.16" x1="347.07">
      <stop id="stop3906" stop-color="#222" offset="0"/>
      <stop id="stop3908" stop-color="#f9f9f9" offset="1"/>
    </linearGradient>
    <linearGradient id="linearGradient4694" y2="244.47" gradientUnits="userSpaceOnUse" y1="450.01" x2="302.89" x1="190.25">
      <stop id="stop3826" stop-color="#fca" offset="0"/>
      <stop id="stop3828" stop-color="#fca" stop-opacity="0" offset="1"/>
    </linearGradient>
    <radialGradient id="radialGradient4696" gradientUnits="userSpaceOnUse" cy="228.13" cx="341.92" gradientTransform="matrix(-1.2962 .48185 -.37522 -1.5176 831.84 536.66)" r="122.5">
      <stop id="stop3795" stop-color="#eaeaea" offset="0"/>
      <stop id="stop3797" stop-color="#4d4d4d" offset="1"/>
    </radialGradient>
    <linearGradient id="linearGradient4704" x1="314.16" gradientUnits="userSpaceOnUse" y1="33.304" gradientTransform="matrix(1.0565 0 0 1.091 -19.539 426.29)" x2="299.01" y2="337.36">
      <stop id="stop3896" stop-color="#333" offset="0"/>
      <stop id="stop3898" stop-color="#333" stop-opacity="0" offset="1"/>
    </linearGradient>
    <radialGradient id="radialGradient4706" gradientUnits="userSpaceOnUse" cy="145.55" cx="339.69" gradientTransform="matrix(.44888 .054942 -.040962 .33466 193.17 88.838)" r="219.56">
      <stop id="stop4291" stop-color="#fff" offset="0"/>
      <stop id="stop4293" stop-color="#fff" stop-opacity=".034965" offset="1"/>
    </radialGradient>
    <radialGradient id="radialGradient4708" gradientUnits="userSpaceOnUse" cy="131.18" cx="313.84" gradientTransform="matrix(.99682 -.079633 .039446 .49377 -4.1777 107.09)" r="217.3">
      <stop id="stop4641" stop-color="#fff" offset="0"/>
      <stop id="stop4643" stop-color="#fff" stop-opacity="0" offset="1"/>
    </radialGradient>
  </defs>
  <g id="layer1" transform="translate(0 -452.36)">
    <g id="g4647" transform="matrix(1.1952 0 0 1.1952 -37.291 -147.16)">
      <path id="path4337" filter="url(#filter4498)" transform="matrix(.98624 0 0 .96387 -4.873 43.519)" fill="#808080" d="m306.88 556.27c-21.269 0.14047-43.215 2.9308-65.25 8.5938-91.008 23.389-157.49 89.065-171.53 160.78-0.004 0.0199 0.004 0.0426 0 0.0625l-0.875 1.4688-0.875 9.9062c-0.33551 2.8803-0.5875 5.7652-0.75 8.6562l-1.9375 22.125c-2.8766 114.62 65.712 172.81 149.47 186.69 0.14515 0.0241 0.29226 0.0387 0.4375 0.0625 139.75 23.898 322.64-76.158 286-243.62h-0.15625c-0.96028-8.377-2.5884-16.782-4.9375-25.125-0.68728-2.441-0.99083-4.9835-1.5938-7.4688l-5.0312-16.219c-20.939-55.202-75.164-92.25-141.06-102.66-0.64609-0.10664-1.2891-0.21101-1.9375-0.3125-0.0102-0.002-0.021 0.002-0.0312 0-0.0526-0.008-0.10362-0.0231-0.15625-0.0312-0.0102-0.002-0.021 0.002-0.0312 0-12.857-2.0003-26.171-2.9959-39.75-2.9062z"/>
      <g id="g4299">
        <path id="path3005" transform="translate(0 452.36)" fill="#845435" d="m102.86 210-17.86 30.71-3.571 40.72c-7.671 305.64 492.75 210.04 434.28-57.14z"/>
        <path id="path3002" transform="matrix(1.7223 -.44262 .36822 1.5178 -349.67 423.02)" fill="#c87137" d="m440 273.93c0 1.6374-0.16991 3.263-0.11793 4.8864 1.9917 62.201-44.793 114.04-122.38 105.47-9.334-1.0303-18.486-0.94684-27.249-2.74-2.0075-0.4108-3.9962-0.86601-5.9649-1.3644-51.52-13.05-89.29-55.68-89.29-106.26 0-60.949 54.845-110.36 122.5-110.36 62.986 0 115.71 43.029 121.91 99.496"/>
        <path id="path3926" transform="matrix(1.7223 -.44262 .36822 1.5178 -349.67 423.02)" fill="url(#radialGradient4686)" d="m440 273.93c0 1.6374-0.16991 3.263-0.11793 4.8864 1.9917 62.201-44.793 114.04-122.38 105.47-9.334-1.0303-18.486-0.94684-27.249-2.74-2.0075-0.4108-3.9962-0.86601-5.9649-1.3644-51.52-13.05-89.29-55.68-89.29-106.26 0-60.949 54.845-110.36 122.5-110.36 62.986 0 115.71 43.029 121.91 99.496"/>
        <path id="path3916" transform="matrix(1.7223 -.44262 .36822 1.5178 -349.67 423.02)" fill="url(#radialGradient4688)" d="m440 273.93c0 1.6374-0.16991 3.263-0.11793 4.8864 1.9917 62.201-44.793 114.04-122.38 105.47-9.334-1.0303-18.486-0.94684-27.249-2.74-2.0075-0.4108-3.9962-0.86601-5.9649-1.3644-51.52-13.05-89.29-55.68-89.29-106.26 0-60.949 54.845-110.36 122.5-110.36 62.986 0 115.71 43.029 121.91 99.496"/>
        <path id="path3000" transform="matrix(1.391 -.37314 .29739 1.2796 -220.29 457.01)" fill="url(#radialGradient4690)" d="m440 273.93c0 60.949-54.845 110.36-122.5 110.36s-122.5-49.409-122.5-110.36c0-60.949 54.845-110.36 122.5-110.36 62.986 0 115.71 43.029 121.91 99.496"/>
        <path id="path3902" opacity=".60246" d="m440 273.93c0 60.949-54.845 110.36-122.5 110.36s-122.5-49.409-122.5-110.36c0-60.949 54.845-110.36 122.5-110.36 62.986 0 115.71 43.029 121.91 99.496" transform="matrix(1.2847 -.30842 .27465 1.0576 -182.22 521.53)" filter="url(#filter3912)" fill="url(#linearGradient4692)"/>
        <path id="path2996" opacity=".60246" transform="matrix(1.2479 -.30582 .26679 1.0487 -169.92 525.07)" fill="#f60" d="m440 273.93c0 60.949-54.845 110.36-122.5 110.36s-122.5-49.409-122.5-110.36c0-60.949 54.845-110.36 122.5-110.36 62.986 0 115.71 43.029 121.91 99.496"/>
        <path id="path3822" opacity=".60246" transform="matrix(1.2479 -.30582 .26679 1.0487 -169.92 525.07)" fill="url(#linearGradient4694)" d="m440 273.93c0 60.949-54.845 110.36-122.5 110.36s-122.5-49.409-122.5-110.36c0-60.949 54.845-110.36 122.5-110.36 62.986 0 115.71 43.029 121.91 99.496"/>
        <g id="g4128" transform="translate(-12.857 5)">
          <path id="path3850" filter="url(#filter3779)" transform="matrix(.25411 -.071080 .054328 .24375 248.1 608.9)" fill="#ccc" d="m440 273.93c0 60.949-54.845 110.36-122.5 110.36s-122.5-49.409-122.5-110.36c0-60.949 54.845-110.36 122.5-110.36 62.986 0 115.71 43.029 121.91 99.496"/>
          <path id="path3852" transform="matrix(.24609 -.068836 .052613 .23605 251.11 610.3)" fill="url(#radialGradient4696)" d="m440 273.93c0 60.949-54.845 110.36-122.5 110.36s-122.5-49.409-122.5-110.36c0-60.949 54.845-110.36 122.5-110.36 62.986 0 115.71 43.029 121.91 99.496"/>
          <path id="path3854" filter="url(#filter3789)" transform="matrix(.22605 -.065458 .048329 .22447 257.93 614.27)" fill="#b3b3b3" d="m440 273.93c0 60.949-54.845 110.36-122.5 110.36s-122.5-49.409-122.5-110.36c0-60.949 54.845-110.36 122.5-110.36 62.986 0 115.71 43.029 121.91 99.496"/>
          <path id="path3856" filter="url(#filter4122)" transform="matrix(.21957 -.064112 .046944 .21985 260.28 615.64)" fill="#1a1a1a" d="m440 273.93c0 60.949-54.845 110.36-122.5 110.36s-122.5-49.409-122.5-110.36c0-60.949 54.845-110.36 122.5-110.36 62.986 0 115.71 43.029 121.91 99.496"/>
          <path id="path4126" filter="url(#filter4122)" transform="matrix(.19530 -.049567 .041754 .16997 269.23 629.84)" fill="#ccc" d="m440 273.93c0 60.949-54.845 110.36-122.5 110.36s-122.5-49.409-122.5-110.36c0-60.949 54.845-110.36 122.5-110.36 62.986 0 115.71 43.029 121.91 99.496"/>
        </g>
        <g id="g4135" transform="translate(-118.57 39.286)">
          <path id="path4137" filter="url(#filter3779)" transform="matrix(.25411 -.071080 .054328 .24375 248.1 608.9)" fill="#ccc" d="m440 273.93c0 60.949-54.845 110.36-122.5 110.36s-122.5-49.409-122.5-110.36c0-60.949 54.845-110.36 122.5-110.36 62.986 0 115.71 43.029 121.91 99.496"/>
          <path id="path4139" transform="matrix(.24609 -.068836 .052613 .23605 251.11 610.3)" fill="url(#radialGradient4696)" d="m440 273.93c0 60.949-54.845 110.36-122.5 110.36s-122.5-49.409-122.5-110.36c0-60.949 54.845-110.36 122.5-110.36 62.986 0 115.71 43.029 121.91 99.496"/>
          <path id="path4141" filter="url(#filter3789)" transform="matrix(.22605 -.065458 .048329 .22447 257.93 614.27)" fill="#b3b3b3" d="m440 273.93c0 60.949-54.845 110.36-122.5 110.36s-122.5-49.409-122.5-110.36c0-60.949 54.845-110.36 122.5-110.36 62.986 0 115.71 43.029 121.91 99.496"/>
          <path id="path4143" filter="url(#filter4122)" transform="matrix(.21957 -.064112 .046944 .21985 260.28 615.64)" fill="#1a1a1a" d="m440 273.93c0 60.949-54.845 110.36-122.5 110.36s-122.5-49.409-122.5-110.36c0-60.949 54.845-110.36 122.5-110.36 62.986 0 115.71 43.029 121.91 99.496"/>
          <path id="path4145" filter="url(#filter4122)" transform="matrix(.19530 -.049567 .041754 .16997 269.23 629.84)" fill="#ccc" d="m440 273.93c0 60.949-54.845 110.36-122.5 110.36s-122.5-49.409-122.5-110.36c0-60.949 54.845-110.36 122.5-110.36 62.986 0 115.71 43.029 121.91 99.496"/>
        </g>
        <g id="g4147" transform="translate(31.429 90.714)">
          <path id="path4149" filter="url(#filter3779)" transform="matrix(.25411 -.071080 .054328 .24375 248.1 608.9)" fill="#ccc" d="m440 273.93c0 60.949-54.845 110.36-122.5 110.36s-122.5-49.409-122.5-110.36c0-60.949 54.845-110.36 122.5-110.36 62.986 0 115.71 43.029 121.91 99.496"/>
          <path id="path4151" transform="matrix(.24609 -.068836 .052613 .23605 251.11 610.3)" fill="url(#radialGradient4696)" d="m440 273.93c0 60.949-54.845 110.36-122.5 110.36s-122.5-49.409-122.5-110.36c0-60.949 54.845-110.36 122.5-110.36 62.986 0 115.71 43.029 121.91 99.496"/>
          <path id="path4153" filter="url(#filter3789)" transform="matrix(.22605 -.065458 .048329 .22447 257.93 614.27)" fill="#b3b3b3" d="m440 273.93c0 60.949-54.845 110.36-122.5 110.36s-122.5-49.409-122.5-110.36c0-60.949 54.845-110.36 122.5-110.36 62.986 0 115.71 43.029 121.91 99.496"/>
          <path id="path4155" filter="url(#filter4122)" transform="matrix(.21957 -.064112 .046944 .21985 260.28 615.64)" fill="#1a1a1a" d="m440 273.93c0 60.949-54.845 110.36-122.5 110.36s-122.5-49.409-122.5-110.36c0-60.949 54.845-110.36 122.5-110.36 62.986 0 115.71 43.029 121.91 99.496"/>
          <path id="path4157" filter="url(#filter4122)" transform="matrix(.19530 -.049567 .041754 .16997 269.23 629.84)" fill="#ccc" d="m440 273.93c0 60.949-54.845 110.36-122.5 110.36s-122.5-49.409-122.5-110.36c0-60.949 54.845-110.36 122.5-110.36 62.986 0 115.71 43.029 121.91 99.496"/>
        </g>
        <g id="g4159" transform="translate(-77.857 132.86)">
          <path id="path4161" filter="url(#filter3779)" transform="matrix(.25411 -.071080 .054328 .24375 248.1 608.9)" fill="#ccc" d="m440 273.93c0 60.949-54.845 110.36-122.5 110.36s-122.5-49.409-122.5-110.36c0-60.949 54.845-110.36 122.5-110.36 62.986 0 115.71 43.029 121.91 99.496"/>
          <path id="path4163" transform="matrix(.24609 -.068836 .052613 .23605 251.11 610.3)" fill="url(#radialGradient4696)" d="m440 273.93c0 60.949-54.845 110.36-122.5 110.36s-122.5-49.409-122.5-110.36c0-60.949 54.845-110.36 122.5-110.36 62.986 0 115.71 43.029 121.91 99.496"/>
          <path id="path4165" filter="url(#filter3789)" transform="matrix(.22605 -.065458 .048329 .22447 257.93 614.27)" fill="#b3b3b3" d="m440 273.93c0 60.949-54.845 110.36-122.5 110.36s-122.5-49.409-122.5-110.36c0-60.949 54.845-110.36 122.5-110.36 62.986 0 115.71 43.029 121.91 99.496"/>
          <path id="path4167" filter="url(#filter4122)" transform="matrix(.21957 -.064112 .046944 .21985 260.28 615.64)" fill="#1a1a1a" d="m440 273.93c0 60.949-54.845 110.36-122.5 110.36s-122.5-49.409-122.5-110.36c0-60.949 54.845-110.36 122.5-110.36 62.986 0 115.71 43.029 121.91 99.496"/>
          <path id="path4169" filter="url(#filter4122)" transform="matrix(.19530 -.049567 .041754 .16997 269.23 629.84)" fill="#ccc" d="m440 273.93c0 60.949-54.845 110.36-122.5 110.36s-122.5-49.409-122.5-110.36c0-60.949 54.845-110.36 122.5-110.36 62.986 0 115.71 43.029 121.91 99.496"/>
        </g>
        <path id="path3887" opacity=".60246" fill="url(#linearGradient4704)" d="m316.66 593.58c-16.281 0.10582-33.085 2.209-49.953 6.4775-62.597 15.841-110 57.413-126.78 104.9l320.52-14.421c-0.3301-1.7083-0.70295-3.4108-1.1225-5.1138l-3.8298-12.205c-19.2-49.83-74.97-80.05-138.84-79.64z"/>
        <path id="path4179" opacity=".77049" transform="translate(0 452.36)" fill="url(#radialGradient4706)" d="m321.03 69.562c-21.269 0.14047-43.215 2.9308-65.25 8.5938-91.01 23.384-157.48 89.064-171.53 160.78-0.004 0.0199 0.004 0.0426 0 0.0625l-0.875 1.4688-0.875 9.9062c-0.33551 2.8803-0.5875 5.7652-0.75 8.6562l-1.9375 22.125c-7.6709 305.65 492.74 210.06 434.28-57.125h-0.15625c-0.9598-8.3872-2.5855-16.771-4.9375-25.125-0.6873-2.441-0.99085-4.9835-1.5938-7.4688l-5.02-16.23c-25.08-66.11-97.91-106.21-181.35-105.66zm1.6875 18.688c67.39-0.46455 126.18 33.298 146.44 89.031l4.0625 13.688c18.126 77.988-43.454 161.69-137.56 186.94-94.109 25.245-185.09-17.512-203.22-95.5-18.13-77.99 43.45-161.7 137.56-186.94 17.8-4.775 35.54-7.102 52.72-7.22z"/>
      </g>
      <path id="path4570" transform="translate(0 452.36)" fill="url(#radialGradient4708)" d="m322.47 66.719c-21.269 0.14047-43.215 2.9308-65.25 8.5938-91.008 23.389-157.49 89.065-171.53 160.78-0.004 0.0199 0.004 0.0426 0 0.0625l-0.875 1.4688-0.875 9.9062c-0.09122 0.78309-0.17125 1.5599-0.25 2.3438l47.062-1.4375c1.8611-68.005 59.033-133.91 140.69-155.81 17.797-4.774 35.541-7.1003 52.719-7.2188 67.39-0.46455 126.18 33.298 146.44 89.031l4.0625 13.688c3.8479 16.556 4.0724 33.355 1.1875 49.812l42.438-1.2812c-0.724-5.0958-1.6059-10.24-2.75-15.469h-0.15625c-0.9598-8.3872-2.5855-16.771-4.9375-25.125-0.6873-2.441-0.99095-4.9835-1.5938-7.4688l-5.04-16.2c-25.07-66.12-97.9-106.21-181.34-105.66z"/>
    </g>
  </g>
  <metadata>
    <rdf:RDF>
      <cc:Work>
        <dc:format>image/svg+xml</dc:format>
        <dc:type rdf:resource="http://purl.org/dc/dcmitype/StillImage"/>
        <cc:license rdf:resource="http://creativecommons.org/licenses/publicdomain/"/>
        <dc:publisher>
          <cc:Agent rdf:about="http://openclipart.org/">
            <dc:title>Openclipart</dc:title>
          </cc:Agent>
        </dc:publisher>
        <dc:title>button</dc:title>
        <dc:date>2012-06-18T09:55:06</dc:date>
        <dc:description>A simple button clipart</dc:description>
        <dc:source>http://openclipart.org/detail/170752/button-by-hatalar205-170752</dc:source>
        <dc:creator>
          <cc:Agent>
            <dc:title>hatalar205</dc:title>
          </cc:Agent>
        </dc:creator>
        <dc:subject>
          <rdf:Bag>
            <rdf:li>button</rdf:li>
            <rdf:li>clip art</rdf:li>
            <rdf:li>clipart</rdf:li>
          </rdf:Bag>
        </dc:subject>
      </cc:Work>
      <cc:License rdf:about="http://creativecommons.org/licenses/publicdomain/">
        <cc:permits rdf:resource="http://creativecommons.org/ns#Reproduction"/>
        <cc:permits rdf:resource="http://creativecommons.org/ns#Distribution"/>
        <cc:permits rdf:resource="http://creativecommons.org/ns#DerivativeWorks"/>
      </cc:License>
    </rdf:RDF>
  </metadata>
</svg>
