<?xml version="1.0"?>
<svg xmlns:rdf="http://www.w3.org/1999/02/22-rdf-syntax-ns#" xmlns="http://www.w3.org/2000/svg" xmlns:cc="http://web.resource.org/cc/" xmlns:xlink="http://www.w3.org/1999/xlink" xmlns:dc="http://purl.org/dc/elements/1.1/" xmlns:svg="http://www.w3.org/2000/svg" id="svg2" viewBox="0 0 550 750" version="1.1">
  <title id="title2850">Kitten</title>
  <defs id="defs4">
    <filter id="filter4111" width="1.2459" y="-.33585" x="-.12295" height="1.6717" color-interpolation-filters="sRGB">
      <feGaussianBlur id="feGaussianBlur4113" stdDeviation="29.823351"/>
    </filter>
    <linearGradient id="linearGradient2926" x1="577.07" gradientUnits="userSpaceOnUse" y1="676.33" gradientTransform="matrix(2.4461 0 0 2.4461 -1181.4 -773.73)" x2="577.07" y2="629.33">
      <stop id="stop3832" stop-color="#ac9f8c" stop-opacity=".54867" offset="0"/>
      <stop id="stop3834" stop-color="#ac9f8c" stop-opacity="0" offset="1"/>
    </linearGradient>
    <radialGradient id="radialGradient2929" gradientUnits="userSpaceOnUse" cy="572.44" cx="573.92" gradientTransform="matrix(2.451 .0000014476 -.0000011271 1.9165 -1184.6 -473.98)" r="32.375">
      <stop id="stop3816" stop-color="#d2cdba" stop-opacity=".54867" offset="0"/>
      <stop id="stop3818" stop-color="#9a7668" stop-opacity="0" offset="1"/>
    </radialGradient>
    <radialGradient id="radialGradient2933" gradientUnits="userSpaceOnUse" cy="-26.231" cx="538.54" gradientTransform="matrix(.76820 -.52708 1.3186 1.9218 -263.67 677.56)" r="13.921">
      <stop id="stop3794" stop-color="#9a7668" offset="0"/>
      <stop id="stop3796" stop-color="#9a7668" stop-opacity="0" offset="1"/>
    </radialGradient>
    <radialGradient id="radialGradient2936" gradientUnits="userSpaceOnUse" cy="454.63" cx="614.2" gradientTransform="matrix(2.2832 .92048 -.57185 1.4185 -841.5 -839.37)" r="19.778">
      <stop id="stop3784" stop-color="#7a3629" offset="0"/>
      <stop id="stop3786" stop-color="#7a3629" stop-opacity="0" offset="1"/>
    </radialGradient>
    <linearGradient id="linearGradient2944" x1="487.72" gradientUnits="userSpaceOnUse" y1="1.5084" gradientTransform="translate(-433.37 640.37)" x2="948.1" y2="1.5084">
      <stop id="stop3735" stop-color="#cec5b7" offset="0"/>
      <stop id="stop3737" stop-color="#ece6dc" offset="1"/>
    </linearGradient>
  </defs>
  <g id="layer1" transform="translate(0 -302.36)">
    <path id="path4109" opacity=".2" filter="url(#filter4111)" transform="matrix(.75634 0 0 .78115 -82.88 72.081)" d="m758.9 1063a291.09 106.56 0 1 1 -582.17 0 291.09 106.56 0 1 1 582.17 0z"/>
    <path id="path2932" stroke-linejoin="round" d="m464.59 729.74c1.0339-46.481-7.1043-70.6-20.554-97.109-16.066-31.667-31.06-41.112-47.656-60.564 4.9628-63.274-26.931-55.86-18.526-104.98 8.8375-51.652-0.5739-96.535-33.965-121.96-38.567-29.371-54.035-26.245-108.07-26.245s-77.192 13.895-112.7 0-43.063 1.3789-43.063 1.3789 11.986 18.361 27.424 47.694c5.1897 9.8604 5.1096 20.462 3.4437 26.341-3.2898 11.611-14.557 20.94-12.507 49.637 3.0877 43.228 26.245 77.192 35.508 104.98 9.263 27.789 7.7192 12.351 6.1753 30.877-1.5438 18.526-24.702 94.175-27.789 117.33-3.0877 23.158 4.6315 92.631 4.6315 126.6 0 33.965-13.357 38.037-53.833 67.068-12.698 9.1077-11.286 45.153 19.254 27.818-12.248 6.8808-16.865 41.835 0.5925 41.835 32.421 0 81.365 5.6598 95.74-13.671 20.205-27.17 11.489-28.393 13.033-43.831 1.5439-15.438 3.4902-54.673 0.9056-71.096 1.264 15.809 1.6015 44.57 0.303 59.528 16.982 15.438 37.097 20.692 48.754 16.545 11.331-44.785 34.128-133.7 35.15-142.76-1.4432 8.4361-38.271 163.62-44.391 176.1-11.065 22.554 37.484 33.455 63.924 28.17 27.588-5.5151 41.338-2.1256 41.338-43.809 0-41.684 24.4-101.57 28.27-107.79-2.8645 7.2507-33.147 58.361-26.726 108.87 24.702 0 67.929-24.243 78.736-36.593 10.807-12.351 15.096-14.691 27.789-12.351-12.814-2.4723-27.085 10.147-37.892 20.954s-12.272 42.064 21.692 42.064c33.965 0 72.441 6.4842 73.322-21.334 1.0627-33.562 6.3986-39.738 9.8668-58.264 3.4207-18.273-6.2734-65.725-8.323-82.226-3.0734-24.744-34.566-45.103-39.86-49.202z" stroke="#000" stroke-width="2.4461px" fill="url(#linearGradient2944)"/>
    <path id="path2934" stroke="#000" stroke-width="2.4461px" d="m201.23 496.74c9.7227-21.154 29.958-18.396 48.484-10.677-3.5371 19.67-17.122 23.817-48.484 10.677z"/>
    <path id="path2934-1" stroke="#000" stroke-width="1.9569px" d="m157.89 495.3c-1.9685-24.575-13.848-29.53-25.606-29.24-2.9517 19.099 3.3305 28.082 25.606 29.24z"/>
    <path id="path2958" stroke-linejoin="round" stroke="#000" stroke-width="2.4461px" d="m158.45 520.28c3.9902 12.267 23.44 9.0644 28.958 2.2982-1.1989 9.2646-9.8559 20.968-11.242 22.852 1.5184 1.9652 5.0749 4.0867 10.323 6.1063-7.469-3.1086-9.9815-3.9352-16.27 2.2183 1.9694-3.441 6.9209-5.1792 4.4748-8.3918-10.572-6.8948-16.244-16.349-16.244-25.083z"/>
    <path id="path3732" stroke="#000" stroke-width="2.4461px" fill="#59473d" d="m215.91 482.59c1.079 30.277 29.668 20.203 27.579 2.2983-8.7334-4.1369-17.016-4.2851-27.579-2.2983z"/>
    <path id="path3732-7" stroke="#000" stroke-width="2.4461px" fill="#59473d" d="m136.65 467.55c-6.4359 10.937-4.1158 29.753 20.007 21.418-3.3425-9.0395-7.4553-20.522-20.007-21.418z"/>
    <path id="path3756" stroke="#000" stroke-width="2.4461px" fill="url(#radialGradient2936)" d="m237.51 392.5c39.794-58.196 104.9-76.115 92.85 34.474-39.527-36.366-65.013-32.012-92.85-34.474z"/>
    <path id="path3756-4" stroke-linejoin="round" d="m112.37 394.33c-0.01-35.629-34.475-69.014-29.202-73.892 4.0912-3.7849 44.363 9.954 65.11 50.783-17.765-1.5698-26.407-2.7245-35.908 23.11z" stroke="#000" stroke-width="2.4461px" fill="url(#radialGradient2933)"/>
    <path id="path3780" d="m83.801 917.33c12.989-12.508 30.308-24.054 31.27-41.373 0.9622-17.319 1.4433-38.005 1.4433-38.005" stroke="#000" stroke-linecap="round" stroke-width="2.4461px" fill="none"/>
    <path id="path3800" d="m157.28 570.67c38.262 10.865 104.12 15.201 133.21-6.6132 30.232-22.674-7.0448 181.24-62.353 180.45-66.132-0.94478-109.12-184.7-70.856-173.83z" fill="url(#radialGradient2929)"/>
    <path id="path3820" d="m175.19 762.69c22.455 45.305 20.018 106.84 19.478 127.58 13.748 16.247 32.541 17.757 45.706 17.357 7.9194-33.015 29.192-126.19 36.691-148.69 7.5091-22.527-118.54-29.868-101.87 3.7494z" fill="url(#linearGradient2926)"/>
    <g id="g2947" transform="translate(1.269 2.5381)">
      <path id="path4024" transform="matrix(3.8851 0 0 3.8851 -2009.6 -1519.9)" d="m577.92 517.08a1.2388 1.2388 0 1 1 -2.4775 0 1.2388 1.2388 0 1 1 2.4775 0z"/>
      <path id="path4024-2" transform="matrix(3.8851 0 0 3.8851 -2092.6 -1529.5)" d="m577.92 517.08a1.2388 1.2388 0 1 1 -2.4775 0 1.2388 1.2388 0 1 1 2.4775 0z"/>
    </g>
  </g>
  <metadata>
    <rdf:RDF>
      <cc:Work>
        <dc:format>image/svg+xml</dc:format>
        <dc:type rdf:resource="http://purl.org/dc/dcmitype/StillImage"/>
        <cc:license rdf:resource="http://creativecommons.org/licenses/publicdomain/"/>
        <dc:publisher>
          <cc:Agent rdf:about="http://openclipart.org/">
            <dc:title>Openclipart</dc:title>
          </cc:Agent>
        </dc:publisher>
        <dc:title>Kitten</dc:title>
        <dc:date>2009-09-29T14:32:51</dc:date>
        <dc:description>A white kitten</dc:description>
        <dc:source>http://openclipart.org/detail/27615/kitten-by-sutrannu</dc:source>
        <dc:creator>
          <cc:Agent>
            <dc:title>sutrannu</dc:title>
          </cc:Agent>
        </dc:creator>
        <dc:subject>
          <rdf:Bag>
            <rdf:li>animal</rdf:li>
            <rdf:li>cat</rdf:li>
            <rdf:li>clip art</rdf:li>
            <rdf:li>clipart</rdf:li>
            <rdf:li>image</rdf:li>
            <rdf:li>kitten</rdf:li>
            <rdf:li>mammal</rdf:li>
            <rdf:li>media</rdf:li>
            <rdf:li>png</rdf:li>
            <rdf:li>public domain</rdf:li>
            <rdf:li>svg</rdf:li>
          </rdf:Bag>
        </dc:subject>
      </cc:Work>
      <cc:License rdf:about="http://creativecommons.org/licenses/publicdomain/">
        <cc:permits rdf:resource="http://creativecommons.org/ns#Reproduction"/>
        <cc:permits rdf:resource="http://creativecommons.org/ns#Distribution"/>
        <cc:permits rdf:resource="http://creativecommons.org/ns#DerivativeWorks"/>
      </cc:License>
    </rdf:RDF>
  </metadata>
</svg>
