<?xml version="1.0"?>
<svg xmlns:rdf="http://www.w3.org/1999/02/22-rdf-syntax-ns#" xmlns="http://www.w3.org/2000/svg" xmlns:cc="http://creativecommons.org/ns#" xmlns:dc="http://purl.org/dc/elements/1.1/" xmlns:svg="http://www.w3.org/2000/svg" id="svg3511" viewBox="0 0 379.18 376.76" version="1.1">
  <defs id="defs3">
    <filter id="filter3894">
      <feGaussianBlur id="feGaussianBlur3896" stdDeviation="1.2494965"/>
    </filter>
    <filter id="filter3910">
      <feGaussianBlur id="feGaussianBlur3912" stdDeviation="2.51125"/>
    </filter>
    <filter id="filter3926">
      <feGaussianBlur id="feGaussianBlur3928" stdDeviation="0.9639214"/>
    </filter>
    <filter id="filter3942">
      <feGaussianBlur id="feGaussianBlur3944" stdDeviation="4.7787432"/>
    </filter>
    <filter id="filter4010" y="-.061947" width="1.4324" height="1.1239" x="-.21619">
      <feGaussianBlur id="feGaussianBlur4012" stdDeviation="2.7079377"/>
    </filter>
    <filter id="filter4014" y="-.061947" width="1.3989" height="1.1239" x="-.19944">
      <feGaussianBlur id="feGaussianBlur4016" stdDeviation="2.7079377"/>
    </filter>
    <filter id="filter4018" y="-.070675" width="1.7797" height="1.1413" x="-.38985">
      <feGaussianBlur id="feGaussianBlur4020" stdDeviation="2.7079377"/>
    </filter>
    <filter id="filter4022" y="-.059647" width="2.0173" height="1.1193" x="-.50866">
      <feGaussianBlur id="feGaussianBlur4024" stdDeviation="2.7079377"/>
    </filter>
    <filter id="filter4050" y="-.10127" width="1.1693" height="1.2025" x="-.084638">
      <feGaussianBlur id="feGaussianBlur4052" stdDeviation="1.825"/>
    </filter>
    <filter id="filter4054">
      <feGaussianBlur id="feGaussianBlur4056" stdDeviation="1.825"/>
    </filter>
    <filter id="filter4082" y="-.246" width="1.0532" height="1.492" x="-.026595">
      <feGaussianBlur id="feGaussianBlur4084" stdDeviation="3.0269863"/>
    </filter>
  </defs>
  <g id="layer1" transform="translate(-210.37 -192.27)">
    <path id="path4400" filter="url(#filter4082)" d="m469.55 603.48a136.58 14.766 0 1 1 -273.17 0 136.58 14.766 0 1 1 273.17 0z" fill="#999" transform="translate(84.558 -84.649)"/>
    <path id="path4375" d="m147.97 268.38c-3.1 2.78-6.92 4.77-11.16 5.65-8.49 30-12.26 52.42-8.53 53.63 3.8 1.23 14.23-19.98 25.19-50.19-0.87-2.36-1.38-4.87-1.47-7.5-1.36-0.51-2.7-1.04-4.03-1.59zm142.56 3.68c-1.57 7.65-6.79 13.96-13.75 17.06 5.18 23.49 10.55 39.11 13.84 38.6 3.93-0.61 3.7-24-0.09-55.66zm-39.41 13.06c5.45 25.69 11.22 43.14 14.69 42.6 3.08-0.48 3.6-15.02 1.85-36.53-0.21 0-0.42 0.03-0.63 0.03-6.11 0-11.67-2.33-15.91-6.1zm-92.24 0.88c-6.15 23.83-8.53 40.61-5.32 41.66 3.11 1 10.64-13.03 19.28-34.69-5.44-0.71-10.3-3.24-13.96-6.97z" transform="translate(210.37 192.27)"/>
    <path id="path3872" filter="url(#filter4022)" d="m262.41 290.75c0.53 11.51 0.47 19.88-0.35 22.5 0.92 3.61 1.73 5.62 2.38 5.47 1.45-0.35 1.62-11.46 0.72-27.6-0.94-0.07-1.85-0.19-2.75-0.37z" fill="#999" transform="translate(210.37 192.27)"/>
    <path id="path3870" filter="url(#filter4018)" d="m287.62 279.56c-0.83 1.38-1.82 2.66-2.9 3.85 1.79 15.68 2.09 27.69 0.62 30.71 1.2 3.05 2.29 4.73 3.13 4.6 2.57-0.4 2.12-17.34-0.85-39.16z" fill="#999" transform="translate(210.37 192.27)"/>
    <path id="path3868" filter="url(#filter4014)" d="m147.97 268.38c-0.45 0.4-0.93 0.75-1.41 1.12-5.86 19.4-11.91 35.42-15.9 42.47-0.58 4.99-0.48 8.11 0.53 8.47 2.28 0.82 8.34-12.44 14.87-31.78 1.32-5.81 2.96-12.28 4.85-19.13-0.99-0.38-1.97-0.75-2.94-1.15z" fill="#999" transform="translate(210.37 192.27)"/>
    <path id="path3861" filter="url(#filter4010)" d="m164.41 290.19c-3.24 9.86-6.26 17.68-8.53 22.03-0.53 4.99-0.43 8.11 0.5 8.47 1.98 0.77 7.06-10.98 12.68-28.53-1.63-0.5-3.19-1.16-4.65-1.97z" fill="#999" transform="translate(210.37 192.27)"/>
    <path id="path3563" fill="#fff" d="m444.12 255.32c-8.8362 0-16.556 4.7937-20.719 11.906-4.358-6.0257-11.433-9.9375-19.438-9.9375-9.9371 0-18.452 6.0458-22.094 14.656-4.2962-6.4744-11.679-10.75-20.031-10.75-12.726 0-23.104 9.9139-23.906 22.438-3.3759-1.8135-7.2433-2.8438-11.344-2.8438-13.249 0-23.969 10.751-23.969 24 0 1.862 0.19235 3.6662 0.59375 5.4062-12.848 0.4559-23.125 11.009-23.125 23.969 0 7.8822 3.7868 14.877 9.6562 19.25-12.035 1.2879-21.406 11.435-21.406 23.812 0 11.426 7.9915 20.991 18.688 23.406-3.693 4.2196-5.9688 9.7333-5.9688 15.781 0 13.249 10.751 23.969 24 23.969 5.3826 0 10.341-1.7566 14.344-4.75-0.71978 2.2809-1.125 4.7-1.125 7.2188 0 13.249 10.751 23.969 24 23.969 6.1821 0 11.809-2.3545 16.062-6.1875 1.3296 0.5514 2.6721 1.0852 4.0312 1.5938 0.41899 12.883 10.985 23.219 23.969 23.219 9.9962 0 18.551-6.1202 22.156-14.812 3.0664 9.7172 12.144 16.75 22.875 16.75 11.724 0 21.47-8.3843 23.562-19.5 3.4061 9.1034 12.177 15.594 22.469 15.594 13.25 0 24-10.751 24-24 0-2.4843-0.3928-4.8714-1.0937-7.125 3.9904 2.9616 8.9614 4.6875 14.312 4.6875 13.249 0 23.969-10.751 23.969-24 0-6.0353-2.2271-11.534-5.9063-15.75 10.681-2.4262 18.656-11.991 18.656-23.406 0-9.2736-5.2678-17.32-12.969-21.312 8.2232-3.8046 13.938-12.125 13.938-21.781 0-12.612-9.7294-22.91-22.094-23.875 0.9856-2.624 1.5312-5.4691 1.5312-8.4375 0-13.249-10.751-23.969-24-23.969-1.862 0-3.6661 0.19235-5.4062 0.59375-0.4559-12.848-11.009-23.125-23.969-23.125-3.8662 0-7.5156 0.93799-10.75 2.5625-2.2138-10.962-11.885-19.219-23.5-19.219z"/>
    <path id="path3035" filter="url(#filter3942)" d="m456.25 265.74c1.3465 2.1888 2.3264 4.62 2.8549 7.2185 1.1233-0.56021 2.3116-1.029 3.5318-1.4028-1.7329-2.3207-3.8958-4.3051-6.3868-5.8157zm32.228 15.548c1.972 3.1941 3.1834 6.9139 3.3258 10.901 1.6389-0.37539 3.3381-0.55527 5.0918-0.55527 0.2201 0 0.42893 0.023 0.64751 0.0292-1.8602-4.3226-5.0589-7.9535-9.0651-10.375zm27.755 21.129c2.0772 3.389 3.267 7.3721 3.267 11.631 0 2.776-0.51391 5.4367-1.4422 7.8907 3.1494 0.24419 6.1166 1.1223 8.7708 2.5133 0.12752-0.96139 0.20602-1.9272 0.20602-2.9225 0-8.0931-4.3281-15.173-10.802-19.113zm19.337 30.189c2.091 3.3946 3.2964 7.384 3.2964 11.661 0 9.0304-5.3819 16.812-13.127 20.37 3.2799 1.6886 6.0864 4.1364 8.1821 7.1308 7.3855-3.69 12.479-11.25 12.479-20.019 0-8.1089-4.34-15.212-10.831-19.142zm-0.9124 40.272c2.0917 3.4009 3.2964 7.4144 3.2964 11.69 0 10.675-7.5114 19.62-17.571 21.889 3.4652 3.9429 5.5627 9.0851 5.5627 14.729 0 12.391-10.096 22.445-22.575 22.445-5.0398 0-9.7217-1.614-13.48-4.3837 0.66012 2.1076 1.0301 4.34 1.0301 6.6632 0 12.391-10.125 22.445-22.604 22.445-4.2932 0-8.2974-1.2068-11.714-3.2732 3.97 6.4392 11.089 10.755 19.249 10.755 12.479 0 22.604-10.054 22.604-22.445 0-2.3233-0.37-4.5557-1.0301-6.6632 3.7583 2.7697 8.4401 4.3837 13.48 4.3837 12.479 0 22.575-10.054 22.575-22.445 0-5.6442-2.0975-10.786-5.5627-14.729 10.06-2.269 17.571-11.214 17.571-21.889 0-8.1075-4.3405-15.229-10.831-19.171zm-252.38 15.255c1.2682 2.0603 2.8322 3.9127 4.6797 5.465 0.62013-0.96157 1.3065-1.8628 2.0602-2.7179-2.418-0.5421-4.6844-1.5029-6.74-2.7471zm37.232 35.479c-3.7698 2.7994-8.4399 4.4422-13.509 4.4422-4.3131 0-8.343-1.1943-11.773-3.2732 3.9724 6.4398 11.141 10.755 19.308 10.755 1.8591 0 3.6591-0.22506 5.3861-0.64295-0.30504-1.4687-0.47091-2.971-0.47091-4.5298 0-2.3555 0.38164-4.6178 1.0596-6.7509zm36.673 23.38c-4.0065 3.5846-9.3056 5.7865-15.128 5.7865-4.3131 0-8.343-1.1943-11.773-3.2732 3.9724 6.4398 11.141 10.755 19.308 10.755 4.8521 0 9.329-1.5658 13.009-4.1499-0.96032-2.3719-1.5307-4.9371-1.6188-7.6276-1.2801-0.47557-2.5445-0.9748-3.7968-1.4905zm90.975 6.7801c-1.9706 10.395-11.15 18.236-22.192 18.236-4.2989 0-8.3238-1.2062-11.743-3.2732 3.9659 6.452 11.105 10.755 19.278 10.755 10.264 0 18.911-6.7984 21.662-16.103-3.1287-2.5049-5.5712-5.8103-7.0049-9.6149zm-43.736 2.5718c-3.3953 8.129-11.453 13.853-20.867 13.853-4.3028 0-8.3217-1.2263-11.743-3.3024 3.9658 6.4582 11.107 10.784 19.278 10.784 8.478 0 15.827-4.655 19.69-11.515-2.9123-2.6313-5.1427-5.9975-6.3573-9.8195z" fill="#0ff" transform="matrix(.98728 0 0 .95993 3.5911 15.88)"/>
    <path id="path4086" style="block-progression:tb;color:#000000;text-transform:none;text-indent:0" d="m444.12 253.53c-8.6375 0-16.164 4.3717-20.844 10.906-4.7266-5.4178-11.567-8.9375-19.312-8.9375-9.6708 0-18.059 5.3532-22.469 13.25-4.7383-5.6455-11.727-9.3438-19.656-9.3438-12.834 0-23.356 9.4568-25.312 21.75-3.08-1.3-6.39-2.15-9.94-2.15-14.223 0-25.781 11.561-25.781 25.781 0 1.324 0.24793 2.5946 0.4375 3.875-12.88 1.4302-22.969 12.248-22.969 25.5 0 7.1309 2.999 13.514 7.6875 18.188-11.15 2.8384-19.438 12.854-19.438 24.875 0 11.344 7.3887 20.932 17.594 24.375-2.986 4.2016-4.875 9.2665-4.875 14.812 0 14.223 11.592 25.781 25.812 25.781 4.2118 0 8.1703-1.0505 11.688-2.8438-0.16119 1.1496-0.28125 2.3041-0.28125 3.5 0 14.223 11.592 25.781 25.812 25.781 6.2304 0 11.888-2.2924 16.344-5.9688 0.69382 0.28185 1.3905 0.57266 2.0938 0.84375 1.07 13.249 12.107 23.75 25.625 23.75 9.2841 0 17.43-4.932 21.969-12.312 4.2383 8.4482 12.985 14.25 23.062 14.25 10.91 0 20.243-6.8117 24-16.406 4.522 7.4619 12.686 12.5 22.031 12.5 14.223 0 25.812-11.589 25.812-25.812 0-1.1661-0.12809-2.2839-0.28125-3.4062 3.5198 1.778 7.4933 2.7812 11.688 2.7812 14.223 0 25.781-11.592 25.781-25.812 0-5.5239-1.8485-10.584-4.8125-14.781 10.19-3.452 17.562-13.042 17.562-24.375 0-8.8474-4.6304-16.479-11.438-21.125 7.4141-4.5328 12.406-12.659 12.406-21.969 0-12.795-9.4164-23.28-21.656-25.281 0.64038-2.247 1.0938-4.5823 1.0938-7.0312 0-14.223-11.592-25.75-25.812-25.75-1.3236 0-2.595 0.21679-3.875 0.40625-1.4302-12.88-12.248-22.938-25.5-22.938-3.4077 0-6.5879 0.82624-9.5625 2.0312-3.0946-10.777-12.935-18.688-24.688-18.688zm0 3.5938c10.761 0 19.672 7.6446 21.719 17.781a1.8002 1.8002 0 0 0 2.5938 1.25c2.9975-1.5055 6.3624-2.375 9.9375-2.375 12.008 0 21.734 9.4765 22.156 21.375a1.8002 1.8002 0 0 0 2.2188 1.6875c1.5973-0.36846 3.262-0.53125 5-0.53125 12.279 0 22.188 9.8805 22.188 22.156 0 2.7478-0.49436 5.3847-1.4062 7.8125a1.8002 1.8002 0 0 0 1.5312 2.4375c11.447 0.89382 20.438 10.376 20.438 22.062 0 8.946-5.2711 16.638-12.875 20.156a1.8002 1.8002 0 0 0 -0.0937 3.2188c7.1216 3.6925 12 11.127 12 19.719 0 10.577-7.3768 19.414-17.25 21.656a1.8002 1.8002 0 0 0 -0.9375 2.9375c3.406 3.9032 5.4375 8.97 5.4375 14.562 0 12.279-9.8805 22.219-22.156 22.219-4.9641 0-9.5653-1.609-13.25-4.3438a1.8002 1.8002 0 0 0 -2.7812 1.9688c0.65049 2.0915 1 4.2992 1 6.5938 0 12.276-9.9117 22.219-22.188 22.219-9.5352 0-17.632-6.021-20.781-14.438a1.8002 1.8002 0 0 0 -3.4688 0.3125c-1.9348 10.279-10.916 18.031-21.781 18.031-9.9442 0-18.322-6.5174-21.156-15.5a1.8002 1.8002 0 0 0 -3.375 -0.15625c-3.3335 8.0377-11.238 13.719-20.5 13.719-12.029 0-21.799-9.5688-22.188-21.5a1.8002 1.8002 0 0 0 -1.13 -1.63c-1.3362-0.49997-2.6554-1.0179-3.9688-1.5625a1.8002 1.8002 0 0 0 -1.9062 0.3125c-3.9399 3.55-9.1186 5.75-14.844 5.75-12.279 0-22.188-9.9118-22.188-22.188 0-2.3257 0.36304-4.5388 1.0312-6.6562a1.8002 1.8002 0 0 0 -2.8125 -2c-3.7021 2.7686-8.259 4.4062-13.25 4.4062-12.279 0-22.188-9.9118-22.188-22.188 0-5.5964 2.0775-10.683 5.5-14.594a1.8002 1.8002 0 0 0 -0.9375 -2.9375c-9.8879-2.2326-17.281-11.07-17.281-21.656 0-11.469 8.6424-20.839 19.781-22.031a1.8002 1.8002 0 0 0 0.875 -3.2188c-5.4295-4.0455-8.9062-10.507-8.9062-17.812 0-12.008 9.4765-21.734 21.375-22.156a1.8002 1.8002 0 0 0 1.6875 -2.2188c-0.36845-1.5972-0.53125-3.262-0.53125-5 0-12.279 9.8805-22.188 22.156-22.188 3.799 0 7.3786 0.94822 10.5 2.625a1.8002 1.8002 0 0 0 2.625 -1.4688c0.74297-11.596 10.334-20.75 22.125-20.75 7.7381 0 14.558 3.9504 18.531 9.9375a1.8002 1.8002 0 0 0 3.1562 -0.28125c3.3676-7.9618 11.231-13.562 20.438-13.562 7.4184 0 13.936 3.6116 17.969 9.1875a1.8002 1.8002 0 0 0 3.0312 -0.15625c3.8509-6.5796 10.971-11 19.156-11z"/>
    <path id="path4385" d="m458.89 353.85c5.3105 24.786-5.5195 40.505-24.189 35.11-18.67-5.3952-11.257-31.396-16.567-56.182-5.3105-24.786-21.333-38.971-2.6635-33.576 18.67 5.3952 38.11 29.862 43.42 54.648z" fill="#ffe6d5"/>
    <path id="path4388" stroke-linejoin="round" d="m249.94 352.69c-6.5429 24.49 3.4877 40.731 22.404 36.276 18.916-4.4551 12.812-30.794 19.355-55.283 6.5429-24.49 23.255-37.856 4.3387-33.401-18.916 4.4551-39.555 27.919-46.098 52.409z" stroke="#000" stroke-linecap="round" stroke-width="4.255" fill="#ffe6d5"/>
    <path id="path3568" fill="#ffe6d5" d="m413.47 350.49c0 47.59-26.304 68.169-58.752 68.169s-58.752-20.579-58.752-68.169 26.304-104.17 58.752-104.17 58.752 56.579 58.752 104.17z"/>
    <path id="path4402" d="m364.9 231.27s18.306-6.7302 31.739-1.7116 21.22 21.789 21.22 21.789c-2.7775 1.7958-2.8906 4.0681-4.3877 2.2169-5.5546-6.8686-11.996-12.501-20.092-15.826-6.999-2.8748-16.99 6.5851-23.989-0.62561-3.4223-3.5262-1.2238-2.4276-4.491-5.8424z"/>
    <path id="path4404" d="m349.79 259.96s-14.988-12.481-29.326-12.259c-14.338 0.22186-27.3 13.408-27.3 13.408 2.0142 2.6235 1.3585 4.802 3.3898 3.5603 7.5368-4.6074 15.494-7.7526 24.237-8.1696 7.5578-0.36046 13.797 11.903 22.809 7.4574 4.4068-2.174 1.9673-1.8765 6.1906-3.9975z"/>
    <path id="path3836" filter="url(#filter3910)" fill="#ffb380" d="m374.95 257.08c17.141 19.213 28.756 54.685 28.756 86.087 0 45.823-24.748 65.656-55.278 65.656-13.983 0-26.754-4.1803-36.489-13.089 10.081 11.57 24.388 16.94 40.253 16.94 30.53 0 55.278-19.833 55.278-65.656 0-33.651-13.338-71.955-32.52-89.938z"/>
    <path id="path3848" filter="url(#filter3926)" d="m435.71 317.96c7.2921 8.9259 13.181 20.861 15.523 32.879 4.1347 21.219-4.3203 34.662-18.857 30.043-1.0585-0.33634-1.9919-0.76796-2.8468-1.2841 1.5678 3.0407 3.9053 5.2727 7.5183 6.4207 14.536 4.6188 22.991-8.8244 18.857-30.043-2.826-14.503-10.795-28.894-20.195-38.016z" fill="#ffb380"/>
    <path id="path3855" filter="url(#filter3894)" d="m295.56 304.43c-0.87644 0.009-2.0054 0.19376-3.3991 0.50274-2.1593 5.2144-7.0181 13.714-9.7562 24.746-5.4327 21.888-0.38089 45.426-16.087 49.408-4.9083 1.2443-9.0785 0.68832-12.351-1.3406 3.3451 5.9999 9.3954 8.7154 17.333 6.7032 15.707-3.9818 10.655-27.52 16.087-49.408 4.7536-19.152 15.965-30.693 8.1734-30.611z" fill="#ffb380"/>
    <path id="path3571" stroke-linejoin="round" d="m94.982 714.05a33.782 27.907 0 1 1 -67.564 0 33.782 27.907 0 1 1 67.564 0z" transform="translate(254.84 -416.32)" stroke="#000" stroke-linecap="round" stroke-width="3.6" fill="#fff"/>
    <path id="path3573" stroke-linejoin="round" d="m180.17 708.67a36.23 36.23 0 1 1 -72.46 0 36.23 36.23 0 1 1 72.46 0z" transform="translate(243.09 -409.47)" stroke="#000" stroke-linecap="round" stroke-width="3.6" fill="#fff"/>
    <path id="path4370" fill="#333" d="m336.29 303.99c0 4.4852-3.636 8.1212-8.1212 8.1212s-8.1212-3.636-8.1212-8.1212 3.636-8.1212 8.1212-8.1212 8.1212 3.636 8.1212 8.1212z"/>
    <path id="path4373" fill="#333" d="m377.64 303.25c0 4.4852-3.636 8.1212-8.1212 8.1212s-8.1212-3.636-8.1212-8.1212 3.636-8.1212 8.1212-8.1212 8.1212 3.636 8.1212 8.1212z"/>
    <path id="path3841" filter="url(#filter4054)" fill="#0ff" d="m408.55 274.18c4.7769 5.6855 7.6654 13.065 7.6654 21.132 0 17.969-14.302 32.526-31.958 32.526-7.9297 0-15.176-2.9362-20.763-7.8017 5.8632 6.9743 14.567 11.394 24.292 11.394 17.655 0 31.958-14.557 31.958-32.526 0-9.9019-4.3383-18.757-11.195-24.724z"/>
    <path id="path3846" filter="url(#filter4050)" d="m335.95 278.68c4.3948 4.2952 7.0522 9.8698 7.0522 15.964 0 13.575-13.158 24.572-29.401 24.572-7.2954 0-13.962-2.2182-19.102-5.8939 5.3941 5.2688 13.401 8.6076 22.349 8.6076 16.243 0 29.401-10.997 29.401-24.572 0-7.4805-3.9912-14.17-10.299-18.678z" fill="#0ff"/>
    <path id="path4406" d="m401.76 395.65c4.2945-11.326 0.26152-21.183-7.4344-30.159 6.3381 1.553 16.178 3.6681 14.563 12.829-1.131 6.661-3.9285 12.893-7.1282 17.33z" fill="#fff"/>
    <path id="path3575" style="block-progression:tb;color:#000000;text-transform:none;text-indent:0" d="m327.71 385.95c7.07 7.1232 15.818 10.406 25.406 10.406 7.0217 0 13.593-1.7639 19.375-5.5l1.5312 2.625c-6.2766 4.0204-13.402 6-20.906 6-1.1115 0-2.2182-0.039-3.3125-0.125-0.7534 7.1038-0.27662 13.206 3.625 17.344l-2.625 2.4688c-5.0042-5.3069-5.3819-12.673-4.5625-20.25-7.6211-1.2884-14.673-4.7876-20.562-10.625 0.67575-0.78775 1.3579-1.5629 2.0312-2.3438z"/>
    <path id="path4092" style="block-progression:tb;color:#000000;text-transform:none;text-indent:0" d="m389.31 362.41 3.6562 4.25c7.4743 8.7172 11.133 17.691 7.0938 28.344l3.1562 1.6875c3.3763-4.6818 6.2555-11.101 7.4375-18.062 0.46006-2.6096 0.11065-4.9379-0.875-6.8125s-2.5346-3.262-4.25-4.3125c-3.4308-2.1011-7.6379-2.9798-10.781-3.75l-5.4375-1.3438zm9.4062 6.125c1.795 0.55034 3.537 1.2048 4.9375 2.0625 1.3348 0.81747 2.3344 1.7592 2.9375 2.9062 0.60311 1.147 0.87868 2.5292 0.53125 4.5-0.42 2.4735-1.1331 4.8722-1.9688 7.1562-0.3343-5.9506-2.8291-11.472-6.4375-16.625z"/>
    <path id="path4114" style="block-progression:tb;color:#000000;text-transform:none;text-indent:0" d="m358.34 458.83a1.8002 1.8002 0 0 0 -1.2188 0.46875c-2.8635 2.5801-6.3908 4.4301-10.312 5.25a1.8002 1.8002 0 0 0 -1.3438 1.25c-4.2598 15.043-7.3506 28.192-8.9062 37.812-0.77785 4.8104-1.1662 8.7226-1.125 11.656 0.0206 1.4668 0.11824 2.6903 0.4375 3.75s0.93394 2.2084 2.2188 2.625c1.3102 0.42486 2.5126-0.18074 3.4062-0.875s1.6956-1.6237 2.5938-2.8438c1.7963-2.44 3.8422-5.9865 6.0938-10.5 4.5031-9.027 9.8483-21.91 15.344-37.062a1.8002 1.8002 0 0 0 0 -1.25c-0.80413-2.1815-1.2645-4.5009-1.3438-6.9375a1.8002 1.8002 0 0 0 -1.1875 -1.625c-1.3362-0.49997-2.6554-1.0179-3.9688-1.5625a1.8002 1.8002 0 0 0 -0.6875 -0.15625zm142.47 3.6875a1.8002 1.8002 0 0 0 -1.6562 1.4375c-1.4571 7.0693-6.281 12.913-12.719 15.781a1.8002 1.8002 0 0 0 -1.0312 2.0312c2.6018 11.787 5.2425 21.632 7.6875 28.531 1.2225 3.4498 2.3737 6.1486 3.5312 8.0938 0.57878 0.97259 1.1514 1.7527 1.8438 2.375 0.69238 0.62227 1.6774 1.1764 2.8125 1 1.354-0.21041 2.141-1.2659 2.625-2.2812 0.48398-1.0153 0.77961-2.2068 1.0312-3.6875 0.50328-2.9614 0.73949-7.0022 0.71875-12-0.0415-9.9957-1.0691-23.811-2.9688-39.688a1.8002 1.8002 0 0 0 -1.875 -1.5938zm-142.25 0.15625c0.71143 0.28936 1.4349 0.56569 2.1562 0.84375 0.17225 2.1275 0.59344 4.1754 1.25 6.125-5.39 14.814-10.655 27.478-15 36.188-2.2003 4.4107-4.1794 7.8352-5.75 9.9688-0.77327 1.0504-1.4584 1.7397-1.9062 2.0938-0.14838-0.52703-0.26396-1.4253-0.28125-2.6562-0.0358-2.5478 0.33448-6.3357 1.0938-11.031 1.4877-9.2004 4.4618-21.991 8.5625-36.562 3.6762-0.95023 7.0235-2.6328 9.875-4.9688zm141.28 9.2188c1.3213 12.512 2.1538 23.78 2.1875 31.906 0.0203 4.8827-0.18571 8.7902-0.625 11.375-0.21212 1.2482-0.48373 2.1703-0.71875 2.6875-0.25661-0.27127-0.57566-0.65195-0.96875-1.3125-0.93678-1.5742-2.0709-4.1414-3.25-7.4688-2.2654-6.3928-4.7667-15.728-7.25-26.812 4.4973-2.3401 8.1678-5.9531 10.625-10.375zm-38.281 3.6875a1.8002 1.8002 0 0 0 -1.8125 2.1875c2.7308 12.886 5.5274 23.72 8.125 31.344 1.2988 3.812 2.5327 6.7951 3.75 8.9375 0.60867 1.0712 1.1927 1.9473 1.9062 2.625 0.71352 0.6777 1.7388 1.28 2.9375 1.0938 1.0643-0.16538 1.8162-0.9174 2.2812-1.6562 0.46503-0.73885 0.74498-1.5702 1-2.5625 0.51003-1.9845 0.81841-4.5839 0.96875-7.8438 0.30067-6.5197-0.0276-15.603-0.90625-26.406a1.8002 1.8002 0 0 0 -1.8125 -1.6562c-0.32767 0.009-0.52679 0.0312-0.59375 0.0312-5.6584 0-10.794-2.1317-14.719-5.625a1.8002 1.8002 0 0 0 -1.125 -0.46875zm-92.312 0.875a1.8002 1.8002 0 0 0 -1.75 1.375c-3.0864 11.958-5.2096 22.13-6.1875 29.562-0.48894 3.7165-0.70912 6.7561-0.5625 9.0625 0.0733 1.1532 0.22654 2.118 0.5625 3 0.33596 0.88203 0.95537 1.8285 2.0625 2.1875 1.0726 0.34784 2.1342-0.0113 2.9062-0.5 0.77207-0.48874 1.4465-1.1605 2.1562-2 1.4196-1.6791 2.9488-4.085 4.6562-7.1875 3.4149-6.205 7.4756-15.187 11.812-26.062a1.8002 1.8002 0 0 0 -1.4688 -2.4375c-5.0365-0.65525-9.516-2.9859-12.906-6.4375a1.8002 1.8002 0 0 0 -1.2812 -0.5625zm1.0625 5.0938c2.9968 2.3967 6.5322 4.1002 10.406 4.9688-3.9822 9.8356-7.7105 18.108-10.781 23.688-1.6441 2.9874-3.1127 5.2485-4.25 6.5938-0.44687 0.52857-0.78101 0.77837-1.0625 1-0.10431-0.37451-0.23288-0.83294-0.28125-1.5938-0.11946-1.879 0.0591-4.7547 0.53125-8.3438 0.86212-6.553 2.7929-15.765 5.4375-26.312zm94.031 0.0937c3.5405 2.1056 7.6285 3.3788 12 3.5625 0.76499 9.9439 1.0537 18.405 0.78125 24.312-0.14407 3.124-0.44576 5.5764-0.84375 7.125-0.14718 0.57266-0.30193 0.8689-0.4375 1.1562-0.28911-0.31683-0.65986-0.76765-1.0938-1.5312-1.0118-1.7808-2.2102-4.6186-3.4688-8.3125-2.1844-6.411-4.5705-15.701-6.9375-26.312z"/>
    <path id="path4120" style="block-progression:tb;color:#000000;text-transform:none;text-indent:0" d="m328.16 294.06c-5.458 0-9.9062 4.4795-9.9062 9.9375s4.4482 9.9062 9.9062 9.9062 9.9375-4.4482 9.9375-9.9062-4.4795-9.9375-9.9375-9.9375zm0 3.5938c3.5124 0 6.3438 2.8313 6.3438 6.3438 0 3.5124-2.8313 6.3125-6.3438 6.3125-3.5124 0-6.3125-2.8001-6.3125-6.3125s2.8001-6.3438 6.3125-6.3438z"/>
    <path id="path4126" style="block-progression:tb;color:#000000;text-transform:none;text-indent:0" d="m369.5 293.34c-5.458 0-9.9062 4.4483-9.9062 9.9062 0 5.458 4.4482 9.9375 9.9062 9.9375s9.9375-4.4795 9.9375-9.9375-4.4795-9.9062-9.9375-9.9062zm0 3.5938c3.5124 0 6.3438 2.8001 6.3438 6.3125s-2.8313 6.3125-6.3438 6.3125c-3.5124 0-6.3125-2.8001-6.3125-6.3125s2.8001-6.3125 6.3125-6.3125z"/>
    <path id="path4132" style="block-progression:tb;color:#000000;text-transform:none;text-indent:0" d="m316.03 268.02c-19.461 0-35.562 13.129-35.562 29.719s16.102 29.688 35.562 29.688c19.461 0 35.594-13.097 35.594-29.688 0-16.59-16.133-29.719-35.594-29.719zm0 3.5938c17.854 0 32 11.89 32 26.125s-14.146 26.094-32 26.094-31.969-11.859-31.969-26.094 14.115-26.125 31.969-26.125z"/>
    <path id="path4138" style="block-progression:tb;color:#000000;text-transform:none;text-indent:0" d="m387.03 261.16c-20.982 0-38.031 17.049-38.031 38.031s17.049 38.031 38.031 38.031 38.031-17.049 38.031-38.031-17.049-38.031-38.031-38.031zm0 3.625c19.037 0 34.438 15.37 34.438 34.406 0 19.037-15.401 34.438-34.438 34.438s-34.438-15.401-34.438-34.438 15.401-34.406 34.438-34.406z"/>
    <path id="path3067" d="m144.34 52.25c-14.33 0-27.13 10.221-37.25 25.344 1.41 0.048 2.8 0.157 4.16 0.344 9.48-13.497 21-22.094 33.09-22.094 9.87 0 19.37 5.727 27.69 15.156 1.47-0.188 2.95-0.306 4.47-0.312-9.19-11.242-20.13-18.438-32.16-18.438zm-57.496 76.37c-1.986 9.87-3.063 19.9-3.063 29.6 0 24.13 6.706 41.66 17.719 53.16 11.01 11.49 26.24 16.81 42.84 16.81 16.61 0 31.83-5.32 42.85-16.81 11.01-11.5 17.72-29.03 17.72-53.16 0-8.49-0.84-17.24-2.38-25.91-0.99 1.02-2.05 1.95-3.15 2.85 1.26 7.74 1.93 15.52 1.93 23.06 0 23.46-6.46 39.99-16.72 50.69-10.25 10.69-24.4 15.68-40.25 15.68-15.84 0-29.99-4.99-40.25-15.68-10.248-10.7-16.684-27.23-16.684-50.69 0-9.12 0.991-18.59 2.813-27.94-1.165-0.49-2.294-1.05-3.375-1.66z" style="block-progression:tb;color:#000000;text-transform:none;text-indent:0" transform="translate(210.37 192.27)"/>
    <path id="path3079" d="m212.88 107.81c-0.04 1.58-0.18 3.13-0.41 4.66 6.18 3.58 12.34 9.11 17.69 15.84 7.66 9.64 13.7 21.68 16.28 33.69 2.57 12.01 1.11 21.59-2.78 27.25-3.9 5.66-10.05 7.89-18.75 5.37-4.2-1.21-6.66-3.38-8.44-6.56-1.79-3.17-2.76-7.43-3.31-12.44-1.12-10-0.59-22.82-3.32-35.56-0.95-4.44-2.22-8.53-3.59-12.25-0.96 1.37-2.02 2.66-3.16 3.88 0.99 2.89 1.89 5.96 2.6 9.25 2.58 12.04 2.04 24.62 3.22 35.15 0.58 5.27 1.6 10.07 3.84 14.07 2.24 3.99 5.86 7.07 11 8.56 9.97 2.88 18.55-0.01 23.41-7.06 4.85-7.06 6.17-17.76 3.43-30.54-2.73-12.77-9.07-25.33-17.12-35.46-6.1-7.68-13.19-13.98-20.59-17.85z" style="block-progression:tb;color:#000000;text-transform:none;text-indent:0" transform="translate(210.37 192.27)"/>
    <path id="path3088" d="m72.625 111.31c-5.743 3.51-11.269 8.31-16.25 13.97-8.551 9.72-15.503 21.94-18.875 34.56s-2.593 23.37 1.906 30.66c4.5 7.29 12.961 10.63 23.063 8.25 5.209-1.23 8.935-4.13 11.375-8 2.439-3.87 3.713-8.61 4.562-13.84 1.699-10.47 1.789-23.07 4.969-34.97 1.248-4.67 2.871-8.91 4.563-12.72-1.291-0.66-2.521-1.4-3.688-2.19-1.816 4.09-3.601 8.7-4.969 13.81-3.363 12.59-3.479 25.44-5.093 35.38-0.808 4.97-1.997 9.17-3.938 12.25s-4.501 5.15-8.75 6.15c-8.815 2.08-14.86-0.49-18.469-6.34-3.609-5.84-4.577-15.44-1.406-27.31s9.804-23.63 17.937-32.88c4.513-5.13 9.488-9.47 14.532-12.68-0.61-1.32-1.106-2.69-1.469-4.1z" style="block-progression:tb;color:#000000;text-transform:none;text-indent:0" transform="translate(210.37 192.27)"/>
    <path id="path3097" d="m359.26 247.85c42.123 83.405-10.414 136.97-57.727 129.48 90.739 58.618 135.3-35.196 57.727-129.48z" transform="matrix(-.046923 -.15008 -.098180 .055826 437.32 397.66)"/>
  </g>
  <metadata>
    <rdf:RDF>
      <cc:Work>
        <dc:format>image/svg+xml</dc:format>
        <dc:type rdf:resource="http://purl.org/dc/dcmitype/StillImage"/>
        <cc:license rdf:resource="http://creativecommons.org/licenses/publicdomain/"/>
        <dc:publisher>
          <cc:Agent rdf:about="http://openclipart.org/">
            <dc:title>Openclipart</dc:title>
          </cc:Agent>
        </dc:publisher>
        <dc:title>Eid Sheep Color</dc:title>
        <dc:date>2012-08-23T15:45:00</dc:date>
        <dc:description>Eid Sheep Color</dc:description>
        <dc:source>http://openclipart.org/detail/171863/eid-sheep-color-by-halattas-171863</dc:source>
        <dc:creator>
          <cc:Agent>
            <dc:title>halattas</dc:title>
          </cc:Agent>
        </dc:creator>
        <dc:subject>
          <rdf:Bag>
            <rdf:li>Eid Sheep Color</rdf:li>
            <rdf:li>clip art</rdf:li>
            <rdf:li>clipart</rdf:li>
          </rdf:Bag>
        </dc:subject>
      </cc:Work>
      <cc:License rdf:about="http://creativecommons.org/licenses/publicdomain/">
        <cc:permits rdf:resource="http://creativecommons.org/ns#Reproduction"/>
        <cc:permits rdf:resource="http://creativecommons.org/ns#Distribution"/>
        <cc:permits rdf:resource="http://creativecommons.org/ns#DerivativeWorks"/>
      </cc:License>
    </rdf:RDF>
  </metadata>
</svg>
