<?xml version="1.0"?>
<svg xmlns:rdf="http://www.w3.org/1999/02/22-rdf-syntax-ns#" xmlns="http://www.w3.org/2000/svg" xmlns:cc="http://web.resource.org/cc/" xmlns:xlink="http://www.w3.org/1999/xlink" xmlns:dc="http://purl.org/dc/elements/1.1/" xmlns:svg="http://www.w3.org/2000/svg" id="svg3375" viewBox="0 0 208.38 126" version="1.0">
  <defs id="defs3377">
    <linearGradient id="linearGradient3363" y2="171.41" gradientUnits="userSpaceOnUse" x2="209.81" gradientTransform="translate(44.089 93.501)" y1="203.55" x1="242.24">
      <stop id="stop2845" stop-color="#005100" offset="0"/>
      <stop id="stop2847" stop-color="#005100" stop-opacity="0" offset="1"/>
    </linearGradient>
  </defs>
  <g id="layer1" transform="translate(-161.52 -157.93)">
    <g id="g3366" transform="translate(-9.6873 -23.024)">
      <path id="path1874" d="m248.63 240.55s-54.11-2.64-64.2 11.01c-10.26 13.86-34.4 59.16 33.02 54.57 67.41-4.58 137.12-28.89 137.12-28.89l-5.04-13.76-100.9-22.93z" fill-rule="evenodd" stroke="#000" stroke-width="1px" fill="#008000"/>
      <path id="path2825" d="m248.63 240.55s-54.11-2.64-64.2 11.01c-10.26 13.86-34.4 59.16 33.02 54.57 67.41-4.58 137.12-28.89 137.12-28.89l-5.04-13.76-100.9-22.93z" fill="url(#linearGradient3363)" fill-rule="evenodd"/>
      <path id="path1872" d="m344.2 203.47s-66.36-33.91-94.57 22.4c-20.4 40.72-13.38 36.48-6.57 41.26 7.02 4.92 79.22 31.52 118.21 8.67 2.16-1.27-2.03-17.84 1.13-22.38 20.38-29.25 9.52 13.31 11.03 10.55 13.56-24.76-21.58-60.5-29.23-60.5z" fill-rule="evenodd" stroke="#000" stroke-width="1.0244px" fill="#f0f"/>
      <path id="path1876" d="m311.14 181.73s-5.97-1.83-7.68 3.96c-1.97 6.69 4.14 6.78 2.81 8.39-10.53 12.65-36.39 52.13-28.29 84.54 0.46 1.83 26.15 5.04 26.15 5.04-7.63-24.88 2.01-61.94 6.75-88.57 0.18-1 4.32 0.65 5.53-4.21 0.79-3.23 0.19-8.61-5.27-9.15z" fill-rule="evenodd" stroke="#000" stroke-width="1px" fill="#800080"/>
      <path id="path1878" fill-opacity="0" d="m363.56 270.28c1.96 0.21 3.88 0.1 5.81-0.26 3.5-0.76 6.91-1.9 10.22-3.25l-5.12 6.46c-3.39 1.22-6.83 2.33-10.34 3.15-2.05 0.36-4.1 0.42-6.18 0.48l5.61-6.58z"/>
      <path id="path1880" d="m361.63 264.31c8.65 6.22 11.89-3.43 13.09-8.48l1.15 9.77c-2.58-0.38-5.68 12.63-15.75 8.98l1.51-10.27z" stroke="#000" fill="#f0f"/>
      <path id="path2851" d="m312.29 195.04c7.84-0.8 25.33 2.76 39.17 12.42 11.08 7.73 19.32 21.71 23.58 34.52 0.14 0.42-2.03-0.47-4.54 1.63-6.8 5.7-8.85 12.59-8.85 12.59-4.22-38.8-44.88-61.94-49.36-61.16z" fill-rule="evenodd" stroke="#000" stroke-width="1px" fill="#800080"/>
    </g>
  </g>
  <metadata>
    <rdf:RDF>
      <cc:Work>
        <dc:format>image/svg+xml</dc:format>
        <dc:type rdf:resource="http://purl.org/dc/dcmitype/StillImage"/>
        <cc:license rdf:resource="http://creativecommons.org/licenses/publicdomain/"/>
        <dc:publisher>
          <cc:Agent rdf:about="http://openclipart.org/">
            <dc:title>Openclipart</dc:title>
          </cc:Agent>
        </dc:publisher>
        <dc:title>Cap</dc:title>
        <dc:date>2007-09-03T08:26:47</dc:date>
        <dc:description>apparel, apparel, cap, cap, cartoon, cartoon, clip art, clipart, hat, hat, icon, icon, image, media, png, public domain, svg, </dc:description>
        <dc:source>http://openclipart.org/detail/5150/cap-by-biswajyotim</dc:source>
        <dc:creator>
          <cc:Agent>
            <dc:title>biswajyotim</dc:title>
          </cc:Agent>
        </dc:creator>
        <dc:subject>
          <rdf:Bag>
            <rdf:li>apparel</rdf:li>
            <rdf:li>cap</rdf:li>
            <rdf:li>cartoon</rdf:li>
            <rdf:li>clip art</rdf:li>
            <rdf:li>clipart</rdf:li>
            <rdf:li>hat</rdf:li>
            <rdf:li>icon</rdf:li>
            <rdf:li>image</rdf:li>
            <rdf:li>media</rdf:li>
            <rdf:li>png</rdf:li>
            <rdf:li>public domain</rdf:li>
            <rdf:li>svg</rdf:li>
          </rdf:Bag>
        </dc:subject>
      </cc:Work>
      <cc:License rdf:about="http://creativecommons.org/licenses/publicdomain/">
        <cc:permits rdf:resource="http://creativecommons.org/ns#Reproduction"/>
        <cc:permits rdf:resource="http://creativecommons.org/ns#Distribution"/>
        <cc:permits rdf:resource="http://creativecommons.org/ns#DerivativeWorks"/>
      </cc:License>
    </rdf:RDF>
  </metadata>
</svg>
