<?xml version="1.0" encoding="UTF-8" standalone="no"?>
<!-- Created with Inkscape (http://www.inkscape.org/) -->

<svg
   xmlns:dc="http://purl.org/dc/elements/1.1/"
   xmlns:cc="http://creativecommons.org/ns#"
   xmlns:rdf="http://www.w3.org/1999/02/22-rdf-syntax-ns#"
   xmlns:svg="http://www.w3.org/2000/svg"
   xmlns="http://www.w3.org/2000/svg"
   xmlns:sodipodi="http://sodipodi.sourceforge.net/DTD/sodipodi-0.dtd"
   xmlns:inkscape="http://www.inkscape.org/namespaces/inkscape"
   sodipodi:docname="wheelbarrow.svg"
   inkscape:version="0.48.4 r9939"
   version="1.1"
   id="svg9409"
   height="186.52818"
   width="370.02295"
   inkscape:export-filename="/home/chaunce/Documents/runeman.org/clipart/wheelbarrow.png"
   inkscape:export-xdpi="43.781044"
   inkscape:export-ydpi="43.781044">
  <title
     id="title3131">Wheelbarrow</title>
  <sodipodi:namedview
     id="base"
     pagecolor="#ffffff"
     bordercolor="#666666"
     borderopacity="1.0"
     inkscape:pageopacity="0.0"
     inkscape:pageshadow="2"
     inkscape:zoom="1.4142136"
     inkscape:cx="70.553812"
     inkscape:cy="141.4379"
     inkscape:document-units="px"
     inkscape:current-layer="layer1"
     showgrid="false"
     inkscape:window-width="1366"
     inkscape:window-height="717"
     inkscape:window-x="-3"
     inkscape:window-y="28"
     inkscape:window-maximized="1"
     fit-margin-top="0"
     fit-margin-left="0"
     fit-margin-right="0"
     fit-margin-bottom="0">
    <inkscape:grid
       id="grid9417"
       type="xygrid"
       empspacing="5"
       visible="true"
       enabled="true"
       snapvisiblegridlinesonly="true"
       originx="-139.56572px"
       originy="-458.3608px" />
  </sodipodi:namedview>
  <defs
     id="defs9411">
    <filter
       height="1.6529331"
       y="-0.32646656"
       width="1.1583363"
       x="-0.079168141"
       id="filter10228"
       inkscape:collect="always"
       color-interpolation-filters="sRGB">
      <feGaussianBlur
         id="feGaussianBlur10230"
         stdDeviation="9.3300549"
         inkscape:collect="always" />
    </filter>
  </defs>
  <metadata
     id="metadata9414">
    <rdf:RDF>
      <cc:Work
         rdf:about="">
        <dc:format>image/svg+xml</dc:format>
        <dc:type
           rdf:resource="http://purl.org/dc/dcmitype/StillImage" />
        <dc:title>Wheelbarrow</dc:title>
        <dc:date>2014-02-09</dc:date>
        <dc:creator>
          <cc:Agent>
            <dc:title>Algot Runeman</dc:title>
          </cc:Agent>
        </dc:creator>
        <dc:rights>
          <cc:Agent>
            <dc:title>Algot Runeman</dc:title>
          </cc:Agent>
        </dc:rights>
        <dc:publisher>
          <cc:Agent>
            <dc:title>runeman.org</dc:title>
          </cc:Agent>
        </dc:publisher>
        <cc:license
           rdf:resource="http://creativecommons.org/licenses/publicdomain/" />
        <dc:identifier>wheelbarrow.svg</dc:identifier>
      </cc:Work>
      <cc:License
         rdf:about="http://creativecommons.org/licenses/publicdomain/">
        <cc:permits
           rdf:resource="http://creativecommons.org/ns#Reproduction" />
        <cc:permits
           rdf:resource="http://creativecommons.org/ns#Distribution" />
        <cc:permits
           rdf:resource="http://creativecommons.org/ns#DerivativeWorks" />
      </cc:License>
    </rdf:RDF>
  </metadata>
  <g
     id="layer1"
     inkscape:groupmode="layer"
     inkscape:label="Layer 1"
     transform="translate(-139.56572,-407.4732)">
    <path
       transform="matrix(1.0517984,0,0,0.65696718,-26.395894,192.66522)"
       d="m 487.19656,554.20544 c 0,18.94043 -63.31649,34.29468 -141.42135,34.29468 -78.10486,0 -141.42136,-15.35425 -141.42136,-34.29468 0,-18.94042 63.3165,-34.29467 141.42136,-34.29467 78.10486,0 141.42135,15.35425 141.42135,34.29467 z"
       sodipodi:ry="34.294678"
       sodipodi:rx="141.42136"
       sodipodi:cy="554.20544"
       sodipodi:cx="345.77521"
       id="path9450"
       style="opacity:0.57207211;color:#000000;fill:#1a1a1a;fill-opacity:1;fill-rule:nonzero;stroke:none;stroke-width:6;marker:none;visibility:visible;display:inline;overflow:visible;filter:url(#filter10228);enable-background:accumulate"
       sodipodi:type="arc" />
    <g
       transform="matrix(0.99540827,0.09572005,-0.09572005,0.99540827,49.297513,-27.070306)"
       id="g9425">
      <path
         sodipodi:type="arc"
         style="color:#000000;fill:#000000;fill-opacity:1;fill-rule:nonzero;stroke:#000000;stroke-width:3;stroke-linecap:round;stroke-linejoin:round;stroke-miterlimit:4;stroke-opacity:1;stroke-dasharray:none;stroke-dashoffset:0;marker:none;visibility:visible;display:inline;overflow:visible;enable-background:accumulate"
         id="path9421"
         sodipodi:cx="440"
         sodipodi:cy="512.36218"
         sodipodi:rx="30"
         sodipodi:ry="30"
         d="m 470,512.36218 c 0,16.56855 -13.43146,30 -30,30 -16.56854,0 -30,-13.43145 -30,-30 0,-16.56854 13.43146,-30 30,-30 16.56854,0 30,13.43146 30,30 z" />
      <path
         sodipodi:type="arc"
         style="color:#000000;fill:#ffffff;fill-opacity:1;fill-rule:nonzero;stroke:#000000;stroke-width:3;stroke-linecap:round;stroke-linejoin:round;stroke-miterlimit:4;stroke-opacity:1;stroke-dasharray:none;stroke-dashoffset:0;marker:none;visibility:visible;display:inline;overflow:visible;enable-background:accumulate"
         id="path9423"
         sodipodi:cx="325"
         sodipodi:cy="447.36218"
         sodipodi:rx="15"
         sodipodi:ry="15"
         d="m 340,447.36218 c 0,8.28427 -6.71573,15 -15,15 -8.28427,0 -15,-6.71573 -15,-15 0,-8.28427 6.71573,-15 15,-15 8.28427,0 15,6.71573 15,15 z"
         transform="translate(115,65)" />
    </g>
    <path
       inkscape:connector-curvature="0"
       id="path9419"
       d="m 183.8879,495.57469 -0.9572,9.95409 288.6684,27.75881 0.9572,-9.95408 z"
       style="fill:#000000;stroke:#000000;stroke-width:1px;stroke-linecap:butt;stroke-linejoin:miter;stroke-opacity:1" />
    <path
       sodipodi:nodetypes="ccccc"
       inkscape:connector-curvature="0"
       id="path9429"
       d="m 223.56152,442.30071 24.11905,58.5961 149.31124,14.35801 C 417.14067,498.93619 446.69791,469.41003 458,442.36218 z"
       style="fill:#000000;stroke:#000000;stroke-width:1px;stroke-linecap:butt;stroke-linejoin:miter;stroke-opacity:1" />
    <path
       sodipodi:nodetypes="ccccc"
       inkscape:connector-curvature="0"
       id="path9431"
       d="m 143.00848,492.35403 39.76026,4.4119 -0.70969,7.38017 -39.8724,-3.24571 c -3.82992,-3.717 -1.80195,-5.44996 0.82183,-8.54636 z"
       style="fill:#1a1a1a;stroke:#000000;stroke-width:1px;stroke-linecap:butt;stroke-linejoin:miter;stroke-opacity:1" />
    <g
       transform="matrix(0.99540827,0.09572005,-0.09572005,0.99540827,49.297513,-27.070306)"
       id="g9435">
      <path
         style="fill:none;stroke:#000000;stroke-width:6;stroke-linecap:butt;stroke-linejoin:miter;stroke-opacity:1"
         d="m 385,515.36218 c 0,0 -80,27 -120,42 -12.86861,4.82573 -10,-40 -10,-40 z"
         id="path9433"
         inkscape:connector-curvature="0"
         sodipodi:nodetypes="cscc" />
    </g>
    <path
       sodipodi:nodetypes="cssssssc"
       inkscape:connector-curvature="0"
       id="path10243"
       d="m 259.62951,442.12903 c 3.97048,5.80483 13.27951,-9.11463 17.67767,-11.31371 6.78845,-3.39422 16.0271,-1.2724 23.33452,-5.65685 15.49505,-9.29703 34.94975,-8.63603 50.20459,-16.26345 6.1755,-3.08776 18.98334,2.4206 22.62741,4.24263 10.68315,5.34157 9.17355,-4.48462 20.5061,-0.7071 5.6315,1.87716 6.5488,8.5777 12.02081,11.3137 14.60131,7.30066 26.82585,7.01212 35.35534,18.38478"
       style="fill:#666666;stroke:#000000;stroke-width:1px;stroke-linecap:butt;stroke-linejoin:miter;stroke-opacity:1" />
    <path
       sodipodi:type="arc"
       style="color:#000000;fill:none;stroke:#000000;stroke-width:1;stroke-linecap:round;stroke-linejoin:round;stroke-miterlimit:4;stroke-opacity:1;stroke-dasharray:none;stroke-dashoffset:0;marker:none;visibility:visible;display:inline;overflow:visible;enable-background:accumulate"
       id="path3133"
       sodipodi:cx="300.87393"
       sodipodi:cy="117.58527"
       sodipodi:rx="9.5459414"
       sodipodi:ry="9.5459414"
       d="m 310.41987,117.58527 a 9.5459414,9.5459414 0 1 1 -19.09188,0 9.5459414,9.5459414 0 1 1 19.09188,0 z"
       transform="matrix(1.1945122,0,0,1.1945122,78.83624,384.59902)" />
  </g>
  <path
     inkscape:connector-curvature="0"
     id="path3012-5"
     d="m 298.6681,86.073675 c -17.39277,0 -31.50919,14.116425 -31.50919,31.509195 0,17.39277 14.11642,31.50919 31.50919,31.50919 17.39277,0 31.50919,-14.11642 31.50919,-31.50919 0,-17.39277 -14.11642,-31.509195 -31.50919,-31.509195 z m 0,0.89626 c 16.90839,0 30.61292,13.704545 30.61292,30.612935 0,16.90839 -13.70453,30.61293 -30.61292,30.61293 -16.90839,0 -30.61293,-13.70454 -30.61293,-30.61293 0,-16.90839 13.70454,-30.612935 30.61293,-30.612935 z"
     style="font-size:medium;font-style:normal;font-variant:normal;font-weight:normal;font-stretch:normal;text-indent:0;text-align:start;text-decoration:none;line-height:normal;letter-spacing:normal;word-spacing:normal;text-transform:none;direction:ltr;block-progression:tb;writing-mode:lr-tb;text-anchor:start;baseline-shift:baseline;color:#000000;fill:#000000;fill-opacity:1;stroke:none;stroke-width:1;marker:none;visibility:visible;display:inline;overflow:visible;enable-background:accumulate;font-family:Sans;-inkscape-font-specification:Sans" />
  <path
     inkscape:connector-curvature="0"
     id="path8682-4"
     d="m 297.15354,87.703705 c 0.8556,-0.0217 1.54396,-0.74579 1.5223,-1.60137 -0.0217,-0.85559 -0.74578,-1.54395 -1.60137,-1.5223 0,0 -6.6048,0.98869 -6.6048,0.98869 -0.83392,0.19262 -1.38539,1.12521 -1.15143,1.94849 0.23396,0.82326 1.02077,1.28864 1.85468,1.09601 0,0 5.98062,-0.90952 5.98062,-0.90952 0,0 0,0 0,0 m -9.76488,2.17147 c 0.79615,-0.31411 1.16214,-1.195 0.88766,-2.00566 -0.27449,-0.81066 -1.23826,-1.2151 -2.03441,-0.90099 0,0 -5.8918,3.11858 -5.8918,3.11858 -0.72046,0.46202 -0.93001,1.5171 -0.43392,2.21454 0.49608,0.69744 1.40025,0.87779 2.1207,0.41576 0,0 5.35177,-2.84223 5.35177,-2.84223 0,0 0,0 0,0 m -8.51412,5.28656 c 0.64689,-0.56041 0.70265,-1.51168 0.17377,-2.18458 -0.52889,-0.67291 -1.57287,-0.73755 -2.21976,-0.17713 0,0 -4.53449,4.87892 -4.53449,4.87892 -0.5289,0.6729 -0.38046,1.73818 0.31698,2.23427 0.69744,0.496085 1.61081,0.369555 2.1397,-0.30336 0,0 4.1238,-4.44812 4.1238,-4.44812 0,0 0,0 0,0 m -6.30771,7.794705 c 0.42675,-0.7419 0.16675,-1.65815 -0.5537,-2.12017 -0.72046,-0.46203 -1.72812,-0.17973 -2.15487,0.56217 0,0 -2.67363,6.10812 -2.67363,6.10812 -0.27448,0.81067 0.21759,1.76624 1.04087,2.0002 0.82326,0.23395 1.64428,-0.18742 1.91876,-0.99809 0,0 2.42257,-5.55223 2.42257,-5.55223 0,0 0,0 0,0 m -3.37224,9.42472 c 0.1506,-0.84251 -0.39445,-1.61313 -1.22835,-1.80575 -0.83391,-0.19263 -1.69697,0.41344 -1.84757,1.25595 0,0 -0.4926,6.65941 -0.4926,6.65941 0.0217,0.8556 0.7875,1.58526 1.6409,1.52029 0.85339,-0.065 1.50443,-0.74377 1.48277,-1.59936 0,0 0.44485,-6.03054 0.44485,-6.03054 0,0 0,0 0,0 m -0.0827,9.99824 c -0.1506,-0.84252 -0.89854,-1.38103 -1.74756,-1.27304 -0.84902,0.10799 -1.47896,0.98033 -1.32836,1.82284 0,0 1.73172,6.4443 1.73172,6.4443 0.3141,0.79616 1.26538,1.22486 2.04519,0.87213 0.7798,-0.35273 1.17557,-1.22273 0.86146,-2.01888 0,0 -1.56245,-5.84735 -1.56245,-5.84735 0,0 0,0 0,0 m 3.22064,9.47996 c -0.42674,-0.7419 -1.28655,-0.96432 -2.06635,-0.61159 -0.77981,0.35273 -1.06896,1.42769 -0.64222,2.16959 0,0 3.76734,5.49548 3.76734,5.49548 0.56042,0.64689 1.59733,0.73673 2.21678,0.14612 0.61944,-0.5906 0.70535,-1.54522 0.14494,-2.19211 0,0 -3.42049,-5.00749 -3.42049,-5.00749 0,0 0,0 0,0 m 6.18686,7.89432 c -0.64689,-0.56041 -1.53288,-0.48927 -2.15232,0.10133 -0.61945,0.59061 -0.54056,1.69998 0.10634,2.26039 0,0 5.36313,3.95353 5.36313,3.95353 0.7419,0.42675 1.75124,0.17123 2.14154,-0.59047 0.39029,-0.76169 0.15836,-1.69136 -0.58354,-2.1181 0,0 -4.87515,-3.60668 -4.87515,-3.60668 0,0 0,0 0,0 m 8.50345,5.44983 c -0.7798,-0.35273 -1.6756,0.0148 -2.06589,0.77653 -0.3903,0.7617 -0.002,1.71772 0.77811,2.07045 0,0 6.44948,1.9911 6.44948,1.9911 0.84252,0.1506 1.70578,-0.41999 1.81378,-1.26902 0.10799,-0.84902 -0.42146,-1.6563 -1.26398,-1.8069 0,0 -5.7115,-1.76216 -5.7115,-1.76216 0,0 0,0 0,0 m 9.74109,2.28716 c -0.8534,-0.065 -1.56653,0.57166 -1.67452,1.42068 -0.10799,0.84903 0.58395,1.63001 1.43735,1.69497 0,0 6.67426,-0.23946 6.67426,-0.23946 0.84903,-0.108 1.49502,-0.95874 1.34442,-1.80125 -0.15059,-0.84251 -0.88966,-1.40644 -1.73868,-1.29845 0,0 -6.04283,0.22351 -6.04283,0.22351 0,0 0,0 0,0 m 9.94562,-1.03281 c -0.82327,0.23396 -1.28018,1.05014 -1.08756,1.88404 0.19262,0.83391 1.11844,1.35558 1.94172,1.12162 0,0 6.20882,-2.43401 6.20882,-2.43401 0.7617,-0.3903 1.08497,-1.39735 0.65822,-2.13925 -0.42674,-0.74189 -1.32145,-1.03192 -2.08315,-0.64162 0,0 -5.63805,2.20922 -5.63805,2.20922 0,0 0,0 0,0 m 9.06063,-4.26922 c -0.69745,0.49608 -0.85883,1.41498 -0.39682,2.13543 0.46203,0.72046 1.51051,0.90693 2.20796,0.41084 0,0 5.04991,-4.34292 5.04991,-4.34292 0.59061,-0.61945 0.56448,-1.67553 -0.0824,-2.23594 -0.64688,-0.5604 -1.58849,-0.53974 -2.17909,0.0797 0,0 -4.59954,3.95288 -4.59954,3.95288 0,0 0,0 0,0 m 7.15691,-7.02466 c -0.49609,0.69744 -0.34685,1.61876 0.32604,2.14765 0.67291,0.52889 1.72415,0.36093 2.22023,-0.33651 0,0 3.34369,-5.76469 3.34369,-5.76469 0.35274,-0.77981 -0.0196,-1.76856 -0.81573,-2.08267 -0.79614,-0.3141 -1.67852,0.0151 -2.03125,0.79489 0,0 -3.04298,5.24133 -3.04298,5.24133 0,0 0,0 0,0 m 4.44137,-8.97799 c -0.23396,0.82328 0.20909,1.63801 1.01974,1.91249 0.81067,0.27448 1.75197,-0.23505 1.98593,-1.05833 0,0 1.24164,-6.55931 1.24164,-6.55931 0.065,-0.8534 -0.60536,-1.65585 -1.46095,-1.67751 -0.85558,-0.0217 -1.58974,0.58694 -1.65471,1.44034 0,0 -1.13165,5.94232 -1.13165,5.94232 0,0 0,0 0,0 m 1.2175,-10.00448 c 0.0217,0.85559 0.74111,1.50063 1.59669,1.52229 0.8556,0.0217 1.54863,-0.74577 1.52697,-1.60137 0,0 -0.97024,-6.60714 -0.97024,-6.60714 -0.19263,-0.83391 -1.12076,-1.38653 -1.94404,-1.15257 -0.82326,0.23396 -1.2931,1.02191 -1.10047,1.85582 0,0 0.89109,5.98297 0.89109,5.98297 0,0 0,0 0,0 m -2.13993,-9.7713 c 0.3141,0.79615 1.19072,1.16371 2.00138,0.88922 0.81066,-0.27448 1.21937,-1.23982 0.90527,-2.03597 0,0 -3.10263,-5.899975 -3.10263,-5.899975 -0.46203,-0.72046 -1.51343,-0.93248 -2.21087,-0.4364 -0.69744,0.49608 -0.88146,1.402735 -0.41944,2.123195 0,0 2.82629,5.35993 2.82629,5.35993 0,0 0,0 0,0 m -5.26001,-8.530225 c 0.56041,0.64689 1.50829,0.70546 2.18119,0.17658 0.6729,-0.5289 0.74094,-1.57567 0.18053,-2.22256 0,0 -4.86679,-4.54723 -4.86679,-4.54723 -0.6729,-0.52889 -1.73554,-0.38399 -2.23162,0.31345 -0.49608,0.69744 -0.3722,1.61435 0.3007,2.14324 0,0 4.43599,4.13652 4.43599,4.13652 0,0 0,0 0,0 m -7.77512,-6.33144 c 0.7419,0.42674 1.65584,0.17055 2.11786,-0.5499 0.46202,-0.72046 0.18204,-1.73193 -0.55986,-2.15867 0,0 -6.10071,-2.69006 -6.10071,-2.69006 -0.81066,-0.27448 -1.76487,0.21322 -1.99883,1.0365 -0.23396,0.82326 0.18606,1.64865 0.99672,1.92313 0,0 5.54482,2.439 5.54482,2.439 0,0 0,0 0,0 m -9.41387,-3.40202 c 0.84251,0.15059 1.6122,-0.38992 1.80482,-1.22382 0.19263,-0.83392 -0.41251,-1.70151 -1.25502,-1.85211 0,0 -6.658,-0.51117 -6.658,-0.51117 -0.85559,0.0217 -1.58549,0.78282 -1.52053,1.63622 0.065,0.85339 0.74401,1.5091 1.5996,1.48744 0,0 6.02913,0.46344 6.02913,0.46344 0,0 0,0 0,0 m -6.86883,-1.44239 c 0,0 -6.18036,0.93485 -6.18036,0.93485 -0.31104,0.0718 -0.58056,-0.0881 -0.66782,-0.3951 -0.0873,-0.30707 0.10361,-0.62907 0.41465,-0.70092 0,0 6.40506,-0.96335 6.40506,-0.96335 0.31913,-0.008 0.56842,0.2289 0.5765,0.54802 0.008,0.31912 -0.22891,0.56842 -0.54803,0.5765 0,0 0,0 0,0 m -10.10654,2.24091 c 0,0 -5.52458,2.93067 -5.52458,2.93067 -0.26872,0.17232 -0.5811,0.1065 -0.76612,-0.15363 -0.18504,-0.26014 -0.10984,-0.62095 0.15888,-0.79328 0,0 5.71899,-3.03016 5.71899,-3.03016 0.29695,-0.11715 0.61245,0.0198 0.72961,0.31679 0.11715,0.29694 -0.0198,0.61245 -0.31678,0.72961 0,0 0,0 0,0 m -8.80188,5.46094 c 0,0 -4.25522,4.58598 -4.25522,4.58598 -0.19726,0.25098 -0.51386,0.29146 -0.77399,0.10644 -0.26014,-0.18503 -0.30768,-0.55059 -0.11041,-0.80157 0,0 4.40307,-4.74106 4.40307,-4.74106 0.24128,-0.20903 0.58436,-0.18445 0.79338,0.0568 0.20902,0.24127 0.18445,0.58436 -0.0568,0.79338 0,0 0,0 0,0 m -6.51973,8.051895 c 0,0 -2.50291,5.73012 -2.50291,5.73012 -0.10238,0.30236 -0.39129,0.4442 -0.69835,0.35694 -0.30707,-0.0873 -0.46949,-0.41534 -0.36712,-0.7177 0,0 2.5933,-5.93024 2.5933,-5.93024 0.15917,-0.27672 0.49126,-0.36627 0.76798,-0.2071 0.27671,0.15916 0.36627,0.49126 0.2071,0.76798 0,0 0,0 0,0 m -3.48979,9.74735 c 0,0 -0.46013,6.23177 -0.46013,6.23177 0.008,0.31912 -0.22892,0.56842 -0.54803,0.57649 -0.31912,0.008 -0.56841,-0.2289 -0.57649,-0.54802 0,0 0.47732,-6.45817 0.47732,-6.45817 0.0562,-0.31425 0.33838,-0.51087 0.65263,-0.4547 0.31423,0.0562 0.51087,0.33838 0.4547,0.65263 0,0 0,0 0,0 m -0.0827,10.35011 c 0,0 1.61662,6.03837 1.61662,6.03837 0.11716,0.29696 -0.0198,0.61246 -0.31678,0.72961 -0.29695,0.11716 -0.61245,-0.0198 -0.72961,-0.31678 0,0 -1.67756,-6.25327 -1.67756,-6.25327 -0.0562,-0.31425 0.15357,-0.61473 0.47024,-0.65501 0.31666,-0.0403 0.58092,0.14283 0.63709,0.45708 0,0 0,0 0,0 m 3.3382,9.80258 c 0,0 3.53148,5.16365 3.53148,5.16365 0.20903,0.24128 0.18444,0.58436 -0.0568,0.79338 -0.24128,0.20903 -0.58436,0.18445 -0.79339,-0.0568 0,0 -3.65634,-5.33932 -3.65634,-5.33932 -0.15917,-0.27671 -0.0536,-0.63511 0.23047,-0.78068 0.2841,-0.14557 0.58544,-0.0569 0.74461,0.2198 0,0 0,0 0,0 m 6.39889,8.15151 c 0,0 5.0313,3.71767 5.0313,3.71767 0.27672,0.15917 0.36627,0.49127 0.20711,0.76798 -0.15918,0.27672 -0.49127,0.36628 -0.76799,0.20711 0,0 -5.20698,-3.84254 -5.20698,-3.84254 -0.24128,-0.20902 -0.25921,-0.58205 -0.0389,-0.81309 0.22028,-0.23104 0.5342,-0.24615 0.77548,-0.0371 0,0 0,0 0,0 m 8.74607,5.60511 c 0,0 5.94766,1.83543 5.94766,1.83543 0.31424,0.0562 0.51087,0.33839 0.4547,0.65263 -0.0562,0.31424 -0.33838,0.51087 -0.65263,0.4547 0,0 -6.21333,-1.91784 -6.21333,-1.91784 -0.29085,-0.13157 -0.41222,-0.4534 -0.28065,-0.74426 0.13156,-0.29085 0.4534,-0.41222 0.74425,-0.28066 0,0 0,0 0,0 m 10.07729,2.37314 c 0,0 6.24488,-0.22862 6.24488,-0.22862 0.31668,-0.0403 0.57206,0.16825 0.62823,0.48248 0.0562,0.31425 -0.16962,0.59313 -0.48629,0.63341 0,0 -6.4722,0.23437 -6.4722,0.23437 -0.31831,-0.0242 -0.54236,-0.28521 -0.51813,-0.60351 0.0242,-0.3183 0.2852,-0.54236 0.60351,-0.51813 0,0 0,0 0,0 m 10.29484,-1.06801 c 0,0 5.8207,-2.28115 5.8207,-2.28115 0.2841,-0.14558 0.61147,-0.04 0.75704,0.24407 0.14558,0.2841 0.04,0.61147 -0.24407,0.75704 0,0 -6.02617,2.36208 -6.02617,2.36208 -0.30707,0.0873 -0.60751,-0.0802 -0.69477,-0.38727 -0.0873,-0.30706 0.0802,-0.60751 0.38727,-0.69477 0,0 0,0 0,0 m 9.36686,-4.41622 c 0,0 4.74366,-4.0777 4.74366,-4.0777 0.22029,-0.23104 0.56416,-0.23923 0.7952,-0.019 0.23104,0.22029 0.23924,0.56415 0.019,0.7952 0,0 -4.9058,4.21811 -4.9058,4.21811 -0.26013,0.18503 -0.61436,0.13291 -0.78669,-0.13581 -0.17232,-0.26872 -0.12545,-0.59582 0.13468,-0.78085 0,0 0,0 0,0 m 7.39215,-7.25991 c 0,0 3.13922,-5.4088 3.13922,-5.4088 0.13156,-0.29086 0.45341,-0.41222 0.74425,-0.28066 0.29086,0.13157 0.41222,0.4534 0.28066,0.74426 0,0 -3.24747,5.59721 -3.24747,5.59721 -0.18503,0.26014 -0.53654,0.32721 -0.78752,0.12994 -0.25098,-0.19726 -0.31417,-0.52181 -0.12914,-0.78195 0,0 0,0 0,0 m 4.58839,-9.28422 c 0,0 1.16684,-6.13975 1.16684,-6.13975 0.0242,-0.31831 0.28522,-0.54236 0.60351,-0.51813 0.31831,0.0242 0.54236,0.2852 0.51813,0.60351 0,0 -1.20644,6.36187 -1.20644,6.36187 -0.0873,0.30707 -0.40108,0.48695 -0.70344,0.38457 -0.30236,-0.10237 -0.46587,-0.385 -0.3786,-0.69207 0,0 0,0 0,0 m 1.25525,-10.30312 c 0,0 -0.91642,-6.1827 -0.91642,-6.1827 -0.0718,-0.31104 0.0925,-0.58171 0.39957,-0.66897 0.30706,-0.0873 0.62461,0.10476 0.69645,0.4158 0,0 0.94492,6.40741 0.94492,6.40741 0.008,0.31912 -0.2289,0.56841 -0.54803,0.57649 -0.31911,0.008 -0.56841,-0.2289 -0.57649,-0.54803 0,0 0,0 0,0 m -2.20938,-10.11295 c 0,0 -2.91471,-5.53274 -2.91471,-5.53274 -0.17233,-0.26872 -0.10283,-0.583585 0.1573,-0.768615 0.26014,-0.18503 0.61728,-0.10735 0.78961,0.16137 0,0 3.0142,5.727155 3.0142,5.727155 0.11715,0.29695 -0.0198,0.61246 -0.31678,0.72961 -0.29695,0.11715 -0.61246,-0.0198 -0.72962,-0.31678 0,0 0,0 0,0 m -5.43438,-8.817975 c 0,0 -4.57384,-4.26795 -4.57384,-4.26795 -0.25099,-0.19727 -0.28882,-0.5174 -0.10379,-0.77753 0.18503,-0.26014 0.54793,-0.30414 0.79892,-0.10688 0,0 4.72893,4.4158 4.72893,4.4158 0.20903,0.24128 0.18445,0.58436 -0.0568,0.79339 -0.24127,0.20902 -0.58436,0.18445 -0.79339,-0.0568 0,0 0,0 0,0 m -8.03231,-6.54348 c 0,0 -5.7227,-2.51933 -5.7227,-2.51933 -0.30237,-0.10238 -0.44285,-0.39566 -0.35559,-0.70272 0.0873,-0.30707 0.41398,-0.46512 0.71635,-0.36274 0,0 5.92282,2.60971 5.92282,2.60971 0.27672,0.15917 0.36627,0.49127 0.2071,0.76798 -0.15916,0.27671 -0.49126,0.36627 -0.76798,0.2071 0,0 0,0 0,0 m -9.7365,-3.51957 c 0,0 -6.23036,-0.47871 -6.23036,-0.47871 -0.31912,0.008 -0.56842,-0.22891 -0.57649,-0.54803 -0.008,-0.31912 0.2289,-0.56841 0.54802,-0.57649 0,0 6.45676,0.4959 6.45676,0.4959 0.31425,0.0562 0.51087,0.33838 0.4547,0.65263 -0.0562,0.31424 -0.33838,0.51087 -0.65263,0.4547 0,0 0,0 0,0 m -3.89584,-1.68598 c -0.8556,-0.0216 -1.57969,0.66676 -1.60132,1.52235 -0.0216,0.8556 0.66675,1.57969 1.52235,1.60132 0,0 5.89968,0.92143 5.89968,0.92143 0.82333,0.23377 1.65158,-0.25327 1.92588,-1.06399 0.27429,-0.81072 -0.24908,-1.7081 -1.0724,-1.94187 0,0 -6.67419,-1.03924 -6.67419,-1.03924 0,0 0,0 0,0 m 10.81739,2.4465 c -0.79622,-0.31392 -1.75464,0.0764 -2.02893,0.8871 -0.27429,0.81073 0.0866,1.70591 0.88287,2.01982 0,0 5.24245,2.88617 5.24245,2.88617 0.69751,0.49599 1.63656,0.32284 2.16539,-0.35011 0.52882,-0.67295 0.34292,-1.70042 -0.35459,-2.19641 0,0 -5.90719,-3.24657 -5.90719,-3.24657 0,0 0,0 0,0 m 9.3769,6.02461 c -0.61946,-0.59059 -1.69273,-0.54557 -2.25309,0.10134 -0.56037,0.64693 -0.52255,1.56963 0.0969,2.16022 0,0 4.01346,4.546085 4.01346,4.546085 0.496,0.6975 1.42744,0.85049 2.14798,0.38858 0.72053,-0.4619 0.89453,-1.501885 0.39854,-2.199395 0,0 -4.4038,-4.99683 -4.4038,-4.99683 0,0 0,0 0,0 m 6.7315,8.785425 c -0.39013,-0.76178 -1.40696,-1.07994 -2.14894,-0.65334 -0.74198,0.42661 -1.02237,1.3159 -0.63224,2.07768 0,0 2.22981,5.62935 2.22981,5.62935 0.23377,0.82333 1.05043,1.28029 1.88438,1.08784 0.83395,-0.19245 1.35525,-1.11798 1.12148,-1.94131 0,0 -2.45449,-6.20022 -2.45449,-6.20022 0,0 0,0 0,0 m 3.35213,10.56371 c -0.10787,-0.84904 -0.95467,-1.4957 -1.79721,-1.34526 -0.84254,0.15044 -1.41041,0.89004 -1.30254,1.73909 0,0 0.18517,6.04361 0.18517,6.04361 -0.0649,0.8534 0.55668,1.56499 1.40573,1.67286 0.84903,0.10787 1.64507,-0.58257 1.70995,-1.43598 0,0 -0.2011,-6.67432 -0.2011,-6.67432 0,0 0,0 0,0 m -0.42361,11.08644 c 0.19245,-0.83395 -0.39257,-1.7363 -1.2351,-1.88674 -0.84255,-0.15044 -1.6171,0.35017 -1.80955,1.18412 0,0 -1.87636,5.75528 -1.87636,5.75528 -0.35255,0.77989 -0.0115,1.6627 0.75026,2.05283 0.76178,0.39014 1.74446,0.0142 2.09702,-0.76571 0,0 2.07373,-6.33978 2.07373,-6.33978 0,0 0,0 0,0 m -4.16382,10.26573 c 0.4619,-0.72054 0.22107,-1.76151 -0.5209,-2.18811 -0.74198,-0.4266 -1.64778,-0.21878 -2.10968,0.50176 0,0 -3.7285,4.78149 -3.7285,4.78149 -0.5906,0.61946 -0.57025,1.55708 0.0203,2.17653 0.59058,0.61945 1.65061,0.59911 2.24121,-0.0204 0,0 4.09752,-5.25132 4.09752,-5.25132 0,0 0,0 0,0 m -7.39008,8.23602 c 0.67296,-0.52883 0.79671,-1.57928 0.23635,-2.2262 -0.56038,-0.64693 -1.49407,-0.75951 -2.16703,-0.23068 0,0 -5.12272,3.24006 -5.12272,3.24006 -0.76178,0.39014 -1.05718,1.26847 -0.70463,2.04836 0.35255,0.77988 1.36718,1.12296 2.12897,0.73282 0,0 5.62906,-3.56436 5.62906,-3.56436 0,0 0,0 0,0 m -9.74482,5.25665 c 0.81072,-0.27429 1.28223,-1.21422 0.96832,-2.01044 -0.31392,-0.79623 -1.159,-1.22372 -1.96973,-0.94942 0,0 -5.90979,1.29539 -5.90979,1.29539 -0.84904,0.10787 -1.4242,0.83072 -1.35932,1.68413 0.0649,0.8534 0.90411,1.52349 1.75315,1.41562 0,0 6.51737,-1.43528 6.51737,-1.43528 0,0 0,0 0,0 m -10.97057,1.62539 c 0.8556,0.0216 1.62295,-0.70659 1.60132,-1.56217 -0.0216,-0.8556 -0.66675,-1.53987 -1.52235,-1.5615 0,0 -5.99759,-0.77365 -5.99759,-0.77365 -0.83395,-0.19245 -1.62769,0.30039 -1.86147,1.12371 -0.23377,0.82332 0.3249,1.7285 1.15886,1.92095 0,0 6.62123,0.85266 6.62123,0.85266 0,0 0,0 0,0 m -10.87205,-2.17742 c 0.79623,0.31392 1.768,-0.11286 2.04229,-0.92358 0.27429,-0.81073 -0.1,-1.66943 -0.89623,-1.98334 0,0 -5.38438,-2.77711 -5.38438,-2.77711 -0.72054,-0.4619 -1.63161,-0.27109 -2.1276,0.42642 -0.49599,0.6975 -0.27929,1.74226 0.44124,2.20416 0,0 5.92468,3.05345 5.92468,3.05345 0,0 0,0 0,0 m -9.4651,-5.74107 c 0.64693,0.56037 1.6962,0.48929 2.22502,-0.18366 0.52883,-0.67295 0.46776,-1.6178 -0.17917,-2.17818 0,0 -4.13204,-4.43921 -4.13204,-4.43921 -0.52883,-0.67295 -1.44044,-0.80083 -2.13795,-0.30484 -0.6975,0.49598 -0.84776,1.56256 -0.31893,2.23552 0,0 4.54307,4.87037 4.54307,4.87037 0,0 0,0 0,0 m -6.96781,-8.59724 c 0.4266,0.74198 1.42885,1.02775 2.14938,0.56585 0.72053,-0.4619 0.98609,-1.38135 0.55949,-2.12333 0,0 -2.35078,-5.49896 -2.35078,-5.49896 -0.23378,-0.82333 -1.08848,-1.27051 -1.92243,-1.07806 -0.83394,0.19245 -1.31721,1.1082 -1.08343,1.93153 0,0 2.64777,6.20297 2.64777,6.20297 0,0 0,0 0,0 m -3.63756,-10.46689 c 0.15045,0.84254 0.99196,1.45312 1.8259,1.26067 0.83395,-0.19245 1.40057,-0.96738 1.25012,-1.80992 0,0 -0.33415,-6.03872 -0.33415,-6.03872 0.0216,-0.85559 -0.59609,-1.53274 -1.44949,-1.59763 -0.8534,-0.0649 -1.65255,0.66307 -1.67418,1.51866 0,0 0.3818,6.66694 0.3818,6.66694 0,0 0,0 0,0 m 0.13376,-11.09421 c -0.15045,0.84254 0.44231,1.70903 1.29134,1.8169 0.84905,0.10787 1.63423,-0.42511 1.78468,-1.26765 0,0 1.7253,-5.80073 1.7253,-5.80073 0.31391,-0.79623 -0.0383,-1.64761 -0.81817,-2.00017 -0.77988,-0.35254 -1.77484,0.0579 -2.08875,0.85411 0,0 -1.8944,6.39754 -1.8944,6.39754 0,0 0,0 0,0 m 3.88308,-10.37749 c -0.42661,0.74198 -0.16512,1.75443 0.59666,2.14456 0.76178,0.39014 1.6856,0.1549 2.11221,-0.58708 0,0 3.55403,-4.820345 3.55403,-4.820345 0.5906,-0.61946 0.54367,-1.58365 -0.0469,-2.20311 -0.59059,-0.61945 -1.62404,-0.57253 -2.21464,0.0469 0,0 -4.00134,5.419045 -4.00134,5.419045 0,0 0,0 0,0 m 7.16369,-8.435785 c -0.64692,0.56037 -0.74223,1.59139 -0.15164,2.21084 0.59059,0.61945 1.55056,0.71137 2.19749,0.151 0,0 4.98016,-3.3241 4.98016,-3.3241 0.76178,-0.39013 1.04051,-1.30307 0.68796,-2.08296 -0.35255,-0.77988 -1.35051,-1.08835 -2.1123,-0.69822 0,0 -5.60167,3.74344 -5.60167,3.74344 0,0 0,0 0,0 m 9.67238,-5.54238 c -0.81073,0.2743 -1.26889,1.2507 -0.95497,2.04692 0.31391,0.79623 1.14564,1.18724 1.95637,0.91295 0,0 5.87452,-1.4486 5.87452,-1.4486 0.84904,-0.10787 1.42018,-0.8703 1.3553,-1.72371 -0.0649,-0.85339 -0.90009,-1.48391 -1.74913,-1.37604 0,0 -6.48209,1.58848 -6.48209,1.58848 0,0 0,0 0,0 m 12.47932,-0.85842 c 0,0 6.42634,1.00155 6.42634,1.00155 0.30709,0.0872 0.47462,0.3876 0.38743,0.69468 -0.0872,0.30708 -0.38759,0.47462 -0.69468,0.38743 0,0 -6.14752,-0.95913 -6.14752,-0.95913 -0.31912,-0.008 -0.55611,-0.25736 -0.54805,-0.57648 0.008,-0.31911 0.25735,-0.55611 0.57648,-0.54805 0,0 0,0 0,0 m 10.47592,2.37714 c 0,0 5.69447,3.13125 5.69447,3.13125 0.26016,0.18499 0.31742,0.52416 0.13243,0.78431 -0.185,0.26016 -0.52416,0.31743 -0.78432,0.13243 0,0 -5.45516,-3.00149 -5.45516,-3.00149 -0.29698,-0.11709 -0.43404,-0.43256 -0.31695,-0.72954 0.11708,-0.29697 0.43255,-0.43404 0.72953,-0.31696 0,0 0,0 0,0 m 9.05366,5.8181 c 0,0 4.2789,4.85259 4.2789,4.85259 0.18499,0.26016 0.12772,0.599335 -0.13243,0.784325 -0.26016,0.185 -0.59932,0.12773 -0.78432,-0.13243 0,0 -4.13838,-4.690325 -4.13838,-4.690325 -0.23104,-0.22028 -0.2401,-0.54055 -0.0311,-0.78185 0.209,-0.24128 0.57627,-0.25259 0.80732,-0.0323 0,0 0,0 0,0 m 6.5315,8.517515 c 0,0 2.38259,6.01754 2.38259,6.01754 0.0872,0.30709 -0.0803,0.60749 -0.38743,0.69468 -0.30709,0.0872 -0.60748,-0.0803 -0.69468,-0.38743 0,0 -2.3017,-5.81203 -2.3017,-5.81203 -0.14552,-0.28413 -0.0361,-0.59593 0.24066,-0.75505 0.27674,-0.15911 0.61505,-0.0418 0.76056,0.24229 0,0 0,0 0,0 m 3.25019,10.23395 c 0,0 0.196,6.47249 0.196,6.47249 -0.0242,0.31831 -0.28516,0.54238 -0.60346,0.51818 -0.3183,-0.0242 -0.54238,-0.28515 -0.51818,-0.60346 0,0 -0.19027,-6.24544 -0.19027,-6.24544 -0.0402,-0.31668 0.17212,-0.57262 0.48638,-0.62874 0.31425,-0.0561 0.5893,0.17028 0.62953,0.48697 0,0 0,0 0,0 m -0.40598,10.73557 c 0,0 -2.01057,6.15274 -2.01057,6.15274 -0.1315,0.29089 -0.45332,0.41232 -0.7442,0.28083 -0.29088,-0.1315 -0.41232,-0.45331 -0.28082,-0.74419 0,0 1.93952,-5.94232 1.93952,-5.94232 0.0718,-0.31105 0.34524,-0.48075 0.6595,-0.42464 0.31425,0.0561 0.50836,0.36653 0.43657,0.67758 0,0 0,0 0,0 m -4.03132,9.95094 c 0,0 -3.97943,5.10097 -3.97943,5.10097 -0.22029,0.23105 -0.56416,0.23925 -0.7952,0.019 -0.23104,-0.22028 -0.23925,-0.56414 -0.019,-0.79519 0,0 3.84658,-4.93184 3.84658,-4.93184 0.17229,-0.26875 0.49276,-0.33366 0.7695,-0.17455 0.27674,0.15911 0.34979,0.51289 0.17751,0.78164 0,0 0,0 0,0 m -7.16611,7.98945 c 0,0 -5.46703,3.46058 -5.46703,3.46058 -0.28413,0.14552 -0.63055,0.0362 -0.76205,-0.25472 -0.13149,-0.29089 -0.0349,-0.60099 0.24929,-0.7465 0,0 5.28475,-3.34384 5.28475,-3.34384 0.251,-0.19724 0.59252,-0.15629 0.78976,0.0947 0.19724,0.25099 0.15629,0.59251 -0.0947,0.78976 0,0 0,0 0,0 m -9.44745,5.0957 c 0,0 -6.32295,1.39051 -6.32295,1.39051 -0.31668,0.0402 -0.6059,-0.1812 -0.6301,-0.4995 -0.0242,-0.31831 0.17165,-0.57618 0.48833,-0.61641 0,0 6.10421,-1.34016 6.10421,-1.34016 0.30239,-0.1023 0.61072,0.0501 0.71303,0.35253 0.1023,0.30238 -0.0501,0.61072 -0.35252,0.71303 0,0 0,0 0,0 m -10.62485,1.57297 c 0,0 -6.42167,-0.82738 -6.42167,-0.82738 -0.31105,-0.0718 -0.49334,-0.36347 -0.42156,-0.67451 0.0718,-0.31105 0.36345,-0.49335 0.67451,-0.42157 0,0 6.19715,0.79894 6.19715,0.79894 0.31912,0.008 0.55611,0.25735 0.54805,0.57647 -0.008,0.31912 -0.25736,0.55612 -0.57648,0.54805 0,0 0,0 0,0 m -10.53058,-2.10806 c 0,0 -5.75178,-2.96502 -5.75178,-2.96502 -0.26875,-0.17229 -0.35099,-0.52277 -0.166,-0.78292 0.185,-0.26016 0.50434,-0.33637 0.77308,-0.16409 0,0 5.55728,2.86553 5.55728,2.86553 0.29698,0.11709 0.43404,0.43256 0.31696,0.72954 -0.11708,0.29697 -0.43256,0.43404 -0.72954,0.31696 0,0 0,0 0,0 m -9.17716,-5.56665 c 0,0 -4.41155,-4.7324 -4.41155,-4.7324 -0.19724,-0.251 -0.14797,-0.61783 0.11219,-0.80282 0.26016,-0.185 0.57504,-0.14322 0.77229,0.10778 0,0 4.26357,4.57718 4.26357,4.57718 0.24129,0.20901 0.26589,0.55209 0.0569,0.79339 -0.209,0.24128 -0.55209,0.26588 -0.79338,0.0569 0,0 0,0 0,0 m -6.75565,-8.33984 c 0,0 -2.55274,-5.97769 -2.55274,-5.97769 -0.0872,-0.30709 0.0804,-0.60749 0.38743,-0.69468 0.30709,-0.0872 0.60749,0.0803 0.69468,0.38743 0,0 2.44582,5.72425 2.44582,5.72425 0.15912,0.27674 0.0695,0.60882 -0.20725,0.76794 -0.27674,0.15911 -0.60883,0.0695 -0.76794,-0.20725 0,0 0,0 0,0 m -3.52007,-10.14426 c 0,0 -0.36656,-6.4659 -0.36656,-6.4659 0.008,-0.31913 0.28051,-0.57112 0.5988,-0.54692 0.31831,0.0242 0.53379,0.25622 0.52572,0.57534 0,0 0.34941,6.23975 0.34941,6.23975 0.0561,0.31425 -0.14057,0.59643 -0.45482,0.65255 -0.31425,0.0561 -0.59644,-0.14057 -0.65255,-0.45482 0,0 0,0 0,0 m 0.13375,-10.74269 c 0,0 1.84029,-6.20656 1.84029,-6.20656 0.11709,-0.29698 0.45579,-0.44121 0.74666,-0.30972 0.29089,0.1315 0.41692,0.42532 0.29983,0.7223 0,0 -1.77941,5.99171 -1.77941,5.99171 -0.0561,0.31425 -0.33829,0.51093 -0.65255,0.45482 -0.31424,-0.0561 -0.51093,-0.3383 -0.45482,-0.65255 0,0 0,0 0,0 m 3.76559,-10.05485 c 0,0 3.85821,-5.227475 3.85821,-5.227475 0.22028,-0.23104 0.56415,-0.23924 0.7952,-0.019 0.23104,0.22028 0.23925,0.56414 0.019,0.79519 0,0 -3.69717,5.011935 -3.69717,5.011935 -0.15912,0.27675 -0.4912,0.36637 -0.76794,0.20725 -0.27674,-0.15911 -0.36637,-0.4912 -0.20726,-0.76794 0,0 0,0 0,0 m 6.95153,-8.178395 c 0,0 5.40279,-3.60925 5.40279,-3.60925 0.28413,-0.14552 0.61148,-0.0399 0.75699,0.24423 0.14552,0.28414 0.0399,0.61148 -0.24423,0.75699 0,0 -5.17904,3.45829 -5.17904,3.45829 -0.2413,0.20901 -0.58438,0.18442 -0.79339,-0.0569 -0.209,-0.24128 -0.18441,-0.58437 0.0569,-0.79338 0,0 0,0 0,0 m 9.33816,-5.35101 c 0,0 6.28766,-1.54372 6.28766,-1.54372 0.31668,-0.0402 0.58861,0.1704 0.62885,0.48707 0.0402,0.31668 -0.17039,0.58861 -0.48707,0.62884 0,0 -6.06894,1.49336 -6.06894,1.49336 -0.30239,0.10231 -0.58862,-0.0356 -0.70571,-0.33253 -0.11708,-0.29697 0.0428,-0.63071 0.34521,-0.73302 0,0 0,0 0,0"
     style="font-size:medium;font-style:normal;font-variant:normal;font-weight:normal;font-stretch:normal;text-indent:0;text-align:start;text-decoration:none;line-height:normal;letter-spacing:normal;word-spacing:normal;text-transform:none;direction:ltr;block-progression:tb;writing-mode:lr-tb;text-anchor:start;baseline-shift:baseline;color:#000000;fill:#000000;fill-opacity:1;stroke:none;stroke-width:1;marker:none;visibility:visible;display:inline;overflow:visible;enable-background:accumulate;font-family:Sans;-inkscape-font-specification:Sans" />
</svg>
