<?xml version="1.0"?>
<svg xmlns:rdf="http://www.w3.org/1999/02/22-rdf-syntax-ns#" xmlns="http://www.w3.org/2000/svg" xmlns:cc="http://creativecommons.org/ns#" xmlns:xlink="http://www.w3.org/1999/xlink" xmlns:dc="http://purl.org/dc/elements/1.1/" xmlns:svg="http://www.w3.org/2000/svg" id="svg2" viewBox="0 0 744.09 1052.4" version="1.1">
  <defs id="defs3">
    <radialGradient id="radialGradient3780" gradientUnits="userSpaceOnUse" cy="525.39" cx="647.46" gradientTransform="matrix(1 0 0 .33908 0 367.9)" r="248.57">
      <stop id="stop3776" stop-color="#fff" offset="0"/>
      <stop id="stop3778" stop-color="#ebebeb" offset="1"/>
    </radialGradient>
    <linearGradient id="linearGradient3788" y2="554.39" gradientUnits="userSpaceOnUse" y1="492" x2="404.7" x1="395.36">
      <stop id="stop3784" stop-color="#ccc" offset="0"/>
      <stop id="stop3786" stop-color="#ccc" stop-opacity="0" offset="1"/>
    </linearGradient>
    <linearGradient id="linearGradient3796" y2="529.94" gradientUnits="userSpaceOnUse" y1="600.77" x2="319.41" x1="699.96">
      <stop id="stop3792" stop-color="#b3b3b3" offset="0"/>
      <stop id="stop3794" stop-color="#dcdcdc" stop-opacity=".54783" offset="1"/>
    </linearGradient>
    <linearGradient id="linearGradient3804" y2="530.11" gradientUnits="userSpaceOnUse" y1="530.11" x2="580.68" x1="294.11">
      <stop id="stop3800" stop-color="#e2e2e2" offset="0"/>
      <stop id="stop3802" stop-color="#ebebeb" offset="1"/>
    </linearGradient>
    <filter id="filter3775" y="-.32292" width="1.1633" x="-.081646" height="1.6458">
      <feGaussianBlur id="feGaussianBlur3777" stdDeviation="21.202799"/>
    </filter>
  </defs>
  <g id="layer1">
    <g id="g3779">
      <path id="path3005" opacity=".85551" style="color:#000000" d="m846.51 596.78a311.63 78.792 0 1 1 -623.26 0 311.63 78.792 0 1 1 623.26 0z" transform="matrix(.85081 0 0 1 10.073 -15.152)" filter="url(#filter3775)"/>
      <path id="path2984" transform="matrix(1.2989 0 0 1.2303 -222 -146.16)" fill="url(#linearGradient3796)" d="m742.86 556.65a248.57 84.286 0 1 1 -497.14 0 248.57 84.286 0 1 1 497.14 0z"/>
      <path id="path2986" transform="matrix(1.2989 0 0 1.2034 -222 -136.22)" fill="url(#radialGradient3780)" d="m742.86 556.65a248.57 84.286 0 1 1 -497.14 0 248.57 84.286 0 1 1 497.14 0z"/>
      <path id="path2988" d="m579.83 530.11a142.43 17.173 0 1 1 -284.86 0 142.43 17.173 0 1 1 284.86 0z" transform="matrix(1.3191 0 0 2.324 -153.91 -673.75)" stroke="url(#linearGradient3788)" stroke-width="1.7134" fill="url(#linearGradient3804)"/>
      <path id="path3001" style="color:#000000" d="m420.22 513.95a249.51 66.67 0 1 1 -499.02 0 249.51 66.67 0 1 1 499.02 0z" transform="matrix(1 0 0 .97720 242.44 36.474)" stroke="#f2f2f2" stroke-width="2" fill="none"/>
    </g>
  </g>
  <metadata>
    <rdf:RDF>
      <cc:Work>
        <dc:format>image/svg+xml</dc:format>
        <dc:type rdf:resource="http://purl.org/dc/dcmitype/StillImage"/>
        <cc:license rdf:resource="http://creativecommons.org/licenses/publicdomain/"/>
        <dc:publisher>
          <cc:Agent rdf:about="http://openclipart.org/">
            <dc:title>Openclipart</dc:title>
          </cc:Agent>
        </dc:publisher>
        <dc:title>plate</dc:title>
        <dc:date>2013-01-08T14:03:53</dc:date>
        <dc:description>clip art, clipart, plate, </dc:description>
        <dc:source>http://openclipart.org/detail/174138/plate-by-jarda-174138</dc:source>
        <dc:creator>
          <cc:Agent>
            <dc:title>jarda</dc:title>
          </cc:Agent>
        </dc:creator>
        <dc:subject>
          <rdf:Bag>
            <rdf:li>clip art</rdf:li>
            <rdf:li>clipart</rdf:li>
            <rdf:li>plate</rdf:li>
          </rdf:Bag>
        </dc:subject>
      </cc:Work>
      <cc:License rdf:about="http://creativecommons.org/licenses/publicdomain/">
        <cc:permits rdf:resource="http://creativecommons.org/ns#Reproduction"/>
        <cc:permits rdf:resource="http://creativecommons.org/ns#Distribution"/>
        <cc:permits rdf:resource="http://creativecommons.org/ns#DerivativeWorks"/>
      </cc:License>
    </rdf:RDF>
  </metadata>
</svg>
