<?xml version="1.0"?>
<svg xmlns:rdf="http://www.w3.org/1999/02/22-rdf-syntax-ns#"
	xmlns="http://www.w3.org/2000/svg"
	xmlns:cc="http://creativecommons.org/ns#"
	xmlns:xlink="http://www.w3.org/1999/xlink"
	xmlns:dc="http://purl.org/dc/elements/1.1/"
	xmlns:svg="http://www.w3.org/2000/svg"
	id="svg2"
	viewBox="0 0 291.59 279.51" version="1.0">
  <defs id="defs4">
    <linearGradient id="linearGradient3204">
      <stop id="stop3206" stop-color="#fff" stop-opacity=".64314" offset="0"/>
      <stop id="stop3208" stop-color="#fff" stop-opacity="0" offset="1"/>
    </linearGradient>
    <linearGradient id="linearGradient3387" y2="454.65" gradientUnits="userSpaceOnUse" x2="249.93" y1="372.38" x1="177.69">
      <stop id="stop3198" stop-color="#fff" stop-opacity=".50196" offset="0"/>
      <stop id="stop3200" stop-color="#fff" stop-opacity="0" offset="1"/>
    </linearGradient>
    <linearGradient id="linearGradient3389" y2="459.71" gradientUnits="userSpaceOnUse" x2="259.24" y1="646.13" x1="446">
      <stop id="stop3293" stop-opacity=".25098" offset="0"/>
      <stop id="stop3295" stop-color="#808080" stop-opacity="0" offset="1"/>
    </linearGradient>
    <radialGradient id="radialGradient3391" gradientUnits="userSpaceOnUse" cy="463.56" cx="258.04" gradientTransform="matrix(1.4524 -1.0735 .38233 .51730 -291.47 500.7)" r="23.234">
      <stop id="stop3311" stop-opacity=".22745" offset="0"/>
      <stop id="stop3313" stop-opacity="0" offset="1"/>
    </radialGradient>
    <linearGradient id="linearGradient3393" y2="461.33" gradientUnits="userSpaceOnUse" x2="262.86" y1="457.22" x1="259.28">
      <stop id="stop3335" stop-opacity=".50196" offset="0"/>
      <stop id="stop3337" stop-opacity="0" offset="1"/>
    </linearGradient>
    <linearGradient id="linearGradient3395" y2="451.04" gradientUnits="userSpaceOnUse" x2="265.57" y1="718.98" x1="556.59">
      <stop id="stop3285" stop-color="#fff" stop-opacity=".37647" offset="0"/>
      <stop id="stop3287" stop-color="#fff" stop-opacity="0" offset="1"/>
    </linearGradient>
    <radialGradient id="radialGradient3397" gradientUnits="userSpaceOnUse" cy="475.34" cx="269.02" gradientTransform="matrix(2.6309 .0000069701 -.0000026949 1.0172 -438.76 -8.1772)" r="5.6935">
      <stop id="stop3327" stop-opacity=".37647" offset="0"/>
      <stop id="stop3329" stop-opacity="0" offset="1"/>
    </radialGradient>
    <linearGradient id="linearGradient3399" y2="477.59" xlink:href="#linearGradient3204" gradientUnits="userSpaceOnUse" x2="248" y1="416.34" x1="199.61"/>
    <linearGradient id="linearGradient3401" y2="473.15" gradientUnits="userSpaceOnUse" x2="274.28" y1="460.93" x1="244.7">
      <stop id="stop3229" stop-color="#fff" offset="0"/>
      <stop id="stop3231" stop-color="#fff" stop-opacity="0" offset="1"/>
    </linearGradient>
    <linearGradient id="linearGradient3403" y2="466.92" xlink:href="#linearGradient3204" gradientUnits="userSpaceOnUse" x2="250.36" y1="409.07" x1="211.39"/>
    <linearGradient id="linearGradient3405" y2="455.14" xlink:href="#linearGradient3204" gradientUnits="userSpaceOnUse" x2="255.34" y1="400.67" x1="214.46"/>
    <linearGradient id="linearGradient3407" y2="450.11" xlink:href="#linearGradient3204" gradientUnits="userSpaceOnUse" x2="265.06" y1="395.46" x1="227.85"/>
    <linearGradient id="linearGradient3409" y2="618.1" gradientUnits="userSpaceOnUse" x2="423.63" y1="634.76" x1="434.88">
      <stop id="stop3262" stop-opacity=".25098" offset="0"/>
      <stop id="stop3264" stop-color="#fff" stop-opacity=".12549" offset="1"/>
    </linearGradient>
    <linearGradient id="linearGradient3411" y2="617.68" gradientUnits="userSpaceOnUse" x2="441.19" y1="614.4" x1="438.92">
      <stop id="stop3277" stop-color="#fff" stop-opacity=".50196" offset="0"/>
      <stop id="stop3279" stop-color="#fff" stop-opacity="0" offset="1"/>
    </linearGradient>
    <linearGradient id="linearGradient3413" y2="555.67" gradientUnits="userSpaceOnUse" x2="369.83" y1="559.42" x1="366.3">
      <stop id="stop3288" stop-color="#fff" stop-opacity=".50196" offset="0"/>
      <stop id="stop3290" stop-color="#fff" stop-opacity="0" offset="1"/>
    </linearGradient>
    <linearGradient id="linearGradient3415" y2="581.29" gradientUnits="userSpaceOnUse" x2="375.18" y1="572.72" x1="381.29">
      <stop id="stop3298" stop-color="#fff" stop-opacity=".25098" offset="0"/>
      <stop id="stop3300" stop-color="#fff" stop-opacity="0" offset="1"/>
    </linearGradient>
  </defs>
  <g id="layer1" transform="translate(-173.43 -371.86)">
    <g id="g3359" fill-rule="evenodd">
      <path id="path2429" d="m173.93 388.08c21.26 27.07 41.49 54.31 64.64 75.71 1.8-0.46 2.84-1.68 3.22-3.57-20.24-24.05-40.84-47.1-61.08-77.5 31.31 34.99 44.32 50.21 67.68 73.21 1.34-0.41 2.56-0.98 3.4-3.75-21.36-23.3-42.74-42.9-63.22-74.1 22.72 23.18 43.32 47.78 68.57 69.28 1.19-0.25 2.42-0.42 4.11-3.39-23.13-20.76-59.32-62.46-64.46-71.61l72.5 71.43c5.65 5.57 10.72 12.89 12.14 26.43 59.43 61.38 177.08 149.44 181.59 152.65 4.09 2.9-1.15 16.33-4.45 20.21-6.99 8.2-23.77 9.51-27.39 5.88-16.91-16.94-95.99-120.28-157.95-168.99 0 0-21.22 0.74-28.5-3.05-16.7-8.71-55.26-56.96-70.8-88.84z" stroke="#000" stroke-width="1px" fill="#ccc"/>
      <path id="path3191" d="m196.78 372.38c5.14 9.14 41.34 50.83 64.47 71.59-0.54 0.95-1.04 1.59-1.5 2.06l6.25-5.47-69.22-68.18zm-8.22 5.68c20.48 31.2 41.87 50.83 63.22 74.13-0.15 0.49-0.3 0.88-0.47 1.25l7.69-6.75c-0.67 0.44-1.25 0.56-1.84 0.69-25.26-21.5-45.88-46.13-68.6-69.32zm-7.84 4.66c20.24 30.4 40.82 53.45 61.06 77.5-0.37 1.89-1.42 3.1-3.22 3.56-23.15-21.4-43.36-48.64-64.62-75.72 12.75 26.16 40.98 63.35 59.94 80.66l14.62-12.81c-0.03 0.01-0.06 0.02-0.09 0.03-23.37-23.01-36.39-38.23-67.69-73.22z" fill="url(#linearGradient3387)"/>
      <path id="path2431" d="m463.59 632.56c-3.78 3.25-9.15 4.56-9.78 6.41-1.73 5.04-5.68 8.79-9.25 11.28 5.25-1.01 10.71-3.32 14-7.19 1.66-1.94 3.83-6.27 5.03-10.5z" fill="#1a1a1a" fill-opacity=".50196"/>
      <path id="path3206" d="m278.41 475.94c-2.37-2.84-3.47 2.94-4.72 4.4 61.88 48.86 140.63 151.74 157.5 168.63 1.23 1.23 3.97 1.86 7.34 1.87 4.26-0.63 8.18-2.44 9.69-4.72 1.72-2.59 5.91-7.63 3.56-9.46-14.5-11.33-172.48-159.65-173.37-160.72z" fill="url(#linearGradient3389)"/>
      <path id="path3304" d="m265.97 440.53l-31.16 29.03c3.77 3.36 7.14 5.9 9.91 7.35 7.28 3.79 28.5 3.06 28.5 3.06l0.06 0.06 8-11.15c-1.6-12.69-6.54-19.72-12-25.1l-3.31-3.25z" fill="url(#radialGradient3391)"/>
      <path id="path3211" d="m268.93 449.33c-5.13 6.96-17.78 18.48-17.5 20.35 0.17 1.17 11.47-11.62 20-17.32-0.83-2.66-1.67-2.58-2.5-3.03z" fill="url(#linearGradient3393)"/>
      <path id="path3213" d="m283.12 471.97l-5.33 2.83c54.48 51.97 116.16 108.26 174.24 162.39 0 0 8.05-2.16 10.11-4.81 1.21-1.57 1.35-4.8 2.17-7.41 0-0.01 0.01-0.02 0-0.03-0.22-0.89-0.64-1.61-1.28-2.06-4.47-3.19-119.97-89.62-179.91-150.91z" fill="url(#linearGradient3395)"/>
      <path id="path3218" d="m274.31 477.38c-6.16-0.38-8.07-0.24-10.68-0.26-0.97-0.01 0.39-4.01 4.59-3.81 7.16 0.34 6.92 4.13 6.09 4.07z" fill="url(#radialGradient3397)"/>
      <path id="path3220" d="m175.5 390.06c16.95 24.24 32.82 48.52 55.95 73.38 2.03 0.45 3.88 0.51 4.58-2.03-21.54-20.49-40.62-45.93-60.53-71.35z" fill="url(#linearGradient3399)"/>
      <path id="path3225" d="m254.11 472.54c-5.22-0.68 8.15-11.19 12.5-11.61 1.71-0.16 17.16 12 9.46 12.15-9.09 0.17-17.53 0.04-21.96-0.54z" fill="url(#linearGradient3401)"/>
      <path id="path3253" d="m181.75 383.84c5.8 7.35 43.14 54.57 59.16 70.5 1.09 1.09 4.18 0.6 6.06 0.16-22.15-21.91-35.41-37.33-65.22-70.66z" fill="url(#linearGradient3403)"/>
      <path id="path2475" d="m188.56 378.06c0.09 0.13 0.17 0.25 0.25 0.38 0 0 38.77 47.08 58.28 64.81 1.92 1.74 8.25 2.53 8.25 2.53-24.42-21.12-44.61-45.09-66.78-67.72z" fill="url(#linearGradient3405)"/>
      <path id="path3250" d="m196.78 372.38c0.02 0.03 0.04 0.08 0.06 0.12 21.27 23.78 58.5 67.38 68.22 67.12l-68.28-67.24z" fill="url(#linearGradient3407)"/>
      <path id="path3259" d="m232.41 449.16c3.13 3.68 6.26 7.36 9.37 11.06-0.27 1.4-0.92 2.43-1.97 3.06 0.31 0.04 0.65 0.05 1.1-0.03 1.39-0.26 3.02-2.73 2.75-3.53-0.73-2.11-9.63-10.86-11.25-10.56z" fill-opacity=".37647"/>
      <path id="path3270" d="m242.28 441.56c-0.1 0.03-0.18 0.11-0.22 0.22v0.03c3.24 3.42 6.48 6.84 9.72 10.38-0.64 2.14-1.51 2.95-2.5 3.4 0.38 0.13 0.9 0.19 1.56 0.07 1.4-0.26 3.03-2.77 2.75-3.57-0.72-2.12-9.88-9.86-11.31-10.53z" fill-opacity=".37647"/>
      <path id="path3272" d="m251.25 433.5c-0.32-0.04-0.45 0.17-0.37 0.62 3.63 3.59 7.13 6.94 10.37 9.85-1.5 2.64-2.62 3.07-3.69 3.31 0.39 0.3 1.04 0.5 2.06 0.31 1.4-0.25 3-2.73 2.72-3.53-0.7-2.05-9.16-9.39-11.09-10.56z" fill-opacity=".37647"/>
      <path id="path3299" d="m202.41 432.78c15.62 20.73 32.63 39.08 42.31 44.13 6.92 3.6 25.97 3.11 27.84 3.06l0.19-0.63s-14.41-1.61-20.47-3.15c-4.99-1.28-11.94-4.94-16.03-8.07-10.06-7.68-23.89-23.3-33.84-35.34z" fill-opacity=".37647"/>
      <path id="path2413" d="m249.89 457.07c1.69-0.97 2.8-2 3.66-3.48 0 0 0.46 2.23-0.19 2.97-0.85 0.97-3.47 0.51-3.47 0.51z" fill="#fff" fill-opacity=".50196"/>
      <path id="path3185" d="m239.71 464.81c1.69-0.97 2.8-2 3.66-3.47 0 0 0.46 2.22-0.19 2.96-0.85 0.97-3.47 0.51-3.47 0.51z" fill="#fff" fill-opacity=".50196"/>
      <path id="path3187" d="m259.34 448.33c1.7-0.97 2.8-2 3.66-3.47 0 0 0.46 2.22-0.19 2.96-0.85 0.98-3.47 0.51-3.47 0.51z" fill="#fff" fill-opacity=".50196"/>
      <path id="path3258" d="m426.03 640.73c3.68 4.22 14.4-11.87 14.4-11.87l-13.39-11.87c-6.53 1.52-12.44 6.14-20.2 1.51 0 0 15.46 17.95 19.19 22.23z" fill="url(#linearGradient3409)"/>
      <path id="path3271" d="m413.42 598.39l1.64 1.42c4.16 0.02 5.68-1.95 8.83-5.3l-1.77-1.51c-2.86 2.8-4.18 5.24-8.7 5.39z" fill-opacity=".25098"/>
      <path id="path3273" d="m412.53 600.85c2.94-0.28 6.59-1.66 11.4-6.17l23.57 17.86-9.82 10.72-25.15-22.41z" fill="url(#linearGradient3411)"/>
      <path id="path3283" d="m279.43 474.55c43.27 43.36 87.94 85.31 133.22 126.65l2.36-1.13-134.82-127.79c-0.76 0.76-1.01 1.52-0.76 2.27z" fill="url(#linearGradient3413)"/>
      <path id="path3294" d="m322.5 516.65l105.36 99.28-20.36 2.86-72.5-82.14c-6.77-7.32-9.39-13.6-12.5-20z" fill="url(#linearGradient3415)"/>
      <path id="path3341" d="m452.32 637.18c0.29 1.61-0.47 3.4-1.07 5 2.66-0.23-0.44-2.86 7.14-6.78-1.35-0.11-4.42 1.32-6.07 1.78z" fill="#fff" fill-opacity=".64314"/>
    </g>
  </g>
  <metadata>
    <rdf:RDF>
      <cc:Work>
        <dc:format>image/svg+xml</dc:format>
        <dc:type rdf:resource="http://purl.org/dc/dcmitype/StillImage"/>
        <cc:license rdf:resource="http://creativecommons.org/licenses/publicdomain/"/>
        <dc:publisher>
          <cc:Agent rdf:about="http://openclipart.org/">
            <dc:title>Openclipart</dc:title>
          </cc:Agent>
        </dc:publisher>
        <dc:title>Fork</dc:title>
        <dc:date>2010-06-11T03:53:36</dc:date>
        <dc:description>A metal four-pronged fork.</dc:description>
        <dc:source>http://openclipart.org/detail/65749/fork-by-dismal_denizen</dc:source>
        <dc:creator>
          <cc:Agent>
            <dc:title>dismal_denizen</dc:title>
          </cc:Agent>
        </dc:creator>
        <dc:subject>
          <rdf:Bag>
            <rdf:li>clip art</rdf:li>
            <rdf:li>clipart</rdf:li>
            <rdf:li>fork</rdf:li>
            <rdf:li>silverware</rdf:li>
            <rdf:li>utensil</rdf:li>
          </rdf:Bag>
        </dc:subject>
      </cc:Work>
      <cc:License rdf:about="http://creativecommons.org/licenses/publicdomain/">
        <cc:permits rdf:resource="http://creativecommons.org/ns#Reproduction"/>
        <cc:permits rdf:resource="http://creativecommons.org/ns#Distribution"/>
        <cc:permits rdf:resource="http://creativecommons.org/ns#DerivativeWorks"/>
      </cc:License>
    </rdf:RDF>
  </metadata>
</svg>
