<?xml version="1.0" encoding="UTF-8" standalone="no"?>
<!-- Created with Inkscape (http://www.inkscape.org/) -->

<svg
   xmlns:dc="http://purl.org/dc/elements/1.1/"
   xmlns:cc="http://creativecommons.org/ns#"
   xmlns:rdf="http://www.w3.org/1999/02/22-rdf-syntax-ns#"
   xmlns:svg="http://www.w3.org/2000/svg"
   xmlns="http://www.w3.org/2000/svg"
   xmlns:sodipodi="http://sodipodi.sourceforge.net/DTD/sodipodi-0.dtd"
   xmlns:inkscape="http://www.inkscape.org/namespaces/inkscape"
   width="100"
   height="100"
   viewBox="0 0 100 100" version="1.0"
   id="svg31837"
   inkscape:version="0.48.4 r9939"
   sodipodi:docname="Новый документ 23">
  <defs
     id="defs31839" />
  <sodipodi:namedview
     id="base"
     pagecolor="#ffffff"
     bordercolor="#666666"
     borderopacity="1.0"
     inkscape:pageopacity="0.0"
     inkscape:pageshadow="2"
     inkscape:zoom="2.8"
     inkscape:cx="-42.053571"
     inkscape:cy="75.357143"
     inkscape:document-units="px"
     inkscape:current-layer="layer1"
     showgrid="false"
     inkscape:window-width="1918"
     inkscape:window-height="1005"
     inkscape:window-x="0"
     inkscape:window-y="25"
     inkscape:window-maximized="1" />
  <metadata
     id="metadata31842">
    <rdf:RDF>
      <cc:Work
         rdf:about="">
        <dc:format>image/svg+xml</dc:format>
        <dc:type
           rdf:resource="http://purl.org/dc/dcmitype/StillImage" />
        <dc:title></dc:title>
      </cc:Work>
    </rdf:RDF>
  </metadata>
  <g
     inkscape:label="Layer 1"
     inkscape:groupmode="layer"
     id="layer1"
     transform="translate(0,-952.36218)">
    <path
       sodipodi:nodetypes="ssccccccccssscccccccccsscsssccccsccccccccsssssccsssccsccsssccssccccsccccsccsccsccssccc"
       inkscape:connector-curvature="0"
       id="path31835"
       d="m 22.957746,966.20903 c -1.050366,0 -1.901408,0.85104 -1.901408,1.9014 0,0.69921 0.388563,1.30688 0.950704,1.63732 l -2.517634,34.33095 c -0.375887,0.2386 -0.626084,0.6646 -0.65138,1.1092 l -1.038761,14.2253 c -1.372563,0.086 -2.669352,0.4418 -3.855605,1.0035 l 0,1.2676 c 1.141521,-0.6125 2.428112,-1.0032 3.785183,-1.1091 l -0.088,1.1267 C 13.366535,1022.1115 10,1025.7211 10,1030.0998 c 0,4.6517 3.799042,8.4155 8.450704,8.4155 4.651718,0 8.450704,-3.7638 8.450704,-8.4155 0,-3.9635 -2.769014,-7.3027 -6.461239,-8.2042 l 0.088,-1.1268 c 4.258591,0.9523 7.430873,4.7678 7.447211,9.3135 l 1.144338,0 c -0.0169,-5.1351 -3.672169,-9.473 -8.521127,-10.4755 l 0.352113,-4.7006 13.838028,15.5457 c 0.04,0.084 0.09352,0.162 0.158479,0.2289 0.428845,0.8677 1.271267,1.5022 2.323943,2.0071 1.179719,0.5657 2.679212,0.998 4.43662,1.338 3.514648,0.68 8.062536,0.9692 12.92248,0.9331 6.395098,-0.047 13.29414,-0.6672 19.049351,-1.8311 1.224394,3.1465 4.28862,5.3874 7.86969,5.3874 4.651719,0 8.450705,-3.7638 8.450705,-8.4155 0,-4.6516 -3.798986,-8.4331 -8.450705,-8.4331 -4.360957,0 -7.964169,3.3209 -8.397915,7.5704 l -2.006986,0 c 1.085972,-3.743 3.032451,-5.8322 5.528112,-7.1478 2.718254,-1.433 6.176396,-1.8972 9.841579,-2.1303 0.443098,-0.013 0.834253,-0.4285 0.820394,-0.8716 -0.01409,-0.4431 -0.430197,-0.8333 -0.87324,-0.8186 -4.764113,0.026 -10.272169,0.4455 -13.96124,2.3239 -2.955774,1.5583 -5.310084,4.2612 -6.478873,8.6444 l -28.90845,0 -15.757803,-19.7625 0.300057,-4.0755 c 0.03718,-0.4382 -0.144508,-0.8898 -0.475381,-1.1796 l 2.500057,-34.3309 c 0.7009,-0.28028 1.197183,-0.97719 1.197183,-1.77817 0,-1.05036 -0.868677,-1.9014 -1.919043,-1.9014 z m 58.591549,57.13017 c 3.738311,0 6.725353,3.0223 6.725353,6.7606 0,3.7383 -2.987042,6.7253 -6.725353,6.7253 -2.784169,0 -5.176845,-1.6593 -6.214817,-4.0492 0.577578,-0.1333 1.14338,-0.2771 1.690141,-0.4226 0.834535,1.6473 2.551155,2.7817 4.524676,2.7817 2.788846,0 5.05279,-2.2463 5.05279,-5.0352 0,-2.7888 -2.263944,-5.0704 -5.05279,-5.0704 -2.494141,0 -4.570141,1.8285 -4.982366,4.2077 l -1.707775,0 c 0.427212,-3.3256 3.247437,-5.8979 6.690141,-5.8979 z m -64.031717,0.07 -0.123212,1.743 c -2.285014,0.4877 -4.014084,2.5201 -4.014084,4.9471 0,2.7889 2.281577,5.0352 5.070422,5.0352 2.788845,0 5.052789,-2.2463 5.052789,-5.0352 0,-2.1729 -1.380902,-4.0377 -3.309859,-4.7535 l 0.123267,-1.7429 c 2.815944,0.8116 4.859155,3.4085 4.859155,6.4964 0,3.7383 -2.987042,6.7254 -6.725352,6.7254 -3.738254,0 -6.76045,-2.9871 -6.760563,-6.7254 0,-3.4187 2.535661,-6.2326 5.827437,-6.6901 z m 64.031717,2.6408 c 2.24124,0 4.031663,1.8082 4.031719,4.0493 0,2.2413 -1.790479,4.0318 -4.031719,4.0318 -1.513126,0 -2.841859,-0.8224 -3.538761,-2.0423 1.244564,-0.3616 2.391832,-0.7679 3.41555,-1.1972 0.02366,-0.01 0.04733,-0.01 0.07042,-0.018 l 0,-0.018 c 0.349466,-0.1522 0.565071,-0.5629 0.491888,-0.9371 -0.07324,-0.3742 -0.427719,-0.6733 -0.808846,-0.6826 l -3.591549,0 c 0.392338,-1.8296 2.01369,-3.1866 3.961296,-3.1866 z m -64.225351,0.1585 -0.28169,3.7676 c -0.123324,0.7672 0.509915,1.5697 1.284732,1.6282 0.774816,0.058 1.521352,-0.64 1.514535,-1.4169 l 0.28169,-3.7676 c 1.389859,0.6401 2.359211,2.0414 2.359211,3.6795 0,2.2413 -1.790479,4.0318 -4.031718,4.0318 -2.241239,0 -4.066817,-1.7905 -4.066873,-4.0318 0,-1.8522 1.245014,-3.405 2.940113,-3.8908 z"
       style="fill:black;fill-opacity:1;stroke:none" />
  </g>
</svg>
