<?xml version="1.0"?>
<svg xmlns:rdf="http://www.w3.org/1999/02/22-rdf-syntax-ns#" xmlns="http://www.w3.org/2000/svg" xmlns:cc="http://creativecommons.org/ns#" xmlns:dc="http://purl.org/dc/elements/1.1/" xmlns:svg="http://www.w3.org/2000/svg" id="svg7598" viewBox="0 0 291.65 544.14" version="1.1">
  <defs id="defs7600">
    <filter id="filter8401" height="1.1282" width="2.8868" y="-.064075" x="-.94341" color-interpolation-filters="sRGB">
      <feGaussianBlur id="feGaussianBlur8403" stdDeviation="2.288397"/>
    </filter>
    <filter id="filter8444" height="1.6575" width="1.1124" y="-.32875" x="-.056207" color-interpolation-filters="sRGB">
      <feGaussianBlur id="feGaussianBlur8446" stdDeviation="1.3447852"/>
    </filter>
    <filter id="filter8494" height="1.2121" width="1.4486" y="-.10604" x="-.22428" color-interpolation-filters="sRGB">
      <feGaussianBlur id="feGaussianBlur8496" stdDeviation="14.335738"/>
    </filter>
    <filter id="filter8528" height="1.0622" width="2.7089" y="-.031092" x="-.85447" color-interpolation-filters="sRGB">
      <feGaussianBlur id="feGaussianBlur8530" stdDeviation="1.6347249"/>
    </filter>
    <filter id="filter8668" height="1.6712" width="1.7765" y="-.33559" x="-.38824" color-interpolation-filters="sRGB">
      <feGaussianBlur id="feGaussianBlur8670" stdDeviation="0.9101655"/>
    </filter>
  </defs>
  <g id="layer1" transform="translate(-183.85 -84.369)">
    <path id="path7617" d="m247.5 284.15c-6.7857-63.929 39.643-64.643 39.643-64.643l161.07-15c25 0 26.786 20.357 26.786 20.357l-0.71429 320.36c-0.71428 29.286-37.143 35-37.143 35l-144.29 37.85c-37.86 12.14-42.86-23.57-42.86-23.57z" stroke="#000" stroke-width="1px" fill="none"/>
    <path id="path7619" d="m254.12 287.8c-6.4952-62.631 37.946-63.331 37.946-63.331l154.18-14.695c23.93 0 25.639 19.944 25.639 19.944l-0.68371 313.85c-0.6837 28.691-35.553 34.289-35.553 34.289l-138.12 37.09c-36.24 11.9-41.02-23.09-41.02-23.09z" stroke="#000" stroke-width=".96838px" fill="none"/>
    <path id="path7621" d="m454.16 204.81s-35.255-14.064-53.633-13.1c-58.106 3.0467-115.67 4.8499-163.64 13.637-51.518 9.849-50.003 54.548-50.003 54.548l-2.5254 287.89c3.0305 34.85 28.789 33.335 28.789 33.335 3.0304 11.617 12.627 11.112 12.627 11.112 46.972 29.294 35.722 23.402 35.722 23.402" stroke="#000" stroke-linecap="round" stroke-width="1px" fill="none"/>
    <path id="path7623" d="m204.64 342.01c-0.35715 2.5 0 138.21 0 138.21 7.8571 16.786 10 3.9286 10 3.9286l-0.35715-137.5c-2.1428-17.143-9.6428-4.6429-9.6428-4.6429z" stroke="#000" stroke-width="1px" fill="none"/>
    <path id="path8135" d="m226.79 592.9s-3.9286-10.536-3.9286-20.536l-1.4286-322.86c-0.11517-26.028 17.876-32.701 23.786-37.59 5.9097-4.8891 47.76-7.844 47.76-7.844" stroke="#000" stroke-width="1px" fill="none"/>
    <path id="path8137" d="m212.5 581.29c-1.43-17.14-2.5-30.71-2.5-30.71l-0.89842-63.142" stroke="#000" stroke-width="1px" fill="none"/>
    <path id="path8139" d="m210.11 337.43v-89.146c0-29.865 21.934-36.652 27.779-40.154 5.8447-3.5015 56.005-7.5761 56.005-7.5761" stroke="#000" stroke-width="1px" fill="none"/>
    <path id="path8141" d="m293.95 198.78c1.5574 3.1139-5.325 10.585-2.0203 13.89 2.7187 2.7187 32.965 3.9051 36.871 0 3.2461-3.2461 4.9835-3.6591 9.3439-6.566-2.3145-13.203-31.687-6.1886-44.194-7.3236z" stroke="#000" stroke-width="1px" fill="none"/>
    <path id="path8143" d="m325.77 198.03 68.185-4.2932c14.395 0 21.466 1.5152 21.466 1.5152" stroke="#000" stroke-width="1px" fill="none"/>
    <path id="path8145" d="m332.59 200.05 67.175-4.0406c12.122 0 27.274 2.2728 27.274 2.2728" stroke="#000" stroke-width="1px" fill="none"/>
    <path id="path8147" d="m260.37 201.06v-93.692c0-19.698 27.274-19.951 27.274-19.951 35.103-4.0406 40.418-2.8155 54.801 0.50508 13.158 3.0378-2.0203 19.445-2.0203 19.445v86.368" stroke="#000" stroke-width="1px" fill="none"/>
    <path id="path8149" d="m276.28 199.54v-85.61c0-14.252 0.0919-12.535 13.132-15.91 21.466-5.5558 39.023-3.4442 40.406-0.50508 2.0203 4.2932-4.9468 5.0871-5.0508 8.3338-0.92457 28.872 0 89.146 0 89.146" stroke="#000" stroke-width="1px" fill="none"/>
    <path id="path8151" d="m269.38 619.33c2.1101 4.5112 7.2826 8.1752 12.472 8.6848 6.855-0.69601 7.5474-4.8716 9.939-9.5777" stroke="#000" stroke-width="1px" fill="none"/>
    <path id="path8160" d="m406.16 588.43c6.4228 11.055 21.978 3.5966 23.839-6.3393" stroke="#000" stroke-width="1px" fill="none"/>
    <path id="path8162" d="m285.69 616.71c-7.0807 0.51514-12.155-1.6769-14.01-2.6675-3.8888-2.0761-8.77-7.5548-11.732-13.168-2.2085-4.1855-2.2649-5.2169-3.018-55.278-0.42213-28.057-1.1603-102.38-1.6404-165.16-0.95429-124.79-1.0791-121.35 4.8435-133.41 4.8747-9.9277 12.439-16.564 22.761-19.97 3.3593-1.1084 31.606-4.1794 84.348-9.1702 54.627-5.1692 69.394-7.5491 79.094-7.7448 3.8866-0.0784 13.94 1.8491 17.241 5.6195 0.71924 0.82162 7.3835 6.4238 7.4514 13.582 0.4195 44.196 0.38212 30.512-0.17882 159.68 0.88163 53.127 0.0782 91.441-0.17814 119.12-0.24623 26.588 0.21697 43.37-6.6364 53.569-1.3809 2.5067-8.6203 11.074-22.505 14.444-29.048 7.0509-82.401 22.661-155.84 40.556zm8.3158-278.74c60.18-4.3297 117.9-12.219 154.55-21.125 17.93-4.3566 19.698-5.0389 19.698-7.6028 0-2.4772-2.1367-2.6274-7.9911-0.56187-6.2463 2.2038-33.836 8.1573-51.103 11.027-34.338 5.7075-67.224 9.4861-115.06 13.22-31.454 2.4554-34.437 3.05-31.72 6.3237 0.73818 0.88945 2.5936 1.1406 5.7506 0.77854 2.5634-0.29403 14.207-1.2214 25.874-2.0608z" fill="#668000"/>
    <path id="path8164" d="m240.45 600.9c-11.403-7.3453-13.114-8.813-14.42-12.374-2.3724-6.4681-2.9736-42.711-3.3516-202.03l-0.34745-146.47 2.4137-6.0535c2.8204-7.0734 10.646-15.371 19.272-20.434 5.965-3.5011 20.631-6.5127 38.478-7.9011 8.2728-0.64356 8.7199-0.57334 9.2497 1.4528 0.33213 1.2701 0.15294 1.8795-0.44414 1.5104-0.58269-0.36012-0.85989 0.37794-0.66341 1.7664 0.43833 3.0976 5.2578 4.7775 13.924 4.8533 10.496 0.0918 5.7876 1.7059-8.7069 2.9846-27.73 0.17644-48.513 14.318-49.782 51.016-0.0965 4.5688 1.0645 79.321 1.8082 166.27 1.1279 131.87 1.595 158.97 2.8165 163.43 1.1972 3.8212 4.8085 7.6603 3.3378 10.318-0.35576 0-6.4688-3.7502-13.585-8.3338z" fill="#668000"/>
    <path id="path8166" d="m202.11 577.86c-5.9344-2.9601-10.103-7.4807-13.322-14.445-2.8342-6.1335-4.6362-11.618-3.2156-28.928 1.0225-12.46 0.17118-80.459 0.80937-151.02 1.2696-140.37 0.99701-134.9 7.3654-147.83 3.989-8.1028 13.378-17.715 21.569-22.08 6.4434-3.4343 23.557-8.8349 24.554-7.7485 0.33093 0.3607 0.0306 0.85969-0.66729 1.1089-14.326 7.3631-20.003 9.8733-26.935 25.029-2.0154 4.8465-2.1123 7.0721-2.398 55.038-0.25498 42.813-0.51176 50.107-1.789 50.822-2.334 2.4446-0.39092 0.67978-2.7701 2.6019-1.575 1.2776-1.7091 6.7622-1.7091 69.87 0 37.666 0.27491 69.2 0.61092 70.076 0.33601 0.87562 1.5634 3.7014 1.9456 4.1339 0.68041 0.76983 2.8662 2.5012 2.5004 3.4545 0.32664 26.269-0.24958 57.049 2.6946 86.697l0.58669 5.3033-2.9064-0.0403c-1.5985-0.0221-4.714-0.94185-6.9232-2.0438v0.00005z" fill="#668000"/>
    <path id="path8168" fill="#668000" d="m327.07 214.9c0-0.53891 6.7998-5.6603 9.6193-7.2449 1.7756-0.99792 2.0094-1.3263 1.7331-2.434-0.17566-0.70426-0.89286-2.0341-1.5938-2.9552-0.70091-0.92107-1.1946-1.7353-1.0971-1.8094s14.819-1.0007 32.714-2.0592c34.333-2.0307 37.265-2.0572 51.216-0.46193 6.252 0.71493 8.0895 0.70409 7.3421-0.0433-0.13209-0.13209-2.8595-0.5183-6.0609-0.85825l-5.8208-0.61809v-1.4146c0-0.77803 0.0903-1.4146 0.20064-1.4146s3.5386 0.81635 7.6182 1.8141c8.2817 2.0254 25.648 7.5472 26.115 8.3036 0.17258 0.27924-0.44845 0.48891-1.4481 0.48891-1.6307 0-112.86 10.223-118.14 10.858-1.3195 0.15874-2.3991 0.0908-2.3991-0.15094z"/>
    <path id="path8170" fill="#668000" d="m239.59 206.82c0-0.0448 0.0804-0.15418 0.17857-0.24307 0.19843-0.17957 0.23662-0.57587 0.0714-0.74107-0.0589-0.0589-0.32344-0.10714-0.5878-0.10714-0.54954 0-0.61727-0.18509-0.1013-0.27683 13.945-2.4792 31.721-4.788 49.763-6.4631 3.4725-0.32241 4.384-0.38246 4.4428-0.29268 0.12711 0.19435 0.35448 1.0438 0.3231 1.2071-0.0266 0.13856-0.39576 0.18759-3.3324 0.44269-25.158 2.1854-44.764 4.7067-50.602 6.5073-0.0859 0.0265-0.15625 0.0115-0.15625-0.0333z"/>
    <path id="path8172" fill="#668000" d="m300.21 198.16c0.0584-0.17625 0.49734-0.21653 9.8809-0.90659 16.426-1.208 28.801-1.9186 68.501-3.9338 21.589-1.0958 25.319-1.2211 28.095-0.94343 1.8162 0.18169 5.7429 0.72148 7.2605 0.99807l1.1996 0.21862 0.0388 0.5316c0.0438 0.60015 0.0526 0.59656-0.99422 0.40804-3.6221-0.65228-9.897-1.1175-16.343-1.2116l-4.672-0.0682-33.714 2.1706c-22.206 1.4297-34.188 2.1541-35.103 2.1222-4.2926-0.1494-10.63-0.007-16.783 0.37823-7.1912 0.44974-7.4395 0.45771-7.3661 0.23634z"/>
    <path id="path8174" fill="#333" d="m261.19 152.07c0-48.3 0.0254-49.192 1.4848-52.207 3.5885-7.4128 10.941-10.416 30.561-12.48 19.715-2.0749 35.571-2.0947 44.319-0.05518 3.6972 0.86195 7.3133 2.1021 8.0357 2.7559 2.7123 2.4546 1.1948 8.3377-3.7767 14.641l-2.0527 2.6028v43.231c0 33.916 0.19237 43.308 0.89286 43.591 0.49107 0.19815-1.3926 0.38565-4.186 0.41667-2.7934 0.031-6.5008 0.25128-8.2387 0.48949l-3.1598 0.4331 0.0244-45.148 0.0244-45.148 2.6786-2.2491c3.075-2.582 3.5542-5.2872 1.1972-6.7591-0.81474-0.50882-4.1716-1.2851-7.4596-1.725-7.4627-0.9985-18.502-0.02716-30.702 2.7014-9.1513 2.0467-13.379 3.7611-14.363 5.8247-0.33596 0.70423-0.71556 22.693-0.84354 48.865l-0.2327 47.584-4.7803 0.47145c-2.6292 0.25929-5.8249 0.65898-7.1017 0.8882l-2.3214 0.41675v-49.14z"/>
    <path id="path8359" filter="url(#filter8401)" fill="#fff" d="m270.71 108.79c-12.5 68.929 0.35714 85.714 0.35714 85.714"/>
    <path id="path8405" filter="url(#filter8401)" d="m333.57 108.79c-12.5 68.929 0.35714 85.714 0.35714 85.714" fill="#fff"/>
    <path id="path8413" filter="url(#filter8444)" d="m269.74 98.158c6.7034-4.191 14.424-6.6418 22.24-7.7326 11.185-1.613 22.521-1.6183 33.795-1.9814 2.1802-0.31392 1.4288 0.13408 0.20325 0.70718-1.2746 0.59366-2.4261 1.665-3.9506 1.2858-11.293 0.38179-22.648 0.44319-33.849 2.0796-3.6579 0.60579-7.3344 1.2829-10.831 2.5468 1.1596-0.43215 6.8305-2.6568 3.1132-1.1817-2.4692 0.74442-4.5083 2.5393-6.8158 3.4175-1.3018 0.28624-2.6038 0.5726-3.9056 0.85878z"/>
    <path id="path8448" opacity=".29646" filter="url(#filter8494)" d="m287.89 303.84c0-3.7039 1.0102-34.682 0-24.244 6.6144-29.322 125.16-48.905 149.5-25.254 5.1275 10.255-0.66718 276.44-13.132 288.9-25.059 5.3734-105.69 35.499-124.25 21.213-13.69-13.69-16.799-227.88-12.122-260.62z" fill="#fff"/>
    <path id="path7625" d="m263.93 337.72c148.93-8.9286 202.5-28.214 202.5-28.214" stroke="#1a1a1a" stroke-linecap="round" stroke-width="5" fill="none"/>
    <path id="path8498" fill="#4d4d4d" d="m219.63 589.73c-6.7363-3.6605-8.4241-15.951-9.5843-69.795l-0.65514-30.405 2.1491-0.56201c1.182-0.30909 2.4912-1.4856 2.9094-2.6145 0.41817-1.1289 0.53302-34.308 0.25523-73.731-0.46808-66.429-0.63455-71.822-2.2728-73.631-1.6301-1.8006-1.7678-5.5999-1.7678-48.781 0-52.417 0.32938-55.593 6.7794-65.365 5.6828-8.6097 17.71-16.169 29.081-18.278 5.648-1.0476 23.982-3.2195 40.406-4.7869 5.5084-0.52566 6.8152-0.40514 5.9135 0.54537-0.63667 0.67109-7.0006 1.8474-14.142 2.6141-7.1415 0.7667-15.712 1.8569-19.045 2.4226-3.3335 0.56574-6.4287 1.0313-6.8781 1.0345-0.44948 0.003-0.5625 0.41803-0.25115 0.9218s-0.33209 0.68107-1.4299 0.394c-3.7335-0.97633-21.559 11.427-21.021 14.627 0.15935 0.94659-0.38388 1.7164-1.2298 1.7426-0.83338 0.0259-1.4529 0.82668-1.3767 1.7796 0.0762 0.95289-0.21487 1.5141-0.64675 1.2472-1.3102-0.80978-4.1328 6.3085-5.1321 12.943-0.58044 3.8536-0.60296 70.002-0.0587 172.42 0.77079 145.05 1.0812 166.84 2.442 171.47 1.4387 4.8942 1.4296 5.3002-0.11738 5.2628-0.92198-0.0222-2.869-0.68856-4.3268-1.4807z"/>
    <path id="path8500" fill="#4d4d4d" d="m331.8 198.98c-1.1752-0.44247-1.4884-0.80851-0.69186-0.80851 0.27893 0 14.51-0.88393 31.625-1.9643s32.101-1.9642 33.302-1.964c4.8549 0.0006 13.098 0.56004 17.093 1.1601 0.98224 0.14753 1.8266 0.26824 1.8764 0.26824s0.0905 0.16436 0.0905 0.36524c0 0.3133-0.0825 0.35117-0.58035 0.26631-1.0967-0.18695-7.8509-0.62635-11.267-0.73303-3.0525-0.0953-6.934 0.1059-36.119 1.8724-17.984 1.0885-33.051 1.9698-33.482 1.9585-0.43075-0.0114-1.2615-0.20074-1.8461-0.42084z"/>
    <path id="path8502" d="m269.62 618.58c-6.5107-1.8776-15.01-10.823-17.187-18.09-1.378-4.5993-2.0289-36.207-2.6973-130.98-0.48455-68.704-1.3709-124.61-1.9696-124.24-1.0129 0.62601-0.50769-56.387 0.7178-81.003 0.92086-18.497 9.0037-32.434 22.977-39.619 5.8823-3.0247 21.014-5.8043 31.87-5.8542 3.3856-0.0156 5.7961-0.61022 5.3565-1.3215-0.46358-0.75009 2.8927-0.95838 7.992-0.49599 6.374 0.57798 8.5151 0.35026 7.7868-0.82819-0.69608-1.1263 0.22357-1.3895 2.9951-0.8573 2.1998 0.42243 28.428-1.5409 58.285-4.3629 4.2683-0.30324 27.511-1.7511 48.196-4.6087 17.105-3.7786 35.074-1.6742 39.741 15.223-1.0482 1.6567-2.4216 0.91222-6.9774-3.7823-9.408-9.6943-8.5244-9.6816-95.993-1.3887-44.281 4.1983-76.257 7.8105-75.264 8.5024 0.97997 0.68314-0.74375 0.8299-3.9884 0.33958-7.3759-1.1146-21.554 5.6377-27.097 12.905-5.1731 6.7823-9.7444 17.485-8.8799 20.791 0.39084 1.4946 0.10964 2.346-0.62487 1.892-0.82533-0.51009-1.086 31.822-0.68251 84.641 0.35913 47.006 0.69861 116.84 0.75442 155.19-0.034 8.5083 0.61158 17.93 0.38405 29.059-0.28695 14.036 0.46429 29.473 0.22646 43.608-0.45161 26.84 2.2769 36.059 17.705 42.682 1.7679 0.70516 3.2143 1.9409 3.2143 2.746 0 1.6916-0.4975 1.6808-6.8408-0.14862z" fill="#4d4d4d"/>
    <path id="path8504" fill="#fd5" d="m211.39 487.77c-1.2466-0.50117-3.1768-2.4043-4.2894-4.2291-1.9718-3.234-2.023-5.0696-2.0267-72.609-0.004-64.719 0.11288-69.396 1.764-70.872 3.0068-2.6884 5.54-2.5818 6.1134 0.25734 0.49846 2.468 1.4332 148.55 0.94975 148.43-0.13456-0.0353-1.2646-0.47407-2.5111-0.97523z"/>
    <path id="path8510" filter="url(#filter8528)" d="m207.09 477.21c0.003-0.17006 0.0112-0.34018 0.0176-0.51022 0.009-0.26249 0.0108-0.52518 0.0135-0.7878 0.006-0.30186 0.003-0.6036-0.004-0.9054-0.009-0.33536-0.0168-0.67072-0.0245-1.0061-0.008-0.37058-0.0158-0.74118-0.0228-1.1118-0.008-0.4025-0.0143-0.80501-0.0207-1.2075-0.006-0.43255-0.014-0.86509-0.0176-1.2977-0.005-0.46793-0.0107-0.93584-0.016-1.4038-0.006-0.4916-0.0106-0.9832-0.0155-1.4748-0.005-0.51231-0.01-1.0246-0.0141-1.5369-0.005-0.53108-0.009-1.0622-0.0128-1.5933-0.004-0.54811-0.008-1.0962-0.0116-1.6444 0.0002-0.55847-0.01-1.1167-0.0233-1.675-0.0141-0.56707-0.0278-1.1342-0.041-1.7012-0.0134-0.58069-0.0258-1.1614-0.0377-1.7421-0.0122-0.5931-0.0234-1.1862-0.0343-1.7794-0.011-0.60437-0.0212-1.2088-0.031-1.8131-0.01-0.61459-0.0192-1.2292-0.0282-1.8438-0.007-0.63338-0.0154-1.2667-0.0235-1.9001-0.008-0.64242-0.0159-1.2848-0.0233-1.9273-0.009-0.65333-0.0131-1.3067-0.0193-1.96-0.008-0.67414-0.0106-1.3483-0.0154-2.0225-0.006-0.69122-0.0115-1.3824-0.0173-2.0737-0.003-0.70337-0.009-1.4067-0.0143-2.1101-0.006-0.70847-0.01-1.417-0.0133-2.1255-0.002-0.72666-0.007-1.4533-0.0112-2.18-0.004-0.72746-0.009-1.4549-0.0127-2.1824-0.004-0.72627-0.008-1.4525-0.0115-2.1788-0.004-0.72515-0.007-1.4503-0.0105-2.1755-0.003-0.73116-0.006-1.4623-0.006-2.1935-0.002-0.7438-0.005-1.4876-0.008-2.2314-0.003-0.74195-0.006-1.4839-0.008-2.2259-0.003-0.73939-0.005-1.4788-0.007-2.2182-0.002-0.73706-0.005-1.4741-0.007-2.2112-0.002-0.73495-0.004-1.4699-0.006-2.2048-0.00022-0.73227-0.0148-1.4644-0.0271-2.1966-0.0125-0.73132-0.0244-1.4626-0.036-2.194-0.0115-0.72976-0.0223-1.4595-0.0329-2.1893-0.0112-0.74022-0.0168-1.4805-0.0258-2.2207-0.009-0.74784-0.0184-1.4957-0.0272-2.2435-0.009-0.74492-0.0169-1.4899-0.0249-2.2348-0.006-0.75754-0.0115-1.5151-0.0185-2.2726-0.006-0.7678-0.012-1.5356-0.0186-2.3034-0.007-0.76625-0.0129-1.5325-0.0191-2.2987-0.006-0.76147-0.0118-1.5229-0.0174-2.2844-0.006-0.75962-0.0102-1.5192-0.0141-2.2789-0.004-0.76353-0.009-1.5271-0.0139-2.2906-0.005-0.75935-0.009-1.5187-0.0131-2.278-0.004-0.75624-0.009-1.5125-0.0108-2.2687-0.003-0.76153-0.006-1.5231-0.01-2.2846-0.003-0.75793-0.007-1.5159-0.01-2.2738-0.003-0.75389-0.006-1.5078-0.009-2.2617-0.003-0.7502-0.006-1.5004-0.008-2.2506-0.003-0.74686-0.005-1.4937-0.007-2.2406-0.002-0.74383-0.005-1.4877-0.007-2.2315-0.002-0.74108-0.004-1.4822-0.006-2.2233-0.002-0.73859-0.004-1.4772-0.006-2.2158-0.002-0.73633-0.003-1.4727-0.005-2.209-0.002-0.73428-0.003-1.4686-0.005-2.2028-0.001-0.73242-0.003-1.4648-0.004-2.1973-0.001-0.73074-0.003-1.4615-0.004-2.1922-0.002-0.73341-0.00093-1.4668-0.002-2.2002-0.00082-0.73829-0.002-1.4766-0.003-2.2149-0.00052-0.3684-0.001-0.7368-0.002-1.1052l3.427-1.1738c0.00036 0.36844 0.00072 0.73688 0.001 1.1053 0.00077 0.73831 0.001 1.4766 0.003 2.2149 0.001 0.73302 0.005 1.466 0.005 2.1991 0.001 0.73079 0.002 1.4616 0.003 2.1924 0.001 0.73249 0.002 1.465 0.003 2.1975 0.001 0.73435 0.002 1.4687 0.004 2.203 0.001 0.73641 0.003 1.4728 0.004 2.2092 0.001 0.73867 0.003 1.4774 0.005 2.216 0.002 0.74117 0.003 1.4824 0.005 2.2235 0.002 0.74393 0.004 1.4879 0.006 2.2318 0.002 0.74698 0.004 1.494 0.006 2.2409 0.002 0.75033 0.004 1.5007 0.007 2.251 0.002 0.75402 0.005 1.508 0.007 2.2621 0.003 0.75808 0.005 1.5162 0.008 2.2742 0.003 0.76143 0.006 1.5229 0.0103 2.2843 0.006 0.7561 0.007 1.5122 0.0114 2.2683 0.004 0.75949 0.007 1.519 0.0114 2.2785 0.004 0.76355 0.008 1.5271 0.0131 2.2906 0.006 0.75936 0.0116 1.5187 0.0157 2.2781 0.005 0.7616 0.01 1.5232 0.0155 2.2848 0.005 0.76637 0.0111 1.5328 0.0171 2.2991 0.006 0.76738 0.0132 1.5347 0.0213 2.3021 0.007 0.75659 0.0156 1.5132 0.0255 2.2697 0.008 0.74495 0.0153 1.4899 0.0236 2.2348 0.008 0.7478 0.0168 1.4956 0.0263 2.2434 0.01 0.73921 0.0231 1.4783 0.0332 2.2176 0.0103 0.72968 0.0208 1.4594 0.0321 2.189 0.0113 0.73129 0.023 1.4626 0.0352 2.1939 0.0122 0.73385 0.0273 1.4677 0.0281 2.2017 0.002 0.73501 0.003 1.47 0.005 2.205 0.002 0.73713 0.004 1.4743 0.006 2.2114 0.002 0.73947 0.004 1.479 0.006 2.2184 0.002 0.74203 0.005 1.4841 0.007 2.2261 0.003 0.7436 0.005 1.4872 0.009 2.2308 0.005 0.73042 0.009 1.4609 0.0122 2.1913 0.003 0.72515 0.006 1.4503 0.01 2.1754 0.004 0.72627 0.007 1.4525 0.011 2.1788 0.004 0.72745 0.008 1.4549 0.0122 2.1823 0.004 0.72597 0.008 1.452 0.0163 2.1779 0.006 0.70796 0.0123 1.4159 0.017 2.1239 0.005 0.70269 0.0106 1.4054 0.0191 2.108 0.006 0.69084 0.0121 1.3817 0.0195 2.0725 0.008 0.67288 0.0182 1.3457 0.0251 2.0186 0.008 0.65246 0.018 1.3049 0.0255 1.9574 0.008 0.64195 0.0168 1.2839 0.026 1.9258 0.009 0.63228 0.0181 1.2646 0.0309 1.8968 0.0101 0.61395 0.0205 1.2279 0.0318 1.8418 0.0111 0.60366 0.0226 1.2073 0.0351 1.8109 0.0123 0.59231 0.0249 1.1846 0.0386 1.7769 0.0135 0.5798 0.0274 1.1596 0.0426 1.7394 0.0148 0.56646 0.0303 1.1329 0.046 1.6993 0.0147 0.55996 0.0246 1.12 0.0273 1.6801 0.006 0.54725 0.0115 1.0945 0.0179 1.6417 0.006 0.53012 0.0126 1.0602 0.0197 1.5903 0.007 0.51123 0.0139 1.0225 0.0217 1.5337 0.008 0.49039 0.0153 0.98077 0.024 1.4711 0.008 0.46628 0.0166 0.93256 0.0276 1.3988 0.0112 0.43063 0.0193 0.86133 0.0304 1.292 0.01 0.40068 0.0204 0.80135 0.0323 1.202 0.011 0.3685 0.0224 0.73697 0.0355 1.1054 0.012 0.33355 0.0246 0.66708 0.0383 1.0006 0.0119 0.30406 0.0204 0.60812 0.02 0.91245 0.003 0.25954 0.004 0.51915 0.0135 0.77855 0.006 0.16603 0.0143 0.33213 0.0176 0.49817l-3.6677 1.2558z" fill="#fff"/>
    <path id="path8532" d="m469.41 220.59c-0.0571 0.0571 0.34763 1.0892 0.90625 2.2812 1.985 4.2357 2.0272 4.4615 2.0312 18.688 0.003 9.9535 0.014-17.559 0.0312 12.469 0.0174 30.027-0.11597 78.846-0.1875 128.78 0.91149 45.361-0.31402 106.34-0.53125 141.41-0.13748 22.833-0.16549 23.505-0.6875 25.594-1.6911 6.7666-4.4586 11.5-9.5312 16.219-3.352 3.1179-6.845 5.4179-11.562 7.6562-3.8336 1.819-7.1266 2.9209-13.438 4.5312-4.6101 1.1764-132.36 35.453-141.16 37.875-3.9771 1.0945-5.4571 1.3775-9.2188 1.6562-3.1993 0.23705-6.7343-0.005-9.125-0.625-0.84735-0.21957-1.6161-0.35265-1.6875-0.28125s0.18568 0.48967 0.5625 0.9375c0.51812 0.61574 0.63888 0.9931 0.53125 1.5312l-0.125 0.71875h2.375c2.9032 0 7.0708-0.57288 10.125-1.375 101.21-26.581 148.9-39.057 150.5-39.406 6.564-1.4289 13.93-4.5413 19.375-8.1562 8.5466-5.6745 13.579-13.125 14.812-22.031 0.14635-1.0566 0.31815-10.342 0.40625-21.281-0.64106-54.711 0.0977-104.23 0.15625-145.56 0.098-71.647 0.13111-111.77 0.15625-121.53 0.0251-9.7645 0.83713-37.701-0.90625-38.656-0.31221 0.50517-1.3771 0.25598-2.5312-0.625-0.64932-0.49564-1.2242-0.8696-1.2812-0.8125z" fill="#4d4d4d"/>
    <path id="path8540" fill="#fd5" d="m298.32 213.81c-6.8125-0.87449-7.5899-1.8845-5.6424-7.3304 0.77982-2.1806 1.5243-4.6723 1.6543-5.5372l0.2365-1.5725 11.948-0.4091c18.434-0.63113 22.287-0.35546 26.803 1.9174 2.0352 1.0244 4.119 3.4215 4.0568 4.6671-0.0138 0.27779-1.6608 1.5865-3.6599 2.9083s-4.372 2.946-5.2732 3.6094c-0.94877 0.69845-2.986 1.4408-4.8396 1.7636-3.7163 0.64716-20.197 0.63625-25.284-0.0167z"/>
    <path id="path8542" d="m298 206.86c-0.40287-1.8877 0.91408-2.4293 1.7678-3.283 1.2257-1.2257 1.2997 3.32 2.5254 4.5457 1.867 1.867 3.01-2.7574 3.7881-3.5355 1.939-1.939 4.5412 3.2785 4.7982 3.5355 0.52915 0.52916 1.5701-2.7779 2.0203-2.7779 1.7274 0 2.392 3.9072 3.0305 4.5457 1.7503 1.7503 3.4066-4.9218 3.7881-5.3033 1.89-1.89 1.7962 9.1538 5.3033 1.2627" stroke="#000" stroke-width="1px" fill="none"/>
    <path id="path8544" fill="#483e37" d="m279.82 627.08c-2.0132-0.56489-3.8897-1.4872-5.5857-2.7454-2.1119-1.5667-4.5091-4.611-3.2506-4.1281 2.4461 0.93867 10.037 1.0521 14.537 0.21717 1.5973-0.29635 3.444-0.7018 4.1037-0.901 0.65976-0.19919 1.1996-0.30611 1.1996-0.2376 0 0.38003-2.3785 4.6404-3.0334 5.4336-1.6525 2.0012-5.3498 3.0966-7.9702 2.3613z"/>
    <path id="path8546" fill="#483e37" d="m412.9 593.11c-2.0153-0.48112-4.5877-2.2393-5.4486-3.724l-0.42745-0.7372 11.097-2.9086c6.1034-1.5998 11.097-2.8181 11.097-2.7076 0 0.5263-1.2945 3.0036-2.1737 4.16-3.3723 4.4352-9.5419 7.0162-14.145 5.9174z"/>
    <path id="path8548" d="m285.74 328.11c0.17783-0.0493 0.36934 0.008 0.54257 0.0574 0.23045 0.0288 0.44174 0.13151 0.66222 0.19719 0.27722 0.0913 0.54105 0.21689 0.80091 0.34856 0.30664 0.15772 0.59933 0.34023 0.88813 0.52812 0.32836 0.20633 0.63516 0.44262 0.93731 0.68498 0.34911 0.2786 0.68942 0.56497 0.99735 0.88873 0.36316 0.42202 0.67302 0.88498 0.98611 1.3442 0.3056 0.47474 0.61061 0.94965 0.89005 1.4404 0.28325 0.50087 0.50636 1.0312 0.69917 1.5723 0.15591 0.55005 0.19549 1.1223 0.2188 1.6907 0.0213 0.56251-0.02 1.1239-0.0679 1.6838-0.0551 0.55113-0.14447 1.0977-0.27528 1.6358-0.11689 0.50554-0.29802 0.99197-0.48079 1.4765-2.012 4.7127-4.5529 9.2637-7.7191 13.296-0.28274 0.35335-0.62044 0.65335-0.98013 0.92536-0.21883 0.17234-0.10679 0.0885-0.33625 0.25122l5.5748-13.07c0.17638-0.18386 0.0877-0.091 0.26615-0.27861 0.25281-0.31115 0.48245-0.63961 0.68127-0.98819 2.9104-4.9424-9.5791 16.137-6.2957 10.875 0.25342-0.44638 0.46976-0.91219 0.66366-1.3874 0.18521-0.49127 0.36238-0.98625 0.45313-1.5055 0.10408-0.51815 0.18088-1.0417 0.2164-1.5694 0.0303-0.50086 0.0401-1.0024 0.0175-1.5039-0.005-0.48301-0.19518-0.92806-0.3805-1.3683-0.21663-0.47551-0.46594-0.93251-0.76505-1.3619-0.24761-0.39506-0.51227-0.78355-0.83552-1.1214-0.24856-0.2698-0.54571-0.4932-0.83669-0.71493-0.26976-0.19806-0.53974-0.39843-0.82758-0.5694-0.24846-0.14066-0.50035-0.27665-0.76634-0.38172-0.20565-0.0782-0.41516-0.14388-0.63215-0.183-0.17036-0.0423-0.33859-0.0446-0.51309-0.0517-0.12812 0.0372-0.25692 0.0574-0.3891 0.0285l6.6055-12.87z" stroke="#000" fill="#999"/>
    <path id="path8550" filter="url(#filter8668)" d="m287.54 334.06c0.026 0.0558 0.0738 0.0952 0.11579 0.13901 0.0774 0.0756 0.14653 0.15875 0.2144 0.24279 0.0845 0.11012 0.17396 0.21614 0.26403 0.32173 0.1075 0.13053 0.20148 0.27138 0.29969 0.40887 0.11103 0.15771 0.22006 0.31674 0.32281 0.48 0.11753 0.18483 0.21314 0.38182 0.30946 0.57813 0.0996 0.21244 0.19386 0.42755 0.28061 0.64558 0.0894 0.22534 0.16387 0.45632 0.22765 0.69009 0.0653 0.23376 0.11315 0.47157 0.15375 0.71067 0.0406 0.23639 0.0756 0.47345 0.10014 0.71203 0.0168 0.1584 0.0232 0.3173 0.0262 0.47645l-3.2281 1.1037c0.004-0.14898 0.005-0.29803-0.009-0.44659-0.02-0.23101-0.0472-0.46133-0.0882-0.68966-0.0388-0.22788-0.0812-0.4552-0.14053-0.67877-0.0619-0.22055-0.13395-0.438-0.21969-0.65054-0.0868-0.20816-0.17336-0.41658-0.28091-0.61519-0.096-0.183-0.20024-0.36169-0.31814-0.53161-0.10807-0.15424-0.22015-0.30564-0.33748-0.45299-0.10006-0.12798-0.20439-0.25214-0.3175-0.36891-0.0945-0.1017-0.18639-0.20609-0.28807-0.30077-0.0749-0.0675-0.15276-0.13167-0.23438-0.19092-0.0535-0.0379-0.11162-0.0952-0.16441-0.11947l3.3123-1.4637z" fill="#fff"/>
  </g>
  <metadata>
    <rdf:RDF>
      <cc:Work>
        <dc:format>image/svg+xml</dc:format>
        <dc:type rdf:resource="http://purl.org/dc/dcmitype/StillImage"/>
        <cc:license rdf:resource="http://creativecommons.org/licenses/publicdomain/"/>
        <dc:publisher>
          <cc:Agent rdf:about="http://openclipart.org/">
            <dc:title>Openclipart</dc:title>
          </cc:Agent>
        </dc:publisher>
        <dc:title>luggage</dc:title>
        <dc:date>2013-07-28T07:24:06</dc:date>
        <dc:description>A green photorealistic suitcase</dc:description>
        <dc:source>http://openclipart.org/detail/181230/luggage-by-cprostire-181230</dc:source>
        <dc:creator>
          <cc:Agent>
            <dc:title>cprostire</dc:title>
          </cc:Agent>
        </dc:creator>
        <dc:subject>
          <rdf:Bag>
            <rdf:li>bag</rdf:li>
            <rdf:li>baggage</rdf:li>
            <rdf:li>suitcase</rdf:li>
            <rdf:li>travel</rdf:li>
          </rdf:Bag>
        </dc:subject>
      </cc:Work>
      <cc:License rdf:about="http://creativecommons.org/licenses/publicdomain/">
        <cc:permits rdf:resource="http://creativecommons.org/ns#Reproduction"/>
        <cc:permits rdf:resource="http://creativecommons.org/ns#Distribution"/>
        <cc:permits rdf:resource="http://creativecommons.org/ns#DerivativeWorks"/>
      </cc:License>
    </rdf:RDF>
  </metadata>
</svg>
