<?xml version="1.0" encoding="UTF-8" standalone="no"?>
<!-- Created with Inkscape (http://www.inkscape.org/) -->

<svg
   xmlns:dc="http://purl.org/dc/elements/1.1/"
   xmlns:cc="http://creativecommons.org/ns#"
   xmlns:rdf="http://www.w3.org/1999/02/22-rdf-syntax-ns#"
   xmlns:svg="http://www.w3.org/2000/svg"
   xmlns="http://www.w3.org/2000/svg"
   xmlns:xlink="http://www.w3.org/1999/xlink"
   xmlns:sodipodi="http://sodipodi.sourceforge.net/DTD/sodipodi-0.dtd"
   xmlns:inkscape="http://www.inkscape.org/namespaces/inkscape"
   width="367.91226"
   height="540.4707"
   id="svg2"
   version="1.1"
   inkscape:version="0.48.4 r9939"
   sodipodi:docname="Neues Dokument 1">
  <defs
     id="defs4">
    <radialGradient
       inkscape:collect="always"
       xlink:href="#radialGradient3880"
       id="radialGradient3147"
       gradientUnits="userSpaceOnUse"
       gradientTransform="matrix(0.59115,0.34708,-0.036388,1.3948,29.270786,-11.443167)"
       cx="251.38"
       cy="273.84"
       r="21.212999" />
    <radialGradient
       id="radialGradient3880"
       gradientUnits="userSpaceOnUse"
       cy="273.84"
       cx="251.38"
       gradientTransform="matrix(0.59115,0.34708,-0.036388,1.3948,-81.06,-213.57)"
       r="21.212999">
      <stop
         id="stop3826-4"
         stop-color="#ffd42a"
         offset="0" />
      <stop
         id="stop3828-0"
         stop-color="#b79200"
         offset="1" />
    </radialGradient>
    <radialGradient
       inkscape:collect="always"
       xlink:href="#radialGradient3877"
       id="radialGradient3144"
       gradientUnits="userSpaceOnUse"
       gradientTransform="matrix(0.35591,0.15044,0,0.63311,123.39479,268.38983)"
       cx="249.02"
       cy="272.75"
       r="21.212999" />
    <radialGradient
       id="radialGradient3877"
       gradientUnits="userSpaceOnUse"
       cy="272.75"
       cx="249.02"
       gradientTransform="matrix(0.35591,0.15044,0,0.63311,13.064,66.263)"
       r="21.212999">
      <stop
         id="stop3826-4-8"
         stop-color="#ffd42a"
         offset="0" />
      <stop
         id="stop3828-0-2"
         stop-color="#b79200"
         offset="1" />
    </radialGradient>
    <radialGradient
       inkscape:collect="always"
       xlink:href="#radialGradient3874"
       id="radialGradient3141"
       gradientUnits="userSpaceOnUse"
       gradientTransform="matrix(1.0167,0.47319,0,1.9914,-6.919214,-74.223167)"
       cx="253.89999"
       cy="273.34"
       r="21.212999" />
    <radialGradient
       id="radialGradient3874"
       gradientUnits="userSpaceOnUse"
       cy="273.34"
       cx="253.89999"
       gradientTransform="matrix(1.0167,0.47319,0,1.9914,-117.25,-276.35)"
       r="21.212999">
      <stop
         id="stop3826-4-1"
         stop-color="#ffd42a"
         offset="0" />
      <stop
         id="stop3828-0-7"
         stop-color="#c8a000"
         offset="1" />
    </radialGradient>
    <radialGradient
       inkscape:collect="always"
       xlink:href="#radialGradient3871"
       id="radialGradient3138"
       gradientUnits="userSpaceOnUse"
       gradientTransform="matrix(0.6,0.25362,0,1.0673,106.17689,301.84283)"
       cx="256.67999"
       cy="276.23001"
       r="21.212999" />
    <radialGradient
       id="radialGradient3871"
       gradientUnits="userSpaceOnUse"
       cy="276.23001"
       cx="256.67999"
       gradientTransform="matrix(0.6,0.25362,0,1.0673,-4.1539,99.716)"
       r="21.212999">
      <stop
         id="stop3826-4-6"
         stop-color="#ffd42a"
         offset="0" />
      <stop
         id="stop3828-0-1"
         stop-color="#b79200"
         offset="1" />
    </radialGradient>
    <radialGradient
       inkscape:collect="always"
       xlink:href="#radialGradient3868"
       id="radialGradient3135"
       gradientUnits="userSpaceOnUse"
       gradientTransform="matrix(0.41667,0.21895,0,0.92139,157.93679,182.77983)"
       cx="250.2"
       cy="274.28"
       r="21.212999" />
    <radialGradient
       id="radialGradient3868"
       gradientUnits="userSpaceOnUse"
       cy="274.28"
       cx="250.2"
       gradientTransform="matrix(0.41667,0.21895,0,0.92139,47.606,-19.347)"
       r="21.212999">
      <stop
         id="stop3826-4-2"
         stop-color="#ffd42a"
         offset="0" />
      <stop
         id="stop3828-0-16"
         stop-color="#caa100"
         offset="1" />
    </radialGradient>
    <radialGradient
       inkscape:collect="always"
       xlink:href="#radialGradient3865"
       id="radialGradient3132"
       gradientUnits="userSpaceOnUse"
       gradientTransform="matrix(0.6,0.25362,0,1.0673,30.469786,179.16783)"
       cx="251.97"
       cy="271.72"
       r="21.212999" />
    <radialGradient
       id="radialGradient3865"
       gradientUnits="userSpaceOnUse"
       cy="271.72"
       cx="251.97"
       gradientTransform="matrix(0.6,0.25362,0,1.0673,-79.861,-22.959)"
       r="21.212999">
      <stop
         id="stop3826-4-18"
         stop-color="#ffd42a"
         offset="0" />
      <stop
         id="stop3828-0-9"
         stop-color="#b79200"
         offset="1" />
    </radialGradient>
    <radialGradient
       inkscape:collect="always"
       xlink:href="#radialGradient3862"
       id="radialGradient3129"
       gradientUnits="userSpaceOnUse"
       gradientTransform="matrix(0.99447,0.67193,-0.090969,2.6827,-41.759214,-522.94317)"
       cx="251.81"
       cy="273.82999"
       r="21.212999" />
    <radialGradient
       id="radialGradient3862"
       gradientUnits="userSpaceOnUse"
       cy="273.82999"
       cx="251.81"
       gradientTransform="matrix(0.99447,0.67193,-0.090969,2.6827,-152.09,-725.07)"
       r="21.212999">
      <stop
         id="stop3826-4-1-1"
         stop-color="#ffd42a"
         offset="0" />
      <stop
         id="stop3828-0-7-1"
         stop-color="#c8a000"
         offset="1" />
    </radialGradient>
    <radialGradient
       inkscape:collect="always"
       xlink:href="#radialGradient3859"
       id="radialGradient3126"
       gradientUnits="userSpaceOnUse"
       gradientTransform="matrix(-1.7771,1.1479,-0.77501,-1.1997,1120.8308,17.596833)"
       cx="386.04999"
       cy="199.08"
       r="183.69" />
    <radialGradient
       id="radialGradient3859"
       gradientUnits="userSpaceOnUse"
       cy="199.08"
       cx="386.04999"
       gradientTransform="matrix(-1.7771,1.1479,-0.77501,-1.1997,1010.5,-184.53)"
       r="183.69">
      <stop
         id="stop4178"
         stop-color="#fd5"
         offset="0" />
      <stop
         id="stop4180"
         stop-color="#d4b22a"
         offset=".92277" />
      <stop
         id="stop4182"
         stop-color="#caa200"
         offset="1" />
    </radialGradient>
  </defs>
  <sodipodi:namedview
     id="base"
     pagecolor="#ffffff"
     bordercolor="#666666"
     borderopacity="1.0"
     inkscape:pageopacity="0.0"
     inkscape:pageshadow="2"
     inkscape:zoom="0.35"
     inkscape:cx="219.67041"
     inkscape:cy="224.52106"
     inkscape:document-units="px"
     inkscape:current-layer="layer1"
     showgrid="false"
     fit-margin-top="0"
     fit-margin-left="0"
     fit-margin-right="0"
     fit-margin-bottom="0"
     inkscape:window-width="594"
     inkscape:window-height="461"
     inkscape:window-x="748"
     inkscape:window-y="19"
     inkscape:window-maximized="0" />
  <metadata
     id="metadata7">
    <rdf:RDF>
      <cc:Work
         rdf:about="">
        <dc:format>image/svg+xml</dc:format>
        <dc:type
           rdf:resource="http://purl.org/dc/dcmitype/StillImage" />
        <dc:title></dc:title>
      </cc:Work>
    </rdf:RDF>
  </metadata>
  <g
     inkscape:label="Ebene 1"
     inkscape:groupmode="layer"
     id="layer1"
     transform="translate(-130.32959,-222.12683)">
    <path
       style="fill:#ffd42a"
       inkscape:connector-curvature="0"
       d="m 130.33079,222.12683 v 47.094 c 7.8771,8.3642 13.469,23.516 13.469,38.625 0,15.111 -5.5898,25.804 -13.469,27.875 v 91.062 c 6.0285,4.3315 10.625,15.583 10.625,26.812 0,11.235 -4.5921,18.586 -10.625,17.812 v 27.875 l 156.47,255.03 2,3.2812 c 0.5982,0.74903 1.2703,1.4319 1.9688,2.0312 0.67883,0.58256 1.3979,1.0781 2.1562,1.5 v -227.72 c -0.0208,-13.786 -0.0547,-27.724 -0.0937,-37.844 -0.0119,-3.0774 -2.0425,-10.572 -3.8125,-13.469 l -158.16,-258.82 0.22,0.089 -0.75,-1.219 z"
       id="path4164" />
    <path
       style="fill:url(#radialGradient3147);stroke:#d4aa00;stroke-width:0.61677998"
       inkscape:connector-curvature="0"
       d="m 174.90779,454.29683 a 23.527961,12.2485 80.08 0 1 -25.456,-10.76 23.527961,12.2485 80.08 0 1 25.456,10.76 z"
       id="path3814-9" />
    <path
       style="fill:url(#radialGradient3144);stroke:#ffcc00;stroke-width:0.36587"
       inkscape:connector-curvature="0"
       d="m 217.02079,477.52683 a 13.956,7.2656 80.08 1 1 -15.1,-6.3827 13.956,7.2656 80.08 1 1 15.1,6.3827 z"
       id="path3814-9-4" />
    <path
       style="fill:url(#radialGradient3141);stroke:#d4aa00;stroke-width:1.09669995"
       inkscape:connector-curvature="0"
       d="m 260.50079,583.58683 a 43.789864,20.805411 81.522 1 1 -43.134,-20.076 43.789864,20.805411 81.522 1 1 43.134,20.076 z"
       id="path3814-9-1" />
    <path
       style="fill:url(#radialGradient3138);stroke:#d4aa00;stroke-width:0.61677998"
       inkscape:connector-curvature="0"
       d="m 264.00079,654.40683 a 23.527961,12.2485 80.08 0 1 -25.456,-10.76 23.527961,12.2485 80.08 0 1 25.456,10.76 z"
       id="path3814-9-2" />
    <path
       style="fill:url(#radialGradient3135);stroke:#ffcc00;stroke-width:0.47756001"
       inkscape:connector-curvature="0"
       d="m 267.54079,487.14683 a 20.216362,8.5457531 82.921 0 1 -17.678,-9.289 20.216362,8.5457531 82.921 1 1 17.678,9.289 z"
       id="path3814-9-5" />
    <path
       style="fill:url(#radialGradient3132);stroke:#ffcc00;stroke-width:0.61677998"
       inkscape:connector-curvature="0"
       d="m 188.29579,531.72683 a 23.527961,12.2485 80.08 0 1 -25.456,-10.76 23.527961,12.2485 80.08 0 1 25.456,10.76 z"
       id="path3814-9-7" />
    <path
       style="fill:url(#radialGradient3129);stroke:#d4aa00;stroke-width:1.09669995"
       inkscape:connector-curvature="0"
       d="m 195.16979,374.23683 a 43.789862,20.80541 81.522 1 1 -43.134,-20.08 43.789862,20.80541 81.522 1 1 43.134,20.08 z"
       id="path3814-9-1-3" />
    <path
       style="fill:url(#radialGradient3126)"
       inkscape:connector-curvature="0"
       d="m 130.86179,223.25183 158.15,258.84 c 1.77,2.897 3.8139,10.38 3.8258,13.457 0.20851,53.983 0.12039,171.17 0.11959,233.83 v 31.75 c 0.0451,0.025 0.0796,0.0694 0.125,0.0937 0.81613,0.43849 1.6744,0.76914 2.5625,1 0.88814,0.23086 1.8081,0.375 2.75,0.375 0.12896,0 0.2469,-0.058 0.375,-0.0625 1.8091,-0.52826 3.6264,-1.1062 5.4375,-1.6562 12.256,-3.7218 24.539,-7.7865 36.844,-12.719 61.818,-24.779 113.46,-60.466 150.41,-100.28 1.2308,-1.3265 2.6042,-2.5389 3.7188,-3.9688 0.31975,-0.4102 0.59299,-0.841 0.84375,-1.3125 0.49036,-0.92201 0.93606,-1.9008 1.2812,-2.9375 0.34519,-1.0367 0.60433,-2.1499 0.78125,-3.25 0.0199,-0.12384 0.014,-0.25319 0.0312,-0.375 v -256.38 c 0,0 0.28005,-4.8288 0,-7.2188 -0.12586,-1.074 -0.41799,-2.1591 -0.75,-3.1562 -0.34519,-1.0367 -0.79089,-2.0155 -1.2812,-2.9375 -0.0724,-0.13618 -0.17464,-0.24161 -0.25,-0.375 -0.43489,-0.76971 -0.88018,-1.5192 -1.4062,-2.1875 -0.61723,-0.78407 -1.3054,-1.5021 -2.0312,-2.125 -0.4592,-0.39408 -0.94375,-0.72581 -1.4688,-1 -1.4233,-0.74333 -4.5,-1.7188 -4.5,-1.7188 z"
       id="path4092" />
  </g>
</svg>
