<?xml version="1.0"?>
<svg xmlns:rdf="http://www.w3.org/1999/02/22-rdf-syntax-ns#" xmlns="http://www.w3.org/2000/svg" xmlns:cc="http://creativecommons.org/ns#" xmlns:dc="http://purl.org/dc/elements/1.1/" xmlns:svg="http://www.w3.org/2000/svg" id="svg2" viewBox="0 0 520.42 409.09" version="1.1">
  <g id="layer1" transform="translate(-103.08 -375.66)">
    <path id="path3976" d="m495.06 661.81c-95.97 0.3062-243.11 11.738-316.34 18.812-6.5207 5.4026-22.953 10.154-41.5 18.781-11.576 5.3845-11.267 16.068-16 19-9.5828 5.9357-13.904 11.101-16.688 20.031-0.42934 1.3775-0.72633 2.457-0.90625 3.1875-0.66457-0.0355-0.72773 0.12067-0.125 0.46875-0.0141 0.0764-0.0643 0.3181-0.0625 0.34375 0.009 0.12409 0.0732-0.033 0.1875-0.28125 7.2468 4.0035 84.474 28.791 113.75 31.438 64.7 5.8491 137.63 16.654 191.97 7.7812 2.0702 0.45368 6.0993 0.90388 12.844 1.4062 1.9683 0.14661-1.0992 1.5454 2.5625 1.0938 2.2245-0.27435 6.7245-1.6057 10-2.9375 2.9926-1.2168 9.3686-5.1153 14.875-8.8438 14.59-3.6183 27.784-8.1374 39.656-13.219 2.3125 2.2138 9.4911 1.1342 18.844-2.8438l8.5938-3.6562-2.375 4.25c16.076 2.3092 28.406-8.569 30.25-14.25 5.6425-1.1074 10.775-2.1691 13.812-2.9062 10.402-2.524 20.917-6.9771 22.688-9.625 0.48346-0.72286 0.75203-1.378 0.8125-1.9688 31.707-3.2616 44.034-23.19 35.656-39.469-5.3114-10.32-20.144-14.919-42.531-21.375-13.671-3.5332-39.003-5.0714-70.844-5.2188-2.9851-0.0138-6.0292-0.01-9.125 0z" fill="#8a0"/>
    <path id="path3922" fill="#7c9c00" d="m167.64 693.04c-5.8245 5.3801-2.4073 12.749-7.3804 18.364-3.1845 10.75 14.197 21.27 29.545 17.991 13.228-2.3336 24.314-9.356 38.484-9.302 11.837-0.89762 22.646-4.9788 31.564-10.165 9.4981-2.9547 20.396-2.4104 30.074-4.925 3.1705-1.7425 2.6935-5.2449 0.98818-7.5346-24.147-8.1115-99.585-14.469-123.27-4.4284z"/>
    <path id="path3968" d="m584.6 661.99c-0.56688 0.95333 8.1261 7.7388 33.933 23.057 1.7646 1.0635 3.4127 2.1088 4.9648 3.1826-16.092-15.844-38.042-27.679-38.898-26.24z"/>
    <path id="path3130" fill="#516600" d="m581.02 604.41-7.5 12.562 0.3125 36.719c-0.33544 0.30321-0.66768 0.64241-1 0.9375v20.188l3.875 0.53125 28.156-49.156c-5.5039 3.1124-12.279 9.5368-19.156 16.219 5.4286-9.0899 4.6174-15.409 5.6562-19.406-3.5093 4.136-4.4465 3.2502-12.584 22.112-0.0897 0.0848-1.4234 2.2595-1.1435 0.12683 1.3005-15.186 4.4805-27.163 3.3841-40.832z"/>
    <path id="path3066" d="m200.62 769.74c29.839 12.191 80.531 10.602 125.8 13.978l112.75-82.002-125.8-3.7273z" fill="#decd87"/>
    <path id="path3912" fill="#7b9a00" d="m540.74 678c-0.16864 0.0118-0.34669 0.0449-0.53125 0.0937-10.301 2.5794-19.552 8.7578-30.281 9.6875-2.0736-0.55594-45.34 11.465-45.469 13-12.367 2.6379-20.925 4.7402-26.562 6.375-2.1426 0.00043-4.2923 0.0576-6.4375 0.1875-0.77553 0.86552-1.2768 1.8085-1.5625 2.8125-0.80326 0.5528-0.86716 0.98308-0.25 1.3125-0.40266 4.0445 2.3424 8.4928 5.75 10.562 5.7469 3.512 12.758 2.3171 19.125 3.2812 2.7501 3.2107 4.6075 8.1619 9.5 8.4688 7.2154 0.23121 10.129-8.13 16.469-10.125 11.573-2.7323 23.968-1.4547 35.188-5.875 5.5183-1.8451 9.7488-6.5943 10.875-12.312 0.15662-0.93619 0.31803-1.974 0.4375-3.0312 4.8576-3.482 9.2328-6.5238 10.844-6.875 58.076-12.66 30.202-13.636 4.0625-12.656 2.0811-1.3074 1.3734-5.0826-1.1562-4.9062z"/>
    <path id="path3060" fill="#a46b37" d="m176.63 692.73 0.91093-183.55 369.84-90.182 31.427 67.864-7.7429 5.4656 3.1883 172.17-120.24 35.982z"/>
    <path id="path3211" fill-opacity=".99247" d="m584.1 664.12c-3.2865 0.85544-5.0212 4.2324-6.9755 6.8246-2.9731 4.069-7.7966 6.5461-9.7443 11.444-0.94069 3.9927 2.393 8.1544 6.1987 8.3232 10.29 2.1353 20.858 4.4773 31.369 2.732 4.0368-0.86317 8.284-1.2524 11.935-3.4268 0.78016-1.3593 1.4537-3.8813 0.10732-5.0499-8.5896-6.9047-16.735-14.797-26.797-19.295-1.9403-0.79397-3.9453-1.919-6.093-1.5524z"/>
    <path id="path3846" fill="#5e5148" d="m312.82 647.63-0.45546 50.557c45.385 5.4944 93.482 2.855 141.19 1.3664l-1.3664-39.626z"/>
    <path id="path3836" fill="#543b24" d="m312.36 568.38 120.24 11.387 16.852-27.783 1.3664 108.4-138.92-10.02z"/>
    <path id="path3832" d="m546.47 421.72 32.338 69.231 20.496 0.91093-38.259-91.093z" fill="#8d7a6c"/>
    <path id="path3834" fill="#543b24" d="m314.64 532.86-0.91093 30.516 31.883-27.328z"/>
    <path id="path3830" fill="#60534a" d="m153.4 505.53c116.51 8.8612 235.87 22.462 342.06 14.119l68.32-126.62-334.31-5.9211c-12.569 12.579-64.938 122.87-76.063 118.42z"/>
    <path id="path2998" d="m561.85 389.47c-12.889 10.437-13.099 33.832-27.642 42.223-16.006 17.464-26.798 40.733-35.277 64.273-0.84222 8.5189-5.9677 15.817-12.634 18.498-4.8447 7.5478 6.9656 18.245 11.59 9.9854 10.37-13.238 12.723-32.159 21.127-46.956 13.349-28.445 31.518-53.17 45.867-80.758 0.49771-2.7086 0.31478-7.8804-3.0304-7.2668z"/>
    <path id="path2996" d="m323.63 386.04c-94.096-2.308-102 0.40689-66.283 3.8279 15.36 1.506 41.024 3.299 73.805 5.161 37.258 0.31673 76.134 0.44192 140.97 2.7733 28.488 0.90624 58.859 2.0156 86.978 3.2575-50.808-2.6033-22.13-3.07-23.216-4.2122 9.1561-1.1701 26.314-2.0173 30.265-3.3971-71.9-1.51-165.75-5.4-242.52-7.41z"/>
    <path id="path2992" d="m493.29 532.83c1.4017 1.4715 0.98785 0.66695 0 0z"/>
    <path id="path3006" d="m554.76 390.38c0.1016 5.5752 4.2791 7.422 5.8448 11.842 11.036 26.174 22.182 52.252 32.854 78.812 1.4964 3.5026 2.6781 7.8403 4.7309 10.449 3.4929 0.83871 5.0448-7.5598 2.4325-10.731-5.6851-17.84-14.549-32.279-21.839-48.376-7.4162-15.034-15.365-29.43-22.458-44.85 0.18102-2.5865-0.54276-0.84063-1.0822 0.55062-0.29348 0.67012-0.45243 1.4901-0.48297 2.3036z"/>
    <path id="path3004" d="m572.21 482.04c-5.523 19.139-3.1197 40.121-4.6518 60.141-1.5708 44.007-1.9872 88.741 5.3728 131.89-0.35068 2.7955 1.7146 4.9498 3.6046 4.4375-1.4442-6.8081-0.65801-14.058-1.2984-21.039-1.4489-39.656-0.17849-79.358 0.13838-119.03-0.0553-18.876-0.80173-37.799-3.0529-56.435l-0.11265 0.0312z"/>
    <path id="path2990" d="m584.51 479.09 0.18711-0.74842 0.00039-0.002-0.18711 0.74842-0.00039 0.002z"/>
    <path id="path3012" d="m226.93 388.91c-25.473 36.18-50.116 70.918-73.469 106.59-8.0791 1.7802-9.6452 3.357-7.6562 8.5625-0.9472 6.8744 8.3721 14.347 13.188 7 10.955-11.425 13.058-28.094 22.005-40.863 13.808-26.066 33.243-48.574 49.589-72.918 0.84942-2.9885 0.93182-8.8418-3.6562-8.375z"/>
    <path id="path3014" d="m159.05 532.83c1.4017 1.4715 0.98785 0.66695 0 0z"/>
    <path id="path3016" d="m190.43 511.7c-1.5863 7.9012 0.80382 14.082 0.59108 21.624-0.0182 46.175 0.0704 92.31-0.31877 138.71 0.0114 6.196-0.44703 13.292 0.22165 18.713 2.2082 4.1795 5.7975-6.2565 4.9024-12.948 1.3048-29.893-0.63859-57.752-0.98153-86.583-0.74762-27.449-2.0598-54.462-2.4649-82.174 0.89649-3.4694-0.13195-1.645-0.92515-0.15897-0.40575 0.68678-0.7614 1.6993-1.0248 2.8131z"/>
    <path id="path3018" d="m177.44 511.78c0.0892 4.4047-2.2869 8.6326-2.8835 11.344 4.9282 11.452 0.39046 26.365 0.726 39.388-1.965 43.622-1.2225 87.47 1.0294 130.9 5.0354-20.945-1.9738-52.075 1.2324-75.093 0.68651-39.84 4.3671-74.344 1.7371-113.7-0.61381 2.3873-1.2276 4.7746-1.8414 7.1619z"/>
    <path id="path3020" d="m452.01 515.7c-1.1852 0.60428-4.0961-0.94992-3.1752 1.9678-1.5039 48.931-3.5644 98.171 1.1314 146.93 1.3438 16.49 4.969 32.529 6.0014 49.07-2.8451-50.796-2.6172-101.76-1.9031-152.65 0.0106-15.139 0.4367-30.439-1.7413-45.39h-0.11389l-0.1993 0.0735z"/>
    <path id="path3022" d="m163.4 505.65c-5.1843 3.5968-13.112 2.9549-19.683 4.2275 0.2339 6.0708 13.303-1.4528 27.564 1.3764 61.787 4.6621 127.41 8.5778 190.98 11.608 44.741 2.6215 89.994 3.9504 134.62-0.30165 3.2793 2.6329 6.7789-4.0332 1.7101-3.1648-36.308-8.0028-73.772 4.1308-110.6-0.0368-61.431-2.2283-122.31-9.1524-183.78-10.936-13.551-1.1984-27.075-3.1674-40.809-2.7721z"/>
    <path id="path3026" d="m149.8 564.74z"/>
    <path id="path3047" d="m212.89 405.18c26.473 3.3137 82.092 2.303 103.92 6.1973 43.574 3.9088 100.27 6.0173 157.3 7.4328 20.352-0.14269 38.359 1.0308 45.595 2.8692 18.564 1.0794 42.451-2.8857 22.225-3.8675-32.801-2.4443-78.067-2.2692-114.32-4.0636-69.324-2.6236-130.43-6.8358-197.85-9.7929-6.5009-0.0223-18.767 0.2686-16.875 1.2247z"/>
    <path id="path3051" d="m236.38 375.66c-2.6931 4.8924-13.812 7.4512-9.4375 14.562 0.39435 2.4006 8.1429 0.64193 3.2812-0.0312 27.218 6.1554 13.863-8.4247 6.1562-14.531z"/>
    <path id="path3095" d="m203.86 522.07c-3.8161 2.1856-9.6513 1.6014-14.489 2.2709 1.1937 5.4898 13.556 7.4169 20.289 4.769 46.962-1.3131 93.831 4.8076 140.58 8.3238 32.933 2.657 66.244 4.4988 99.092 2.7593 2.4138 1.755 4.9898-2.4297 1.2588-1.9857-26.726-5.9121-54.302 1.0229-81.411-2.4489-45.218-2.7716-90.03-8.5329-135.28-11.021-9.9749-1.0633-19.93-2.6186-30.039-2.667z"/>
    <path id="path3097" d="m203.17 525.3c-2.1559 1.9473-1.5401 6.4541 0.72684 7.9046 5.6262 32.892-0.6001 66.547 2.6046 99.677 0.80155 17.664 0.17204 35.401 1.2476 53.042 2.1019 0.51718 4.536-2.3125 3.4363-4.733-1.3764-45.416-1.5124-90.91 0.41597-136.31-0.25972-7.2064-2.2088-14.926-7.123-19.406-0.42881-0.0897-0.86631-0.31953-1.3083-0.17763z"/>
    <path id="path3100" d="m297.31 532.16c-0.2243 14.148 0.24632 28.35 0.15117 42.529 0.004 31.722-0.87611 63.443-2.7065 94.8-0.30992 10.09 0.0567 20.592 1.7873 29.789 2.3684 1.8168 4.3129-5.8574 3.5332-11.319 2.2177-51.219 2.223-102.93 1.0241-154.33-1.3035 1.049-2.5121-2.0132-3.7892-1.4648zm5.2229 180.04v-0.13316 0.13316z"/>
    <path id="path3102" d="m280.64 530.03c-0.19954 14.471 0.21906 28.996 0.13453 43.498 0.004 32.445 0.0892 67.495-1.5392 99.566-5.5904 11.733 6.4652 40.645 3.8648 16.285 1.9731-52.385 1.9778-105.28 0.91115-157.85-1.1598 1.0729-2.235-2.0591-3.3713-1.4981z"/>
    <path id="path3104" d="m315.46 528.68c-0.85575 4.4232-2.7647 5.9656-2.4412 13.474-0.73946 52.323-1.3556 104.68-2.1458 156.99 0.88278 9.2039 4.5664 2.42 3.7603-6.9502-0.79953-53.541 1.7923-107.04 0.5997-160.51-0.0332-0.49497 0.56915-5.2576 0.22692-2.9996z"/>
    <path id="path3011" d="m158.02 689.19c-4.8314 4.8656-12.219 3.9972-18.344 5.7188 47.793 0.52775 131.25 1.2857 186.86 7.8052 41.695 3.5463 83.869 5.3438 125.46-0.40805 3.0561 3.5617 6.3175-5.456 1.5938-4.2812-33.837 2.408-68.751 6.3565-103.07-0.0498-57.25-3.0143-97.177-2.6218-154.46-5.0349-12.629-1.6212-25.233-4.2847-38.031-3.75z"/>
    <path id="path3013" d="m208.48 420.17c11.638 3.1603 55.131 4.8425 83.438 6.9715 66.157 4.3169 144.35 7.8231 197.11 6.7893 8.941-1.3725 34.828-0.77643 54.199-0.86802-31.132-0.0897-70.216-2.3295-103.23-2.9019-74.975-3.6158-153.88-9.3358-225.98-10.469-3.0622 0.0276-6.2376 0.13409-5.5313 0.47777z"/>
    <path id="path3015" d="m524.05 449.73c-11.837 2.3058-55.337 0.82132-83.724 0.88662-66.295-0.5046-144.53-2.6925-197.08-7.5596-8.8175-2.0189-34.679-3.3066-53.992-4.8063 31.056 2.1741 70.199 2.7818 103.17 4.6112 75.04 1.845 154.15 1.877 226.15 5.9895 3.0521 0.25017 6.2114 0.58726 5.4819 0.87867z"/>
    <path id="path3017" d="m185.02 461.87c11.638 3.1603 55.131 4.8425 83.438 6.9715 66.157 4.3169 144.35 7.8231 197.11 6.7893 8.941-1.3725 34.828-0.77643 54.199-0.86802-31.132-0.0897-70.216-2.3295-103.23-2.9019-74.975-3.6158-153.88-9.3358-225.98-10.469-3.0622 0.0276-6.2376 0.13409-5.5313 0.47777z"/>
    <path id="path3031" d="m339.93 537.84c-10.384 8.9888-21.207 17.664-30.594 27.656-0.79091 3.2933 3.9942 3.0862 5.4062 1.125 6.1883-5.8124 12.184-11.858 17.944-18.124 4.2211-4.3472 8.5288-8.6645 13.431-12.251-1.3604-3.529-3.8652-0.54467-5.4645 0.96753l-0.723 0.62622z"/>
    <path id="path3019" d="m165.49 478.63c-2.6403 1.6106 1.8898 0.03 2.7812 0.59375 49.556 3.8533 99.173 7.748 148.78 11.219 41.705 2.8603 83.485 4.8255 125.3 4.8588 15.037 0.20874 30.299 0.1767 45.173 1.3912 1.896-0.87395 1.1746-4.1535-1.0709-3.25-87.8 0.14949-175.49-5.1876-263-11.916-19.302-1.22-38.605-2.9347-57.959-2.8964z"/>
    <path id="path3021" d="m573.43 661.86c-1.837-0.16033-3.3981 1.822-5.224 2.19-8.8051 3.963-17.951 4.7054-26.884 7.6327-27.69 7.984-55.314 16.831-82.768 26.768 14.487 0.45399 29.415-5.2171 44.056-8.9917 23.879-6.7522 47.493-15.746 71.128-24.334-0.42201-0.99342-0.0763-2.2119-0.30744-3.2646z"/>
    <path id="path3023" d="m547.81 419.65c0.0698 4.0578 2.9392 5.402 4.0147 8.6193 7.5802 19.05 15.237 38.031 22.567 57.362 1.0278 2.5493 1.8395 5.7065 3.2496 7.6051 2.3992 0.61045 3.4652-5.5022 1.6708-7.8104-3.905-12.985-9.9934-23.493-15.001-35.21-5.094-10.942-10.554-21.42-15.426-32.644 0.12434-1.8826-0.37281-0.61184-0.74332 0.40076-0.20159 0.48773-0.31077 1.0845-0.33174 1.6766z"/>
    <path id="path3025" d="m572.9 487.5v-0.0625 0.0625zm0.1875 1.4375c-0.99146 2.6965 2.2233 3.8653 4.3125 2.9375 7.4236-0.3711 14.922-0.0113 22.375-0.15625-8.3813-4.0711-17.99-0.69667-26.688-3.2188v0.4375z"/>
    <path id="path3027" d="m185.02 461.87c11.638 3.1603 55.131 4.8425 83.438 6.9715 66.157 4.3169 144.35 7.8231 197.11 6.7893 8.941-1.3725 34.828-0.77643 54.199-0.86802-31.132-0.0897-70.216-2.3295-103.23-2.9019-74.975-3.6158-153.88-9.3358-225.98-10.469-3.0622 0.0276-6.2376 0.13409-5.5313 0.47777z"/>
    <path id="path3033" d="m452.68 541.41c-8.7911 12.236-13.892 26.62-20.25 40.188 2.0085 2.2514 5.7474-0.65894 5.0938-3.25 4.9764-12.187 10.906-23.949 16.781-35.719-0.49187-0.33845-0.91141-1.4882-1.625-1.2188z"/>
    <path id="path3035" d="m308.4 562.34c-0.90203 0.73183 1.1183 3.93 1.6562 2.2188 24.357 1.2006 48.447 5.3508 72.747 7.2592 16.623 1.6718 33.249 3.3436 49.909 4.6158 1.9062 2.4334 4.5968-3.4436 1.4062-3.0312-42.071-1.1732-83.536-9.7899-125.59-11.125l-0.125 0.0625z"/>
    <path id="path3037" d="m309.27 566.69c-0.90203 0.73183 1.1183 3.93 1.6562 2.2188 24.357 1.2006 48.447 5.3508 72.747 7.2592 16.623 1.6718 33.249 3.3436 49.909 4.6158 1.9062 2.4334 4.5968-3.4436 1.4062-3.0312-42.071-1.1732-83.536-9.7899-125.59-11.125l-0.125 0.0625z"/>
    <path id="path3039" d="m355.84 537.09c-11.391 9.2768-21.065 20.451-29.875 32.156 11.988-10.181 22.264-22.163 33.875-32.75-1.633-1.6028-2.5126-0.75862-4 0.59375z"/>
    <path id="path3042" d="m372.93 533.03h-0.0312 0.0312zm0.90625 1.3438-0.21875-0.21875 0.21875 0.21875zm1.3438 1.3438c1.4742 1.2961 1.8333 1.2876 0 0zm-1.9375 5.0625c-10.588 7.626-21.032 15.507-30.594 24.406 1.9743 2.7962 5.5538-0.10075 6.4311-2.3999 8.8446-8.8256 19.082-16.091 28.131-24.694-1.3229 0.89583-2.6458 1.7917-3.9688 2.6875z"/>
    <path id="path3044" d="m408.21 529.5c-2.6678 2.5224 3.7528-3.3334 0 0zm-16.938 8.4688c-12.96 8.5844-24.575 19.222-34.156 31.469 4.197 0.79199 6.3566-4.0262 8.9175-6.4924 8.6857-8.968 17.594-17.896 27.833-25.101 3.7848-0.23539 0.0241-1.9669-1.5043-0.53751-0.36318 0.22085-0.72637 0.44171-1.0896 0.66256zm4.9375-0.40625c0.33096 0.12679-0.33424-0.19803 0 0zm4.5 0.6875c0.23324 0.0829-0.20874-0.28042 0 0z"/>
    <path id="path3046" d="m419.74 536.32c-2.136 2.2023 3.0048-2.9104 0 0zm-13.561 7.3941c-10.376 7.4951-19.676 16.782-27.348 27.475 3.3604 0.69149 5.0896-3.5153 7.14-5.6685 6.9544-7.83 14.087-15.625 22.285-21.916 3.0304-0.20552 0.0193-1.7173-1.2044-0.4693-0.29079 0.19283-0.58158 0.38566-0.87237 0.57847zm3.9533-0.35468c0.26499 0.11069-0.26762-0.17291 0 0zm3.603 0.60025c0.18675 0.0724-0.16713-0.24483 0 0z"/>
    <path id="path3048" d="m440.63 533.73c-2.0474 2.2556 2.8801-2.9809 0 0zm-12.999 7.5732c-9.9459 7.6766-18.86 17.189-26.213 28.141 3.221 0.70825 4.8784-3.6004 6.8437-5.8058 6.6658-8.0197 13.503-16.004 21.36-22.447 2.9046-0.21052 0.0185-1.7589-1.1544-0.48069-0.27873 0.19751-0.55745 0.39502-0.83618 0.59252zm3.7893-0.3633c0.254 0.11338-0.25651-0.17709 0 0zm3.4535 0.61479c0.179 0.0742-0.16019-0.25077 0 0z"/>
    <path id="path3050" d="m438.3 538.24h-0.0233 0.0233zm0.67844 1.4489-0.16376-0.23587 0.16376 0.23587zm1.006 1.4489c1.1036 1.3976 1.3724 1.3884 0 0zm-1.4505 5.4587c-7.9262 8.2228-15.745 16.721-22.903 26.316 1.478 3.015 4.1577-0.10864 4.8145-2.5877 6.6213-9.5163 14.285-17.35 21.06-26.626-0.99037 0.96593-1.9807 1.9319-2.9711 2.8978z"/>
    <path id="path3073" d="m267.5 593.69c-1.5759 4.0018-1.4717 16.024-3.8782 15-3.9634-2.0104-7.9385-4.2768-11.947-4.0625 6.4638-0.23468 12.328 12.174 18.614 16.062 1.8999-5.5882 0.38606-15.559-0.79327-20.969-0.4648-2.6645-0.98599-6.8408-1.9952-6.0312z"/>
    <path id="path3071" d="m587.8 500.84c0.65552-0.31396 0.55765-0.26709 0 0z"/>
    <path id="path3069" d="m592.28 540.66c-0.29085-1.3444-0.20474-0.94639 0 0z"/>
    <path id="path3067" d="m592.64 543.38c-0.1612 2.7203 0.35496 2.6358 0 0z"/>
    <path id="path3065" d="m592.24 550.38c-0.28343 2.2747 0.5047-3.3501 0 0z"/>
    <path id="path3063" d="m590.99 555.16 0.12821-0.6875-0.12821 0.6875z"/>
    <path id="path3061" d="m590.78 557.75 0.016-0.84375-0.016 0.84375z"/>
    <path id="path3059" d="m590.98 559.94c0.23424 0.85709-0.39567-2.02 0 0z"/>
    <path id="path3077" d="m442.74 558.21c-2.4082 19.606 3.8927 38.597 3.8687 58.118 1.7023 12.958 4.6355 25.561 8.0786 37.865 0.55108-22.055-6.4086-42.953-6.3579-64.971-0.87082-9.9696-5.5928-18.706-5.3642-28.958-0.15646-0.68379 0.41928-5.2355-0.22514-2.0537z"/>
    <path id="path3052" d="m313.37 636.12c-2.3216 8.9562 0.56387 18.325 1.2863 27.312-0.0968 1.7582 0.9799 4.7496 2.0542 2.5938 3.8778-5.7815 3.2988-15.561 6.4279-21.978 1.6741-1.601 3.8344-0.50256 5.4558-2.3346-5.3056 1.3504-10.232-3.005-15.032-5.9688l-0.18764 0.36652-0.004 0.008z"/>
    <path id="path3079" d="m336.28 559.93c-9.5345 16.477-7.6646 35.192-14.104 52.354-2.0645 11.941-2.4294 23.962-2.0402 35.884 7.9497-19.224 5.8584-39.826 13.152-59.177 2.153-9.047-1.0525-18.238 2.6074-27.183 0.0233-0.65137 2.2582-4.4714 0.38465-1.8783z"/>
    <path id="path3085" d="m222.75 524.84c-0.25395 53.052 0.82091 106.09 1.5095 159.13 1.4452-16.56 1.5841-56.721 0.94057-73.357-0.71099-36.387-0.86593-49.561-2.4501-85.775z"/>
    <path id="path3081" d="m238.29 531.19c1.2606 78.13 4.0105 137.67 0.30338 159.59-0.21829-57.123-2.0917-98.781-1.4429-155.9 1.6288-3.3863 5.3482-9.8136 1.1395-3.6936z"/>
    <path id="path3087" d="m252.72 528.29c-0.0743 13.31 0.0816 26.67 0.0501 40.009 0.001 29.842-0.29018 59.683-0.89646 89.182-0.10265 9.4921 0.0188 19.372 0.59199 28.024 0.78448 1.7091 1.4285-5.5103 1.1703-10.648 0.73456-48.183 0.73631-96.835 0.3392-145.19-0.43175 0.98686-0.83204-1.8939-1.2551-1.378zm1.73 169.37v-0.12529 0.12529z"/>
    <path id="path3089" d="m267.83 538.14c1.2606 78.13 4.0105 137.67 0.30338 159.59-0.21829-57.123-2.0917-98.781-1.4429-155.9 1.6288-3.3863 5.3482-9.8136 1.1395-3.6936z"/>
    <path id="path3093" d="m322.24 696.69c-28.66 8.9645-50.722 28.761-77.691 40.741-16.768 10.165-32.233 21.695-46.949 33.699 30.816-12.862 55.076-34.679 85.51-48.163 13.19-7.2555 22.137-18.71 36.443-24.724 0.84085-0.62215 7.5054-2.6818 2.687-1.5535z"/>
    <path id="path3101" d="m159.41 491.66c-2.6403 1.6106 1.8898 0.03 2.7812 0.59375 49.556 3.8533 99.173 7.748 148.78 11.219 41.705 2.8603 83.485 4.8255 125.3 4.8588 15.037 0.20874 30.299 0.1767 45.173 1.3912 1.896-0.87395 1.1746-4.1535-1.0709-3.25-87.8 0.14949-175.49-5.1876-263-11.916-19.302-1.22-38.605-2.9347-57.959-2.8964z"/>
    <path id="path3103" d="m558.68 647.29c-30.896 10.562-61.791 21.124-92.687 31.685 0.57815 2.1972 2.867-0.69591 4.2743-0.23538 29.681-9.7727 59.595-18.812 89.447-28.041 0.98816-1.0065 0.86223-3.6907-1.0342-3.409zm-93.691 28.642-0.0913-0.15219 0.0913 0.15219z"/>
    <path id="path3105" d="m571.71 623.84c-30.896 10.562-61.791 21.124-92.687 31.685 0.57815 2.1972 2.867-0.69591 4.2743-0.23538 29.681-9.7727 59.595-18.812 89.447-28.041 0.98816-1.0065 0.86223-3.6907-1.0342-3.409zm-93.691 28.642-0.0913-0.15219 0.0913 0.15219z"/>
    <path id="path3107" d="m557.81 609.07c-30.896 10.562-61.791 21.124-92.687 31.685 0.57815 2.1972 2.867-0.69591 4.2743-0.23538 29.681-9.7727 59.595-18.812 89.447-28.041 0.98816-1.0065 0.86223-3.6907-1.0342-3.409zm-93.691 28.642-0.0913-0.15219 0.0913 0.15219z"/>
    <path id="path3109" d="m569.11 583c-30.896 10.562-61.791 21.124-92.687 31.685 0.57815 2.1972 2.867-0.69591 4.2743-0.23538 29.681-9.7727 59.595-18.812 89.447-28.041 0.98816-1.0065 0.86223-3.6907-1.0342-3.409zm-93.691 28.642-0.0913-0.15219 0.0913 0.15219z"/>
    <path id="path3111" d="m559.55 565.63c-30.896 10.562-61.791 21.124-92.687 31.685 0.57815 2.1972 2.867-0.69591 4.2743-0.23538 29.681-9.7727 59.595-18.812 89.447-28.041 0.98816-1.0065 0.86223-3.6907-1.0342-3.409zm-93.691 28.642-0.0913-0.15219 0.0913 0.15219z"/>
    <path id="path3113" d="m567.37 540.43c-30.896 10.562-61.791 21.124-92.687 31.685 0.57815 2.1972 2.867-0.69591 4.2743-0.23538 29.681-9.7727 59.595-18.812 89.447-28.041 0.98816-1.0065 0.86223-3.6907-1.0342-3.409zm-93.691 28.642-0.0913-0.15219 0.0913 0.15219z"/>
    <path id="path3115" d="m558.68 523.92c-30.896 10.562-61.791 21.124-92.687 31.685 0.57815 2.1972 2.867-0.69591 4.2743-0.23538 29.681-9.7727 59.595-18.812 89.447-28.041 0.98816-1.0065 0.86223-3.6907-1.0342-3.409zm-93.691 28.642-0.0913-0.15219 0.0913 0.15219z"/>
    <path id="path3117" d="m568.24 503.07c-30.896 10.562-61.791 21.124-92.687 31.685 0.57815 2.1972 2.867-0.69591 4.2743-0.23538 29.681-9.7727 59.595-18.812 89.447-28.041 0.98816-1.0065 0.86223-3.6907-1.0342-3.409zm-93.691 28.642-0.0913-0.15219 0.0913 0.15219z"/>
    <path id="path3119" d="m569.98 485.69c-30.896 10.562-61.791 21.124-92.687 31.685 0.57815 2.1972 2.867-0.69591 4.2743-0.23538 29.681-9.7727 59.595-18.812 89.447-28.041 0.98816-1.0065 0.86223-3.6907-1.0342-3.409zm-93.691 28.642-0.0913-0.15219 0.0913 0.15219z"/>
    <path id="path3121" d="m565.87 467.47c-22.176 8.8781-45.225 15.48-67.062 25.219 22.647-8.3208 46.014-14.449 68.906-22.031 1.2332-1.2711-0.0732-3.7238-1.8438-3.1875z"/>
    <path id="path3129" d="m560.43 448.34c-14.26 3.5625-28.521 7.125-42.781 10.688 3.7474 0.2894 3.4896 4.8217 3.5 7.5625 4.1023-5.7037 11.97-5.0695 17.819-7.7468 7.8658-2.3987 15.835-4.7326 23.118-8.6282 0.11701-0.93356-0.59406-2.1376-1.6562-1.875z"/>
    <path id="path3127" d="m555.9 429.35c-1.466 4.235-6.4749 3.7335-9.5984 5.6595-8.4896 3.2299-17.056 6.2196-25.559 9.4058 11.151-1.4916 21.101-8.0935 32.293-9.3808 2.396 1.0077 2.6753-2.6197 2.699-4.359 0.0455-0.15155 0.55036-2.4745 0.16574-1.3255z"/>
    <path id="path3123" d="m466.74 476.97-0.0937-0.15625 0.0937 0.15625z"/>
    <path id="path3137" d="m453.36 659.97c-52.488-3.5963-121.7-13.171-142.22-9.2313 43.796 6.09 81.116 5.5672 142.02 11.167 1.834-0.22735 2.9366-1.5686 0.20085-1.936zm-142.15-10.98l-0.053-0.0984z"/>
    <path id="path3949" d="m576.11 671.9c-0.13059-1.1325 5.2308-9.205 13.329-21.816l14.637-22.794c-7.0108 4.6622-12.51 11.035-18.167 17.179-15.625 20.335 0.22355-3.529 4.8798-7.9857 10.139-9.5972 13.987-12.553 15.375-11.213 1.0754 1.038-0.28617 3.5636-12.236 22.696-13.043 20.884-13.347 21.468-10.132 19.505 4.9754-3.0391 12.013-10.011 20.182-19.997 9.8312-12.016 8.2102-8.5174-2.7783 5.9961-7.9676 10.524-9.5162 12.118-15.304 15.754-7.4004 4.6491-9.4926 5.2211-9.7859 2.6757z"/>
    <path id="path3937" d="m614.8 688.63c6.8548-0.90993 6.8405-0.94226-4.116-9.3375-6.0471-4.6334-13.855-9.8451-17.351-11.581-5.8021-2.8817-6.8166-2.966-11.631-0.96658-4.5874 1.9052-12.025 11.754-12.025 15.923 0 0.78631 3.013 2.7179 6.6958 4.2925 6.8129 2.9128 23.576 3.6412 38.427 1.6698z" fill="#c8beb7"/>
    <path id="path3929" d="m238.08 740.42c-1.1-1.1-2-2.4766-2-3.059 0-0.58246-0.3837-0.82187-0.8527-0.53203s-1.6603-0.0636-2.6475-0.78539c-2.7758-2.0297-1.2507-5.6234 4.8254-11.37 7.0872-6.7027 14.909-9.2537 28.372-9.2537 7.8818 0 9.9051-0.32892 11.958-1.9441 3.4785-2.7363 5.3439-1.66 5.3439 3.0834 0 4.3916-5.2759 19.015-7.5375 20.892-2.2656 1.8803-1.873-0.47318 1.5067-9.0311 1.6291-4.125 2.9774-8.8088 2.9963-10.408 0.032-2.7298-0.6275-2.2628-10.746 7.6042-15.925 15.53-25.808 20.216-31.22 14.804z"/>
    <path id="path3927" d="m288.27 718.81c2.6318-1.6962 8.3852-6.7517 12.785-11.234l8-8.1502-9.5 0.48921c-12.364 0.6367-19.356 3.2538-26.012 9.737-2.7436 2.6724-4.9884 5.549-4.9884 6.3924 0 2.3598 6.4139 4.7165 8.1234 1.4107 1.4565-2.8166 0.87662-7.9256 0.87662-5.6824 0 0.62258-0.9438 2.659-2.0973 4.5254s-1.8205 4.1146-1.4822 4.9961c0.9647 2.5141 8.5974 1.1878 14.294-2.4839z"/>
    <path id="path3939" d="m586.37 666.03c-3.0652 0.758-4.683 3.7502-6.5057 6.0471-2.7728 3.6054-7.2715 5.8003-9.088 10.14-0.87733 3.5378 2.2318 7.2254 5.7812 7.375 9.5972 1.892 19.453 3.9673 29.256 2.4208 3.7649-0.76484 7.7261-1.1097 11.132-3.0364 0.72762-1.2044 1.3558-3.4391 0.10009-4.4746-8.0111-6.1181-15.608-13.111-24.992-17.097-1.8096-0.7035-3.6796-1.7004-5.6826-1.3755z" fill="#7e7873" fill-opacity=".99247"/>
    <path id="path3943" d="m619.1 679.92c-1.6887 6.6042-1.1968 11.059-1.9123 15.773-1.5812 10.419-3.6945 17.817-10.326 22.143-4.7105 3.7224-5.228 3.93-11.377 4.5769-6.5567 0.6896-15.215-0.46934-19.55-2.6191-1.3215-0.65536-2.8644-1.0028-3.4245-0.78137-2.0921 0.82918 10.582 4.6677 17.11 5.1815 12.301 0.96813 20.564-2.7983 26.054-11.879 4.8991-8.1025 6.0026-18.365 3.4256-32.394z"/>
    <path id="path3970" fill="#e3dbdb" d="m590.25 669.98c0.31293 2.1887 1.8925 3.4799 2.9207 5.1018 0.73938 0.84171 1.5398 2.0504 1.2763 3.4223 0.28265 4.9478 2.9038 8.8502 4.9021 12.842 0.48774 0.77981 1.0491 2.4949 1.4056 2.8117-1.2316-3.7015-6.1302-11.669-5.9175-15.872 8.6473 0.3505 18.359 2.8425 0.74768-1.4273-1.5143-2.6866-3.515-5.2917-5.3348-6.879z"/>
    <path id="path3906" d="m581.27 602.97c-0.12384-0.0104-0.25718 0.0277-0.375 0.0625-0.47121 0.13915-0.92867 0.32696-1.0312 0.4375-0.50306 0.54069-4.3751 9.0752-4.9062 10.812-0.56143 1.8362-0.54669 1.889 0.3125 0.9375 0.51066-0.56551 1.8031-2.7904 2.875-4.9375s2.1776-4.017 2.4688-4.1875c2.8192 1.0318-5.937 38.36-2.9688 39.75 0.27925-1.3231 0.67736-2.9809 1.2188-5.2188 2.3925-14.492 4.2502-35.284 3.3125-37.062-0.17403-0.33007-0.53473-0.56258-0.90625-0.59375z"/>
    <path id="path3904" d="m577.65 646.4c-1.4195 12.608 0.25686 4.9759 2.1562-4.628-0.72119 2.5291-1.3008 4.2235-1.7188 4.5694-0.16835 0.13929-0.3125 0.16834-0.4375 0.0586z"/>
    <path id="path3096" d="m579.81 643.38c1.8969-3.5484 4.8601-10.421 9.1562-17.188 1.6511-2.3985 1.8752-2.5809 2.0312-1.625 0.22459 1.375-1.6314 8.1264-3.9062 14.188-0.97676 2.6024-1.642 4.6965-1.5 4.6875 0.51158-0.0339 4.9838-11.648 6.0312-15.656 0.79082-3.0262 0.85066-4.2865 0.25-4.8125-0.7257-0.63541-1.0836-0.42228-3.4062 2.0312-2.3008 2.4305-2.9718 3.6204-5.625 10.188-0.66866 1.6516-1.8833 5.0912-3.0312 8.1875z"/>
    <path id="path3916" fill="#96bc00" d="m556.27 687.56c-29.718 4.8302-29.989 15.343-37.531 25.531-1.544 2.0625 1.7731 5.056 3.6875 3.375 2.6848-1.1436 5.4077-2.3115 8.3125-2.75-2.757 0.1538-5.4073 1.2056-8.1875 1.0938 0.13827-6.0313 27.369-26.838 27.198-19.101 3.4957-12.766-4.4261-1.9644 6.8333-8.3054z"/>
    <path id="path3914" fill="#96bc00" d="m530.74 713.72c2.4724-0.0947 3.0142-0.25309 0 0z"/>
    <path id="path3209" d="m497.83 667.48c-1.014 0.33021-2.0245 0.71764-2.9296 1.326-1.7944 0.92535-3.2492 2.4328-4.7721 3.791-4.1382 3.9197-8.3361 7.7642-12.431 11.738-0.9385 0.97757-1.9413 1.9162-2.6026 3.1561-1.0304 1.7378-2.13 3.4609-2.771 5.4272-0.34484 0.94636-0.78181 1.9129-0.70056 2.9608 0.0209 1.1183 0.51268 2.1536 1.1464 3.0062 1.2023 1.7479 2.5157 3.4053 3.9303 4.9489 0.87949 0.83214 1.7952 1.6948 2.916 2.0999 1.0409 0.28877 2.1109 0.12466 3.147-0.10266 2.7524-0.46291 5.5061-0.94465 8.2207-1.6355 4.7619-1.1097 9.4037-2.7443 14.143-3.9564 2.7792-0.75867 5.6322-1.1342 8.4064-1.9203 1.4672-0.3633 2.9161-0.81915 4.3838-1.1726 0.98176-0.19745 2.2032-0.0617 2.895-1.0015 0.66699-0.85215 1.089-2.0048 2.0499-2.5255 1.226-0.80999 2.558-1.4072 3.755-2.2716 1.0562-0.67298 2.1378-1.2952 3.2545-1.838 1.0953-0.60338 2.1637-1.2702 3.197-1.9912 2.681-2.0707 5.0655-4.554 7.5277-6.9185 0.86413-0.77066 1.0997-2.2559 0.26776-3.1621-0.72993-0.93538-1.9347-1.0838-2.9519-1.4238-3.749-1.046-7.5101-2.0405-11.266-3.0556-3.8352-0.98784-7.681-1.9278-11.531-2.8408-3.5832-0.76488-7.155-1.6508-10.799-1.9996-2.0239-0.22256-4.0409-0.52921-6.0713-0.67347-0.13799 0.0117-0.27597 0.0233-0.41398 0.0349z"/>
    <path id="path3908" fill="#9ac100" d="m561.31 733.63c-11.66 1.523-22.93 5.0294-34.469 7.1875-1.8322-1.5348-3.7047 1.3396-5.6562 0.46875-3.7595-0.33723-6.8794 3.2175-7.125 6.7812-0.6182 1.9176-2.0665 4.0724-4.3125 4.0312-2.1608 1.5105 0.62712 4.1842 2.559 3.1847 8.3725 0.78784 17.097-0.771 24.258-5.3184 7.2606-3.8061 13.949-8.5803 21.058-12.648 1.2981-1.5384 4.3648-0.73748 4.8438-3.0938-0.14448-0.46875-0.69298-0.73263-1.1562-0.59375z"/>
    <path id="path3131" d="m436.84 704.29c-13.298 9.5866-27.937 18.48-41.235 28.066-22.713 16.374-44.086 33.442-66.799 49.816 0.85798 0.79665 3.3636-2.2569 5.0763-2.9352 17.432-12.455 61.768-37.332 79.315-49.704 17.306-12.202 7.823-11.901 25.138-24.097 1.1004-1.1884 0.74393-2.543-1.4947-1.1458zm-109.47 76.912-0.12048-0.0215z"/>
    <path id="path3010" d="m465.67 521.41c-0.76528 2.9493 0.70999 5.8864 0.47844 8.9251 1.0791 15.099-1.1851 30.095-1.1875 45.192-1.1003 46.572-1.3125 93.209-0.37538 139.79 5.222-23.424 4.4437-48.808 5.4737-73.341 1.0821-40.134-0.17189-80.294-1.0127-120.4-1.1356 0.48299-2.2443-0.32593-3.3766-0.16489z"/>
    <path id="path3925" fill="#9e9e9e" d="m253.34 717.54c-5.843 0.18649-11.799 3.512-14.125 9.0312-7.4223 3.6296-6.8536 8.7902 6.8125 12.406 6.0655-2.4626 10.048-8.1106 15.913-10.923 3.2298-1.9326 5.6496-5.2645 9.3994-6.2646 3.0243-0.21152-0.73668-0.33219-1.8666-0.13529-1.8582 0.59729 3.3444-4.3739 1.9689-5.503-3.3461-2.0094-14.248 1.2182-18.102 1.3883z"/>
    <path id="path3946" d="m293.63 713.46c2.0472-1.0002 3.1545-2.7 4.0638-4.3646 1.0511-2.1499 3.1599-4.3922 2.034-6.7812-1.7015-1.8723-5.6453-1.0262-6.6429 0.93276-1.5664 1.692-2.5097 3.7211-4.5474 5.1493-2.1621 1.7996-4.9525 3.0371-7.8366 4.026-2.2465 1.0472-4.9004 1.6731-7.5066 1.1026-0.78391-0.0562-2.1153-0.65007-0.72479 0.072 1.6161 1.4736 3.394 3.3967 6.2363 3.1741 2.5934 0.0428 5.0259-0.7942 7.5221-1.2186 2.4945-0.64109 4.9978-1.2658 7.4021-2.0925z" fill="#7c7c7c"/>
    <path id="path3928" fill="#9e9e9e" d="m286.54 702.19c-3.3204 0.12296-7.3117 2.3154-9.6874 5.9542-4.8744 2.3929-5.5535 5.7952 1.4283 8.1792 3.886-1.6235 7.2178-5.3471 11.059-7.2013 2.1895-1.2741 4.1944-3.4708 6.4958-4.1302 1.7409-0.13945-0.3498-0.219-1.023-0.0892-1.1601 0.39378 2.7263-2.8836 2.1717-3.6281-1.4919-1.3248-8.2443 0.80315-10.444 0.91531z"/>
    <path id="path3930" d="m249.48 720c-0.86628 2.0006 2.7626 2.6829 4.061 3.0244 3.2656 0.66802 6.9237 1.8159 8.8935 5.3171-2.3289-5.7405-7.7664-8.835-12.954-8.3415z" fill="#c7c7c7"/>
    <path id="path3933" fill="#c7c7c7" d="m285.36 706.33c-0.40737 1.4765 1.2991 1.98 1.9097 2.2321 1.5357 0.49302 3.2559 1.3402 4.1822 3.9242-1.0952-4.2366-3.6522-6.5205-6.092-6.1562z"/>
    <path id="path3935" d="m242.37 729.47c-0.71168 0.83802-1.9132 1.1646-2.4688 2.1562-0.53861 1.2428-0.81674 2.6911-0.34375 4 0.0795 0.44861 0.27994 1.631 0.9375 1.2188 0.14532-1.112-0.42056-2.2963 0.15625-3.3438 0.65427-1.0025 0.88248-2.2327 1.4-3.3106-0.0424-0.17562 0.92965-1.4881 0.31872-0.7206z" fill="#c7c7c7"/>
    <path id="path3938" fill="#c7c7c7" d="m276.01 716.29c0.92412 0.25681 1.6225 1.0888 2.6112 1.1657 1.1813-0.0284 2.43-0.33834 3.2933-1.192 0.32614-0.22717 1.1891-0.8187 0.62193-1.1885-0.93375 0.29197-1.6645 1.1736-2.705 1.1003-1.0334-0.15112-2.091 0.11846-3.1341 0.10322-0.12355 0.0979-1.5187-0.19144-0.6873 0.0114z"/>
    <path id="path3940" fill="#c7c7c7" d="m220.62 724.03c-0.86584 0.76738-1.9935 1.3213-2.9688 2-1.1981 0.82795-2.5692 1.4682-3.4778 2.6474-0.87538 0.98108-1.0575 2.6474-0.14725 3.6651 0.98182 0.9117 2.4261 0.40271 3.4688-0.125 1.2344-0.38792 2.5893-0.11284 3.7919-0.56785 1.3222-0.51408 0.86584-2.3455-0.25756-2.8051-0.96795-0.42098-1.8709-1.4808-1.0031-2.4708 0.4415-0.75752 0.94617-1.7025 0.6875-2.5625l-0.0873 0.20367-0.006 0.0151z"/>
    <path id="path3165" d="m508.79 670.13c-7.2655 2.5994-11.906 9.391-18.8 12.673-5.2714 3.763-10.159 8.1234-14.166 13.229-1.0281 6.3456 7.9884 10.559 12.572 6.4256 14.73-5.1007 31.832-4.9186 44.301-15.366 2.1074-3.0677 6.9685-3.7325 7.7826-7.7427-2.1192-3.5233-7.1298-2.1374-9.8454-4.9227-6.4044-3.1419-13.919-1.6847-20.49-4.2871-0.44641-0.0881-0.9054-0.0577-1.3541-0.01zm39.392 12.492c-0.32637 0.58837 0.35506-0.31282 0 0z" fill="#847d78" fill-opacity=".99882"/>
    <path id="path3128" fill="#6d6763" d="m500.37 669.63c-9.3235 4.01-22.049 13.94-20.906 15.031-6.6982 3.4393-3.6016 10.08-4.125 10.969-0.44067 0.90548 5.1362 9.4293 9.5625 8.0625 0.65147-0.2012 1.1041-0.935 1.5-1.9375 2.0023 0.004 5.6599-0.6062 12.25-1.9062 8.1948-1.6167 10.311-2.3057 20.844-6.8438 14.526-6.2586 16.472-7.7247 3.3438-2.5312-10.91 4.3158 8.9007-5.6034 1.8438-4.25-4.5588 0.87441-33.59 13.586-16.844 4.625 15.342-8.2097 17.037-9.301 15.281-9.7188-1.9819-0.47159-11.236-11.566-22.75-11.5zm6.0938 16.625c0.38253-0.0744 0.22832 0.0782-0.71875 0.5l-17.312 7.6875c0.48757-1.4215 1.0914-2.4987 2-2.8125 2.5063-0.86557 14.374-5.0524 16.031-5.375zm-6.8438 5.875c-5.7273 3.0034-9.8424 5.2471-12.375 6.7812 0.25995-1.0678 0.52722-2.1469 0.8125-3.1875l11.562-3.5938z"/>
    <path id="path3954" fill="#615c59" d="m503.84 668.22c-1.9928 0.27973-4.0247 0.68123-5.7482 1.7773-4.1814 2.8063-8.3242 5.683-12.221 8.8789-1.9977 1.4826-3.9416 3.0431-5.7812 4.7188-2.1627 2.2574-3.5422 5.0912-5.1746 7.7225-0.51585 0.91521-1.4535 2.0558-0.6379 3.09 0.87244 1.3398 2.2886 0.13278 2.9469-0.74101 0.74271-1.0407 2.2814-0.4392 2.5957 0.65493 0.4658 0.98226 0.35473 2.2579 1.3324 2.9611 0.90203 0.76642 2.1502 0.47193 3.2181 0.3666 1.3837-0.22576 2.7598-0.58523 4.0382-1.1618 1.4025-0.78917 2.0288-2.395 2.5562-3.8298 0.36139-1.066 0.31358-2.5406-0.8125-3.125-0.8341-0.50754-1.8845-0.72744-2.5312-1.5-0.67826-0.97119-1.9438-1.1647-2.917-1.7241-0.4009-0.13728-1.0743-0.70339-1.083-0.93212 0.78705 0.96549 2.1851 0.86585 3.2188 1.4375 1.1614 0.2939 2.2278 0.8619 3.1298 1.6489 0.68569 0.64422 1.4672 1.4084 2.4976 1.2748 1.0439-0.0177 1.9546-0.62446 2.9663-0.76742 1.5881 0.0221 2.6486 1.3594 3.7947 2.2685 1.2612 1.0894 2.5458 2.1567 3.7053 3.3565 0.8068 0.60569 2.3172 0.44349 2.5312-0.6875 0.23139-1.3411-0.76031-2.39-1.4585-3.4042-0.54247-0.87885-0.93647-1.9283-0.69777-2.9708 0.15787-1.6461 0.83696-3.2109 0.875-4.875-0.0248-0.43347 0.57484-1.0843 0.78125-0.40625 0.99712 0.71047 2.2569-0.24686 2.6875-1.1875 0.84231-1.065 2.1053-1.8296 2.5524-3.174 0.5807-1.3286 0.85003-2.8209 0.66637-4.2635-0.24804-1.2351-1.1765-2.157-2.1569-2.8716-1.117-0.90335-2.2871-1.7685-3.5931-2.3784-0.41009-0.13369-0.84987-0.23185-1.2812-0.15625zm-5.9062 6.4375c0.25437 0.30479-0.2326-0.0344 0 0zm0.40625 0.75c0.69158 0.81106 1.6933 1.3309 2.2188 2.2812-1.2741 0.0668-1.944-1.2551-2.3125-2.2812v-0.0937l0.0937 0.0937zm0.6875 6.625c0.13192 0.97077-1.5242 1.5082-1.875 0.53125 0.57367-0.43882 1.5125-0.0627 1.9375-0.75l-0.0609 0.21313-0.002 0.006z"/>
    <path id="path3478" fill="#c8beb7" d="m481.49 703.43c-1.4083-2.7706 19.856-17.635 23.825-17.635 1.7338 0 3.8733-4.0241 2.9121-5.4577-1.0896-1.625 1.5727-5.7183 8.984-9.2254-2.5618 8.5871 9.6673 3.7638 14.507 3.4264 2.5062-0.43849-20.218-0.4143-21.091 4.8868-1.1893 7.2185-6.4175 12.278-7.1374 17.933-0.3121 2.4514 2.518-9.7346 1.3959-10.168-2.0797-0.80258-10.91 3.6131-13.938 7.8102-1.3911 1.9287-9.1949 8.9471-9.458 8.4294z"/>
  </g>
  <metadata>
    <rdf:RDF>
      <cc:Work>
        <dc:format>image/svg+xml</dc:format>
        <dc:type rdf:resource="http://purl.org/dc/dcmitype/StillImage"/>
        <cc:license rdf:resource="http://creativecommons.org/licenses/publicdomain/"/>
        <dc:publisher>
          <cc:Agent rdf:about="http://openclipart.org/">
            <dc:title>Openclipart</dc:title>
          </cc:Agent>
        </dc:publisher>
        <dc:title>Garage</dc:title>
        <dc:date>2012-11-28T13:52:08</dc:date>
        <dc:description>access, building, buildings, clip art, clipart, drive, garage, place, sweep, &#xC2;&#xA0;approach, </dc:description>
        <dc:source>http://openclipart.org/detail/173427/garage-by-rdevries-173427</dc:source>
        <dc:creator>
          <cc:Agent>
            <dc:title>rdevries</dc:title>
          </cc:Agent>
        </dc:creator>
        <dc:subject>
          <rdf:Bag>
            <rdf:li>access</rdf:li>
            <rdf:li>building</rdf:li>
            <rdf:li>buildings</rdf:li>
            <rdf:li>clip art</rdf:li>
            <rdf:li>clipart</rdf:li>
            <rdf:li>drive</rdf:li>
            <rdf:li>garage</rdf:li>
            <rdf:li>place</rdf:li>
            <rdf:li>sweep</rdf:li>
            <rdf:li>&#xC2;&#xA0;approach</rdf:li>
          </rdf:Bag>
        </dc:subject>
      </cc:Work>
      <cc:License rdf:about="http://creativecommons.org/licenses/publicdomain/">
        <cc:permits rdf:resource="http://creativecommons.org/ns#Reproduction"/>
        <cc:permits rdf:resource="http://creativecommons.org/ns#Distribution"/>
        <cc:permits rdf:resource="http://creativecommons.org/ns#DerivativeWorks"/>
      </cc:License>
    </rdf:RDF>
  </metadata>
</svg>
