<?xml version="1.0"?>
<svg xmlns:rdf="http://www.w3.org/1999/02/22-rdf-syntax-ns#" xmlns="http://www.w3.org/2000/svg" xmlns:cc="http://creativecommons.org/ns#" xmlns:dc="http://purl.org/dc/elements/1.1/" xmlns:svg="http://www.w3.org/2000/svg" id="svg2" viewBox="0 0 397.92 284.56" version="1.1">
  <g id="layer1" stroke="#000" stroke-width="1px" transform="translate(-183.37 -119.14)">
    <path id="path2996" d="m313.62 119.64 85.82 28.096c-55.66 32.05-135.43 118.32-149.16 152.22 20.99-60.46 36.18-137.15 63.34-180.32z" fill="#0a0"/>
    <path id="path2998" d="m412.72 149.78c-60.48 50.87-116.16 115.75-149.16 168.57 61.941-22.423 164.32-82.585 249.8-124.13l-9.7058-18.39z" fill="#0a0"/>
    <path id="path3000" d="m277.86 296.39-21.966 25.031c-1.199 4.7962-3.4023 10.166 4.5975 9.7058l5.1083-2.5542c-6.7883-3.7461-2.1821-7.4922-1.5325-11.238z" fill="#002b00"/>
    <path id="path3002" d="m441.84 229.98 28.328 78.009c-116.75 17.314-179.51 23.343-205.08 21.604-4.6513-6.4693-3.3376-10.382 1.5325-12.771 59.386-23.064 117.11-56.077 175.22-86.842z" fill="#0a0"/>
    <path id="path3004" d="m281.44 197.79-56.192 16.857 25.031 87.352z" fill="#050"/>
    <path id="path3006" d="m230.87 237.13-34.737 12.771-12.26 15.325 63.343 24.52z" fill="#002b00"/>
    <path id="path3008" d="m446.95 245.81 34.226-1.0217 41.377 15.325-9.195-65.387-71.517 36.269z" fill="#002b00"/>
    <path id="path3012" d="m580.79 255.52-45.975-4.0867 9.7058-6.6408z" fill="#050"/>
    <path id="path3018" d="m580.69 255.75-43.109-30.474-3.2703 26.311 10.257-6.838z" fill="#0a0"/>
    <path id="path3020" d="m515.88 210.26 22 14.717-3.8649 26.609-11.298 9.3651z" fill="#008000"/>
    <path id="path3026" d="m398.48 147.29 15.322 2.016c-62.574 51.311-111.84 112.38-158.46 175.39-3.4965 1.4226-6.016-2.5286-5.2416-24.595 24.628-48.681 76.467-99.835 148.38-152.81z" fill="#050"/>
    <path id="path3058" d="m406.54 317 63.835-9.3308-58.799 55.689z" fill="#002b00"/>
    <path id="path3060" d="m514.36 403.2-12.293-0.14811-90.791-38.953 59.095-55.985c18.396 27.695 30.934 61.667 43.988 95.086z" fill="#050"/>
  </g>
  <metadata>
    <rdf:RDF>
      <cc:Work>
        <dc:format>image/svg+xml</dc:format>
        <dc:type rdf:resource="http://purl.org/dc/dcmitype/StillImage"/>
        <cc:license rdf:resource="http://creativecommons.org/licenses/publicdomain/"/>
        <dc:publisher>
          <cc:Agent rdf:about="http://openclipart.org/">
            <dc:title>Openclipart</dc:title>
          </cc:Agent>
        </dc:publisher>
        <dc:title>Origami - jumping frog</dc:title>
        <dc:date>2013-11-05T04:26:32</dc:date>
        <dc:description>Jumping frog made in paper (origami)</dc:description>
        <dc:source>http://openclipart.org/detail/188325/origami---jumping-frog-by-iyo-188325</dc:source>
        <dc:creator>
          <cc:Agent>
            <dc:title>Iyo</dc:title>
          </cc:Agent>
        </dc:creator>
        <dc:subject>
          <rdf:Bag>
            <rdf:li>amphibian</rdf:li>
            <rdf:li>animal</rdf:li>
            <rdf:li>clip art</rdf:li>
            <rdf:li>clipart</rdf:li>
            <rdf:li>fold</rdf:li>
            <rdf:li>folding</rdf:li>
            <rdf:li>frog</rdf:li>
            <rdf:li>jump</rdf:li>
            <rdf:li>jumping</rdf:li>
            <rdf:li>nature</rdf:li>
            <rdf:li>origami</rdf:li>
            <rdf:li>paper</rdf:li>
          </rdf:Bag>
        </dc:subject>
      </cc:Work>
      <cc:License rdf:about="http://creativecommons.org/licenses/publicdomain/">
        <cc:permits rdf:resource="http://creativecommons.org/ns#Reproduction"/>
        <cc:permits rdf:resource="http://creativecommons.org/ns#Distribution"/>
        <cc:permits rdf:resource="http://creativecommons.org/ns#DerivativeWorks"/>
      </cc:License>
    </rdf:RDF>
  </metadata>
</svg>
