<?xml version="1.0" encoding="utf-8"?>
<!-- Generator: Adobe Illustrator 15.0.0, SVG Export Plug-In . SVG Version: 6.00 Build 0)  -->
<!DOCTYPE svg PUBLIC "-//W3C//DTD SVG 1.1//EN" "http://www.w3.org/Graphics/SVG/1.1/DTD/svg11.dtd">
<svg version="1.1" xmlns="http://www.w3.org/2000/svg" xmlns:xlink="http://www.w3.org/1999/xlink" x="0px" y="0px" width="1000px"
	 height="1000px" viewBox="0 0 1000 1000" enable-background="new 0 0 1000 1000" xml:space="preserve">
<g id="Layer_1">
	<circle fill="#FED298" cx="527.75" cy="531.658" r="396.023"/>
</g>
<g id="Layer_2">
</g>
<g id="Layer_3">
	<path fill="none" stroke="#000000" stroke-width="12" stroke-miterlimit="10" d="M371.76,634.636
		c0,0-17.714,169.61,145.262,172.332c152.682,2.549,185.415-95.237,175.968-168.704"/>
</g>
<g id="Layer_4">
	<path fill="#986C29" d="M472.545,85.636c0,0,93.182,29.545,61.364,86.364s-353.982,430.495-398.3,389.586
		S81.611,90.609,472.545,85.636z"/>
	<path fill="#986C29" d="M577.949,82.637c0,0-93.182,29.545-61.363,86.364s353.982,430.494,398.3,389.585
		C959.203,517.676,968.883,87.61,577.949,82.637z"/>
</g>
<g id="Layer_5">
</g>
<g id="Layer_6">
</g>
<g id="Layer_7">
	<ellipse cx="418.682" cy="468.149" rx="10.681" ry="32.851"/>
	<ellipse cx="611.749" cy="463.184" rx="10.682" ry="32.851"/>
</g>
<g id="Layer_8">
	<path fill="none" stroke="#986C29" stroke-width="12" stroke-miterlimit="10" d="M675.99,370.188c0,0-59.556-22.518-112.832-2.203"
		/>
	<path fill="none" stroke="#986C29" stroke-width="12" stroke-miterlimit="10" d="M351.669,371.688c0,0,59.556-22.518,112.832-2.203
		"/>
</g>
<g id="Layer_9">
</g>
</svg>
