<?xml version="1.0" encoding="UTF-8" standalone="no"?>
<svg
   xmlns:dc="http://purl.org/dc/elements/1.1/"
   xmlns:cc="http://creativecommons.org/ns#"
   xmlns:rdf="http://www.w3.org/1999/02/22-rdf-syntax-ns#"
   xmlns:svg="http://www.w3.org/2000/svg"
   xmlns="http://www.w3.org/2000/svg"
   xmlns:xlink="http://www.w3.org/1999/xlink"
   xmlns:sodipodi="http://sodipodi.sourceforge.net/DTD/sodipodi-0.dtd"
   xmlns:inkscape="http://www.inkscape.org/namespaces/inkscape"
   id="svg1"
   height="706.04706"
   width="690.07916"
   version="1.1"
   inkscape:version="0.48.4 r9939"
   sodipodi:docname="une poubelle.svg">
  <sodipodi:namedview
     pagecolor="#ffffff"
     bordercolor="#666666"
     borderopacity="1"
     objecttolerance="10"
     gridtolerance="10"
     guidetolerance="10"
     inkscape:pageopacity="0"
     inkscape:pageshadow="2"
     inkscape:window-width="1278"
     inkscape:window-height="779"
     id="namedview3171"
     showgrid="false"
     fit-margin-top="0"
     fit-margin-left="0"
     fit-margin-right="0"
     fit-margin-bottom="0"
     inkscape:zoom="0.33302221"
     inkscape:cx="347.57664"
     inkscape:cy="361.09775"
     inkscape:window-x="0"
     inkscape:window-y="19"
     inkscape:window-maximized="0"
     inkscape:current-layer="svg1" />
  <defs
     id="defs3">
    <linearGradient
       id="linearGradient7389">
      <stop
         id="stop7390"
         stop-color="#d10000"
         offset="0" />
      <stop
         id="stop7391"
         stop-color="#f6ff00"
         offset="1" />
    </linearGradient>
    <linearGradient
       id="linearGradient3638">
      <stop
         id="stop3639"
         stop-color="#483100"
         offset="0" />
      <stop
         id="stop3640"
         stop-color="#929d13"
         offset="1" />
    </linearGradient>
    <linearGradient
       id="linearGradient3008">
      <stop
         id="stop3009"
         stop-color="#d3d795"
         offset="0" />
      <stop
         id="stop3010"
         stop-color="#c2c94b"
         offset="1" />
    </linearGradient>
    <linearGradient
       id="linearGradient4824">
      <stop
         id="stop4825"
         stop-color="#5e5e5e"
         offset="0" />
      <stop
         id="stop4828"
         stop-color="#414141"
         offset=".5" />
      <stop
         id="stop4826"
         stop-color="#bfbfbf"
         offset="1" />
    </linearGradient>
    <linearGradient
       id="linearGradient1688"
       y2="371.95001"
       gradientUnits="userSpaceOnUse"
       x2="594.03998"
       gradientTransform="matrix(1.3088,0,0,1.4666,-164.46,-160.45)"
       y1="371.95001"
       x1="190.95">
      <stop
         id="stop1686"
         stop-color="#404040"
         offset="0" />
      <stop
         id="stop1687"
         stop-color="#aaa"
         offset="1" />
    </linearGradient>
    <linearGradient
       id="linearGradient2316"
       y2="219.39"
       gradientUnits="userSpaceOnUse"
       x2="276.73999"
       gradientTransform="scale(1.8443,0.5422)"
       y1="219.39"
       x1="71.359001">
      <stop
         id="stop2939"
         stop-color="#5a5a5a"
         offset="0" />
      <stop
         id="stop2940"
         stop-color="#3f3f3f"
         offset="1" />
    </linearGradient>
    <linearGradient
       id="linearGradient4827"
       y2="140.49001"
       xlink:href="#linearGradient4824"
       gradientUnits="userSpaceOnUse"
       x2="1348.1"
       gradientTransform="matrix(0.54339,0,0,3.5324,-162.12,-161.62)"
       y1="149.39999"
       x1="1584.7" />
    <linearGradient
       id="linearGradient5453"
       y2="165.39"
       xlink:href="#linearGradient4824"
       gradientUnits="userSpaceOnUse"
       x2="893.71002"
       gradientTransform="matrix(0.61847,0,0,3.0695,-165.63,-163.64)"
       y1="172.14999"
       x1="1254.6" />
    <linearGradient
       id="linearGradient5455"
       y2="175.25"
       xlink:href="#linearGradient4824"
       gradientUnits="userSpaceOnUse"
       x2="739.09998"
       gradientTransform="matrix(0.65535,0,0,2.9075,-166.8,-161.36)"
       y1="188.39"
       x1="941.45001" />
    <linearGradient
       id="linearGradient5457"
       y2="169.89"
       xlink:href="#linearGradient4824"
       gradientUnits="userSpaceOnUse"
       x2="555.71002"
       gradientTransform="matrix(0.61847,0,0,3.0865,-169.13,-162.07)"
       y1="178.91"
       x1="921.96997" />
    <linearGradient
       id="linearGradient5459"
       y2="189.67"
       xlink:href="#linearGradient4824"
       gradientUnits="userSpaceOnUse"
       x2="406.39001"
       gradientTransform="matrix(0.56755,0,0,3.382,-167.96,-161.62)"
       y1="191.74001"
       x1="1005" />
    <linearGradient
       id="linearGradient5463"
       y2="170.03"
       xlink:href="#linearGradient4824"
       gradientUnits="userSpaceOnUse"
       x2="337.70999"
       gradientTransform="matrix(0.54339,0,0,3.5324,-164.46,-160.45)"
       y1="169.03999"
       x1="769.52002" />
    <linearGradient
       id="linearGradient5464"
       y2="170.03"
       xlink:href="#linearGradient4824"
       gradientUnits="userSpaceOnUse"
       x2="1143.7"
       gradientTransform="matrix(0.56755,0,0,3.382,-163.29,-165.13)"
       y1="174.16"
       x1="1407.3" />
    <linearGradient
       id="linearGradient12304"
       y2="269.06"
       gradientUnits="userSpaceOnUse"
       x2="223.81"
       gradientTransform="matrix(1.7077,0,0,1.124,-164.46,-160.45)"
       y1="187.38"
       x1="284.81">
      <stop
         id="stop12302"
         stop-color="#0500a6"
         offset="0" />
      <stop
         id="stop12303"
         stop-color="#030055"
         offset="1" />
    </linearGradient>
    <radialGradient
       id="radialGradient1764"
       gradientUnits="userSpaceOnUse"
       cy="1065"
       cx="201.94"
       gradientTransform="scale(1.7484,0.57196)"
       r="194.7">
      <stop
         id="stop1762"
         stop-opacity=".83922"
         offset="0" />
      <stop
         id="stop1763"
         stop-opacity="0"
         offset="1" />
    </radialGradient>
    <radialGradient
       id="radialGradient3013"
       xlink:href="#linearGradient3008"
       gradientUnits="userSpaceOnUse"
       cy="188.57001"
       cx="461.42001"
       gradientTransform="scale(0.8034,1.2447)"
       r="169.28" />
    <radialGradient
       id="radialGradient3015"
       gradientUnits="userSpaceOnUse"
       cy="144.25999"
       cx="562.83002"
       gradientTransform="scale(0.8034,1.2447)"
       r="57.264">
      <stop
         id="stop6141"
         stop-color="#ebf907"
         offset="0" />
      <stop
         id="stop6142"
         stop-color="#c2c94b"
         offset="1" />
    </radialGradient>
    <radialGradient
       id="radialGradient3642"
       xlink:href="#linearGradient3638"
       gradientUnits="userSpaceOnUse"
       cy="151.22"
       cx="471.37"
       gradientTransform="scale(0.71193,1.4046)"
       r="22.657" />
    <radialGradient
       id="radialGradient3644"
       xlink:href="#linearGradient3638"
       gradientUnits="userSpaceOnUse"
       cy="211.09"
       cx="463.85001"
       gradientTransform="scale(0.71193,1.4046)"
       r="27.403" />
    <radialGradient
       id="radialGradient5516"
       xlink:href="#linearGradient3638"
       gradientUnits="userSpaceOnUse"
       cy="211.09"
       cx="463.85001"
       gradientTransform="matrix(0.71193,0,0,1.4046,101.32,-101.17)"
       r="27.403" />
    <radialGradient
       id="radialGradient5518"
       xlink:href="#linearGradient3638"
       gradientUnits="userSpaceOnUse"
       cy="211.09"
       cx="463.85001"
       gradientTransform="matrix(0.71193,0,0,1.4046,80.285,-148.13)"
       r="27.403" />
    <linearGradient
       id="linearGradient8654"
       y2="30.277"
       xlink:href="#linearGradient3008"
       gradientUnits="userSpaceOnUse"
       x2="906.21997"
       gradientTransform="scale(0.67773,1.4755)"
       y1="30.577"
       x1="950.96997" />
    <linearGradient
       id="linearGradient8655"
       y2="29.718"
       xlink:href="#linearGradient7389"
       gradientUnits="userSpaceOnUse"
       x2="327.98001"
       gradientTransform="matrix(2.4309,0,0,0.80621,-155.93,-5.8657)"
       y1="19.141001"
       x1="316.79001" />
    <linearGradient
       id="linearGradient8656"
       y2="113.16"
       xlink:href="#linearGradient7389"
       gradientUnits="userSpaceOnUse"
       x2="449.60001"
       gradientTransform="scale(1.4471,0.69104)"
       y1="102.15"
       x1="430.73999" />
    <linearGradient
       id="linearGradient9282"
       y2="26.153"
       xlink:href="#linearGradient3638"
       gradientUnits="userSpaceOnUse"
       x2="710.52002"
       gradientTransform="scale(0.62787,1.5927)"
       y1="34.296001"
       x1="714.63" />
    <linearGradient
       inkscape:collect="always"
       xlink:href="#linearGradient12304"
       id="linearGradient3173"
       gradientUnits="userSpaceOnUse"
       gradientTransform="matrix(1.7077,0,0,1.124,-164.46,-160.45)"
       x1="284.81"
       y1="187.38"
       x2="223.81"
       y2="269.06" />
    <linearGradient
       inkscape:collect="always"
       xlink:href="#linearGradient12304"
       id="linearGradient3175"
       gradientUnits="userSpaceOnUse"
       gradientTransform="matrix(1.7077,0,0,1.124,-164.46,-160.45)"
       x1="284.81"
       y1="187.38"
       x2="223.81"
       y2="269.06" />
    <linearGradient
       inkscape:collect="always"
       xlink:href="#linearGradient12304"
       id="linearGradient3177"
       gradientUnits="userSpaceOnUse"
       gradientTransform="matrix(1.7077,0,0,1.124,-164.46,-160.45)"
       x1="284.81"
       y1="187.38"
       x2="223.81"
       y2="269.06" />
  </defs>
  <g
     id="layer1"
     transform="translate(-6.754076,-9.3814)">
    <path
       id="path1135"
       d="m 693.48,609.11 a 340.41,111.36 0 1 1 -680.82,0 340.41,111.36 0 1 1 680.82,0 z"
       transform="matrix(1.0136,0,0,1.1159,-6.0781,-88.544)"
       inkscape:connector-curvature="0"
       style="fill:url(#radialGradient1764)" />
    <path
       id="path1061"
       d="m 86.84,89.676 -1.169,500.25 c 31.559,94.29 465.19,99.74 529.48,5.85 l -2.34,-501.43 -525.97,-4.674 z"
       inkscape:connector-curvature="0"
       style="fill:url(#linearGradient1688);fill-rule:evenodd;stroke:#000000;stroke-width:5.19540024;stroke-linecap:round;stroke-linejoin:round" />
    <path
       id="path1691"
       d="m 510.4,118.95 a 189.4,55.681 0 1 1 -378.79,0 189.4,55.681 0 1 1 378.79,0 z"
       transform="matrix(1.3854,0,0,1.3854,-94.328,-75.128)"
       inkscape:connector-curvature="0"
       style="fill:url(#linearGradient2316);stroke:#000000;stroke-width:3.75;stroke-linecap:round;stroke-linejoin:round" />
    <path
       id="path8657"
       d="m 452.03,64.76 c 4.08,-5.654 6.46,-18.43 6.14,-26.843 1.86,-0.129 3.49,0.414 4.22,0.844 0.47,7.535 -3.94,22.266 -10.36,25.999 z"
       inkscape:connector-curvature="0"
       style="fill:url(#linearGradient9282);fill-rule:evenodd;stroke:#000000;stroke-width:0.25pt" />
    <g
       id="g8650"
       transform="matrix(0.99104,0.62666,-0.63659,0.97558,-158.91,-343.17)"
       style="fill-rule:evenodd;stroke:#000000">
      <path
         id="path6765"
         d="m 612.95,12.491 c 14.52,16.505 11.44,41.361 -2.09,56.672 8.85,0.497 17.7,0.995 26.55,1.492 -10.34,-11.136 -14.42,-36.589 -0.6,-56.672 -3.77,-0.199 -19.68,-1.193 -23.86,-1.492 z"
         inkscape:connector-curvature="0"
         style="fill:url(#linearGradient8654);stroke-width:0.25pt" />
      <path
         id="path6766"
         d="m 607.99,14.457 c 1.45,-4.7367 6.07,-9.4731 18.47,-4.957 10.24,-3.0841 17.06,5.232 18.99,10.244 -3.43,-2.699 -8.04,-4.571 -13.06,-1.652 -3.29,-2.589 -11.6,-4.516 -17.8,-0.331 -0.36,-3.414 -4.14,-4.351 -6.6,-3.304 z"
         inkscape:connector-curvature="0"
         style="fill:url(#linearGradient8655);stroke-width:0.34999001pt" />
      <path
         id="path6767"
         d="m 623.98,63.695 c 4.71,4.289 8.79,10.265 18.03,4.535 -2.7,5.378 -13.53,13.498 -19.19,9.491 -6.96,2.285 -13.6,-9.034 -14.97,-15.08 5.8,1.652 12.02,3.726 16.13,1.054 z"
         inkscape:connector-curvature="0"
         style="fill:url(#linearGradient8656);stroke-width:0.25pt" />
    </g>
    <rect
       id="rect4202"
       rx="19.403999"
       ry="19.403999"
       height="461.69"
       width="51.428001"
       y="138.77"
       x="554.37"
       style="fill:url(#linearGradient4827)" />
    <rect
       id="rect5450"
       rx="19.403999"
       ry="19.403999"
       height="461.69"
       width="56.104"
       y="168.57001"
       x="488.92001"
       style="fill:url(#linearGradient5464)" />
    <rect
       id="rect5452"
       rx="19.403999"
       ry="19.403999"
       height="456.62"
       width="66.623001"
       y="181.42999"
       x="407.10001"
       style="fill:url(#linearGradient5453)" />
    <rect
       id="rect5454"
       rx="19.403999"
       ry="19.403999"
       height="458.31"
       width="74.805"
       y="191.95"
       x="314.17999"
       style="fill:url(#linearGradient5455)" />
    <rect
       id="rect5456"
       rx="19.403999"
       ry="19.403999"
       height="459.14999"
       width="66.623001"
       y="181.42999"
       x="231.19"
       style="fill:url(#linearGradient5457)" />
    <rect
       id="rect5458"
       rx="19.403999"
       ry="19.403999"
       height="461.69"
       width="56.104"
       y="168.57001"
       x="159.31"
       style="fill:url(#linearGradient5459)" />
    <rect
       id="rect5462"
       rx="19.403999"
       ry="19.403999"
       height="461.69"
       width="51.428001"
       y="142.86"
       x="96.190002"
       style="fill:url(#linearGradient5463)" />
    <path
       id="path10435"
       d="m 142.94,88.507 17.54,53.763 c 43.83,13.35 87.07,19.39 130.32,22.5 L 263.33,68.637 142.94,88.507 z"
       inkscape:connector-curvature="0"
       style="fill:url(#linearGradient3173);fill-rule:evenodd;stroke:#000000;stroke-width:3.46359992;stroke-linecap:round;stroke-linejoin:round" />
    <path
       id="path10436"
       d="M 143.24,87.923 176.25,50.228 295.47,29.482 263.62,68.637 143.24,87.923 z"
       inkscape:connector-curvature="0"
       style="fill:url(#linearGradient3175);fill-rule:evenodd;stroke:#000000;stroke-width:3.46359992;stroke-linecap:round;stroke-linejoin:round" />
    <path
       id="path10437"
       d="m 295.77,29.774 43.54,136.46 c -14.81,1.47 -32.24,0.59 -48.8,-2.33 L 263.33,68.933 295.77,29.778 z"
       inkscape:connector-curvature="0"
       style="fill:url(#linearGradient3177);fill-rule:evenodd;stroke:#000000;stroke-width:3.46359992;stroke-linecap:round;stroke-linejoin:round" />
    <g
       id="g16076"
       transform="matrix(0.73517,-0.11481,0.11481,0.73517,-18.465,-14.854)">
      <rect
         id="rect12307"
         rx="15.273"
         ry="26.077999"
         height="39.862"
         width="110.73"
         y="179.91"
         x="221.46001"
         style="fill:#ffffff" />
      <rect
         id="rect12929"
         rx="13.757"
         ry="26.077999"
         height="34.167999"
         width="103.91"
         y="182.97"
         x="224.50999"
         style="fill:#00074a" />
      <rect
         id="rect13551"
         rx="10.973"
         ry="26.077999"
         height="28.261999"
         width="96.996002"
         y="186.13"
         x="228.10001"
         style="fill:#ffffff" />
      <path
         id="path13552"
         d="m 241.9,190.97 0.08,18.93 15.26,-0.08 -0.16,-8.54 -2.61,-1.98 1.9,-1.47 0.05,-5.12 -1.34,-1.68 -13.18,-0.06 z m 4,7.17 5.3,-0.08 1.58,-1.34 -0.03,-2.02 -1.15,-1.38 h -5.75 l 0.05,4.82 z m 0,3.25 0.03,6.3 7.33,-0.16 -0.13,-5.62 -1.03,-0.6 -6.2,0.08 z"
         inkscape:connector-curvature="0"
         style="fill:#00074a;fill-rule:evenodd;stroke:#00074a;stroke-width:1.25;stroke-linecap:round;stroke-linejoin:round;stroke-opacity:0.78451" />
      <path
         id="path16070"
         d="m 260.4,190.97 0.08,18.93 3.94,-0.02 v -8.45 l 6.18,-0.09 1.19,0.77 0.13,7.73 3.82,-0.02 -0.16,-8.54 -2.61,-1.98 1.9,-1.47 0.05,-5.12 -1.34,-1.68 -13.18,-0.06 z m 4,7.17 5.3,-0.08 1.58,-1.34 -0.04,-2.02 -1.14,-1.38 h -5.75 l 0.05,4.82 z"
         inkscape:connector-curvature="0"
         style="fill:#00074a;fill-rule:evenodd;stroke:#00074a;stroke-width:1.25;stroke-linecap:round;stroke-linejoin:round;stroke-opacity:0.78451" />
      <path
         id="path16073"
         d="m 278.75,190.97 0.07,18.93 3.95,-0.02 -0.07,-18.91 h -3.95 z"
         inkscape:connector-curvature="0"
         style="fill:#00074a;fill-rule:evenodd;stroke:#00074a;stroke-width:1.25;stroke-linecap:round;stroke-linejoin:round;stroke-opacity:0.78451" />
      <path
         id="path16074"
         d="m 286.25,190.97 0.08,18.93 12.86,0.03 -0.04,-3.47 -8.98,0.05 0.03,-15.54 h -3.95 z"
         inkscape:connector-curvature="0"
         style="fill:#00074a;fill-rule:evenodd;stroke:#00074a;stroke-width:1.25;stroke-linecap:round;stroke-linejoin:round;stroke-opacity:0.78451" />
      <path
         id="path16075"
         d="m 301.83,190.97 0.08,18.93 12.86,0.03 -0.04,-3.47 -8.98,0.05 0.03,-15.54 h -3.95 z"
         inkscape:connector-curvature="0"
         style="fill:#00074a;fill-rule:evenodd;stroke:#00074a;stroke-width:1.25;stroke-linecap:round;stroke-linejoin:round;stroke-opacity:0.78451" />
    </g>
    <g
       id="g16085"
       transform="matrix(0.24625,-0.31818,0.16902,0.46357,184.45,65.378)">
      <rect
         id="rect16086"
         rx="64.967003"
         ry="34.509998"
         height="39.862"
         width="110.73"
         y="179.91"
         x="221.46001"
         style="fill:#ffffff" />
      <rect
         id="rect16087"
         rx="50.138"
         ry="34.509998"
         height="34.167999"
         width="103.91"
         y="182.97"
         x="224.50999"
         style="fill:#00074a" />
      <rect
         id="rect16088"
         rx="42.369999"
         ry="34.509998"
         height="28.261999"
         width="96.996002"
         y="186.13"
         x="228.10001"
         style="fill:#ffffff" />
      <path
         id="path16089"
         d="m 241.9,190.97 0.08,18.93 15.26,-0.08 -0.16,-8.54 -2.61,-1.98 1.9,-1.47 0.05,-5.12 -1.34,-1.68 -13.18,-0.06 z m 4,7.17 5.3,-0.08 1.58,-1.34 -0.03,-2.02 -1.15,-1.38 h -5.75 l 0.05,4.82 z m 0,3.25 0.03,6.3 7.33,-0.16 -0.13,-5.62 -1.03,-0.6 -6.2,0.08 z"
         inkscape:connector-curvature="0"
         style="fill:#00074a;fill-rule:evenodd;stroke:#00074a;stroke-width:1.25;stroke-linecap:round;stroke-linejoin:round;stroke-opacity:0.78451" />
      <path
         id="path16090"
         d="m 260.4,190.97 0.08,18.93 3.94,-0.02 v -8.45 l 6.18,-0.09 1.19,0.77 0.13,7.73 3.82,-0.02 -0.16,-8.54 -2.61,-1.98 1.9,-1.47 0.05,-5.12 -1.34,-1.68 -13.18,-0.06 z m 4,7.17 5.3,-0.08 1.58,-1.34 -0.04,-2.02 -1.14,-1.38 h -5.75 l 0.05,4.82 z"
         inkscape:connector-curvature="0"
         style="fill:#00074a;fill-rule:evenodd;stroke:#00074a;stroke-width:1.25;stroke-linecap:round;stroke-linejoin:round;stroke-opacity:0.78451" />
      <path
         id="path16091"
         d="m 278.75,190.97 0.07,18.93 3.95,-0.02 -0.07,-18.91 h -3.95 z"
         inkscape:connector-curvature="0"
         style="fill:#00074a;fill-rule:evenodd;stroke:#00074a;stroke-width:1.25;stroke-linecap:round;stroke-linejoin:round;stroke-opacity:0.78451" />
      <path
         id="path16092"
         d="m 286.25,190.97 0.08,18.93 12.86,0.03 -0.04,-3.47 -8.98,0.05 0.03,-15.54 h -3.95 z"
         inkscape:connector-curvature="0"
         style="fill:#00074a;fill-rule:evenodd;stroke:#00074a;stroke-width:1.25;stroke-linecap:round;stroke-linejoin:round;stroke-opacity:0.78451" />
      <path
         id="path16093"
         d="m 301.83,190.97 0.08,18.93 12.86,0.03 -0.04,-3.47 -8.98,0.05 0.03,-15.54 h -3.95 z"
         inkscape:connector-curvature="0"
         style="fill:#00074a;fill-rule:evenodd;stroke:#00074a;stroke-width:1.25;stroke-linecap:round;stroke-linejoin:round;stroke-opacity:0.78451" />
    </g>
    <path
       id="path16103"
       d="m 165.79,132.74 2.4,9.94 8.52,2.57 8.5,2.13 5.7,-4.13 0.79,5.59 9.58,2.03 -3.54,-23.16 -6.87,1.04 -7.39,11.33 -10.54,-8.5 -7.15,1.16 z"
       inkscape:connector-curvature="0"
       style="fill:#ffffff;fill-rule:evenodd" />
    <path
       id="path16104"
       d="m 201.87,126.8 3.98,25.06 9.2,1.82 -4.41,-28.17 -8.77,1.29 z"
       inkscape:connector-curvature="0"
       style="fill:#ffffff;fill-rule:evenodd" />
    <path
       id="path16105"
       d="m 214.96,124.69 5.64,30.02 8.38,1.43 -5.15,-32.88 -8.87,1.43 z"
       inkscape:connector-curvature="0"
       style="fill:#ffffff;fill-rule:evenodd" />
    <path
       id="path16106"
       d="m 242.05,120.56 6.09,38.44 8.84,0.88 -1.77,-13.41 12.27,13.68 9.96,-1.49 -15.84,-17.71 8.01,-24.83 -8.76,1.41 -6.8,20.27 -3.03,-18.81 -8.97,1.57 z"
       inkscape:connector-curvature="0"
       style="fill:#ffffff;fill-rule:evenodd" />
    <path
       id="path18600"
       d="m 277.56,100.17 5.36,22.28 2.47,-2.67 -3.62,-14.73 2.66,1.11 1.1,-5.25 3.67,14.76 2.38,-2.66 -5.37,-22.121 -1.86,1.976 -1.18,7.785 -3.68,-2.572 -1.93,2.092 z"
       inkscape:connector-curvature="0"
       style="fill:#ffffff;fill-rule:evenodd" />
    <path
       id="path18601"
       d="m 287.31,89.548 5.43,22.362 2.4,-2.59 -5.45,-22.272 -2.38,2.5 z"
       inkscape:connector-curvature="0"
       style="fill:#ffffff;fill-rule:evenodd" />
    <path
       id="path18602"
       d="m 290.85,85.716 5.42,22.304 6.21,-6.71 -1.04,-4.109 -3.76,4.149 -4.42,-18.23 -2.41,2.596 z"
       inkscape:connector-curvature="0"
       style="fill:#ffffff;fill-rule:evenodd" />
    <path
       id="path18603"
       d="m 298.21,77.925 5.36,22.275 2.44,-2.629 -1.97,-7.935 4.59,5.097 2.71,-2.846 -5.93,-6.614 0.26,-15.413 -2.37,2.561 -0.29,12.635 -2.39,-9.824 -2.41,2.693 z"
       inkscape:connector-curvature="0"
       style="fill:#ffffff;fill-rule:evenodd" />
    <path
       id="path19245"
       d="m 235.72,157.14 7.71,-1.39 0.21,2.56 -7.92,-1.17 z"
       inkscape:connector-curvature="0"
       style="fill:#ffffff;fill-rule:evenodd" />
    <path
       id="path1765"
       d="m 332.31,150.19 c -32.06,22.16 -16.12,162.06 -5.4,161.54 52.15,-2.54 21.37,-127.11 83.1,-150.17 12.37,-13.64 -57.6,-25.26 -77.7,-11.37 z"
       inkscape:connector-curvature="0"
       style="fill:url(#radialGradient3013);fill-rule:evenodd;stroke:#000000;stroke-width:2.5;stroke-linecap:round;stroke-linejoin:round" />
    <path
       id="path3014"
       d="m 385.2,145.93 c 52.72,29.54 -7.18,123.04 58.29,128.42 11.61,0.96 19.67,-107.52 5.27,-133.08 -12.48,-22.17 -76.58,-14.71 -63.56,4.66 z"
       inkscape:connector-curvature="0"
       style="fill:url(#radialGradient3015);fill-rule:evenodd;stroke:#000000;stroke-width:2.5;stroke-linecap:round;stroke-linejoin:round" />
    <path
       id="path3016"
       d="m 343.36,196.57 c -5.61,-5.98 -16.61,-5.44 -16.24,13.71 0.11,5.49 20.68,35.48 20.46,24.04 -0.14,-7.16 -13.02,-16.05 -5.48,-20.03 11.77,-6.22 6.7,-11.94 1.26,-17.72 z"
       inkscape:connector-curvature="0"
       style="fill:url(#radialGradient3642);fill-rule:evenodd" />
    <path
       id="path3643"
       d="m 318.38,270.89 c -3.33,7.5 4.31,31.44 7.8,39.02 1.55,3.36 22.79,-3.76 22.57,-15.19 -0.14,-7.16 -16.03,2.2 -17.93,-6.12 -1.51,-6.64 -6.58,-30.91 -12.44,-17.71 z"
       inkscape:connector-curvature="0"
       style="fill:url(#radialGradient3644);fill-rule:evenodd" />
    <g
       id="g5512"
       transform="translate(7.5928,-21.935)"
       style="fill-rule:evenodd;stroke:#000000">
      <path
         id="path4890"
         d="m 330.71,83.099 53.15,-29.738 46.4,32.902 -3.16,28.897 -54.01,25.97 -39.85,-39.05 -2.53,-18.981 z"
         inkscape:connector-curvature="0"
         style="fill:#ffffff;stroke-width:0.25pt" />
      <path
         id="path4267"
         d="m 382.08,66.983 -27.82,38.737 23.87,9.54 -10.26,-16.986 7.5,-12.974 6.11,35.49 -26.23,2.1 32.15,-27.669 13.22,15.649 -1.98,18.31 -10.25,-26.52 c 0,0 17.95,-21.558 17.95,-25.183 0,-3.625 -15.59,-16.599 -15.59,-16.599 0,0 -43.19,6.296 -27.02,14.309 16.18,8.014 46.16,29.003 46.16,29.003 l -0.2,12.59 -29.39,7.82 -27.22,1.72 -10.45,-26.329 45.76,-12.402 32.74,-9.54 1.97,16.027 -10.65,26.904 c 0,0 -30.77,-20.61 -31.16,-21.561 C 380.89,98.465 348.35,85.3 348.35,85.3 l -8.15,10.924 6.18,19.036 15.38,-38.546 -6.31,-20.416 44.18,5.724 16.96,20.797 12.62,32.051 -24.65,-16.978 8.88,-13.928 7.88,31.486 -6.7,9.15 h -34.71 l -15.78,4.96 19.72,2.49 18.93,-3.44 c 0,0 -8.48,-15.84 -11.04,-17.55 -2.56,-1.72 -41.22,6.1 -41.22,6.1 0,0 -6.51,-16.98 -6.51,-18.504 0,-1.527 -9.47,-23.85 -7.89,-24.613 1.58,-0.764 20.91,-6.297 20.91,-6.297 l 8.28,17.744 -0.99,23.28 c 0,0 -32.54,-9.733 -32.15,-11.068 0.4,-1.336 32.75,-25.186 32.75,-25.186 l 17.16,-5.533 z"
         inkscape:connector-curvature="0"
         style="fill:#f8f8f8;stroke-width:0.22994001pt" />
    </g>
    <path
       id="path5515"
       d="m 415.06,187.01 c 1.09,8.13 9.79,8.66 13.29,16.24 1.55,3.36 -0.63,20.74 8.22,13.5 6.19,-5.05 9.7,-43.78 -2.74,-39.86 -6.5,2.05 -20.93,-6.03 -18.77,10.12 z"
       inkscape:connector-curvature="0"
       style="fill:url(#radialGradient5516);fill-rule:evenodd" />
    <path
       id="path5517"
       d="m 387.7,141.74 c -3.52,7.41 25.49,5.92 32.27,1.05 15.89,-11.4 12.86,12.72 21.72,5.48 6.19,-5.05 -21.09,-21.84 -33.53,-17.92 -6.5,2.04 -14.61,-0.97 -20.46,11.39 z"
       inkscape:connector-curvature="0"
       style="fill:url(#radialGradient5518);fill-rule:evenodd" />
  </g>
  <metadata
     id="metadata3169">
    <rdf:RDF>
      <cc:Work>
        <dc:format>image/svg+xml</dc:format>
        <dc:type
           rdf:resource="http://purl.org/dc/dcmitype/StillImage" />
        <cc:license
           rdf:resource="http://creativecommons.org/licenses/publicdomain/" />
        <dc:publisher>
          <cc:Agent
             rdf:about="http://openclipart.org/">
            <dc:title>Openclipart</dc:title>
          </cc:Agent>
        </dc:publisher>
        <dc:title>trash can</dc:title>
        <dc:date>2009-07-07T22:32:12</dc:date>
        <dc:description>bin, bin, cartoon, cartoon, clip art, clipart, colour, colour, dustbin, dustbin, image, media, metal, metal, public domain, rubbish, rubbish, svg, trash, trash, trash can, trash can, </dc:description>
        <dc:source>http://openclipart.org/detail/27074/trash-can-by-egore911</dc:source>
        <dc:creator>
          <cc:Agent>
            <dc:title>egore911</dc:title>
          </cc:Agent>
        </dc:creator>
        <dc:subject>
          <rdf:Bag>
            <rdf:li>bin</rdf:li>
            <rdf:li>cartoon</rdf:li>
            <rdf:li>clip art</rdf:li>
            <rdf:li>clipart</rdf:li>
            <rdf:li>colour</rdf:li>
            <rdf:li>dustbin</rdf:li>
            <rdf:li>image</rdf:li>
            <rdf:li>media</rdf:li>
            <rdf:li>metal</rdf:li>
            <rdf:li>public domain</rdf:li>
            <rdf:li>rubbish</rdf:li>
            <rdf:li>svg</rdf:li>
            <rdf:li>trash</rdf:li>
            <rdf:li>trash can</rdf:li>
          </rdf:Bag>
        </dc:subject>
      </cc:Work>
      <cc:License
         rdf:about="http://creativecommons.org/licenses/publicdomain/">
        <cc:permits
           rdf:resource="http://creativecommons.org/ns#Reproduction" />
        <cc:permits
           rdf:resource="http://creativecommons.org/ns#Distribution" />
        <cc:permits
           rdf:resource="http://creativecommons.org/ns#DerivativeWorks" />
      </cc:License>
    </rdf:RDF>
  </metadata>
</svg>
