<?xml version="1.0" encoding="UTF-8" standalone="no"?>
<!-- Created with Inkscape (http://www.inkscape.org/) -->

<svg
   xmlns:dc="http://purl.org/dc/elements/1.1/"
   xmlns:cc="http://creativecommons.org/ns#"
   xmlns:rdf="http://www.w3.org/1999/02/22-rdf-syntax-ns#"
   xmlns:svg="http://www.w3.org/2000/svg"
   xmlns="http://www.w3.org/2000/svg"
   xmlns:xlink="http://www.w3.org/1999/xlink"
   xmlns:sodipodi="http://sodipodi.sourceforge.net/DTD/sodipodi-0.dtd"
   xmlns:inkscape="http://www.inkscape.org/namespaces/inkscape"
   width="550"
   height="400"
   id="svg2"
   version="1.1"
   inkscape:version="0.48.3.1 r9886"
   sodipodi:docname="ladybird.svg">
  <title
     id="title4121">Ladybird</title>
  <defs
     id="defs4">
    <linearGradient
       id="linearGradient3848">
      <stop
         style="stop-color:#ff1a00;stop-opacity:1;"
         offset="0"
         id="stop3850" />
      <stop
         style="stop-color:#970000;stop-opacity:1;"
         offset="1"
         id="stop3852" />
    </linearGradient>
    <filter
       inkscape:collect="always"
       id="filter3822"
       x="-0.20162249"
       width="1.403245"
       y="-0.19797303"
       height="1.3959461"
       color-interpolation-filters="sRGB">
      <feGaussianBlur
         inkscape:collect="always"
         stdDeviation="4.3650346"
         id="feGaussianBlur3824" />
    </filter>
    <filter
       inkscape:collect="always"
       id="filter3826"
       x="-0.25211012"
       width="1.5042202"
       y="-0.13366109"
       height="1.2673222"
       color-interpolation-filters="sRGB">
      <feGaussianBlur
         inkscape:collect="always"
         stdDeviation="4.3650346"
         id="feGaussianBlur3828" />
    </filter>
    <filter
       inkscape:collect="always"
       id="filter3832"
       x="-0.13383758"
       width="1.2676752"
       y="-0.10875566"
       height="1.2175113"
       color-interpolation-filters="sRGB">
      <feGaussianBlur
         inkscape:collect="always"
         stdDeviation="4.6428561"
         id="feGaussianBlur3834" />
    </filter>
    <filter
       inkscape:collect="always"
       id="filter3872"
       x="-0.30000001"
       width="1.6"
       y="-0.30000001"
       height="1.6"
       color-interpolation-filters="sRGB">
      <feGaussianBlur
         inkscape:collect="always"
         stdDeviation="2.802959"
         id="feGaussianBlur3874" />
    </filter>
    <filter
       inkscape:collect="always"
       id="filter3880"
       x="-0.18000001"
       width="1.36"
       y="-0.18000001"
       height="1.36"
       color-interpolation-filters="sRGB">
      <feGaussianBlur
         inkscape:collect="always"
         stdDeviation="1.4929825"
         id="feGaussianBlur3882" />
    </filter>
    <filter
       inkscape:collect="always"
       id="filter3887"
       x="-0.10565529"
       width="1.2113106"
       y="-0.13885176"
       height="1.2777035"
       color-interpolation-filters="sRGB">
      <feGaussianBlur
         inkscape:collect="always"
         stdDeviation="1.1607229"
         id="feGaussianBlur3889" />
    </filter>
    <filter
       inkscape:collect="always"
       id="filter4079"
       color-interpolation-filters="sRGB">
      <feGaussianBlur
         inkscape:collect="always"
         stdDeviation="8.2389748"
         id="feGaussianBlur4081" />
    </filter>
    <linearGradient
       inkscape:collect="always"
       xlink:href="#linearGradient3848"
       id="linearGradient4117"
       gradientUnits="userSpaceOnUse"
       x1="-150.60759"
       y1="472.78143"
       x2="25.067871"
       y2="584.89978" />
    <linearGradient
       inkscape:collect="always"
       xlink:href="#linearGradient3848"
       id="linearGradient4119"
       gradientUnits="userSpaceOnUse"
       x1="-185.63173"
       y1="463.23257"
       x2="-314.72702"
       y2="422.72528" />
  </defs>
  <sodipodi:namedview
     id="base"
     pagecolor="#ffffff"
     bordercolor="#666666"
     borderopacity="1.0"
     inkscape:pageopacity="0.0"
     inkscape:pageshadow="2"
     inkscape:zoom="1.2275"
     inkscape:cx="259.92872"
     inkscape:cy="200"
     inkscape:document-units="px"
     inkscape:current-layer="layer2"
     showgrid="false"
     inkscape:window-width="1366"
     inkscape:window-height="712"
     inkscape:window-x="0"
     inkscape:window-y="27"
     inkscape:window-maximized="1"
     showguides="true"
     inkscape:guide-bbox="true" />
  <metadata
     id="metadata7">
    <rdf:RDF>
      <cc:Work
         rdf:about="">
        <dc:format>image/svg+xml</dc:format>
        <dc:type
           rdf:resource="http://purl.org/dc/dcmitype/StillImage" />
        <dc:title>Ladybird</dc:title>
        <dc:date>12/19/2013</dc:date>
        <dc:creator>
          <cc:Agent>
            <dc:title>Dux Phoenix</dc:title>
          </cc:Agent>
        </dc:creator>
        <dc:publisher>
          <cc:Agent>
            <dc:title>OpenClipArt</dc:title>
          </cc:Agent>
        </dc:publisher>
        <cc:license
           rdf:resource="http://creativecommons.org/licenses/publicdomain/" />
        <dc:description>The ladybirds have oval bodies with six short legs. Usually they  are red or orange with three spots on each side and one in the middle; they have a black head with white patches on each side.</dc:description>
        <dc:subject>
          <rdf:Bag>
            <rdf:li>nature</rdf:li>
            <rdf:li>insect</rdf:li>
            <rdf:li>animal</rdf:li>
            <rdf:li>bugs</rdf:li>
            <rdf:li>ladybird</rdf:li>
            <rdf:li>ladybug</rdf:li>
            <rdf:li>mariquita</rdf:li>
          </rdf:Bag>
        </dc:subject>
      </cc:Work>
      <cc:License
         rdf:about="http://creativecommons.org/licenses/publicdomain/">
        <cc:permits
           rdf:resource="http://creativecommons.org/ns#Reproduction" />
        <cc:permits
           rdf:resource="http://creativecommons.org/ns#Distribution" />
        <cc:permits
           rdf:resource="http://creativecommons.org/ns#DerivativeWorks" />
      </cc:License>
    </rdf:RDF>
  </metadata>
  <g
     inkscape:groupmode="layer"
     id="layer2"
     inkscape:label="ladybird"
     style="display:inline"
     transform="translate(0,-652.36218)">
    <g
       id="g4083"
       transform="translate(-99.834991,318.46032)">
      <path
         transform="matrix(1.0321813,-0.00998417,0.01213566,0.96935493,-20.159751,23.212196)"
         inkscape:connector-curvature="0"
         id="path3966"
         d="m 426.56845,351.09738 c -0.84295,4.9e-4 -1.70089,0.008 -2.54914,0.0309 -3.92139,0.10442 -7.87146,0.16863 -11.83528,0.52491 -16.49094,1.48224 -32.00918,4.88006 -46.46109,9.84984 -0.27292,0.0939 -0.54719,0.1829 -0.81936,0.27789 -0.83526,0.29149 -1.66042,0.59344 -2.48844,0.89543 -2.13867,0.77981 -4.25212,1.59111 -6.34251,2.4393 -0.0592,0.024 -0.1229,0.0377 -0.18208,0.0617 -0.90758,0.36931 -1.83286,0.76055 -2.73123,1.14245 -1.53126,0.65147 -3.04805,1.31965 -4.55201,2.00702 -0.37268,0.17018 -0.75186,0.32167 -1.12284,0.49402 -0.36514,0.16978 -0.72899,0.35308 -1.09249,0.52492 -0.82274,0.38869 -1.64379,0.77409 -2.4581,1.17334 -0.20455,0.10031 -0.40291,0.20773 -0.60694,0.30876 -0.46167,0.22845 -0.90667,0.47839 -1.36561,0.71019 -0.75872,0.38358 -1.52481,0.74978 -2.27601,1.14246 -0.15281,0.0797 -0.30271,0.16684 -0.45521,0.24701 -0.64957,0.34183 -1.29831,0.70126 -1.9422,1.04984 -0.25054,0.1355 -0.50898,0.26486 -0.75867,0.40139 -0.73975,0.40484 -1.48318,0.82146 -2.21532,1.23509 -0.76466,0.43163 -1.51973,0.8558 -2.27602,1.29685 -0.21283,0.12421 -0.42511,0.24556 -0.63729,0.37052 -0.0512,0.0302 -0.10052,0.0625 -0.15172,0.0926 -0.43549,0.25703 -0.87224,0.5118 -1.30492,0.77192 -0.44018,0.2645 -0.86767,0.53516 -1.30492,0.80282 -1.14875,0.70349 -2.2703,1.43638 -3.39885,2.1614 -0.54301,0.3487 -1.10048,0.69624 -1.63873,1.04983 -0.17194,0.113 -0.34444,0.22615 -0.51589,0.33964 -3.05961,-4.1821 -6.39411,-7.72658 -9.04338,-9.23228 -3.15726,-1.79442 -5.5743,-2.53106 -6.97979,-2.47018 -2.34247,0.10154 -1.85779,2.44691 2.88295,5.86667 2.15432,1.55403 4.28843,1.70138 6.70667,4.90947 l -0.39451,1.17335 -7.61708,-1.38948 c 1.27876,0.90682 5.70542,3.03152 9.13442,4.78597 -22.13815,15.77759 -39.96568,35.75457 -52.74289,57.64774 -8.89768,-0.89787 -29.61604,-0.68873 -33.29052,1.51298 -7.92949,4.75126 -6.02907,7.90488 2.30637,4.56983 2.13644,-0.85482 18.33479,-4.23585 13.86852,-0.18526 -2.2443,2.03539 -10.25726,5.6814 -10.25726,5.6814 l 17.23704,-4.94035 c 1.50522,0.003 3.72348,0.25478 6.09973,0.64841 -3.67074,7.01738 -6.83518,14.21411 -9.46824,21.49054 -7.92426,3.76546 -14.5903,10.86425 -18.99715,19.97755 -0.0748,-0.12202 -0.13505,-0.25013 -0.21242,-0.37053 -2.00815,0.82158 -17.59224,7.90101 -21.78906,9.01615 -10.02634,2.66413 -15.5848,10.14664 -17.69224,13.4007 -1.43599,2.21729 -4.58532,5.56816 -6.97978,7.44141 -1.6012,1.25266 -2.46095,3.46705 -3.97545,5.27999 -1.45148,1.73761 -1.84456,1.35496 -2.64018,2.13054 -11.88244,11.58337 -8.10233,11.84401 -21.15177,27.01755 -0.83428,0.97009 1.0101,-0.17106 2.94364,-0.92632 -4.89001,2.48118 -9.63506,8.69501 -5.00723,6.9165 0.33856,-0.13007 0.61944,-0.22776 0.91041,-0.33965 -3.69984,2.25423 -7.51435,6.95154 -4.06649,5.28 0.68418,-0.33077 1.14689,-0.55061 1.57804,-0.74105 -1.01277,1.16082 -1.86345,2.21412 -1.91186,2.19228 -0.12481,-0.0569 -0.2247,-0.10938 -0.30346,-0.0617 -3.4668,2.09636 -5.15091,4.5691 -3.24712,3.52 2.9167,-1.60728 3.67654,-1.78015 1.76013,1.9144 -0.70667,1.36228 2.34627,-0.71163 2.60982,-4.53896 0.006,-0.0806 -0.0433,-0.16773 -0.12138,-0.27788 -0.0328,-0.0463 1.11294,-1.17554 2.36706,-2.40843 -0.13733,0.47413 -0.46642,1.19737 -1.00145,2.31578 -1.4405,3.01115 2.57138,-0.79054 4.49133,-4.41543 -0.0773,0.214 -0.15518,0.38009 -0.24277,0.61754 -1.69503,4.5963 4.90282,-2.054 6.16041,-7.41053 0.0804,2.27161 -0.34599,4.78618 0.30348,3.55089 7.49399,-14.25383 9.74536,-13.64243 17.38876,-29.17896 0.53103,-1.07942 -0.52649,-0.32234 1.30492,-3.64351 2.85178,-5.17171 5.31215,-5.53086 10.68209,-4.23018 2.62488,0.6358 10.85965,-6.6829 16.35698,-9.13966 8.15172,-3.64301 9.30464,-3.72045 9.37719,-0.55578 0.21275,9.28106 0.86761,10.18973 6.06938,8.55297 0.50762,-0.15973 1.00072,-0.25674 1.48699,-0.33963 0.22468,0.51016 0.47242,1.01874 0.75868,1.54385 -1.70181,5.33672 -2.64019,11.14183 -2.64019,17.19861 0,9.10957 0.94316,21.52422 3.03469,34.1193 0.0193,-0.004 0.0415,0.004 0.0607,0 l 0.0607,0.30878 c -0.54917,0.0216 -1.05972,0.0548 -1.5477,0.12351 -1.54851,0.3007 -2.65274,3.88896 -3.12571,9.2014 -0.003,0.0295 0.003,0.0631 0,0.0926 -0.52911,6.05847 -0.25457,14.30837 1.15317,22.54036 -0.47428,0.094 -0.9418,0.11481 -1.36561,0.0617 -7.42291,-0.92915 -11.99312,-10.1824 -20.15033,-12.22737 -2.64826,-0.66389 -6.18272,-1.06032 -10.04482,-1.35859 l -2.18497,-0.95719 0.75866,0.83368 c -2.05208,-0.13597 -4.165,-0.24256 -6.31215,-0.30877 l -1.69942,-0.80281 0.15173,0.77193 c -2.18343,-0.0529 -4.35899,-0.0896 -6.46388,-0.0926 l -2.9133,-1.29684 0.21242,1.29684 c -8.11336,0.0543 -14.62719,0.37053 -14.62719,0.37053 l -2.30636,-2.37754 c 0,0 -3.95495,-2.5988 -7.61707,-3.55088 -1.66462,-0.4327 -2.99246,-0.24778 -4.12718,0.4014 -1.91107,1.09331 -1.59044,2.50184 -0.5159,4.44633 2.04164,3.69451 12.04771,3.42736 12.04771,3.42736 l 2.06359,-0.0926 c 0,0 9.56602,-0.10601 20.11999,0.30875 l -0.72833,0.61756 4.27892,-0.37053 -0.0304,-0.0926 c 1.55739,0.0784 3.10885,0.17272 4.64306,0.2779 l -0.60692,0.61755 1.82081,-0.52492 c 5.02436,0.3735 9.73537,0.89974 13.10985,1.66737 8.23409,1.87309 13.95289,10.14959 21.18214,12.01124 0.59123,0.15225 1.26526,0.21364 1.94219,0.24701 3.12521,14.9357 10.08946,28.69212 22.66912,27.41895 4.41746,-3.69679 8.88216,-6.1717 13.01881,-8.42946 l 0.72833,0.18526 c -0.0204,0.0113 -0.0403,0.0195 -0.0607,0.0309 4.53435,1.17269 8.25591,2.0037 11.47112,2.62456 1.87814,1.60346 3.88949,3.445 5.94799,5.40351 l 0.84971,1.69824 0.0304,-0.86456 c 1.1172,1.07506 2.2549,2.16245 3.3685,3.27299 l -0.12139,0.0617 2.64019,3.45825 -0.0304,-0.98807 c 7.46238,7.60492 13.86853,14.82105 13.86853,14.82105 l 1.33527,1.60562 c 0,0 6.59938,7.65134 10.65175,6.66947 2.13283,-0.51678 3.39086,-1.22641 2.88296,-3.39649 -0.30156,-1.28852 -1.07669,-2.38453 -2.51879,-3.33474 -3.17271,-2.09032 -7.73845,-3.30386 -7.73845,-3.30386 l -3.30782,-0.0926 c 0,0 -4.15256,-5.07801 -9.61996,-11.17754 l 1.06214,-0.71016 -2.9133,-1.32773 c -1.43082,-1.57079 -2.91053,-3.19035 -4.43065,-4.78598 l 0.60695,-0.37052 -1.69943,-0.71017 c -1.5051,-1.55951 -3.00044,-3.09782 -4.49135,-4.53895 l 1.0925,0 -0.66764,-0.30877 c 10.08691,1.17214 14.50471,-0.50093 28.79919,-0.0617 17.9273,-1.10677 30.11321,-6.49862 38.9654,-12.38176 1.37212,-0.356 3.16399,-1.05514 5.58384,-2.06877 2.87691,-1.20507 3.27746,-0.13551 3.27746,8.92351 0,6.10913 -3.29678,16.73813 -1.66909,18.92773 3.32991,4.47946 4.02285,6.90429 0.5159,11.6407 -2.25207,3.04167 -2.00379,1.75754 -2.76157,2.68633 -10.90682,13.36831 -9.4576,15.23056 -19.27026,27.94386 -0.85042,1.10179 1.23135,-0.30387 3.3078,-1.14246 -4.31434,3.32564 -7.64221,12.1348 -4.18787,8.70739 0.17847,-0.1771 0.29373,-0.30507 0.4552,-0.46317 -2.48975,3.24632 -4.31525,8.51214 -2.18496,5.9593 0.79124,-0.94819 1.32801,-1.53404 1.69942,-1.85263 -0.60507,1.66408 -1.15911,3.19234 -1.21388,3.18035 -0.13055,-0.0286 -0.23322,-0.0376 -0.30347,0 -3.33804,1.78466 -3.97638,5.4363 -3.03468,4.23017 2.55386,-3.27101 2.70112,-2.46804 2.42774,0.89544 -0.17843,2.19543 1.38924,-0.37367 1.88152,-4.44631 0.0111,-0.0924 -0.0811,-0.18431 -0.1821,-0.2779 -0.0391,-0.0363 0.54626,-1.24515 1.18354,-2.65543 0.002,0.47822 -0.008,1.0205 -0.0304,1.79087 -0.1176,3.88415 2.58511,-1.57521 3.12573,-5.92842 0.0163,0.31604 0.0415,0.62036 0.0607,0.98807 0.26065,5.02639 3.952,-1.88819 4.21821,-7.44142 0.0979,2.10498 -0.20361,4.2859 0.33382,3.11861 8.40619,-18.2585 10.16586,-14.87172 15.81072,-30.59931 0.37797,-1.05307 -0.0998,-1.25292 0.88007,-3.30387 1.02235,-2.13993 2.67276,-3.84038 3.15606,-5.83578 0.72275,-2.98395 2.46666,-7.2499 3.88442,-9.4793 2.08067,-3.27185 6.58123,-11.48029 4.94654,-21.89194 -0.46912,-2.98789 -0.56366,-10.76011 -0.60694,-16.88983 15.28114,2.41584 30.20736,3.85923 43.66916,4.35369 3.00622,3.47272 7.41099,9.03522 9.10407,10.99228 2.36366,2.73218 7.94015,5.44707 12.38154,7.19439 0,0 3.90385,9.35358 3.73265,7.22526 -0.30533,-3.796 -0.57658,-6.60772 -0.57658,-6.60772 1.06015,0.32875 1.57892,0.71018 1.8815,0.71018 2.5256,0 10.90008,11.10373 13.17056,15.90176 l 3.06502,17.97053 c 0,0 -0.22699,-8.9488 0.60694,-11.88773 1.65959,-5.84866 5.66082,10.48433 5.82661,12.81405 0.64684,9.08949 4.25381,9.48348 5.03758,0.15439 0.4186,-4.98265 -11.30323,-29.62697 -14.83963,-33.90317 -2.62233,-3.17092 -5.07135,-7.12854 -4.91619,-8.15159 0.26748,-1.76363 4.05831,-2.1012 6.31215,-2.90246 1.85022,-0.65778 -10.98558,-0.55578 -10.98558,-0.55578 -2.83127,-1.13655 -6.033,-2.20453 -6.97978,-2.74808 -1.14634,-0.6581 -2.66821,-3.57826 -3.58093,-6.17544 13.74934,-0.50488 24.67807,-2.23366 30.92348,-5.09474 22.57771,-10.34303 41.27291,-20.56482 56.47554,-30.8772 4.64969,1.34076 10.07624,3.30115 13.14021,4.23018 1.25574,0.38075 2.49514,0.64448 3.73267,0.8028 l 6.19076,5.15649 -1.82081,-5.0021 c 9.95766,-0.5636 18.59063,-7.03797 22.396,-10.80702 6.43282,-6.37145 16.1729,-5.15924 24.18647,-1.82176 2.41763,3.1275 5.9984,8.14398 7.2529,9.38668 l -2.79192,-7.34878 1.06215,-0.61755 c 3.55314,1.81001 4.1018,3.91522 6.00868,5.77405 6.71402,6.54485 8.69752,2.78377 2.48844,-4.72422 -5.09351,-6.15907 -24.36501,-14.24527 -30.95381,-12.47438 -3.02483,0.81298 -21.26571,12.00144 -23.15468,11.14666 -3.30431,-1.49527 0.30791,-3.56865 1.51735,-3.85965 3.79862,-0.91397 -8.86509,-0.63293 -10.68211,-0.24702 -0.54385,0.11552 -1.36388,-0.7064 -2.12427,-1.91438 26.16772,-21.83567 37.52738,-44.3908 37.32667,-69.5046 -0.0339,-4.24244 -0.32306,-8.4822 -0.84973,-12.72141 -0.0268,-0.21539 -0.0631,-0.43305 -0.0911,-0.64841 -0.003,-0.0202 0.003,-0.0417 0,-0.0617 -0.005,-0.042 -0.0248,-0.0816 -0.0304,-0.12351 -0.23577,-1.79093 -0.49923,-3.58682 -0.81937,-5.37264 -0.0849,-0.47339 -0.1824,-0.94741 -0.27313,-1.42034 -0.7879,-4.10769 -1.78923,-8.20254 -3.00434,-12.25825 -0.0334,-0.11159 -0.0574,-0.22812 -0.0911,-0.33965 -0.23993,-0.79297 -0.50297,-1.58731 -0.75867,-2.37755 -0.013,-0.0401 -0.0173,-0.0832 -0.0304,-0.12351 -13.47667,-41.513 -48.57941,-79.10437 -92.22418,-96.52213 -0.0104,2.4e-4 -0.021,-2.8e-4 -0.0304,0 0,0 -23.24301,-10.26659 -49.37438,-10.25124 z m -50.58826,65.52142 c -1.35363,1.23591 -2.70425,2.52972 -4.03613,3.82879 1.33751,-1.30454 2.67666,-2.58799 4.03613,-3.82879 z m -111.40342,52.95441 c -0.65159,0 -1.29871,0.0197 -1.9422,0.0617 -0.603,0.0394 -1.19527,0.10971 -1.79046,0.18526 0.59121,-0.0754 1.19171,-0.1456 1.79046,-0.18526 0.64721,-0.0429 1.28704,-0.0617 1.9422,-0.0617 z m 2.21533,0.0309 c 0.58328,0.0201 1.17011,0.0576 1.76012,0.0926 -0.58979,-0.035 -1.17707,-0.0725 -1.76012,-0.0926 z m 6.2818,0.49403 c 1.22362,0.14048 2.43987,0.30525 3.67198,0.49404 1.37071,0.21001 2.75866,0.4491 4.12716,0.71017 -1.37635,-0.26288 -2.74866,-0.49896 -4.12716,-0.71017 -1.22644,-0.18791 -2.45402,-0.35404 -3.67198,-0.49404 z m -17.9957,1.04983 c -0.38649,0.12929 -0.77159,0.25683 -1.15318,0.4014 0.38093,-0.14462 0.76729,-0.27191 1.15318,-0.4014 z m 37.87292,3.02596 c 1.29671,0.36389 2.55412,0.73332 3.79336,1.11158 -1.23153,-0.37588 -2.50519,-0.74989 -3.79336,-1.11158 z m 4.40029,1.29684 c 1.9938,0.61618 3.91675,1.23567 5.70522,1.85264 -1.79626,-0.62008 -3.70162,-1.23322 -5.70522,-1.85264 z m 71.16345,93.83582 c 0.55433,1.3282 1.06774,2.63614 1.57804,3.9214 -0.5064,-1.27537 -1.02832,-2.60378 -1.57804,-3.9214 z m 3.70232,9.47932 c 0.42472,1.17351 0.80925,2.34028 1.18353,3.45824 -0.37385,-1.11665 -0.75943,-2.28621 -1.18353,-3.45824 z m -126.78929,0.6484 c 0.70712,0.2466 1.40939,0.49987 2.12429,0.77193 -0.70934,-0.26986 -1.42258,-0.52712 -2.12429,-0.77193 z m 4.30926,1.63651 c 0.64537,0.2665 1.29664,0.54819 1.94219,0.83368 -0.64293,-0.28442 -1.2994,-0.5681 -1.94219,-0.83368 z m 4.21822,1.88349 c 0.71502,0.3418 1.41675,0.68649 2.12428,1.04984 -0.70223,-0.36063 -1.41463,-0.71044 -2.12428,-1.04984 z m 17.05495,9.04703 c 0.39627,0.34173 0.77522,0.70099 1.15318,1.04982 -0.37979,-0.35061 -0.7549,-0.7064 -1.15318,-1.04982 z m -1.45665,0.98808 c 0.5275,0.4682 1.02517,0.93942 1.51734,1.42035 -0.48705,-0.47621 -0.99564,-0.95662 -1.51734,-1.42035 z m 107.27623,3.14946 c 0.0365,0.35559 0.0698,0.7136 0.0911,1.04984 -0.0216,-0.34238 -0.0535,-0.68739 -0.0911,-1.04984 z m -102.81524,1.513 c 0.30524,0.38301 0.6011,0.75367 0.88006,1.14246 -0.27213,-0.37934 -0.58289,-0.76863 -0.88006,-1.14246 z m 2.12428,3.02596 c 0.24497,0.41674 0.45593,0.84398 0.66763,1.26596 -0.21188,-0.42179 -0.42252,-0.84942 -0.66763,-1.26596 z m 99.96264,2.1614 c -0.10557,0.18829 -0.20791,0.36378 -0.33381,0.52492 0.12755,-0.16312 0.22711,-0.33397 0.33381,-0.52492 z m -1.00145,1.14246 c -0.18994,0.14422 -0.38565,0.26872 -0.60694,0.37052 0.22329,-0.10113 0.41535,-0.2264 0.60694,-0.37052 z m -0.63728,0.40139 c -0.25102,0.11173 -0.5276,0.19079 -0.81937,0.24703 -0.28661,0.0553 -0.58347,0.0926 -0.91041,0.0926 0.3258,0 0.62466,-0.0378 0.91041,-0.0926 0.28575,-0.055 0.57266,-0.13892 0.81937,-0.24703 z m -2.36706,0.37053 c -0.17159,0.0189 -0.34361,0.0588 -0.5159,0.0926 0.17339,-0.0344 0.34314,-0.0734 0.5159,-0.0926 z m -91.73864,1.20423 c 0.0604,0.32384 0.11378,0.63151 0.15175,0.95719 0.0618,0.52977 0.0911,1.07164 0.0911,1.60561 0,-0.5389 -0.0281,-1.07099 -0.0911,-1.60561 -0.0374,-0.31809 -0.0929,-0.64084 -0.15175,-0.95719 z m -2.42775,9.13964 c -0.0694,0.2747 -0.13317,0.53901 -0.21242,0.80281 0.0786,-0.26242 0.14353,-0.52956 0.21242,-0.80281 z"
         style="fill:#000000;display:inline;filter:url(#filter4079)" />
      <g
         transform="translate(528.79553,-52.531964)"
         id="g3932">
        <path
           inkscape:connector-curvature="0"
           style="fill:#000000;display:inline"
           d="m -227.54239,416.83907 c -2.41219,0.1027 -1.91308,2.47645 2.96875,5.9375 2.21842,1.57278 4.41604,1.72191 6.90625,4.96875 l -0.40625,1.1875 -7.84375,-1.40625 c 1.47915,1.03092 7.17134,3.68459 10.75,5.53125 4.87619,7.46515 7.98679,17.08913 2.90625,24.8125 -3.00542,4.56881 -7.78365,14.54169 -6.40625,24.71875 l -5.3125,-0.90625 6.3125,5.28125 c 0.39813,1.22113 0.9085,2.428 1.53125,3.625 2.58831,4.97515 9.5189,16.34091 9.5625,19.875 3.71976,-7.96222 9.59609,-19.55599 14.15625,-26.59375 -2.31963,2.65326 -10.24455,0.0803 -10.21875,-1.5625 0.03,-1.91118 -2.17454,-14.79724 -2.34375,-10.78125 -0.0539,1.27864 -1.40228,5.33666 -3.53125,2.28125 -1.21707,-1.74668 6.37434,-22.31705 6.59375,-25.53125 0.47795,-7.00131 -11.32528,-24.96472 -18.4375,-28.9375 -3.25121,-1.81608 -5.74019,-2.56162 -7.1875,-2.5 z m -30.53125,68 c -0.0289,0.0226 -0.0452,0.0934 -0.0312,0.21875 0.27185,2.44343 1.67804,6.13639 0.1875,7.15625 -0.86464,0.59159 -5.59512,0.048 -9.65625,-1 -5.47667,-1.41339 -33.1701,-1.53702 -37.53125,1.03125 -8.16547,4.80862 -6.20849,8.00033 2.375,4.625 2.20003,-0.86513 18.88045,-4.28698 14.28125,-0.1875 -2.31108,2.05997 -10.5625,5.75 -10.5625,5.75 l 17.75,-5 c 5.38948,0.01 19.25092,2.9047 20.375,5.25 0.13467,0.28098 0.72812,0.59683 1.5,1.4375 0,0 -2.68089,0.99805 -6.28125,2.375 -2.01862,0.77201 8.25,0.28125 8.25,0.28125 3.57144,3.35998 8.51695,7.37522 12.0625,8.375 3.52141,0.99298 15.81272,3.82934 17.8125,4.875 -2.30693,-5.91246 -6.50592,-14.44278 -8.25,-20.375 -0.5228,1.47495 -9.3426,2.01164 -11.28125,0.65625 -0.91746,-0.64142 -3.3276,-3.14926 -5.625,-5.28125 0,0 -4.94146,-10.52588 -5.375,-10.1875 z m -46.4375,54.84375 c -2.06791,0.83149 -18.11577,7.9964 -22.4375,9.125 -10.32471,2.6963 -16.0486,10.26915 -18.21875,13.5625 -1.47873,2.24406 -4.72177,5.63538 -7.1875,7.53125 -1.64885,1.2678 -2.53419,3.50891 -4.09375,5.34375 -1.49468,1.75858 -1.89946,1.37131 -2.71875,2.15625 -12.23607,11.72322 -8.34346,11.98702 -21.78125,27.34375 -0.85911,0.9818 1.04017,-0.17313 3.03125,-0.9375 -5.03555,2.51114 -9.9218,8.79998 -5.15625,7 0.34864,-0.13164 0.63788,-0.23051 0.9375,-0.34375 -3.80994,2.28145 -7.73797,7.03547 -4.1875,5.34375 0.70454,-0.33477 1.18102,-0.55726 1.625,-0.75 -1.04292,1.17482 -1.9189,2.24085 -1.96875,2.21875 -0.12853,-0.0576 -0.23139,-0.1107 -0.3125,-0.0625 -3.56996,2.12167 -5.3042,4.62426 -3.34375,3.5625 3.0035,-1.62669 3.78595,-1.80165 1.8125,1.9375 -0.72768,1.37874 2.4161,-0.72021 2.6875,-4.59375 0.006,-0.0815 -0.0445,-0.16976 -0.125,-0.28125 -0.0338,-0.0468 1.14607,-1.18973 2.4375,-2.4375 -0.14141,0.47985 -0.48028,1.21182 -1.03125,2.34375 -1.48336,3.04749 2.6479,-0.8001 4.625,-4.46875 -0.0796,0.21658 -0.1598,0.38468 -0.25,0.625 -1.74547,4.65179 5.04873,-2.07881 6.34375,-7.5 0.0828,2.29903 -0.35628,4.84396 0.3125,3.59375 7.71701,-14.42592 10.03539,-13.80714 17.90625,-29.53125 0.54684,-1.09245 -0.54215,-0.32623 1.34375,-3.6875 2.93665,-5.23415 5.47024,-5.59763 11,-4.28125 2.70299,0.64348 11.18282,-6.76358 16.84375,-9.25 8.39432,-3.68699 9.58155,-3.76538 9.65625,-0.5625 0.21908,9.39312 0.89344,10.31276 6.25,8.65625 3.8375,-1.18675 6.93897,-0.31807 11.40625,3.1875 2.025,1.58907 5.04157,3.20935 8.0625,4.40625 -8.86285,-9.02316 -6.28224,-24.04764 -11.5625,-35.71875 -0.54625,-1.20735 -1.17043,-2.40598 -1.90625,-3.53125 z m 312.28125,63.6875 c -6.04933,5.80782 -16.32157,13.78025 -23.4375,18.9375 3.47867,-0.62497 15.9379,4.02337 21.3125,5.625 1.29311,0.38535 2.56939,0.65227 3.84375,0.8125 l 6.375,5.21875 -1.875,-5.0625 c 10.254,-0.5704 19.14388,-7.12293 23.0625,-10.9375 6.62426,-6.44837 16.6542,-5.22154 24.90625,-1.84375 2.48958,3.16526 6.17692,8.2423 7.46875,9.5 l -2.875,-7.4375 1.09375,-0.625 c 3.65889,1.83186 4.22387,3.96248 6.1875,5.84375 6.91382,6.62387 8.95634,2.81739 2.5625,-4.78125 -5.2451,-6.23343 -25.09012,-14.41725 -31.875,-12.625 -3.11484,0.8228 -21.89857,12.14636 -23.84375,11.28125 -3.40265,-1.51332 0.31707,-3.61174 1.5625,-3.90625 3.91167,-0.925 -9.12891,-0.64058 -11,-0.25 -1.60832,0.33573 -5.63591,-6.97081 -3.46875,-9.75 z m -174.5,44.8125 c -12.80922,-0.14104 -25.51822,8.26727 -37.34375,3.78125 2.3107,2.28457 5.01199,4.40999 7.28125,5.625 5.00611,2.6804 7.04335,5.16548 7.5,9.15625 0.63746,5.5705 1.74928,5.82679 10.4375,2.25 2.96253,-1.21962 3.375,-0.13715 3.375,9.03125 0,6.18289 -3.39489,16.94022 -1.71875,19.15625 3.429,4.53355 4.14256,6.98764 0.53125,11.78125 -2.3191,3.07839 -2.06343,1.77875 -2.84375,2.71875 -11.23141,13.52971 -9.73907,15.41446 -19.84375,28.28125 -0.87572,1.11509 1.26801,-0.30754 3.40625,-1.15625 -4.44274,3.36578 -7.86964,12.2813 -4.3125,8.8125 0.18378,-0.17921 0.30247,-0.30874 0.46875,-0.46875 -2.56385,3.28552 -4.44369,8.61491 -2.25,6.03125 0.81479,-0.95965 1.36754,-1.55256 1.75,-1.875 -0.62308,1.68418 -1.1936,3.23088 -1.25,3.21875 -0.13444,-0.0289 -0.24016,-0.038 -0.3125,0 -3.43738,1.80621 -4.09472,5.50194 -3.125,4.28125 2.62987,-3.31052 2.78151,-2.49784 2.5,0.90625 -0.18375,2.22193 1.43058,-0.37819 1.9375,-4.5 0.0115,-0.0936 -0.0835,-0.18654 -0.1875,-0.28125 -0.0403,-0.0368 0.5625,-1.26018 1.21875,-2.6875 0.002,0.48401 -0.008,1.03282 -0.0312,1.8125 -0.12111,3.93105 2.66204,-1.59424 3.21875,-6 0.0168,0.31986 0.0428,0.62785 0.0625,1 0.26841,5.08707 4.06962,-1.91098 4.34375,-7.53125 0.10091,2.13037 -0.20967,4.33765 0.34375,3.15625 8.65636,-18.47894 10.46839,-15.05127 16.28125,-30.96875 0.38921,-1.06578 -0.10275,-1.26805 0.90625,-3.34375 1.05278,-2.16577 2.75231,-3.88676 3.25,-5.90625 0.74424,-3.01998 2.54006,-7.33743 4,-9.59375 2.1426,-3.31134 6.7771,-11.61889 5.09375,-22.15625 -0.70462,-4.41073 -0.6172,-21.9598 -0.6875,-24.1875 -1.32618,-0.22117 -2.67491,-0.32916 -4,-0.34375 z m 68.25,7.65625 c -6.10333,0.9912 -15.60872,0.8999 -21.9375,1.375 1.80728,1.35141 9.67633,11.19116 12.09375,13.9375 2.434,2.76516 8.17644,5.51284 12.75,7.28125 0,0 4.02004,9.46651 3.84375,7.3125 -0.31442,-3.84184 -0.59375,-6.6875 -0.59375,-6.6875 1.09171,0.33272 1.62591,0.71875 1.9375,0.71875 2.60076,0 11.22447,11.2378 13.5625,16.09375 l 3.15625,18.1875 c 0,0 -0.23375,-9.05684 0.625,-12.03125 1.70897,-5.91928 5.82928,10.61091 6,12.96875 0.66609,9.19923 4.38041,9.59798 5.1875,0.15625 0.43107,-5.0428 -11.63961,-29.98466 -15.28125,-34.3125 -2.70037,-3.2092 -5.22228,-7.2146 -5.0625,-8.25 0.27545,-1.78493 4.17909,-2.12657 6.5,-2.9375 1.90529,-0.66572 -11.3125,-0.5625 -11.3125,-0.5625 -2.91553,-1.15025 -6.21255,-2.23114 -7.1875,-2.78125 -2.06016,-1.16241 -5.38536,-9.35981 -4.28125,-10.46875 z"
           id="path4061" />
        <path
           style="fill:#808080;fill-opacity:1;stroke:none"
           d="m -304.35489,624.24532 c -1.04026,-0.0192 -2.01353,0.0369 -2.875,0.15625 -0.17576,0.0244 -0.3367,0.0629 -0.5,0.0937 l 0.0625,0.3125 c 0.40064,-0.0173 0.81653,-0.0392 1.25,-0.0312 15.60365,0.28755 49.59375,15.73465 49.59375,33.1875 0,12.8489 -7.57583,16.66789 -17.0625,21.75 l 0.75,0.1875 c 10.09655,-5.46816 18.34375,-9.03115 18.34375,-22.46875 0,-17.45285 -33.95853,-32.89948 -49.5625,-33.1875 z"
           id="rect3961"
           inkscape:connector-curvature="0"
           sodipodi:nodetypes="scccssccss" />
        <path
           style="fill:#000000;fill-opacity:1;stroke:none"
           d="m -271.29239,516.80782 c -21.47139,0 -38.875,22.08049 -38.875,49.3125 0,1.98208 0.69531,4.14164 1.96875,6.4375 -1.75245,5.40115 -2.71875,11.27634 -2.71875,17.40625 0,9.21957 0.97122,21.78411 3.125,34.53125 0.18307,-0.0356 0.36544,-0.0665 0.5625,-0.0937 13.78359,-1.90981 52.4375,14.41488 52.4375,33.03125 0,13.46562 -8.28094,17.01241 -18.40625,22.5 27.17063,6.90627 27.18084,3.0447 48.46875,3.6875 44.09017,-2.67526 54.49205,-30.03125 64.8125,-30.03125 21.47139,0 -42.5587,-115.50729 -57.6875,-123.375 -4.74092,-2.46552 -32.21611,-13.40625 -53.6875,-13.40625 z"
           id="path3844"
           inkscape:connector-curvature="0" />
        <path
           style="fill:url(#linearGradient4117);fill-opacity:1;stroke:none"
           d="m -53.63614,407.27657 c -285.72917,487.51229 -142.86458,243.75614 0,0 z m 0,0 c -23.85113,13.36942 -82.91227,26.20864 -122.875,77.21875 -16.92309,21.60133 -25.53374,31.46364 -36.9375,49.21875 20.06786,21.0167 73.39743,119.875 53.53125,119.875 -1.57098,0 -3.15046,0.63455 -4.84375,1.71875 43.04581,6.92091 83.80785,6.30724 98.71875,-0.40625 C 15.18712,618.32879 47.83316,583.17721 47.48886,540.83907 47.04192,485.88005 3.92294,429.84047 -53.60489,407.27657 c -0.01,2.6e-4 -0.0215,-2.7e-4 -0.0312,0 z"
           id="path3865"
           inkscape:connector-curvature="0"
           sodipodi:nodetypes="cccscscsscc" />
        <path
           sodipodi:nodetypes="sssss"
           inkscape:connector-curvature="0"
           id="path3830"
           d="m -195.33418,525.0162 c -6.18493,2.82163 -22.17711,4.99713 -16.91819,9.59736 7.08784,6.20004 15.39883,17.78795 22.8909,26.01169 0.69849,0.76671 10.66748,-4.07692 7.76748,-10.43366 -2.90001,-6.35675 -7.55524,-27.99702 -13.74019,-25.17539 z"
           style="fill:#ffffff;fill-opacity:1;stroke:none" />
        <path
           style="fill:#000000;fill-opacity:1;stroke:none"
           d="m -189.87801,483.35646 c -16.7554,20.93078 -29.67856,40.672 -42.04396,59.03231 l 13.35902,-0.47255 c 14.22453,-23.36054 22.69745,-32.71848 42.0517,-57.42305 39.97579,-51.02679 99.08242,-63.83755 122.9183,-77.2117 -19.98761,0.53102 -90.98137,19.48183 -136.28506,76.07499 z"
           id="path3857"
           inkscape:connector-curvature="0"
           sodipodi:nodetypes="sccscs" />
        <path
           style="fill:url(#linearGradient4119);fill-opacity:1;stroke:none"
           d="m -107.10489,396.93282 c -4.03808,0.1057 -8.10571,0.17067 -12.1875,0.53125 -83.60227,7.38528 -143.07902,61.64852 -165.4375,122.375 4.18581,-1.95486 8.71667,-3.03125 13.4375,-3.03125 17.54501,0 39.08587,7.29555 48.96875,11.3125 9.5911,-14.20701 19.94179,-29.14041 32.4375,-44.75 45.28162,-56.56559 136.25,-76.09375 136.25,-76.09375 0,0 -25.51696,-11.07538 -53.46875,-10.34375 z m 53.46875,10.34375 0.0364,-6e-4 -0.005,6e-4 -0.0312,0 z"
           id="path3073"
           inkscape:connector-curvature="0"
           sodipodi:nodetypes="sscscscsccccc" />
        <path
           style="fill:#b3b3b3;fill-opacity:1;stroke:none;filter:url(#filter3832)"
           d="m -186.30552,598.10369 c -14.68951,17.6602 12.4183,13.52204 0.54546,38.82647 -3.23785,6.90078 -33.12829,-9.72915 -39.2721,-9.72915 -12.28764,0 -40.88446,6.93796 -40.88446,-12.81558 0,-19.75354 41.25579,-85.64923 50.49658,-77.55022 8.95281,7.84663 39.29853,49.02494 29.11452,61.26848 z"
           id="path3876"
           inkscape:connector-curvature="0"
           sodipodi:nodetypes="ssssss" />
        <path
           style="fill:#ffffff;fill-opacity:0.81125823;stroke:none;filter:url(#filter3822)"
           d="m -220.41426,537.8164 c -16.90879,18.14274 -23.37813,29.90762 -23.37813,34.27267 0,9.16113 7.8517,16.5625 17.5625,16.5625 9.71079,0 28.49851,-5.27122 33.14648,-15.41087 0.38254,-0.83453 1.70153,-3.45017 1.09106,-6.18116 -8.47867,-14.17251 -14.25888,-22.94738 -19.62156,-29.43139 -1.12064,-2.51147 -4.60835,-2.5996 -8.80035,0.18825 z"
           id="path3882"
           inkscape:connector-curvature="0"
           sodipodi:nodetypes="csssccc" />
        <path
           style="fill:#ffffff;fill-opacity:1;stroke:none"
           d="m -247.26931,523.68921 c -1.8043,2.24291 -9.66145,5.23243 -25.51606,5.23243 -15.85462,0 -28.02348,19.38087 -28.02348,10.95184 0,-8.42904 11.02913,-21.18875 26.88375,-21.18875 15.85461,0 28.8698,2.25225 26.65579,5.00448 z"
           id="path3890"
           inkscape:connector-curvature="0"
           sodipodi:nodetypes="sssss" />
        <path
           style="fill:#ffffff;fill-opacity:1;stroke:none"
           d="m -223.73745,505.53482 c 0,6.79816 4.65841,22.25073 -1.70961,19.37554 -8.58263,-3.87511 -22.57479,-6.62676 -33.16635,-10.02969 -0.98746,-0.31726 -0.71845,-11.39738 6.26855,-11.39738 6.98701,0 28.60741,-4.74664 28.60741,2.05153 z"
           id="path3893"
           inkscape:connector-curvature="0"
           sodipodi:nodetypes="sssss" />
        <path
           style="fill:#000000;fill-opacity:1;stroke:none"
           d="m -167.85489,474.33907 c -2.96406,3.20819 -5.86053,6.58768 -8.65625,10.15625 -12.3636,15.78142 -20.27185,25.31663 -28.09375,36.21875 2.89012,0.9869 5.96707,1.67826 9.1875,2.0625 19.72467,2.35344 37.26583,-8.38157 39.1875,-24 1.14427,-9.30004 -3.50762,-18.23908 -11.625,-24.4375 z"
           id="path3911"
           inkscape:connector-curvature="0" />
        <path
           style="fill:#000000;fill-opacity:1;stroke:none"
           d="m -193.94864,465.90157 c -17.39846,0.0287 -31.97723,10.18955 -33.71875,24.34375 -1.23284,10.01989 4.28553,19.60478 13.59375,25.8125 7.29997,-10.53805 15.17679,-21.43135 24.1875,-32.6875 4.04572,-5.0539 8.28673,-9.81376 12.6875,-14.28125 -3.4734,-1.3896 -7.24866,-2.36633 -11.25,-2.84375 -1.84919,-0.22064 -3.70016,-0.34672 -5.5,-0.34375 z"
           id="path3903"
           inkscape:connector-curvature="0" />
        <path
           style="fill:#ffffff;fill-opacity:0.81125823;stroke:none;filter:url(#filter3826)"
           d="m -170.68865,489.17402 c -3.43906,-12.47614 -43.24493,43.67768 -41.26901,45.75515 5.05884,5.31883 12.15473,16.32361 20.82152,30.81615 5.48242,-17.90256 22.77062,-68.14354 20.44749,-76.5713 z"
           id="path3879"
           inkscape:connector-curvature="0"
           sodipodi:nodetypes="sscs" />
        <path
           style="fill:#000000;fill-opacity:1;stroke:none"
           d="m -31.49714,492.60085 c 10.09575,20.42322 9.08204,41.5263 -2.26419,47.13505 -11.34624,5.60876 -19.56151,1.45658 -33.58593,-16.34753 -14.09742,-17.89678 -7.11772,-38.25242 4.22851,-43.86117 11.34624,-5.60875 21.52585,-7.34957 31.62161,13.07365 z"
           id="path3933"
           inkscape:connector-curvature="0"
           sodipodi:nodetypes="sssss" />
        <path
           sodipodi:nodetypes="sssss"
           inkscape:connector-curvature="0"
           id="path3936"
           d="m -70.51402,602.16024 c 4.84802,17.49444 -1.58811,35.57124 -14.3755,40.37567 -12.7874,4.80444 -19.93578,1.2477 -29.38545,-14.00322 -9.49886,-15.3303 2.7112,-32.76685 15.4986,-37.57128 12.7874,-4.80443 23.41431,-6.2956 28.26235,11.19883 z"
           style="fill:#000000;fill-opacity:1;stroke:none" />
        <path
           style="fill:#000000;fill-opacity:1;stroke:none"
           d="m 34.52011,491.49532 c -3.74283,0.0697 -7.13035,1.98521 -8.84375,5.28125 -3.65525,7.03157 -1.70704,21.00454 4.34375,31.1875 6.05079,10.18298 9.85984,12.35822 15.65625,9.28125 0.58694,-0.31157 1.13438,-0.87827 1.625,-1.59375 -0.84281,-14.91663 -4.76126,-29.83643 -11.1875,-44.0625 -0.54012,-0.066 -1.06395,-0.10361 -1.59375,-0.0937 z"
           id="path3938"
           inkscape:connector-curvature="0" />
        <path
           style="fill:#000000;fill-opacity:1;stroke:none"
           d="m -164.88614,406.68282 c -16.60929,5.39307 -31.89153,12.76645 -45.65625,21.65625 0.60104,0.31933 1.1833,0.64357 1.8125,0.96875 20.23906,10.46003 38.88727,-0.26682 42.25,-12.46875 0.98395,-3.57033 1.67763,-6.9673 1.59375,-10.15625 z"
           id="path3946"
           inkscape:connector-curvature="0" />
        <path
           style="fill:#000000;fill-opacity:1;stroke:none"
           d="m -256.83911,657.95408 c 0,18.61638 -15.79075,18.23289 -30.46605,30.30309 -27.27522,2.71305 -28.93566,-62.00034 -21.96851,-63.33005 13.78359,-1.90981 52.43456,14.41059 52.43456,33.02696 z"
           id="path3955"
           inkscape:connector-curvature="0"
           sodipodi:nodetypes="sccs" />
        <path
           style="fill:#ffffff;fill-opacity:1;stroke:none"
           d="m -222.69864,632.18282 c -8.46062,0.0716 -13.1647,4.10452 -16.53125,7.90625 -5.99981,6.77539 16.88737,36.46189 13.9375,43.53125 0.19582,0.005 0.16111,-0.61162 0.36063,-0.60562 20.05662,-1.21698 33.13685,-7.53875 42.40625,-14.0625 -0.31349,-3.57896 -1.3084,-7.02353 -4.79813,-9.67563 -4.02617,-3.05978 -5.81514,-4.84345 -17.34375,-5.53125 -6.78577,-0.40484 -5.18869,-21.67125 -18.03125,-21.5625 z"
           id="rect3977"
           inkscape:connector-curvature="0"
           sodipodi:nodetypes="sscccsss" />
        <path
           style="fill:#ffffff;fill-opacity:1;stroke:none"
           d="m -308.80551,576.12032 c -1.10177,4.3883 -1.52218,8.83975 -1.52218,13.64718 0,4.48465 0.3331,9.96173 0.81703,15.66532 2.72551,0.59555 4.22126,0.49169 5.53077,-0.6875 3.77359,-3.39805 7.78025,-8.13282 7.78125,-16.59375 0.001,-7.36665 -6.55696,-9.90963 -12.60687,-12.03125 z"
           id="path3986"
           inkscape:connector-curvature="0"
           sodipodi:nodetypes="cscscc" />
        <path
           style="fill:#cccccc;fill-opacity:0.71854308;stroke:none;filter:url(#filter3887)"
           d="m -262.05967,652.53274 c -0.47029,4.1314 -7.99051,6.11008 -5.687,2.32008 4.42368,-7.27826 -14.60738,-12.97892 -20.01178,-17.17837 -3.86986,-3.00704 10.92265,2.64681 15.92066,4.67179 4.99801,2.02496 10.24841,6.05512 9.77812,10.18652 z"
           id="path3884"
           inkscape:connector-curvature="0"
           sodipodi:nodetypes="sssss" />
        <path
           style="fill:#ffffff;fill-opacity:1;stroke:none"
           d="m -263.8456,656.37551 c -0.24113,3.48301 -2.98527,6.64119 -7.5875,6.64119 -4.60224,0 -8.12006,-5.91915 -8.12006,-9.4105 0,-3.49135 4.58294,-2.16769 9.18518,-2.16769 4.60223,0 6.94843,-1.21714 6.52238,4.937 z"
           id="path3994"
           inkscape:connector-curvature="0"
           sodipodi:nodetypes="sssss" />
        <path
           style="fill:#ffffff;fill-opacity:1;stroke:none"
           d="m -312.47989,634.24532 c -0.28512,3.15857 -0.33412,6.91674 -0.125,10.96875 2.48637,-0.48264 4.85056,-1.77757 6.03125,-3.1875 2.24154,-2.67676 -2.1278,-4.60774 -5.65625,-7.5625 -0.0919,-0.077 -0.16138,-0.14258 -0.25,-0.21875 z"
           id="path3997"
           inkscape:connector-curvature="0" />
        <path
           sodipodi:type="arc"
           style="fill:#ffffff;fill-opacity:1;stroke:none;filter:url(#filter3880)"
           id="path3838"
           sodipodi:cx="-358.08435"
           sodipodi:cy="479.47354"
           sodipodi:rx="9.9532166"
           sodipodi:ry="9.9532166"
           d="m -348.13113,479.47354 c 0,5.49701 -4.45621,9.95322 -9.95322,9.95322 -5.49701,0 -9.95322,-4.45621 -9.95322,-9.95322 0,-5.49701 4.45621,-9.95322 9.95322,-9.95322 5.49701,0 9.95322,4.45621 9.95322,9.95322 z"
           transform="matrix(1.4866591,0,0,1.4866591,314.89759,-150.14109)" />
        <path
           sodipodi:type="arc"
           style="fill:#ffffff;fill-opacity:0.71854308;stroke:none;filter:url(#filter3872)"
           id="path3866"
           sodipodi:cx="-84.269608"
           sodipodi:cy="471.87842"
           sodipodi:rx="11.211836"
           sodipodi:ry="11.211836"
           d="m -73.057772,471.87842 c 0,6.19212 -5.01971,11.21183 -11.211836,11.21183 -6.192126,0 -11.211835,-5.01971 -11.211835,-11.21183 0,-6.19213 5.019709,-11.21184 11.211835,-11.21184 6.192126,0 11.211836,5.01971 11.211836,11.21184 z"
           transform="matrix(3.3991936,0,0,3.3991936,220.62437,-1133.936)" />
        <path
           style="fill:#ffffff;fill-opacity:1;stroke:none"
           d="m -305.65649,653.8509 c 0,0 -2.92635,2.5751 -5.60901,3.07061 0.19163,1.11912 0.46175,2.70068 0.69536,3.81323 4.04267,0.20811 9.17988,-1.14814 9.17988,-1.14814 0,0 0.53318,-2.07707 -1.07681,-4.11977 -1.77753,-2.25528 -3.18942,-1.61593 -3.18942,-1.61593 z"
           id="path3915"
           inkscape:connector-curvature="0"
           sodipodi:nodetypes="ccccsc" />
        <path
           style="fill:#000000;fill-opacity:1;stroke:none"
           d="m -333.4667,644.85855 c -2.72707,-0.67192 -6.34089,-1.09624 -10.31792,-1.39812 l -2.26279,-0.95854 0.77262,0.8331 c -2.11316,-0.13762 -4.2937,-0.23023 -6.50475,-0.29725 l -1.72116,-0.80679 0.14552,0.75476 c -2.24841,-0.0536 -4.49496,-0.0787 -6.66249,-0.0818 l -3.01145,-1.29812 0.22128,1.29522 c -8.35483,0.0549 -15.03916,0.39457 -15.03916,0.39457 l -2.37329,-2.41745 c 0,0 -4.08122,-2.63207 -7.85233,-3.59564 -1.71416,-0.43792 -3.09631,-0.26174 -4.2648,0.39528 -1.96795,1.10652 -1.62008,2.52898 -0.51356,4.49695 2.10239,3.73913 12.39754,3.47366 12.39754,3.47366 l 2.13298,-0.0839 c 0,0 9.84525,-0.10076 20.71331,0.31902 l -0.76086,0.6306 4.42369,-0.38319 -0.0346,-0.10719 c 1.60374,0.0794 3.2036,0.19531 4.78348,0.30176 l -0.62362,0.60415 1.86463,-0.51605 c 5.17388,0.37801 10.01231,0.8926 13.48722,1.6695 8.47913,1.89571 14.39832,10.27232 21.8427,12.15645 4.13343,1.04615 11.00927,-1.06936 11.00927,-1.06936 0,0 -0.006,-1.87975 -1.39644,-3.38221 -1.33626,-1.4434 -2.49187,-1.50432 -2.49187,-1.50432 0,0 -4.3658,3.29861 -7.18783,2.95144 -7.64382,-0.94037 -12.37502,-10.30688 -20.77498,-12.37654 z"
           id="rect3891"
           inkscape:connector-curvature="0"
           sodipodi:nodetypes="cccccccccccccsscccccccccsscscscc" />
        <path
           style="fill:#ffffff;fill-opacity:1;stroke:none"
           d="m -289.58278,662.00927 c 0,0 -1.4507,-0.61234 -3.69377,-0.47399 -3.33496,0.20569 -3.15907,1.07724 -3.15907,1.07724 0,0 3.49427,6.83195 7.06795,9.15757 5.35974,3.48793 13.22418,3.09511 19.89892,5.54241 1.18803,-0.67248 2.30712,-1.3815 3.375,-2.09375 -6.73854,-3.31453 -15.51173,-1.25515 -20.831,-5.75733 -2.17028,-1.83692 -2.65803,-7.45215 -2.65803,-7.45215 z"
           id="path3924"
           inkscape:connector-curvature="0"
           sodipodi:nodetypes="cscsccsc" />
        <path
           inkscape:connector-curvature="0"
           id="path3913"
           d="m -263.96515,676.36834 c 2.34434,1.54677 5.10868,3.91282 8.02959,6.62872 l 2.23974,1.01127 -1.13623,-0.002 c 1.53528,1.45853 3.08322,2.99709 4.6331,4.57543 l 1.76067,0.71648 -0.65307,0.40538 c 1.56536,1.61489 3.10855,3.24774 4.58194,4.83749 l 2.99723,1.33061 -1.10141,0.71656 c 5.63011,6.17317 9.91733,11.31276 9.91733,11.31276 l 3.38616,0.10225 c 0,0 4.70297,1.21092 7.97009,3.32649 1.48502,0.96169 2.29369,2.09633 2.60422,3.40041 0.52301,2.19628 -0.75776,2.90624 -2.95406,3.42926 -4.17297,0.99372 -10.96534,-6.74736 -10.96534,-6.74736 l -1.38606,-1.62342 c 0,0 -6.60799,-7.29887 -14.29245,-14.99561 l 0.0533,0.98677 -2.72095,-3.50889 0.10223,-0.0473 c -1.14674,-1.12394 -2.31772,-2.22021 -3.46817,-3.30824 l -0.0204,0.86802 -0.88653,-1.71965 c -3.78915,-3.5432 -7.45092,-6.74737 -10.37991,-8.77211 -7.14704,-4.94056 -17.3163,-3.60248 -23.75255,-7.79097 -3.57368,-2.32562 -6.68666,-8.81113 -6.68666,-8.81113 0,0 1.26095,-0.72523 2.8052,-0.77061 1.87839,-0.0552 3.42254,0.30974 3.42254,0.30974 0,0 0.54053,5.44507 2.71081,7.28199 5.8785,4.9755 15.96847,2.09308 23.18952,6.85745 z"
           style="fill:#000000;fill-opacity:1;stroke:none"
           sodipodi:nodetypes="ccccccccccccccscccccccccsscscscc" />
      </g>
    </g>
  </g>
</svg>
